<?xml version="1.0" encoding="utf-8"?>
<!-- Generator: Adobe Illustrator 20.0.0, SVG Export Plug-In . SVG Version: 6.00 Build 0)  -->
<svg version="1.1" id="Layer_1" xmlns="http://www.w3.org/2000/svg" xmlns:xlink="http://www.w3.org/1999/xlink" x="0px" y="0px"
	 viewBox="0 0 476.2 476.2" style="enable-background:new 0 0 476.2 476.2;" xml:space="preserve">
<style type="text/css">
	.st0{fill:#9F4F2A;}
	.st1{fill:#F59223;}
	.st2{fill:#FBF8F5;}
</style>
<path class="st0" d="M267.2,6.8C139.3-9.1,22.4,82,6.5,209.8c-15.9,127.9,75.2,244.8,203,260.7c127.9,15.9,244.8-75.2,260.7-203
	C486.1,139.7,395,22.7,267.2,6.8z"/>
<path class="st1" d="M249.6,36.1C138.6,29.9,43.5,115,37.4,226.1s78.9,206.1,190,212.3c45.2,2.5,87.8-10.1,122.8-33.5
	c1.3-0.8,2.5-1.7,3.7-2.6c9.5-6.6,18.3-14.1,26.5-22.2c1.6-1.6,3.2-3.2,4.8-4.9c18.5-19.7,33.2-43.1,42.6-69.2
	c0.4-1.1,0.8-2.2,1.2-3.3c2.2-6.3,4-12.7,5.6-19.3c0.4-1.7,0.8-3.4,1.1-5.2c2-9.7,3.3-19.7,3.9-30
	C445.8,137.3,360.7,42.3,249.6,36.1z"/>
<path class="st2" d="M250.8,15.5c-122.4-6.8-227.2,87-234,209.4s87,227.2,209.4,234c122.4,6.8,227.2-87,234-209.4
	C467,127.1,373.2,22.3,250.8,15.5z M227.4,438.3c-111.1-6.2-196.1-101.2-190-212.3s101.2-196.1,212.3-190
	c111.1,6.2,196.1,101.2,190,212.3C433.5,359.4,338.4,444.5,227.4,438.3z"/>
<g>
	<g>
		<path class="st2" d="M395.2,312.3c1.6,0.1,3.2,0.1,4.8,0.2c4.8,0.3,9.7,0.7,14.5,1.3c0.2,0,0.3,0.1,0.5,0.1c3,0.4,6,1,9,1.7
			c0,0,0,0,0,0c0.4,0.1,0.8,0.2,1.2,0.3c0.2,0,0.4,0.1,0.6,0.1c0.3,0,0.5-0.1,0.5-0.8c-0.1-1.7-0.1-3.4-0.1-5
			c-0.1-2.5-0.1-4.9-0.2-7.4c-0.1-4.5,0-9.1,0.5-13.6c0.8-7.9,1.8-15.8,2.1-23.7c0.1-2.6,0.1-5.3,0.1-7.9c-0.1-4.8-0.5-9.5-1.5-14.2
			c-0.1-0.6-0.2-1.2-0.4-1.7c-0.2-0.8-0.4-1.7-0.6-2.5c-0.2-0.9-0.4-1.8-0.6-2.7c-0.1,0-0.1-0.1-0.1-0.2c-0.7-0.6-1.3-1.2-1.1-2.3
			c-0.7-0.7-1.2-1.5-1.5-2.4c-0.3-0.8-0.7-1.6-1.5-2.1c-2,1.4-4.1,2.8-6.2,4c-0.7,0.4-1.4,0.8-2.2,1.1c-5.2,2.5-10.7,3.9-16.5,4.5
			c-4.9,0.5-9.7,0.4-14.6,0c-2.3-0.2-3.7,0.6-4.7,2.8c-0.7,1.8-1.4,3.6-2,5.4c-0.4,1-0.9,2-1.5,2.8c-1,1.4-2.3,1.8-3.9,1.2
			c-1.1-0.4-2.2-1-3.2-1.5c-6.6-3.4-16.3-1.2-20.7,4.8c-0.6,0.8-0.3,0.9,0.4,1c6.1,1.6,11.2,4.8,14.7,10.1c2.5,3.8,4,8.1,4.8,12.5
			c1.2,6.6,2.1,13.3,3.2,19.9c0.9-0.3,1.3-1,1.9-1.7c1-1.1,2.1-2.3,3.6-2.7v0c0.3-0.6,0.5-1.2,0.7-1.8c0.3-1,0.6-2,0.8-3.1
			c0.8-3.4,1.1-6.8,2-10.2c0.1-0.5,0.3-1,0.4-1.4c0.1-0.2,0.1-0.4,0.2-0.6c0.1-0.2,0.2-0.4,0.5-0.5v0l0,0c0.1,1.1,0.3,2.2,0.3,3.3
			c0.1,1.2,0.1,2.4,0,3.7c-0.3,3.1-0.8,6.3-1.3,9.4c-0.8,4.5-1.8,9-3.1,13.4c-0.3,0.9-0.6,1.8-0.9,2.7c-0.2,0.5-0.3,0.9-0.3,1.3
			c0,0,0,0,0,0.1c0,0.9,0.4,1.4,1.6,1.6c0.2,0,0.5,0.1,0.8,0.1c3.1,0.1,6.3,0.2,9.4,0.4C389,312.1,392.1,312.2,395.2,312.3z"/>
		<path class="st2" d="M402.1,315.2c-0.2,0-0.5,0-0.8,0c-4.8,0.1-9.6,0.1-14.4,0.1c-0.3,0-0.6,0-0.9,0c-1.1,0-1.7,0.1-2.1,0.5
			c-0.3,0.3-0.5,0.7-0.7,1.4c-0.1,0.2-0.1,0.4-0.2,0.7c-0.2,0.8-0.3,1.7-0.5,2.5c-0.3,1.7-0.6,3.3-0.9,5c-0.7,4.2-1.3,8.4-1.5,12.7
			c-0.1,1.4-0.2,2.7-0.2,4.1c0,0.3,0,0.6,0.1,0.9c0.1,0.5,0.2,1.1,0.3,1.6c0.3,1.1,0.7,2.2,1.1,3.3c0.3,1.1,0.6,2.2,0.9,3.4
			c0.1,0.3,0.1,0.6,0.2,0.8c0.5,1.5,1.6,2.3,3.1,2.7c0.3,0.1,0.7,0.2,1.1,0.2c0.2,0,0.5,0,0.7,0c0.1,0,0.2,0,0.4,0
			c0.4,0,0.8,0,1.3,0c0.2,0,0.5,0,0.7-0.1c0.7,0,1.6-0.2,2.5-0.4c0.3-0.1,0.6-0.1,0.9-0.2c0.5-0.1,1.1-0.2,1.6-0.4
			c3.4-1.2,5.3-3.7,5.8-7.6c0.3-2.2,0.1-4.4,0.1-6.6c0-2.8,0.1-5.5,0.3-8.3c0.2-1.8,0.4-3.6,0.7-5.4c0.4-2.7,1-5.4,1.8-8.1
			c0.3-1.1,0.4-1.9,0.1-2.3C403.3,315.4,402.8,315.2,402.1,315.2z"/>
		<path class="st2" d="M398.3,356.6c0,0-0.1,0.1-0.1,0.1c-0.7,0.6-1.5,1.1-2.2,1.6c-0.5,0.3-1,0.5-1.5,0.7c0,0,0,0,0,0
			c-3.1,1.2-6.4,0.8-10.1-1.6c-1.2,6.7-1.4,13.2-1.5,19.8c0,0.2,0,0.3,0,0.5c0.8-0.8,1.6-1.7,2.4-2.5c5.8-6.1,11.2-12.7,16.2-19.5
			c-0.1-0.7-0.2-1.3-0.4-2C400.1,354.8,399.2,355.8,398.3,356.6z"/>
		<path class="st2" d="M424,320.1c-0.5-0.2-1.1-0.4-1.6-0.6c-0.9-0.3-1.8-0.6-2.7-0.9c-3.6-1.1-7.3-1.9-10.9-2.7
			c-0.1,0-0.2,0-0.3-0.1c-0.3,0-0.6,0-1,0.1c-0.4,0.1-0.8,0.4-0.9,0.9c-0.2,0.5-0.3,1-0.5,1.4c-0.1,0.2-0.1,0.5-0.2,0.7
			c-0.3,1.2-0.4,2.5-0.2,3.8c1.5,0,3,0.4,4.5,0.2l0,0c0.1-0.1,0.3-0.1,0.4-0.2c0.2-0.1,0.4-0.1,0.6-0.2c0.2,0,0.3-0.1,0.5-0.1
			c2.6-0.4,5.3-0.5,7.9-0.6c0.6,0,1.2-0.1,1.7-0.1c0.3,0,0.6,0,0.9-0.1c0.9-0.1,1.8-0.2,2.9-0.5c0.3-0.1,0.7-0.2,1.1-0.3
			C425.5,320.6,424.7,320.4,424,320.1z"/>
		<path class="st2" d="M307,147.3c3.3,6.2,7.4,11.9,10.3,18.2c2.5,5.4,6.2,9.5,10.9,12.9c0.9,0.6,1.7,1.2,2.6,1.8
			c3.8,2.5,7.5,2,10.5-1.4c1.9-2.1,3.2-4.5,4.8-6.8c0.2-0.3,0.5-0.6,0.9-1.2c-0.2,4.4-1.7,7.8-4.6,10.7c-1.2,1.2-2.6,2.1-4,3
			c0.2,0.7,0.4,1.5,0.5,2.2c0.7,0.2,1,0.9,1,1.5c0.1,1.4,0.7,2.6,1.3,3.8c1.8,3.5,3.2,7.2,5.1,10.6c1.2,2.1,2.4,4,4.1,5.9
			c0.6-3.2,0.8-6.3,1-9.4c0.4-4.9,1.1-9.7,3.8-13.9c0.4-0.6,0.7-1.2,1.3-1.6c0.8,0.7,1,1.4,0.6,2.5c-2,5.5-2.6,11.3-3.1,17.1
			c-0.3,4.1-0.5,8.2-2,12.1c-1.4,3.6-3.4,6.8-6.4,9.3c-1.9,2.6-4.6,4.2-7.3,5.8c0.3,1.3,1.2,1.9,2.3,2.3c2.3,0.9,4.1,2.5,6.2,3.8
			c6.8,4,13.7,7.7,21.3,10.1c0.5,0.1,0.9,0.3,1.4,0.4c1.8,0.3,2.9-0.1,3.8-1.8c0.9-1.8,1.6-3.7,2.5-5.5c4-8.3,9.6-15.2,17.7-19.9
			c4.8-2.8,8.6-3.7,14.3-3.3c-10.6,4.1-20,9.7-26.5,19.5c2.2,0.4,4.2,0.6,6.2,0.7c5.8,0.3,11.5,0.1,17.2-1.3
			c4.4-1.1,8.5-2.8,12.4-5.1c0.8-0.5,0.6-0.8,0-1.2c-0.8-0.6-1.8-0.4-3-0.8c1.3-0.6,2.4-1.1,3.5-1.6c2.8-1.3,3.8-3.2,3.5-6.2
			c-0.1-0.8-0.3-1.6-0.6-2.4c-1.6-4.4-3.9-8.5-6.3-12.5c-4.5-7.5-9.2-15-14-22.4c-7.2-11-16.9-19-29.4-23.4c-4.6-1.6-7.3-5-9-9.3
			c-0.6-0.3-1.3-0.6-1.9-0.9c-0.3,0.8-0.6,1.7-0.9,2.5c-1.2,3.2-2.7,4.3-6.1,4.2c-0.6,0-1.1-0.1-1.8-0.1c0.9-0.6,1.6-1.2,2.4-1.7
			c3.8-2.9,5.1-6.8,4-11.4c-0.9-3.6-4.2-4.7-7-2.2c-0.4,0.3-0.6,0.9-1.2,0.9c-0.4-3.1,0.5-4.3,3.6-4.6c0.2,0,0.3-0.1,0.5,0
			c1.1,0.1,1.3-0.5,1-1.5c-2.8-10.6-9.3-17.4-20.2-19.6c-8.4-1.6-15.9-0.3-21.6,7.1c-4,5.2-7.4,10.5-7.4,17.4
			C305.6,142.7,306,145.1,307,147.3z"/>
		<path class="st2" d="M361.8,275.7c-1.7-5.5-4.6-10.4-9.1-14.2c-3.8-3.3-8.3-5.3-13.1-6.7c-1.1,0.3-2.3,0.3-3.1,1.4
			c-0.4,1.9-1,2.6-2.9,2.7c-3.3,0.2-5.9,1.9-8.2,4.1c-1.9,1.9-2.7,4.2-2.3,6.9c0.2,1.5,0.8,2.8,1.4,4.2c0.3,0.8,0.7,0.8,1.4,0.4
			c0.7-0.4,1.5-0.7,2.2-1c3.7-1.3,7.3-0.5,9.6,2.1c-1.7,0.3-3.4,0-5,0.1c-3.4,0.2-6.3,1.3-8.2,4.3c-0.9,1.4-1.5,2.9-1.9,4.5
			c-1.4,5.3-1.1,10.6-0.7,16c0.3,3.2,1.8,5.4,4.5,7c2.3,1.3,4.4,2.9,6,5c0.3,0.4,1.1,0.9,0.7,1.4c-0.5,0.6-1.4,0.4-2,0
			c-0.2-0.1-0.4-0.2-0.6-0.4c-3.1-2.1-6.2-4.3-9.3-6.4c-4.5-3.1-9-6.3-13.6-9.3c-1.7-1.2-3.6-2.1-5.7-2.5c-2.3-0.4-3.7,0.5-4.3,2.7
			c-0.3,1.1-0.5,2.2-0.6,3.2c-0.3,2.2,0.5,3.3,2.6,3.9c0.3,0.1,0.6,0.1,1,0.2c4.5,0.9,8.7,2.8,13,4.2c0.8,0.3,1,0.9,0.8,1.7
			c-0.2,0.8-0.8,0.9-1.5,0.8c-2-0.5-4.1-0.6-6.2-0.8c-2.4-0.3-4.9-0.5-7.4,0.3c1.3,2,2.7,3.8,4.2,5.5c2.3,2.4,5,3.9,8.3,4.5
			c1.7,0.3,3.4,0.1,5.1,0.4c1.9,0.4,3.8,0.8,5.7,1.2c0.7,0.1,1.1,0.6,1,1.3c-0.1,0.8-0.7,0.8-1.3,0.7c-0.5,0-1-0.2-1.4-0.3
			c-1.5-0.3-3-0.3-4.6,0.5c1.1,1.2,2.2,2.3,3.2,3.3c1.4,1.4,2.8,2.7,4.4,3.9c2.6,1.9,5.1,3.8,8.3,4.7c4,1.1,6.8-0.4,7.9-4.3
			c1.1-4,0.8-8.1,1-12.2c0.1-4.5-0.4-8.9-1.2-13.3c-0.5-2.9,0-5.5,1.5-8.1c2.5-4.4,4.1-9.2,4.9-14.3c0.1-0.7,0.3-1.4,1.2-1.5
			c2.3-0.2,4.6-0.7,7-0.7c1.7,0,3.4,0.1,5.1,0.8c-0.8,0.6-1.6,0.9-2.4,1.1c-1.4,0.5-2.8,0.8-4.1,1.5c-1.4,0.7-1.4,0.7-0.5,2
			c3.6,4.6,7.3,9.3,10.9,13.9c0.2,0.3,0.3,0.7,0.8,0.8c0.6-2.2,0.8-4.4,0.6-6.6C364.6,289.2,363.9,282.3,361.8,275.7z"/>
		<path class="st2" d="M267.3,233.1c0.8,1.3,1.9,1.9,3.4,1.7c1.2-0.1,2.4-0.3,3.5-0.5c2.6-0.4,5.1-0.7,7.6,0.4
			c0.7,0.3,1.6,0.5,1.6,1.4c0,0.8-0.9,1-1.6,1.2c0.5,1.1,1.4,1.9,2.1,2.8c0.1,0,0.2,0,0.2,0.1c0.3,0,0.6,0,1,0.1
			c5.5,1,11,1.9,16.5,2.9c8,1.3,16,2.3,24.1,2.8c6.7,0.4,13.5,0.5,20.3,0.1c3.2-0.2,6.5-0.5,9.8-1.1c-0.4-0.2-0.6-0.4-0.8-0.6
			c-3.3-1.9-6.4-4-9.5-6.1c-2.3-1.5-3.9-3.7-5.8-5.6c-0.6-0.6-1.1-0.8-1.9-0.8c-8.7,0.7-17.4,1.5-26.1,2.1c-7,0.5-13.8-0.3-20.1-3.4
			c-4.5-2.2-9.2-3.8-14.2-4.7c-2.6-0.5-5.2-1.1-7.9-1.2c-0.7,0-1.3-0.1-1.1,1c0.2,0.8-0.4,1.3-0.9,1.7c-0.5,0.4-1,0.7-1.5,1
			c-0.4,0.3-0.7,0.6-0.4,1.2C266.2,230.9,266.7,232,267.3,233.1z"/>
		<path class="st2" d="M200.4,333.1c-22.1,1.5-37.9,20.5-36.5,41.5c1.5,22.1,21.1,38,42.2,36.1c21.2-1.5,37-20.3,35.5-41.4
			C240.1,347.8,221.7,331.7,200.4,333.1z"/>
		<path class="st2" d="M218,333.1c2.9,1.6,5.3,1.1,7.8-0.7c11.5-8.1,23.9-14.5,37.3-18.6c6.1-1.9,12.3-3.2,18.6-4
			c3.2-0.4,6.5-0.8,9.8-1c3.4-0.2,6.8-0.3,10.4-0.2c-0.9-0.6-1.7-0.8-2.4-1c-8.3-2.6-16.9-2.9-25.5-2.3c-10.8,0.7-21.3,2.8-31.6,6
			c-10.4,3.3-20.3,7.6-29.4,13.7c-2.3,1.5-4.5,3.1-6.6,5.1c0.6,0.1,0.9,0.2,1.3,0.3C211.2,331.1,214.9,331.3,218,333.1z"/>
		<path class="st2" d="M296.8,323.6c-9.7,0.7-19.1,2.9-28.3,6c-10.6,3.5-20.6,8.5-29.8,15c-2.4,1.7-2.5,2.3-0.8,4.7
			c1.3,1.8,2.3,3.7,3.2,5.8c1.1,2.5,1.8,5.1,2.8,7.8c18.2-16,36.8-31,60-39.2C301.5,323.4,299.1,323.4,296.8,323.6z"/>
	</g>
	<g>
		<path class="st0" d="M312.6,122.9c5.6-7.3,13.2-8.7,21.6-7.1c10.9,2.1,17.4,9,20.2,19.6c0.3,1,0.1,1.5-1,1.5c-0.2,0-0.3,0-0.5,0
			c-3,0.3-4,1.6-3.6,4.6c0.6-0.1,0.8-0.6,1.2-0.9c2.8-2.4,6.1-1.4,7,2.2c1.1,4.6-0.2,8.5-4,11.4c-0.7,0.6-1.5,1.1-2.4,1.7
			c0.7,0.1,1.3,0.1,1.8,0.1c3.4,0,4.9-1,6.1-4.2c0.3-0.8,0.6-1.7,0.9-2.5c-0.1-0.8,0-1.6-0.1-2.4c0-1.8,0.3-3.6-0.3-5.4
			c-0.4-1.3-1.4-2.2-1.8-3.5c-1.3-4.2-1.9-8.5-3.3-12.7c-0.3-0.5-0.5-1.1-0.8-1.6c-2.7-5.7-6.9-9.2-13.3-9.9
			c-0.8-0.1-1.7-0.2-2.5-0.5c-5.5-2.3-11.1-2-16.5,0.3c-7.8,3.3-13.3,9.1-17.1,16.6c-0.2,0.7-0.3,1.4-0.5,2
			c-0.6,2.8-0.3,5.5,1.4,7.9C305.3,133.5,308.7,128.1,312.6,122.9z"/>
		<path class="st0" d="M366,278.3c-0.8-4.5-2.3-8.7-4.8-12.5c-3.5-5.4-8.6-8.5-14.7-10.1c-0.7-0.2-1-0.3-0.4-1
			c4.4-6,14.1-8.3,20.7-4.8c1.1,0.5,2.1,1.1,3.2,1.5c1.6,0.6,2.9,0.2,3.9-1.2c0.7-0.9,1.1-1.8,1.5-2.8c0.7-1.8,1.3-3.6,2-5.4
			c0.9-2.2,2.3-3,4.7-2.8c4.9,0.4,9.7,0.5,14.6,0c5.8-0.6,11.3-2,16.5-4.5c0.7-0.4,1.5-0.7,2.2-1.1c2.1-1.2,4.1-2.6,6.2-4v0
			c3.8-1.9,4.6-4.4,3.3-8.6c-2.3-7.2-5.9-13.7-9.9-20c-4.6-7.1-9.3-14.2-14-21.3c-2.5-3.8-5.5-7.4-8.9-10.4
			c-5.8-5.2-12.3-9.3-19.4-12.3c-2.7-1.1-5.3-2.3-6.9-4.9c-0.9-1.5-2.2-2-3.8-1.7c1.7,4.3,4.4,7.7,9,9.3
			C383.4,164,393,172,400.3,183c4.8,7.4,9.4,14.9,14,22.4c2.4,4,4.7,8,6.3,12.5c0.3,0.8,0.5,1.6,0.6,2.4c0.3,3-0.7,4.9-3.5,6.2
			c-1.1,0.5-2.2,1-3.5,1.6c1.1,0.4,2.2,0.3,3,0.8c0.5,0.4,0.8,0.7,0,1.2c-3.9,2.3-8,4-12.4,5.1c-5.7,1.4-11.4,1.7-17.2,1.3
			c-2-0.1-4.1-0.2-6.2-0.7c6.5-9.8,15.9-15.4,26.5-19.5c-5.7-0.4-9.5,0.5-14.3,3.3c-8.1,4.7-13.7,11.6-17.7,19.9
			c-0.9,1.8-1.6,3.7-2.5,5.5c-0.8,1.7-2,2.1-3.8,1.8c-0.5-0.1-1-0.2-1.4-0.4c-7.6-2.4-14.5-6.1-21.3-10.1c-2.1-1.2-3.9-2.9-6.2-3.8
			c-1.2-0.5-2.1-1-2.3-2.3c-0.2,0-0.4,0-0.6,0c-8.9-0.7-17.8-0.8-26.7,0.2c-2.4,0.3-4.7,0.4-7.1,0.3c-6-0.4-11.5-2.2-16.8-5
			c-6.7-3.5-13.8-5.1-21.4-4c-0.9,0.1-1.7,0.4-2.5,0.7c-0.6,0.3-1.1,0.8-0.6,1.6c1.1,1.7,0.8,3.3-0.4,4.7c-0.5,0.6-0.9,1.1-1.2,1.9
			c-0.2,0.8-0.2,1.4,0.6,1.9c1.2,0.8,2.3,1.8,3.4,2.9c2.1,2.1,4.6,3.5,7.7,2.8c3-0.7,6-0.7,9-1c0.7-0.2,1.6-0.4,1.6-1.2
			c0-0.8-0.9-1.1-1.6-1.4c-2.5-1.1-5.1-0.8-7.6-0.4c-1.2,0.2-2.3,0.4-3.5,0.5c-1.5,0.1-2.7-0.5-3.4-1.7c-0.6-1.1-1.2-2.2-1.7-3.4
			c-0.3-0.5,0-0.9,0.4-1.2c0.5-0.4,1-0.7,1.5-1c0.6-0.4,1.1-1,0.9-1.7c-0.3-1.1,0.4-1,1.1-1c2.7,0.1,5.3,0.7,7.9,1.2
			c4.9,1,9.6,2.5,14.2,4.7c6.3,3.1,13.1,3.9,20.1,3.4c8.7-0.6,17.4-1.4,26.1-2.1c0.8-0.1,1.3,0.2,1.9,0.8c1.9,1.9,3.6,4.1,5.8,5.6
			c3.1,2.1,6.2,4.2,9.5,6.1c0.2,0.1,0.5,0.3,0.8,0.6c-3.4,0.6-6.6,0.9-9.8,1.1c-6.8,0.4-13.5,0.4-20.3-0.1
			c-8.1-0.5-16.1-1.5-24.1-2.8c-5.5-0.9-11-1.9-16.5-2.9c-0.3-0.1-0.6,0-1-0.1c0-0.2-0.1-0.1-0.2-0.1c0.1,0.1,0.1,0.1,0.2,0.2
			c0,0.3,0.2,0.5,0.4,0.7c1.7,2.1,4.1,2.9,6.6,3.4c4.6,0.8,9.2,1.5,13.8,2.4c11.2,2.2,22.5,3,33.9,2.9c2,0,3.9,0.1,6.2,0.1
			c-0.7,0.6-1.3,1-1.8,1.5c-1.3,1.1-2.9,1.8-3.6,3.5c4.8,1.4,9.3,3.4,13.1,6.7c4.4,3.8,7.3,8.7,9.1,14.2c2.1,6.6,2.7,13.5,3.3,20.4
			c0.2,2.2,0,4.4-0.6,6.6c-0.4-0.1-0.6-0.5-0.8-0.8c-3.6-4.6-7.3-9.3-10.9-13.9c-1-1.2-0.9-1.2,0.5-2c1.3-0.7,2.8-1,4.1-1.5
			c0.8-0.3,1.6-0.5,2.4-1.1c-1.7-0.8-3.4-0.8-5.1-0.8c-2.3,0-4.6,0.5-7,0.7c-0.9,0.1-1.1,0.8-1.2,1.5c-0.8,5.1-2.4,9.9-4.9,14.3
			c-1.5,2.6-2,5.3-1.5,8.1c0.7,4.4,1.3,8.8,1.2,13.3c-0.1,4.1,0.2,8.2-1,12.2c-1.1,4-4,5.5-7.9,4.3c-3.1-0.9-5.7-2.8-8.3-4.7
			c-1.6-1.2-3-2.5-4.4-3.9c-1.1-1.1-2.1-2.2-3.2-3.3c1.5-0.8,3.1-0.7,4.6-0.5c0.5,0.1,1,0.2,1.4,0.3c0.6,0,1.2,0.1,1.3-0.7
			c0.1-0.7-0.2-1.2-1-1.3c-1.9-0.4-3.8-0.8-5.7-1.2c-1.7-0.3-3.4-0.1-5.1-0.4c-3.3-0.5-6-2.1-8.3-4.5c-1.6-1.7-2.9-3.5-4.2-5.5
			c2.5-0.8,5-0.6,7.4-0.3c2.1,0.2,4.1,0.3,6.2,0.8c0.6,0.2,1.3,0,1.5-0.8c0.2-0.8,0-1.4-0.8-1.7c-4.3-1.4-8.5-3.3-13-4.2
			c-0.3-0.1-0.6-0.1-1-0.2c-2.1-0.6-2.9-1.7-2.6-3.9c0.1-1.1,0.4-2.2,0.6-3.2c0.5-2.3,1.9-3.2,4.3-2.7c2.1,0.4,4,1.3,5.7,2.5
			c4.6,3.1,9.1,6.2,13.6,9.3c3.1,2.1,6.2,4.3,9.3,6.4c0.2,0.1,0.4,0.3,0.6,0.4c0.7,0.3,1.6,0.6,2,0c0.4-0.5-0.4-1-0.7-1.4
			c-1.7-2.1-3.8-3.6-6-5c-2.7-1.6-4.3-3.7-4.5-7c-0.4-5.4-0.7-10.7,0.7-16c0.4-1.6,1-3.1,1.9-4.5c1.9-3,4.8-4.1,8.2-4.3
			c1.7-0.1,3.3,0.2,5-0.1c-2.3-2.6-5.9-3.4-9.6-2.1c-0.8,0.3-1.5,0.6-2.2,1c-0.7,0.4-1.1,0.4-1.4-0.4c-0.6-1.3-1.2-2.7-1.4-4.2
			c-0.4-2.7,0.4-5.1,2.3-6.9c2.3-2.2,4.8-3.9,8.2-4.1c1.9-0.1,2.5-0.7,2.9-2.7c-1.6,0.1-3.2,0.2-4.8,0.4c-4.7,0.6-8.6,2.5-11.2,6.6
			c-1.8,2.8-2.8,5.7-0.8,8.8c0.8,1.3,1.8,2.3,3,3.2c1.5,1,1.6,1.8,0.5,3.2c-1.3,1.5-2.4,3.2-3.2,5.1c-1.6,3.6-1.7,7.4-1.2,11.2
			c0.3,2.4,0.4,4.9,0.6,7.3c-0.7,0-1-0.4-1.3-0.7c-2.1-1.7-4.2-3.5-6.4-5.2c-2.1-1.7-4.3-3.2-6.9-4.2c-4.3-1.6-7.6,0-9.1,4.3
			c-0.5,1.4-0.8,2.8-1.1,4.3c-0.6,2.8-1.5,3.4-4.3,3c-4-0.5-8-0.7-12-0.6c-4.1,0.1-8.2,0.3-12.2,0.9c-3.3,0.5-6.6,1-9.9,1.7
			c-7,1.5-13.8,3.4-20.5,5.8c-11,3.9-21.3,9.3-30.3,16.7c-2,1.6-4.1,2.5-6.6,2.6c-3,0.1-5.9,0.7-8.8,1.6
			c-10.9,3.6-19,10.6-24.2,20.7c-5.9,11.6-6.5,23.6-1.3,35.7c4,9.4,10.9,16.3,20,20.9c8.3,4.1,17,5.6,26.1,3.8
			c6.1-1.2,11.7-3.6,16.8-7.2c6-4.2,10.5-9.7,13.5-16.4c3.2-7.1,4.2-14.6,4-22.3c0-1.6,0.4-3,1.6-4.1c11.3-10,23.1-19.5,36.2-27.2
			c6.2-3.6,12.5-7,19.4-9.2c6.1-2,11.7-0.9,15.9,4.2c4.6,5.5,10.4,8.5,17.3,9.6c3.4,0.5,5.4-0.6,6.8-3.7c1-2.2,1.7-4.5,2.3-6.9
			c1-4,1.4-8,0-12.1c-1-2.9-1.2-5.9-0.8-9c0.3-3.1,1-6.1,1.8-9.2c1.1-4.2,2.1-8.4,2.3-12.9c0.9,1,1.6,1.9,2.3,2.7
			c4.2,4.9,8.8,9.5,12.7,14.7c0.3,0.4,0.7,0.8,1.1,1.1c1.7,1.5,4.9,0.8,5.1-2.1c0.1-1.7-0.1-3.5,0.3-5.3
			C368.2,291.6,367.2,284.9,366,278.3z M301.8,320.5c0.2,0.4,0.6,0.9-0.3,0.8c-4.5,0.2-8.9,0.7-13.3,1.4c-4.9,0.8-9.7,1.8-14.5,3.2
			c-6.7,1.9-13.3,4.4-19.6,7.4c-6,2.8-11.6,6.1-16.9,10c-1.9,1.4-3.4,1.1-4.8-0.8c-1.3-1.7-2.8-3.1-4.7-4.1
			c-3.1-1.7-3.2-2.9-0.2-4.9c7.4-5.1,15.1-9.5,23.3-13c7.3-3.2,14.9-5.7,22.7-7.3c3.3-0.7,6.7-1.2,10-1.7c3.2-0.4,6.4-0.7,9.7-0.8
			c1.6,0,2.7,0.5,3.6,1.9C298.4,315.3,300.1,317.9,301.8,320.5z M213,324.9c9.1-6.1,19-10.5,29.4-13.7c10.3-3.2,20.8-5.4,31.6-6
			c8.6-0.5,17.2-0.3,25.5,2.3c0.8,0.2,1.6,0.4,2.4,1c-3.6-0.1-7,0-10.4,0.2c-3.3,0.2-6.5,0.6-9.8,1c-6.3,0.8-12.5,2.1-18.6,4
			c-13.5,4.1-25.9,10.5-37.3,18.6c-2.6,1.8-4.9,2.3-7.8,0.7c-3.2-1.7-6.9-2-10.4-2.7c-0.4-0.1-0.8-0.2-1.3-0.3
			C208.5,328.1,210.7,326.5,213,324.9z M206.2,410.7c-21.1,2-40.7-13.9-42.2-36.1c-1.4-21.1,14.4-40.1,36.5-41.5
			c21.3-1.4,39.7,14.7,41.2,36.2C243.2,390.5,227.4,409.2,206.2,410.7z M243.9,362.8c-0.9-2.7-1.7-5.3-2.8-7.8c-0.9-2-1.9-4-3.2-5.8
			c-1.7-2.3-1.6-3,0.8-4.7c9.2-6.5,19.1-11.4,29.8-15c9.2-3.1,18.6-5.3,28.3-6c2.4-0.2,4.7-0.2,7.1,0
			C280.7,331.8,262.1,346.8,243.9,362.8z"/>
		<path class="st0" d="M345.6,224.5c3-2.5,5-5.7,6.4-9.3c1.5-3.9,1.7-8,2-12.1c0.5-5.8,1-11.6,3.1-17.1c0.4-1.1,0.2-1.8-0.6-2.5
			c-0.6,0.4-0.9,1-1.3,1.6c-2.7,4.2-3.4,9.1-3.8,13.9c-0.3,3.1-0.4,6.2-1,9.4c-1.7-1.9-3-3.8-4.1-5.9c-1.9-3.4-3.3-7.1-5.1-10.6
			c-0.6-1.2-1.2-2.4-1.3-3.8c0-0.7-0.3-1.3-1-1.5c0.1,0.9-0.1,1.9,0.5,2.6c0.5,0.7,0.6,1.5,0.6,2.3c0.3,5,1.7,9.6,4.5,13.8
			c0.9,1.3,1.7,2.6,2.4,4c2.3,4.6,2.3,9-0.9,13.1C345.6,223.2,345.5,223.8,345.6,224.5z"/>
		<path class="st0" d="M312.5,161.9c0.9,3.3,2.6,6.2,4.6,8.8c2.6,3.3,5.7,6.1,8.5,9.1c3.5,3.7,7.5,5.6,12.6,4.6c1.4-1,2.8-1.9,4-3
			c3-2.8,4.4-6.3,4.6-10.7c-0.4,0.6-0.7,0.9-0.9,1.2c-1.6,2.3-3,4.7-4.8,6.8c-3.1,3.4-6.7,3.9-10.5,1.4c-0.9-0.6-1.8-1.2-2.6-1.8
			c-4.6-3.4-8.4-7.5-10.9-12.9c-2.9-6.3-7-12.1-10.3-18.2c-0.1,2.4,0.7,4.7,1.7,6.8C310,156.7,311.7,159.1,312.5,161.9z"/>
		<path class="st0" d="M425.6,236.3c-0.1-0.9-0.2-1.8-1.1-2.3C424.3,235.1,424.9,235.8,425.6,236.3z"/>
		<path class="st0" d="M319.6,139.8c2-2.6,2.6-5.4,1.7-8.7c-5.1,8.2-6.5,9.5-14.8,12.9C311.7,144.4,316.3,144,319.6,139.8z"/>
		<path class="st0" d="M330.9,140.2c2.4,1,5,1.9,7.3,3.1c0.9,0.5,1.8,1,2.7,1.7c0.4,0.3,0.8,0.7,1.3,1c0,0.1,0.1,0.2,0.1,0.4
			c0,0,0.1,0,0.1-0.1c0-0.2,0-0.3-0.2-0.3c-0.7-1.8-2-3.1-3.3-4.3c-2.9-2.6-6.4-4.1-10-5.5c-1.9-0.7-3.8-1.4-6-2.2
			C324.9,137.1,327.8,138.9,330.9,140.2z"/>
		<path class="st0" d="M417.6,322c-2,0.1-4,0.2-5.9,0.5c-0.2,0-0.3,0.1-0.5,0.1c-0.2,0-0.4,0.1-0.6,0.2c-0.1,0-0.3,0.1-0.4,0.2
			c3.3,0.7,6.6,1.2,10,1.4c0.4-0.9,0.8-1.7,1.2-2.6v0c-0.6,0-1.2,0.1-1.7,0.1C418.9,322,418.3,322,417.6,322z"/>
		<path class="st0" d="M425.7,236.5c0.2,0.9,0.4,1.8,0.6,2.7c0.2,0.8,0.4,1.7,0.6,2.5c0.1,0.6,0.3,1.2,0.4,1.7
			c0.9,4.7,1.3,9.4,1.5,14.2c0.1,2.7,0,5.3-0.1,7.9c-0.3,7.9-1.3,15.8-2.1,23.7c-0.5,4.5-0.5,9.1-0.5,13.6c0,2.5,0.1,4.9,0.2,7.4
			c0.5-1.4,1.1-2.8,1.6-4.2c0.3-0.8,0.6-1.5,0.8-2.3c0-1.4,0-2.8,0.1-4.1c0.2-5.1,0.7-10.3,1.4-15.3c0.9-6.7,2-13.3,2.7-20
			C434,254.1,431.9,244.8,425.7,236.5z"/>
		<path class="st0" d="M415,313.9c-0.2,0-0.3-0.1-0.5-0.1c-4.8-0.7-9.6-1.1-14.5-1.3c-1.6-0.1-3.2-0.2-4.8-0.2
			c-3.1-0.1-6.3-0.2-9.4-0.4c-3.1-0.1-6.3-0.2-9.4-0.4c-0.3,0-0.5,0-0.8-0.1c-0.3,0-0.5-0.1-0.7-0.2c-0.4-0.2-0.7-0.4-0.8-0.8
			c-0.1-0.2-0.1-0.4-0.1-0.6c0,0,0,0,0-0.1c0-0.4,0.1-0.8,0.3-1.3c0.3-0.9,0.6-1.8,0.9-2.7c1.3-4.4,2.4-8.9,3.1-13.4
			c0.5-3.1,1-6.2,1.3-9.4c0.1-1.2,0.1-2.4,0-3.7c-0.1-1.1-0.2-2.2-0.3-3.3v0c-0.2,0.1-0.4,0.3-0.5,0.5c-0.1,0.2-0.1,0.4-0.2,0.6
			c-0.2,0.5-0.3,0.9-0.4,1.4c-0.9,3.3-1.3,6.8-2,10.2c-0.2,1-0.5,2.1-0.8,3.1c-0.2,0.6-0.4,1.2-0.7,1.8v0
			c-0.6,6.1-1.8,12.1-5.3,17.3c-0.9,1.4-0.7,1.9,0.8,2.4c2.2,0.7,4.5,0.9,6.7,1.3c2.4,0.4,2.9,1.2,2.7,3.5c0,0.2-0.1,0.4-0.1,0.6
			c-0.8,4.2-1.7,8.3-2.1,12.6c-0.4,3.7-0.7,7.3-0.9,11c-0.1,1.4,0.2,2.9,0.8,4.2c2.4,4.9,3.3,10.1,3.4,15.5
			c0.1,4.8-0.4,9.6-0.6,14.4c-0.1,1.4-0.1,2.7-0.2,4.1c0.2-0.2,0.4-0.3,0.5-0.5c0.8-0.8,1.5-1.6,2.3-2.4v0c0-0.2,0-0.3,0-0.5
			c0-1.6,0-3.3,0.1-4.9c0.1-4.1,0.4-8.2,1-12.4c0.1-0.8,0.3-1.7,0.4-2.5c3.8,2.4,7.1,2.8,10.1,1.6c0,0,0,0,0,0
			c0.5-0.2,1-0.5,1.5-0.7c0.8-0.4,1.5-0.9,2.2-1.6c0,0,0.1-0.1,0.1-0.1c0.9-0.8,1.9-1.8,2.7-2.8l0,0c0.1,0.7,0.3,1.3,0.4,2
			c0.6-0.9,1.2-1.7,1.9-2.6c-0.5-3.6-0.7-7.2-0.7-10.8c0.1-5.8,0.9-11.5,2.4-17.2c0.2-0.8,0.5-1.5,0.7-2.3c-0.2-1.3-0.1-2.6,0.2-3.8
			c0.1-0.2,0.1-0.5,0.2-0.7c0.1-0.5,0.3-1,0.5-1.4c0.2-0.5,0.5-0.8,0.9-0.9c0.3-0.1,0.6-0.1,1-0.1c0.1,0,0.2,0,0.3,0.1
			c3.6,0.8,7.3,1.5,10.9,2.7c0.9,0.3,1.8,0.6,2.7,0.9c0.6-1.3,1.1-2.6,1.7-3.9c0,0,0,0,0,0C421.1,314.9,418.1,314.4,415,313.9z
			 M403.5,318c-0.8,2.7-1.3,5.4-1.8,8.1c-0.3,1.8-0.5,3.6-0.7,5.4c-0.2,2.7-0.4,5.5-0.3,8.3c0,2.2,0.2,4.4-0.1,6.6
			c-0.5,3.9-2.4,6.4-5.8,7.6c-0.5,0.2-1,0.3-1.6,0.4c-0.3,0.1-0.6,0.1-0.9,0.2c-0.9,0.2-1.7,0.4-2.5,0.4c-0.3,0-0.5,0-0.7,0.1
			c-0.5,0-0.9,0-1.3,0c-0.1,0-0.2,0-0.4,0c-0.2,0-0.5,0-0.7,0c-0.4,0-0.8-0.1-1.1-0.2c-1.5-0.4-2.6-1.2-3.1-2.7
			c-0.1-0.3-0.2-0.5-0.2-0.8c-0.2-1.2-0.5-2.3-0.9-3.4c-0.3-1.1-0.7-2.2-1.1-3.3c-0.2-0.5-0.3-1.1-0.3-1.6c0-0.3,0-0.6-0.1-0.9
			c0-1.4,0.1-2.7,0.2-4.1c0.2-4.3,0.7-8.5,1.5-12.7c0.3-1.7,0.6-3.4,0.9-5c0.2-0.8,0.3-1.7,0.5-2.5c0.1-0.3,0.1-0.5,0.2-0.7
			c0.2-0.6,0.4-1.1,0.7-1.4c0.4-0.4,1.1-0.5,2.1-0.5c0.3,0,0.6,0,0.9,0c4.8,0,9.6,0,14.4-0.1c0.3,0,0.6,0,0.8,0c0.2,0,0.3,0,0.5,0.1
			c0.3,0.1,0.5,0.1,0.7,0.3c0.1,0.1,0.2,0.1,0.2,0.2C403.8,316.2,403.8,316.9,403.5,318z"/>
		<path class="st0" d="M372.2,413L372.2,413C372.2,413,372.2,413,372.2,413C372.2,413,372.2,413,372.2,413z"/>
		<path class="st0" d="M372.2,413L372.2,413c0.4,0.3,0.8,0.1,1.1,0.1C372.9,413.2,372.5,413.4,372.2,413z"/>
	</g>
</g>
<g>
	<path class="st2" d="M86.5,98c0.6-0.8,1.6-1.6,2.9-2.3c1.3-0.7,3.2-1.4,5.5-2c0.3,0,0.6-0.1,1-0.1c0.4-0.1,0.6-0.1,0.8-0.1
		c0.3,0,1-0.1,2.2-0.1c1.1,0,2.3-0.1,3.5-0.1c1.4-0.1,2.5-0.2,3.2-0.2c0.8,0,1.3,0.1,1.7,0.3s0.7,0.6,0.8,1.1
		c0.1,0.5,0.3,1.2,0.4,2.1c0.2,0.7,0.4,1.4,0.4,2.1c0,0.7,0.1,1.1,0.1,1.2c-0.1,1.2-1.3,1.8-3.7,1.8c-0.8,0-1.8,0.1-3,0.2
		c-1.2,0.1-2.4,0.2-3.6,0.4c-1.1,0.1-2.2,0.3-3,0.4c-0.9,0.1-1.3,0.2-1.4,0.3c-0.1,0.2-0.2,0.4-0.2,0.6c0,0.2,0.2,0.6,0.4,1.2
		c0.1,0.4,0.2,1.3,0.5,2.5c0.3,1.2,0.5,2.6,0.8,4.2c0.3,2.1,0.5,3.4,0.6,4.1c0.1,0.6,0.3,0.9,0.4,0.9c3-0.9,5.5-1.5,7.5-1.8
		c2-0.3,3.3-0.4,4-0.2c0.5,0.2,0.8,0.6,1,1.1c0.2,0.5,0.4,1.6,0.6,3.2c0.2,1.2,0.3,2,0.3,2.3c0,0.3-0.1,0.7-0.4,1
		c-0.2,0.2-0.4,0.4-0.6,0.5c-0.2,0.1-0.4,0.2-0.8,0.4c-0.4,0.1-1,0.3-1.7,0.4c-0.8,0.1-1.8,0.4-3.2,0.6c-1.5,0.2-2.8,0.5-3.9,0.8
		c-1.1,0.3-1.8,0.5-1.9,0.7c0.2,3.1,0.4,5.7,0.5,7.8c0.3,1.9,0.5,3.7,0.7,5.2c0.2,1.5,0.3,3,0.4,4.3c0.1,1.3,0.2,2.7,0.2,4
		c0.1,1.3,0.1,2.6,0.1,4c0,0.9,0,2,0.1,3.2c0.1,1.2,0.2,2.2,0.3,3.1c0.2,1.9,0.3,3.3,0.3,4.4c0,1.1-0.1,1.9-0.3,2.4
		c-0.2,0.5-0.6,0.9-1.2,1.1c-0.6,0.2-1.4,0.3-2.4,0.5c-1.2,0.2-2,0.3-2.4,0.3c-0.4,0-0.8-0.1-1.3-0.3c-0.4-0.3-0.6-0.5-0.6-0.6
		c-0.1-0.2-0.2-0.7-0.3-1.6c-0.1-0.6-0.2-1.5-0.3-2.6c-0.1-1.2-0.2-2.5-0.2-3.9c-0.1-1.4-0.1-2.8-0.1-4.3c0-1.4,0-2.7,0-3.9
		c-0.1-1.8-0.3-4.7-0.7-8.8c-0.4-4.1-0.9-8.4-1.4-12.9c-0.6-4.5-1.1-8.8-1.7-12.9c-0.6-4.1-1.1-7-1.5-8.7c-0.5-2-0.7-3.5-0.6-4.4
		C85.5,99.7,85.9,98.8,86.5,98z"/>
	<path class="st0" d="M111.9,122.6c0.2-0.5,0.3-1,0.3-1.5c0-0.5-0.2-1.6-0.4-3.1c-0.1-0.9-0.2-2.1-0.2-3.6c0.1,0,0.4,0.1,0.8,0.5
		c0.4,0.4,0.8,0.8,1.2,1.3c0.4,0.3,0.6,0.6,0.9,1c0.2,0.4,0.4,1.3,0.6,2.6c0.3,1.8,0.3,3,0,3.8c-0.2,0.8-0.8,1.5-1.6,2.2
		c-0.4,0.4-0.8,0.7-1.3,0.9c-0.5,0.2-1.7,0.5-3.6,0.7c-1,0.2-2,0.3-3.1,0.5c-1,0.2-1.7,0.2-2,0.3c-0.4,0.2-0.7,0.5-0.7,0.7
		c-0.1,0.2-0.1,0.9,0,2.1c0.1,0.6,0.2,1.8,0.3,3.5c0.1,1.7,0.3,3.4,0.4,5.1c0.3,1.8,0.5,3.7,0.6,5.6c0.2,2,0.2,3.5,0.3,4.5
		c0.1,3.9,0.3,6.9,0.4,9c0.1,2.1,0.3,3.6,0.4,4.4c0.2,1,0.1,1.9-0.1,2.6c-0.2,0.7-0.7,1.4-1.3,2.1c-0.6,0.4-1.1,0.6-1.5,0.7
		c-0.4,0.1-1.4,0.3-2.8,0.5c-1.5,0.2-2.4,0.3-2.8,0.3c-0.4,0-0.9-0.2-1.5-0.6c-0.5-0.2-1-0.6-1.7-1c0-0.1,0.2-0.3,0.7-0.4
		c0.5-0.1,1.1-0.2,1.9-0.3c1.6-0.1,2.9-0.3,3.8-0.7c0.9-0.4,1.5-1.1,1.8-1.9c0.2-0.6,0.4-1.3,0.4-2c0-0.7,0-2.3-0.2-4.7
		c-0.1-1.5-0.2-3.2-0.3-5.1c-0.1-1.9-0.1-3.5,0-4.7c0-1.2-0.1-2.9-0.3-5.1c-0.2-2.2-0.4-4.2-0.7-6c-0.2-2.5-0.4-4.5-0.6-5.9
		c-0.1-1.4-0.2-2.4-0.2-3.1c0-0.7,0-1.1,0.1-1.3c0.1-0.2,0.3-0.4,0.5-0.5c0.1,0,0.7-0.2,1.7-0.4c1-0.3,2.1-0.5,3.3-0.6
		c2.3-0.5,3.9-0.9,4.6-1.2C111,123.7,111.6,123.2,111.9,122.6z"/>
	<path class="st0" d="M109.8,102.4c0.7-0.5,1-1.1,1-1.8c0-0.7-0.1-1.9-0.3-3.7c-0.2-1-0.2-2.1-0.2-3.3c0.3,0,0.7,0.1,1.1,0.4
		c0.4,0.3,0.9,0.7,1.2,1c0.2,0.4,0.4,0.9,0.5,1.5c0.1,0.6,0.2,1.5,0.4,2.6c0.3,1.8,0.3,3,0.1,3.8c-0.2,0.7-0.7,1.5-1.7,2.2
		c-0.6,0.4-1.1,0.6-1.4,0.7c-0.4,0.1-1.6,0.1-3.5,0.1c-1.2,0-2.4,0.1-3.6,0.1c-1.2,0.1-2,0.1-2.4,0.2c-0.7,0.3-1.1,0.6-1.2,0.9
		c-0.1,0.3,0,1.3,0.2,2.9c0.4,1.8,0.6,2.8,0.5,3.1c-0.1,0.3-0.6,0.5-1.4,0.7c-0.3,0.2-0.5,0.2-0.6-0.1c-0.1-0.3-0.4-1.4-0.8-3.3
		c-0.1-0.9-0.3-1.8-0.4-2.8c-0.1-1-0.2-1.6-0.3-1.9c-0.3-0.6-0.2-0.9,0.2-1s1.8-0.3,4.4-0.6c1.6-0.1,2.9-0.3,3.9-0.4
		c1-0.1,1.8-0.2,2.3-0.3s1-0.2,1.3-0.3C109.3,102.7,109.6,102.6,109.8,102.4z"/>
	<path class="st2" d="M116.5,101.7c0.2-0.3,0.4-0.5,0.5-0.6c0.1-0.2,0.3-0.3,0.6-0.5c0.2,0,0.6-0.1,1.2-0.2c0.5-0.1,1.1-0.2,1.6-0.2
		c0.9-0.1,1.5-0.2,2-0.2c0.5,0,0.8,0.3,1.1,0.9c0.3,0.6,0.5,1.6,0.7,2.9c0.2,1.4,0.5,3.4,0.8,6.1c1,7.5,1.8,13.6,2.4,18.3
		c0.6,4.7,1.2,8.4,1.6,11.2c0.4,2.7,0.7,4.7,1,5.8c0.2,1.1,0.4,1.9,0.6,2.2c0.4,0.9,0.8,1.6,1.4,2.2c0.6,0.6,1,1,1.5,1.2
		c0.3,0,0.5,0.1,0.6,0.4c0.3,0.2,1,0.4,2.2,0.4s2.3,0,3.3-0.2c2.5-0.4,4.2-1.3,5.1-2.7c0.9-1.4,1.2-3.7,1-6.8
		c-0.1-1-0.3-2.7-0.6-5.2c-0.3-2.5-0.7-5.2-1.2-8c-0.4-2.9-0.9-5.6-1.3-8.2c-0.4-2.6-0.8-4.6-1-5.8c-0.4-1.5-0.8-3.2-1.1-5.2
		c-0.4-2-0.7-3.7-0.9-5.1c-0.4-1.7-0.6-3.1-0.7-4.1s-0.1-1.7,0.1-2.1c0.2-0.5,0.6-0.8,1.2-0.9c0.6-0.1,1.4-0.3,2.5-0.4
		c0.9,0,1.6,0,1.9,0c0.4,0,0.7,0.1,1,0.3c0.1,0.2,0.2,0.4,0.3,0.5c0.1,0.2,0.2,0.5,0.3,1c0.1,0.5,0.3,1.2,0.5,2.2
		c0.2,0.9,0.5,2.3,0.8,4c0.3,2.1,0.7,4.1,1.1,6.3c0.4,2.1,0.7,3.7,0.8,4.6c0.3,1.3,0.7,3.3,1.1,6.2c0.5,2.9,0.9,5.8,1.3,8.9
		s0.8,5.9,1.1,8.4s0.4,4.2,0.5,4.9c0,0.9-0.1,1.7-0.2,2.7c-0.1,0.9-0.3,1.8-0.5,2.6c-0.2,0.8-0.4,1.5-0.6,2c-0.2,0.6-0.4,0.9-0.6,1
		c-0.3,0.1-0.4,0.3-0.4,0.6c-0.2,0.4-0.3,0.7-0.4,0.8c-0.2,0.2-0.4,0.4-0.5,0.6c-0.1,0.2-0.2,0.4-0.3,0.5c-0.4,0.3-1.4,1.1-3,2.3
		c-0.5,0.3-1,0.6-1.6,0.7c-0.6,0.1-1.7,0.3-3.4,0.5c-1.7,0.2-2.8,0.4-3.5,0.4c-0.7,0-1.5-0.1-2.4-0.3c-1.7-0.3-2.9-0.4-3.6-0.5
		c-0.6-0.1-1.1-0.3-1.5-0.5c-0.2-0.1-0.4-0.2-0.8-0.4c-0.1,0.1-0.4,0-0.8-0.2c-0.4-0.2-0.8-0.6-1.2-1c-0.4-0.4-0.9-0.9-1.4-1.4
		c-0.5-0.5-0.8-1-1.1-1.4c-0.5-0.7-0.9-1.4-1.2-1.9c-0.3-0.5-0.6-1.6-0.9-3.2c-0.3-1.6-0.8-4.1-1.3-7.4c-0.5-3.3-1.2-8.2-2.2-14.6
		c-0.8-5.4-1.3-9.7-1.8-12.9c-0.4-3.1-0.8-5.5-1-7.1c-0.2-1.6-0.3-2.7-0.4-3.2C116.4,102.4,116.4,102,116.5,101.7z"/>
	<path class="st0" d="M150.6,113.2c-0.3-1.2-0.7-2.8-1.1-4.7c-0.4-1.9-0.7-3.7-0.9-5.4c-0.2-1.6-0.5-3.7-0.9-6.1
		c0.2,0,0.6,0.2,1.2,0.9c0.6,0.6,0.9,1.1,0.9,1.4c0.1,0.4,0.4,1.6,0.9,3.6s0.9,4.5,1.4,7.4c0.5,2.9,1.1,6,1.6,9.3
		c0.6,3.3,1.1,6.5,1.5,9.4c0.6,3.4,1,6.3,1.3,8.6c0.3,2.3,0.5,4.3,0.6,5.9c0.1,1.6,0.1,3,0,4.1c-0.1,1.1-0.3,2.2-0.5,3.1
		c-0.1,0.3-0.2,0.7-0.4,1.1c0,0.1,0,0.4-0.2,0.8s-0.3,0.8-0.5,1.3c-0.2,0.5-0.4,1-0.6,1.4c-0.2,0.5-0.4,0.9-0.6,1.1
		c-1,1.5-2.3,2.6-3.9,3.6c-1.6,0.9-3.3,1.6-5.2,2c-1.3,0.3-2.7,0.4-4.1,0.4c-1.5,0-2.9-0.1-4.4-0.3c-1.4-0.2-2.7-0.5-3.9-0.9
		c-1.2-0.4-2.2-0.9-2.9-1.6c-1.2-0.8-1.1-0.9,0.2-0.3c1.2,0.4,2.5,0.8,4,1c1.4,0.2,2.9,0.3,4.3,0.3c1.4,0,2.8-0.1,4.2-0.4
		c1.4-0.2,2.6-0.5,3.6-1c0.6-0.3,1.3-0.7,2.1-1.2c0.8-0.5,1.3-0.9,1.7-1.4c0.6-0.5,1.2-1.2,1.9-2.2c0.7-1,1.1-1.7,1.3-2.2
		c0-0.5,0.1-0.8,0.4-0.8c0.1-0.8,0.3-1.5,0.5-1.9c0.3-1.3,0.4-2.5,0.5-3.6c0.1-1.1,0.1-2.4,0-3.8c-0.1-1.5-0.3-3.3-0.5-5.4
		c-0.3-2.2-0.7-5-1.2-8.5c-0.2-1.6-0.5-3.2-0.8-4.7c-0.3-1.6-0.5-3-0.8-4.4c-0.2-1.3-0.4-2.5-0.6-3.6
		C150.8,114.6,150.7,113.8,150.6,113.2z"/>
	<path class="st0" d="M129.1,127.3c-0.3-2.5-0.6-5-1-7.5c-0.3-2.5-0.7-4.7-0.9-6.8c-0.3-2.1-0.5-3.8-0.8-5.4
		c-0.2-1.5-0.4-2.6-0.5-3.3c-0.3-1.8-0.4-2.9-0.5-3.4c0-0.5,0.1-0.7,0.3-0.8c0.1,0,0.3,0.1,0.5,0.3c0.2,0.2,0.4,0.4,0.7,0.6
		c0.1,0.2,0.2,0.5,0.4,0.8s0.3,1.3,0.6,2.8c0.3,1.5,0.6,3.9,1.1,7.1c0.5,3.2,1.2,7.8,2.1,13.8c0.5,3.3,0.9,6.3,1.3,9.2
		c0.4,2.9,0.8,5.4,1.1,7.5c0.3,2.2,0.5,3.8,0.7,5.1c0.2,1.2,0.2,1.8,0.1,1.9c-0.1,0.2-0.4,0-0.9-0.4c-0.5-0.5-0.9-1-1.2-1.6
		c-0.2-0.3-0.4-0.6-0.5-0.9c-0.1-0.3-0.3-1.1-0.5-2.4c-0.2-1.3-0.5-3.2-0.8-5.7C130.2,135.7,129.7,132.1,129.1,127.3z"/>
	<path class="st2" d="M155.5,96.5c0.1-0.1,0.6-0.4,1.6-0.7c1-0.3,2.2-0.6,3.6-1c1.5-0.4,3.1-0.7,4.8-1.1c1.8-0.4,3.5-0.8,5.2-1.1
		c3.8-0.8,6.8-1.4,9.1-1.8c2.3-0.3,3.6-0.4,3.9-0.2c0.2,0.1,0.4,0.4,0.6,1s0.4,1.1,0.5,1.7c0.1,0.6,0.2,1.2,0.3,1.9
		c0.1,0.6,0.1,1.1,0,1.4c-0.1,0.2-0.2,0.4-0.3,0.6c-0.1,0.2-0.2,0.3-0.3,0.3c0,0.1-0.5,0.3-1.5,0.5c-1,0.2-2.1,0.4-3.2,0.7
		c-1.1,0.3-2,0.5-2.6,0.7c-0.6,0.2-1,0.5-1.3,0.9c-0.2,0.4-0.4,1-0.3,1.7c0,0.8,0.1,1.8,0.3,3.2c0.1,0.8,0.3,2.1,0.5,3.9
		c0.2,1.8,0.5,3.8,0.8,6.1c0.3,2.3,0.7,4.8,1,7.5c0.4,2.7,0.8,5.3,1.2,7.9c0.4,2.7,0.8,5.3,1.1,7.7c0.3,2.4,0.6,4.6,0.8,6.4
		c0.2,1.9,0.4,3.3,0.6,4.4c0.1,1.1,0.2,1.7,0.2,1.8c-0.1,0.6-0.4,1-0.9,1.3c-0.5,0.3-1.4,0.6-2.5,0.9c-0.9,0.3-1.5,0.4-1.8,0.3
		c-0.3-0.1-0.6-0.2-0.9-0.5c-0.2-0.1-0.4-0.2-0.6-0.4c-0.1-0.2-0.3-0.6-0.5-1.4c-0.2-0.7-0.3-1.9-0.6-3.4c-0.2-1.5-0.6-3.7-1-6.6
		c-0.2-1.6-0.5-3.4-0.8-5.6c-0.3-2.1-0.7-4.4-1-6.7c-0.3-2.3-0.7-4.7-1-7c-0.4-2.4-0.7-4.5-1-6.5c-0.2-1.9-0.4-3.7-0.7-5.4
		c-0.2-1.7-0.4-3.2-0.6-4.4c-0.2-1.3-0.4-2.6-0.6-4.2c0-0.1-0.5-0.1-1.4,0.1c-0.9,0.2-2,0.4-3.3,0.6c-1.3,0.3-2.5,0.6-3.5,0.8
		c-1,0.2-1.6,0.2-1.8,0c-1.1-0.1-1.8-1.4-2.2-4c-0.3-0.8-0.4-1.3-0.3-1.6C155.3,96.9,155.4,96.7,155.5,96.5z"/>
	<path class="st0" d="M158.7,105c0.3,0,0.8-0.1,1.6-0.3c0.8-0.1,1.7-0.3,2.6-0.6c0.8-0.2,1.5-0.4,2.2-0.6c0.7-0.1,1.1-0.2,1.2-0.2
		c0.2,0.4,0.4,0.7,0.4,1c0.1,0.7,0,1.1-0.2,1.3s-1.1,0.4-2.5,0.8c-0.8,0.1-1.6,0.2-2.2,0.3c-0.7,0.1-1.1,0.2-1.2,0.2
		c-0.4-0.1-0.9-0.2-1.4-0.5c-0.5-0.3-0.9-0.6-1.2-1c0-0.1,0-0.2,0.1-0.2C158,105.1,158.3,105,158.7,105z"/>
	<path class="st0" d="M186.5,98.1c0.3-0.6,0.5-1.1,0.5-1.4s-0.1-1.2-0.3-2.7c-0.1-0.8-0.3-1.7-0.4-2.9c0.3,0,0.6,0.1,1,0.3
		c0.4,0.2,0.7,0.5,1,0.7c0.2,0.3,0.3,0.6,0.4,1.2c0.1,0.5,0.2,1.4,0.4,2.5c0.4,1.6,0.5,2.7,0.4,3.3c-0.1,0.6-0.5,1.2-1.2,1.7
		c-0.4,0.3-0.8,0.5-1.3,0.6c-0.5,0.1-1.6,0.3-3.4,0.6c-1.9,0.3-2.9,0.5-3.3,0.8c-0.3,0.2-0.5,0.8-0.5,1.7c0,0.2,0.1,1,0.3,2.5
		c0.2,1.4,0.4,3.3,0.7,5.6c0.3,2.3,0.7,4.9,1.1,7.8c0.4,2.9,0.9,6,1.4,9.2c0.8,5.9,1.4,10.4,1.8,13.6c0.4,3.2,0.7,5.6,0.9,7.1
		c0.2,1.5,0.3,2.5,0.3,2.9c0,0.4,0,0.7-0.1,1c-0.1,0.3-0.3,0.6-0.6,0.9c-0.3,0.3-0.6,0.5-0.8,0.7c-0.2,0.2-0.5,0.4-1.1,0.5
		c-0.5,0.2-1.1,0.3-1.7,0.5c-0.6,0.1-1.2,0.2-1.7,0.3s-0.9,0.1-1.2,0c-0.3,0-0.7-0.2-1.4-0.6c-0.7-0.4-1.1-0.7-1.2-0.9
		c0-0.1,0.2-0.3,0.8-0.5c0.5-0.2,1.2-0.4,2-0.5c1.7-0.4,2.8-0.7,3.4-1.1c0.6-0.3,1-0.9,1.3-1.8c0-0.3,0-0.6,0-1.1
		c0-0.5-0.2-1.5-0.4-3c-0.2-1.5-0.5-3.8-0.9-6.8c-0.4-3-1-7.2-1.7-12.6c-0.5-3.1-0.9-6-1.3-8.9c-0.4-2.9-0.8-5.4-1.1-7.6
		c-0.3-2.2-0.5-4.1-0.7-5.6c-0.2-1.5-0.3-2.4-0.3-2.7c-0.1-1.3,0-2.1,0.3-2.4c0.3-0.3,1.2-0.5,2.8-0.8c2-0.3,3.4-0.6,4.2-0.9
		C185.6,99.1,186.2,98.7,186.5,98.1z"/>
	<path class="st2" d="M191.4,90.5c0.2-0.3,0.4-0.5,0.5-0.6c0.1-0.2,0.3-0.3,0.6-0.5c0.2,0,0.6-0.1,1.2-0.2c0.5-0.1,1.1-0.2,1.6-0.2
		c0.9-0.1,1.5-0.2,2-0.2c0.5,0,0.8,0.3,1.1,0.9c0.3,0.6,0.5,1.6,0.7,2.9c0.2,1.4,0.5,3.4,0.8,6.1c1,7.5,1.8,13.6,2.4,18.3
		c0.6,4.7,1.2,8.4,1.6,11.2c0.4,2.7,0.7,4.7,1,5.8c0.2,1.1,0.4,1.9,0.7,2.2c0.4,0.9,0.8,1.6,1.4,2.2c0.6,0.6,1,1,1.5,1.2
		c0.3,0,0.5,0.1,0.6,0.4c0.3,0.2,1,0.4,2.2,0.4c1.2,0,2.3,0,3.3-0.2c2.5-0.4,4.2-1.3,5.1-2.7c0.9-1.4,1.2-3.7,1-6.8
		c-0.1-1-0.3-2.7-0.6-5.2c-0.3-2.5-0.7-5.2-1.2-8c-0.4-2.9-0.9-5.6-1.3-8.2c-0.4-2.6-0.8-4.6-1-5.8c-0.4-1.5-0.8-3.2-1.1-5.2
		c-0.4-2-0.7-3.7-0.9-5.1c-0.4-1.7-0.6-3.1-0.7-4.1c-0.1-1-0.1-1.7,0.1-2.1c0.2-0.5,0.6-0.8,1.2-0.9c0.6-0.1,1.4-0.3,2.5-0.4
		c0.9,0,1.6,0,1.9,0c0.4,0,0.7,0.1,1,0.3c0.1,0.2,0.2,0.4,0.3,0.5c0.1,0.2,0.2,0.5,0.3,1c0.1,0.5,0.3,1.2,0.5,2.2
		c0.2,0.9,0.5,2.3,0.8,4c0.3,2.1,0.7,4.1,1.1,6.3c0.4,2.1,0.7,3.7,0.8,4.6c0.3,1.3,0.7,3.3,1.1,6.2c0.5,2.9,0.9,5.8,1.3,8.9
		c0.4,3.1,0.8,5.9,1.1,8.4c0.3,2.6,0.4,4.2,0.5,4.9c0,0.9-0.1,1.7-0.2,2.7c-0.1,0.9-0.3,1.8-0.5,2.6c-0.2,0.8-0.4,1.5-0.6,2
		c-0.2,0.6-0.4,0.9-0.6,1c-0.3,0.1-0.4,0.3-0.4,0.6c-0.2,0.4-0.3,0.7-0.4,0.8c-0.2,0.2-0.4,0.4-0.5,0.6c-0.1,0.2-0.2,0.4-0.3,0.5
		c-0.4,0.3-1.4,1.1-3,2.3c-0.5,0.3-1,0.6-1.6,0.7c-0.6,0.1-1.7,0.3-3.4,0.5c-1.7,0.2-2.8,0.4-3.5,0.4c-0.7,0-1.5-0.1-2.4-0.3
		c-1.7-0.3-2.9-0.4-3.6-0.5c-0.6-0.1-1.1-0.3-1.5-0.5c-0.2-0.1-0.4-0.2-0.8-0.4c-0.1,0.1-0.4,0-0.8-0.2c-0.4-0.2-0.8-0.6-1.2-1
		c-0.4-0.4-0.9-0.9-1.4-1.4c-0.5-0.5-0.8-1-1.1-1.4c-0.5-0.7-0.9-1.4-1.2-1.9c-0.3-0.5-0.6-1.6-0.9-3.2c-0.3-1.6-0.8-4.1-1.3-7.4
		c-0.5-3.3-1.3-8.2-2.2-14.6c-0.8-5.4-1.3-9.7-1.8-12.9c-0.4-3.1-0.8-5.5-1-7.1c-0.2-1.6-0.3-2.7-0.4-3.2
		C191.3,91.2,191.3,90.8,191.4,90.5z"/>
	<path class="st0" d="M225.5,102c-0.3-1.2-0.7-2.8-1.1-4.7c-0.4-1.9-0.7-3.7-0.9-5.4c-0.2-1.6-0.5-3.7-0.9-6.1
		c0.2,0,0.6,0.2,1.2,0.9c0.6,0.6,0.9,1.1,0.9,1.4c0.1,0.4,0.4,1.6,0.9,3.6c0.4,2,0.9,4.5,1.4,7.4c0.5,2.9,1.1,6,1.6,9.3
		c0.6,3.3,1.1,6.5,1.5,9.4c0.6,3.4,1,6.3,1.3,8.6c0.3,2.3,0.5,4.3,0.6,5.9c0.1,1.6,0.1,3,0,4.1c-0.1,1.1-0.3,2.2-0.5,3.1
		c-0.1,0.3-0.2,0.7-0.4,1.1c0,0.1,0,0.4-0.2,0.8c-0.1,0.4-0.3,0.8-0.5,1.3c-0.2,0.5-0.4,1-0.6,1.4c-0.2,0.5-0.4,0.9-0.6,1.1
		c-1,1.5-2.3,2.6-3.9,3.6c-1.6,0.9-3.3,1.6-5.2,2c-1.3,0.3-2.7,0.4-4.1,0.4c-1.5,0-2.9-0.1-4.4-0.3c-1.4-0.2-2.7-0.5-3.9-0.9
		c-1.2-0.4-2.2-0.9-2.9-1.6c-1.2-0.8-1.1-0.9,0.2-0.3c1.2,0.4,2.5,0.8,4,1c1.4,0.2,2.9,0.3,4.3,0.3c1.4,0,2.8-0.1,4.2-0.4
		c1.4-0.2,2.6-0.5,3.6-1c0.6-0.3,1.3-0.7,2.1-1.2s1.3-0.9,1.7-1.4c0.6-0.5,1.2-1.2,1.9-2.2c0.7-1,1.1-1.7,1.3-2.2
		c0-0.5,0.1-0.8,0.4-0.8c0.1-0.8,0.3-1.5,0.5-1.9c0.3-1.3,0.4-2.5,0.5-3.6c0.1-1.1,0.1-2.4,0-3.8c-0.1-1.5-0.3-3.3-0.5-5.4
		c-0.3-2.2-0.7-5-1.2-8.5c-0.2-1.6-0.5-3.2-0.8-4.7c-0.3-1.6-0.5-3-0.8-4.3c-0.2-1.3-0.4-2.5-0.6-3.6
		C225.7,103.5,225.6,102.6,225.5,102z"/>
	<path class="st0" d="M204,116.1c-0.3-2.5-0.6-5-1-7.5s-0.7-4.7-0.9-6.8c-0.3-2.1-0.5-3.8-0.8-5.4c-0.2-1.5-0.4-2.6-0.5-3.3
		c-0.3-1.8-0.4-2.9-0.5-3.4c0-0.5,0.1-0.7,0.3-0.8c0.1,0,0.3,0.1,0.5,0.3c0.2,0.2,0.4,0.4,0.7,0.6c0.1,0.2,0.2,0.5,0.4,0.8
		c0.1,0.3,0.3,1.3,0.6,2.8c0.3,1.5,0.6,3.9,1.1,7.1c0.5,3.2,1.2,7.8,2.1,13.8c0.5,3.3,0.9,6.3,1.3,9.2c0.4,2.9,0.8,5.4,1.1,7.5
		c0.3,2.2,0.5,3.8,0.7,5.1c0.2,1.2,0.2,1.8,0.1,1.9c-0.1,0.2-0.4,0-0.9-0.4c-0.5-0.5-0.9-1-1.2-1.6c-0.2-0.3-0.4-0.6-0.5-0.9
		c-0.1-0.3-0.3-1.1-0.5-2.4c-0.2-1.3-0.5-3.2-0.8-5.7C205.1,124.5,204.6,120.9,204,116.1z"/>
	<path class="st0" d="M245.5,142.5c0.5-0.4,0.8-0.7,1-1c0.2-0.3,0.3-0.9,0.2-1.9c-0.1-1-0.2-2.5-0.5-4.6c-0.3-2.1-0.8-5.1-1.4-9.1
		c-0.5-3.1-0.8-5.6-1.1-7.5c-0.3-1.9-0.4-3.3-0.5-4.2c-0.1-1-0.1-1.6-0.1-1.9c0-0.3,0.1-0.4,0.2-0.3c0.1,0,0.3,0,0.5,0.2
		c0.1,0,0.3,0.1,0.6,0.3c0.3,0.2,0.6,0.4,1.1,0.6c0.9,0.7,1.1,0.9,0.7,0.7c-0.2-0.1-0.4-0.1-0.6-0.1c-0.2,0-0.4,0-0.5,0
		c0,0.1,0.2,1.3,0.4,3.6c0.3,2.2,0.8,5.8,1.7,10.8c0.5,3.4,0.9,6.1,1.2,8c0.3,2,0.5,3.4,0.6,4.4s0.2,1.6,0.1,2s-0.1,0.6-0.1,0.8
		c-0.3,0.6-0.8,1-1.4,1.3c-0.6,0.3-1.7,0.5-3.1,0.7c-1.2,0.2-1.9,0.3-2.3,0.3c-0.3,0-0.7-0.1-1.1-0.3c-0.8-0.6-1.1-1-1-1.2
		c0.1-0.2,0.8-0.3,2.1-0.5c1,0,1.8-0.1,2.1-0.2C244.8,142.9,245.1,142.7,245.5,142.5z"/>
	<path class="st2" d="M231.7,85c0.5-0.7,1.1-1.3,1.6-1.7c0.5-0.4,1.4-0.7,2.5-1.1c0.6-0.1,1.6-0.2,2.8-0.4c1.3-0.2,2.5-0.4,3.8-0.6
		c3-0.3,5.2-0.3,6.8,0c1.5,0.3,3,0.9,4.5,2c0.5,0.4,1,0.9,1.5,1.6c0.5,0.7,0.9,1.4,1.3,2.2c0.4,0.8,0.7,1.5,0.9,2.3
		c0.2,0.8,0.4,1.4,0.4,2c0,0.8-0.1,1.5-0.1,2.1c0,0.6-0.1,1.7-0.2,3.2c-0.2,1.2-0.6,2.4-1,3.4c-0.5,1.1-1.1,1.9-1.7,2.5
		c-0.6,0.9-1.1,1.5-1.3,1.5c-0.1,0.2-0.3,0.4-0.7,0.6c-0.3,0.3-0.6,0.5-1,0.6c-0.4,0.2-0.9,0.5-1.5,1c0,0.2,0.2,0.3,0.6,0.5
		c0.4,0.2,0.8,0.5,1.2,0.8c1.4,1,2.6,2,3.7,3.1c1,1.1,2,2.6,2.9,4.5s1.8,4.4,2.8,7.4c0.9,3,2.1,7,3.4,11.8c0.3,1.2,0.5,2.1,0.6,2.7
		c0.2,0.7,0.3,1.2,0.3,1.5c0,0.4,0,0.6,0,0.8c-0.1,0.2-0.2,0.4-0.3,0.6c-0.2,0.3-0.5,0.6-0.7,0.7c-0.2,0.2-0.8,0.3-1.7,0.5
		c-1,0.2-1.7,0.2-2,0.1c-0.3-0.1-0.6-0.3-0.9-0.5c-0.6-0.4-0.9-0.8-0.9-1.1c0-0.2-0.1-0.6-0.4-1.3c-0.2-0.7-0.5-1.5-0.7-2.5
		c-0.3-1-0.6-2-0.9-3c-0.3-1.1-0.6-2.1-0.8-3.1c-0.3-0.7-0.5-1.4-0.7-2.1c-0.2-0.7-0.3-1.1-0.3-1.4c0.1-0.1,0.1-0.5-0.1-1
		c-0.2-0.5-0.4-1.1-0.6-1.8c-0.5-1.4-0.9-2.6-1.3-3.5c-0.4-0.9-0.7-1.8-1.1-2.4c-0.4-0.7-0.8-1.3-1.2-2c-0.4-0.6-1-1.3-1.6-2.1
		c-0.8-0.6-1.7-1.4-2.7-2.1c-1-0.8-1.8-1.2-2.3-1.3c-0.2,0-0.3,0-0.6-0.1c-0.2-0.1-0.4-0.2-0.5-0.3c-0.2-0.2-0.4-0.3-0.8-0.2
		c-0.3,0.1-0.7,0.2-1,0.5c-0.1,0.2-0.1,0.4-0.1,0.7c0,0.3,0,0.9,0.1,1.9c0.1,1,0.3,2.5,0.6,4.4c0.3,2,0.7,4.7,1.2,8.2
		c0.6,4.3,1.1,7.5,1.4,9.7c0.3,2.2,0.5,3.7,0.4,4.6c0,0.9-0.3,1.4-0.8,1.4c-0.5,0.1-1.2,0.1-2.2,0.2c-1.2,0.2-1.9,0.3-2.2,0.3
		c-0.3,0-0.6-0.1-0.9-0.3c-0.1-0.1-0.2-0.4-0.4-1c-0.1-0.6-0.4-1.8-0.7-3.6s-0.7-4.5-1.3-8c-0.6-3.5-1.3-8.3-2.3-14.2
		c-1.2-7.3-2.1-12.8-2.6-16.6c-0.6-3.8-1-6.5-1.1-8.3s-0.2-2.8,0-3.2C231,86,231.3,85.6,231.7,85z M250.8,91.6c0-0.8-0.3-1.4-0.8-2
		c-0.6-0.6-1.2-1-2-1.3c-1.4-0.3-4.1-0.1-8,0.4c-1,0.3-1.6,0.5-1.8,0.6c-0.2,0.1-0.3,0.4-0.4,0.7c0,0.3,0.2,1,0.3,2.2
		c0.2,1.2,0.4,2.5,0.6,3.9c0.3,1.7,0.6,3,0.8,3.8c0.2,0.9,0.4,1.5,0.6,1.8c0.2,0.3,0.5,0.5,0.9,0.4c0.3,0,0.8-0.1,1.5-0.3
		c0.9-0.2,1.8-0.5,2.7-0.9c0.9-0.4,1.7-0.9,2.5-1.3c0.8-0.5,1.4-1,1.9-1.5c0.5-0.5,0.8-1,0.9-1.4c0.1-0.7,0.3-1.6,0.4-2.9
		C250.8,92.8,250.8,92,250.8,91.6z"/>
	<path class="st0" d="M239.7,93c-0.3-1.1-0.5-1.8-0.4-2c0.1-0.2,0.4-0.4,1-0.7c0.9-0.1,2-0.3,3.3-0.4c1.3-0.1,2.3-0.1,3,0
		c0.6,0.1,1.2,0.2,1.7,0.4c0.5,0.2,0.8,0.5,0.8,0.8c-1.5,0.4-2.6,0.7-3.5,0.8s-1.6,0.3-2.1,0.4c-0.5,0.1-0.8,0.3-1,0.6
		c-0.2,0.3-0.3,0.7-0.2,1.2c0,0.5,0.1,1.2,0.3,2.2c0.2,1.1,0.3,2,0.3,2.5s0.1,1,0,1.3c0,0.3-0.2,0.5-0.4,0.5
		c-0.2,0.1-0.5,0.1-0.8,0.2c-0.3,0-0.4-0.1-0.5-0.4c-0.1-0.3-0.2-1.1-0.4-2.4c-0.1-0.7-0.3-1.6-0.5-2.6
		C240,94.5,239.8,93.7,239.7,93z"/>
	<path class="st0" d="M259.3,90.4c-0.1-0.8-0.2-1.5-0.4-2c-0.1-0.5-0.3-1-0.4-1.4c-0.2-0.4-0.4-0.8-0.6-1.2c-0.3-0.4-0.6-1-1.1-1.6
		c-0.3-0.3-0.5-0.5-0.4-0.5c0,0,0.2,0,0.7,0.2c1.2,0.9,2.1,2,2.9,3.5c0.7,1.4,1.3,3,1.5,4.8c0.6,2.9,0.4,5.7-0.3,8.4
		c-0.8,2.7-2.1,4.8-4,6.4c-0.3,0.3-0.7,0.6-1,0.8c-0.3,0.2-0.4,0.4-0.4,0.5c-0.5-0.4-0.9-0.6-1.2-0.9c-0.6-0.4-0.9-0.7-0.9-0.9
		c0-0.2,0.3-0.5,0.9-1c0.8-0.8,1.6-1.6,2.2-2.4c0.7-0.9,1.2-1.7,1.5-2.6c0.2-0.5,0.3-1.2,0.6-1.9c0.2-0.7,0.3-1.2,0.3-1.3
		c0-0.1,0-0.4,0.1-0.7c0.1-0.4,0.2-0.8,0.4-1.2c0-0.6,0-1.3,0.1-2C259.5,92.6,259.4,91.7,259.3,90.4z"/>
	<path class="st0" d="M258.8,112c-0.2-0.2-0.4-0.5-0.7-0.8c-0.3-0.3-0.5-0.6-0.6-0.8c-0.7-0.8-0.9-1.1-0.6-1
		c0.3,0.2,0.8,0.7,1.8,1.6c0.9,0.9,1.7,2,2.5,3.1c0.7,1.1,1.5,2.6,2.2,4.3c0.7,1.7,1.5,3.9,2.2,6.4c0.8,2.5,1.6,5.7,2.6,9.4
		c0.5,1.9,0.8,3.3,1,4.4c0.2,1.1,0.4,2,0.4,2.6c0,0.6,0,1.1-0.2,1.4c-0.2,0.3-0.4,0.6-0.7,0.9c-0.3,0.3-0.7,0.5-1.1,0.6
		c-0.4,0.1-1.1,0.2-2.1,0.4c-1.3,0.2-2.2,0.3-2.8,0.3c-0.6,0-1.2-0.3-1.8-0.9c-0.3-0.3-0.4-0.5-0.2-0.7c0.2-0.1,0.9-0.3,2.2-0.5
		c1.2,0,1.9-0.1,2.3-0.3c0.3-0.2,0.7-0.4,1-0.7c0.7-0.5,1.1-1,1.2-1.6c0.1-0.6,0-1.7-0.4-3.2c-0.3-1.1-0.6-2.3-1-3.8
		c-0.4-1.5-0.8-3-1.3-4.6c-0.5-1.6-0.9-3.1-1.4-4.7c-0.5-1.5-0.9-2.9-1.3-4c-0.1-0.5-0.2-1-0.3-1.4c-0.1-0.5-0.2-0.8-0.3-1.1
		c-0.3-0.7-0.6-1.6-1.1-2.6c-0.5-1-0.8-1.6-0.9-1.9c-0.2-0.1-0.3-0.2-0.4-0.4C258.9,112.3,258.8,112.1,258.8,112z"/>
	<path class="st2" d="M266.4,80.2c0-0.1,0.1-0.3,0.4-0.6c0.3-0.3,0.5-0.7,0.9-1c0.3-0.3,0.6-0.5,0.9-0.6c0.3-0.2,0.7-0.3,1.3-0.5
		c0.6-0.2,1.5-0.3,2.7-0.5c1.2-0.2,2.9-0.5,5.2-0.8c2.4-0.4,4.2-0.6,5.5-0.8c1.3-0.2,2.3-0.2,2.9-0.2c0.6,0,1.1,0.1,1.3,0.3
		c0.2,0.2,0.4,0.5,0.6,0.8c0.1,0.3,0.3,0.6,0.5,1c0.2,0.4,0.3,0.9,0.4,1.3c0.2,0.8,0.3,1.3,0.3,1.5c0,0.2-0.1,0.5-0.4,0.9
		c-0.1,0.2-0.3,0.4-0.4,0.5c-0.1,0.1-0.4,0.2-0.9,0.4s-1.2,0.3-2.2,0.4c-1,0.1-2.4,0.4-4.2,0.6c-1.8,0.4-3.2,0.6-4.1,0.8
		c-1,0.2-1.7,0.3-2.2,0.4c-0.5,0.1-0.8,0.2-0.9,0.3c-0.1,0.1-0.2,0.2-0.3,0.3c-0.1,0.4-0.1,0.9,0,1.5c0.1,0.6,0.3,2,0.6,4.3
		c0.2,1.3,0.4,2.2,0.5,2.9c0.1,0.7,0.4,1.2,0.8,1.4c0.4,0.3,0.9,0.4,1.6,0.3c0.7-0.1,1.7-0.2,2.9-0.4c1.5-0.2,2.7-0.4,3.5-0.5
		c0.8-0.1,1.4,0,1.8,0.2c0.4,0.2,0.6,0.6,0.7,1.1c0.1,0.5,0.2,1.2,0.3,2.2c0.2,1.1,0.2,1.8,0.3,2.2c0,0.4-0.1,0.6-0.3,0.8
		c-0.2,0.3-0.7,0.6-1.6,0.7c-0.8,0.2-2.4,0.5-4.8,0.9c-1,0.2-1.8,0.4-2.4,0.6c-0.5,0.1-0.9,0.3-1.1,0.5c-0.2,0.2-0.3,0.5-0.2,0.9
		c0.1,0.4,0.2,0.9,0.4,1.6c0.2,0.9,0.4,2.2,0.7,3.9c0.3,1.7,0.6,3.6,0.9,5.6s0.6,4,0.8,5.9c0.3,2,0.5,3.6,0.6,4.9
		c0.3,1.8,0.5,2.9,0.6,3.2c0.1,0.3,0.4,0.6,0.8,0.8c0.3,0.2,0.5,0.4,0.6,0.4c0.1,0,0.3,0,0.6,0c0.1,0,0.9-0.2,2.3-0.5
		c1.5-0.3,3.2-0.6,5.1-0.9c2.1-0.4,3.8-0.6,4.9-0.8c1.1-0.2,1.9-0.2,2.4-0.1c0.5,0.1,0.8,0.4,0.8,0.8c0.1,0.4,0.2,1.1,0.3,2
		c0.1,0.7,0.2,1.3,0.3,1.9s0.1,0.9,0.1,0.9c-0.1,0.3-0.5,0.6-1,0.8c-0.5,0.2-1.3,0.5-2.5,0.8c-1.1,0.3-2.6,0.6-4.4,0.9
		c-1.8,0.3-4.1,0.7-6.8,1.2c-1.5,0.2-2.7,0.4-3.5,0.5c-0.8,0.1-1.4,0.2-1.9,0.2c-0.5,0-0.8,0-1.1-0.1c-0.3-0.1-0.5-0.2-0.8-0.5
		c-0.8-0.5-1.6-1.2-2.2-2.1c-0.2-0.3-0.4-0.6-0.6-0.9c-0.1-0.3-0.3-0.7-0.4-1.4c-0.1-0.6-0.3-1.6-0.4-2.8c-0.2-1.3-0.4-3-0.6-5.4
		c-0.2-1.3-0.3-2.6-0.5-4c-0.2-1.4-0.4-2.8-0.6-4.1c-0.2-1.3-0.4-2.6-0.6-3.8c-0.2-1.2-0.4-2.1-0.5-2.9c-0.1-0.7-0.3-1.8-0.5-3
		c-0.2-1.3-0.5-2.7-0.7-4.2c-0.2-1.5-0.5-3.1-0.7-4.7c-0.3-1.6-0.5-3.2-0.7-4.7c-0.5-2.7-0.9-4.7-1.1-6.2c-0.2-1.5-0.4-2.6-0.5-3.3
		c-0.1-0.7-0.1-1.2-0.1-1.5c0-0.3,0.1-0.6,0.2-1c0.2-0.3,0.4-0.5,0.5-0.7c0.1-0.2,0.2-0.3,0.3-0.3C266.4,80.5,266.4,80.4,266.4,80.2
		z"/>
	<path class="st0" d="M299.1,135.7c0.4-0.5,0.6-1.2,0.7-2c0.1-0.8,0-1.8-0.3-3c-0.1-0.6-0.2-1.1-0.2-1.6c-0.1-0.5,0-0.8,0.1-0.8
		c0,0.1,0.3,0.4,0.8,0.8c0.5,0.4,0.8,0.7,1,0.9c0.1,0.1,0.2,0.4,0.4,1c0.1,0.6,0.2,1.2,0.3,1.8c0.2,1.4,0.3,2.5,0.2,3.2
		c-0.1,0.7-0.4,1.3-0.9,1.8c-0.2,0.2-0.5,0.3-0.7,0.4c-0.2,0.1-0.5,0.2-0.9,0.3c-0.4,0.1-1,0.2-1.8,0.4c-0.8,0.1-1.8,0.3-3.2,0.6
		c-1.6,0.2-2.9,0.5-4.1,0.7c-1.2,0.3-1.8,0.4-1.9,0.4c-0.1,0-0.6,0.1-1.4,0.3c-0.8,0.2-1.7,0.4-2.6,0.5c-1.4,0.3-2.4,0.5-2.9,0.6
		c-0.5,0.1-1,0-1.4-0.2c-0.1-0.1-0.3-0.1-0.6-0.2c-0.2-0.1-0.4-0.1-0.5-0.1c-0.1,0-0.2,0-0.4,0c-0.1,0-0.3-0.1-0.4-0.4
		c-0.3-0.3-0.5-0.4-0.7-0.4c-0.1,0-0.4-0.1-0.8-0.5c-0.4-0.3-0.5-0.5-0.4-0.5c0.4,0.2,0.8,0.3,1.1,0.3c1.1,0.3,4.1-0.1,9.1-1.1
		c0.8-0.2,1.8-0.5,3.2-0.8c1.3-0.3,2.5-0.5,3.4-0.7c2.2-0.4,3.7-0.7,4.4-0.9C298.3,136.4,298.8,136.1,299.1,135.7z"/>
	<path class="st0" d="M290.5,78.4c-0.2-0.4-0.3-0.9-0.4-1.4c-0.1-0.5-0.2-0.8-0.2-1c0-0.2,0-0.4,0-0.4c0,0,0.1-0.1,0.2-0.1
		c0.8,0.3,1.4,0.8,1.8,1.8c0.4,0.9,0.7,2.2,1,3.7c0.2,1,0.3,1.6,0.3,1.8c0,0.2-0.2,0.6-0.6,1.1c-0.2,0.3-0.4,0.5-0.6,0.7
		c-0.2,0.1-0.5,0.3-1.1,0.5c-0.5,0.2-1.3,0.3-2.3,0.5c-1,0.2-2.4,0.4-4.2,0.7c-1.8,0.3-3.2,0.5-4.1,0.7c-1,0.2-1.7,0.4-2.1,0.7
		c-0.4,0.3-0.6,0.6-0.6,1c0,0.4,0,1,0.1,1.8c0.1,1.5,0.1,2.3,0,2.6c-0.1,0.3-0.3,0.5-0.8,0.7c-0.5,0.1-0.8-0.1-0.9-0.4
		c-0.1-0.3-0.3-1.5-0.6-3.6c-0.1-1-0.2-1.8-0.3-2.3c0-0.6,0.1-1,0.5-1.4c0.4-0.3,1-0.6,1.9-0.8c0.9-0.2,2.1-0.5,3.7-0.8
		c1.7-0.3,3.1-0.5,4.1-0.6c1-0.2,1.9-0.3,2.5-0.5c0.6-0.2,1-0.3,1.3-0.5c0.3-0.2,0.5-0.4,0.8-0.7c0.5-0.5,0.8-1.1,0.9-1.7
		C290.8,80.1,290.8,79.3,290.5,78.4z"/>
	<path class="st0" d="M287,102.1c0.6-0.7,1-1.3,1-1.8c0-0.5,0-1.5-0.3-2.9c-0.1-1.3-0.1-2.1-0.1-2.4c0.1-0.3,0.3-0.2,0.7,0.1
		c0.5,0.4,1,0.9,1.3,1.5c0.3,0.6,0.6,1.4,0.8,2.6c0.3,2.1,0.2,3.5-0.4,4.3c-0.6,0.8-1.8,1.4-3.6,1.6c-0.5,0.1-1.1,0.2-1.9,0.3
		c-0.8,0.1-1.5,0.2-2.1,0.3c-0.5,0.2-0.9,0.3-1.2,0.5c-0.3,0.2-0.4,0.6-0.5,1.4c0,0.7,0.1,1.8,0.3,3.3c0.2,1.5,0.5,3.6,0.9,6.3
		c0.4,2.8,0.8,5,1,6.5c0.2,1.5,0.4,2.7,0.5,3.4c0.1,0.7,0,1.2-0.1,1.3c-0.1,0.2-0.2,0.3-0.5,0.3c-0.1,0-0.3,0.1-0.5,0.2
		c-0.2,0.1-0.3,0.2-0.4,0.2c-0.1,0-0.2-0.2-0.3-0.5c-0.1-0.4-0.2-1-0.4-1.9s-0.3-2.2-0.6-3.8c-0.2-1.6-0.5-3.7-0.9-6.1
		c-0.5-3-0.8-5.4-1-7c-0.2-1.6-0.4-2.9-0.5-3.6c-0.1-0.8-0.1-1.2-0.1-1.4c0.1-0.2,0.1-0.3,0.3-0.4c0.2,0,0.8-0.2,1.6-0.3
		c0.8-0.2,1.7-0.4,2.7-0.5c1.7-0.3,2.7-0.6,3.2-0.7C286.4,102.6,286.7,102.4,287,102.1z"/>
</g>
<g>
	<path class="st2" d="M71.7,161.4c0.3,0,0.7-0.1,1.1-0.2c0.4-0.1,0.7-0.2,0.9-0.4c0.8-0.2,1.3-0.3,1.5-0.3c0.2,0,0.6,0.3,1.2,0.7
		c0.2,0.2,0.3,0.4,0.4,0.5c0.1,0.2,0.2,0.4,0.3,0.8c0.1,0.4,0.2,0.9,0.3,1.6c0.1,0.7,0.3,1.6,0.5,2.8c0.1,0.7,0.3,2.1,0.5,4
		s0.5,4.3,0.7,7c0.3,2.7,0.6,5.7,0.9,9c0.3,3.3,0.7,6.6,1,9.9c0.6,6.1,1,10.8,1.3,14.2c0.3,3.3,0.5,5.8,0.7,7.3
		c0.2,1.5,0.3,2.4,0.4,2.6s0.3,0.3,0.5,0.2c0.1,0,0.4-0.1,0.8-0.3c0.4-0.2,0.8-0.3,1.1-0.3c0.5-0.2,1.1-0.4,1.8-0.6
		c0.7-0.2,1.4-0.5,2.1-0.7c0.8-0.2,1.6-0.4,2.3-0.6c0.7-0.2,1.4-0.4,1.9-0.4c0.5-0.2,0.9-0.3,1.4-0.4c0.5-0.1,0.8-0.1,0.9-0.2
		c0.6-0.2,1.2,0.1,1.8,0.7c0.6,0.7,1.1,1.7,1.5,3c0.4,1.3,0.7,2.1,0.7,2.4c0,0.3-0.1,0.6-0.4,0.9c-0.2,0.2-0.5,0.4-0.9,0.5
		c-0.5,0.2-1,0.3-1.7,0.4c-0.4,0.1-1.2,0.3-2.3,0.6c-1.2,0.3-2.5,0.6-4,0.9c-1.5,0.3-3.1,0.7-4.8,1c-1.7,0.3-3.3,0.7-4.8,0.9
		c-1.5,0.3-2.7,0.5-3.5,0.6c-0.8,0.1-1.5-0.1-1.9-0.6c-0.4-0.5-0.7-1.2-0.9-2.2c-0.1-1-0.3-2.5-0.3-4.5c-0.1-1.5-0.3-4.6-0.7-9.2
		c-0.4-4.6-0.8-9.6-1.3-15c-0.5-5.4-1-10.6-1.5-15.7c-0.5-5.1-0.9-8.9-1.2-11.5c-0.3-1.8-0.5-3.3-0.6-4.3c-0.1-1-0.2-1.8-0.2-2.4
		c0-0.5,0-0.9,0.1-1.2c0.1-0.2,0.3-0.5,0.5-0.8C70.4,161.8,71,161.5,71.7,161.4z"/>
	<path class="st0" d="M101,220.1c-0.2-0.3-0.4-0.7-0.5-1.3c-0.3-0.3-0.1-0.3,0.7-0.1c0.3,0.1,0.7,0.6,1.3,1.3c0.5,0.8,1,1.8,1.5,3.1
		c0.4,1.1,0.6,2,0.7,2.6c0.1,0.6,0,1.3-0.3,2c-0.3,0.7-0.9,1.2-1.8,1.6c-0.9,0.3-2.4,0.7-4.3,1c-0.8,0.2-1.9,0.5-3.3,0.8
		c-1.4,0.3-2.7,0.6-3.8,0.8c-2.7,0.6-4.8,1-6.3,1.4c-1.5,0.3-2.7,0.5-3.5,0.7s-1.4,0.1-1.7,0.1c-0.3,0-0.7-0.1-1-0.3
		c-0.2-0.1-0.4-0.3-0.7-0.6c-0.3-0.3-0.5-0.5-0.7-0.6c-0.4-0.3-0.5-0.4-0.4-0.5c0.1-0.1,0.6-0.2,1.7-0.3c0.5,0,1.4-0.2,2.8-0.5
		c1.4-0.3,2.8-0.5,4.1-0.8c1.4-0.4,3.1-0.8,5-1.2c1.9-0.4,3.5-0.7,4.8-1c1.3-0.3,2.3-0.5,3-0.6c0.7-0.2,1.2-0.3,1.6-0.5
		c0.4-0.1,0.7-0.3,0.8-0.5c0.2-0.2,0.4-0.4,0.6-0.7c0.3-0.3,0.4-0.7,0.5-1.1c0-0.4,0-0.9,0-1.6c0-0.5-0.1-1.1-0.2-1.7
		C101.3,220.9,101.2,220.4,101,220.1z"/>
	<path class="st0" d="M83.4,202.5c-0.3-3.9-0.6-7.9-1.1-12.2c-0.4-4.3-0.9-8.3-1.3-12.1c-0.4-3.8-0.8-7.1-1.2-9.9
		c-0.3-2.8-0.6-4.7-0.7-5.6c-0.2-0.8-0.3-1.2-0.3-1.3c0-0.1,0.3,0,0.9,0.3c0.4,0.3,0.8,0.6,1,1c0.3,0.4,0.5,1,0.7,1.9
		c0.2,0.9,0.4,2.2,0.7,4c0.2,1.8,0.5,4.3,0.9,7.4c0.7,5.8,1.3,10.5,1.8,14.3c0.5,3.8,0.9,6.9,1.1,9.5c0.3,2.6,0.5,4.7,0.6,6.5
		c0.1,1.7,0.3,3.5,0.4,5.2c0.1,1.8,0.1,3.2,0.2,4.1c0.1,0.9,0,1.6,0,2s-0.2,0.7-0.4,0.8c-0.2,0.1-0.6,0.3-1,0.5
		c-0.2,0-0.4-0.1-0.5-0.3c-0.1-0.2-0.2-0.8-0.4-1.9c-0.1-1.1-0.3-2.7-0.5-4.9S83.8,206.4,83.4,202.5z"/>
	<path class="st2" d="M103.3,175.2c0-0.1,0.1-0.3,0.4-0.6c0.2-0.3,0.5-0.6,0.8-0.8c0.3-0.2,0.6-0.4,0.8-0.5c0.2-0.1,0.6-0.3,1.2-0.4
		c0.6-0.1,1.4-0.2,2.5-0.3c1.1-0.1,2.6-0.3,4.7-0.4c2.1-0.2,3.8-0.3,4.9-0.4s2-0.1,2.6-0.1c0.6,0,0.9,0.2,1.1,0.3
		c0.2,0.2,0.3,0.5,0.5,0.8c0.1,0.2,0.2,0.5,0.4,0.9c0.1,0.4,0.2,0.8,0.3,1.2c0.2,0.7,0.2,1.2,0.2,1.4c0,0.2-0.1,0.4-0.4,0.8
		c-0.1,0.2-0.2,0.3-0.4,0.4c-0.1,0.1-0.4,0.2-0.8,0.3c-0.4,0.1-1.1,0.2-2,0.2c-0.9,0.1-2.2,0.2-3.8,0.4c-1.6,0.2-2.8,0.4-3.7,0.5
		c-0.9,0.1-1.5,0.2-2,0.3c-0.4,0.1-0.7,0.2-0.8,0.2c-0.1,0.1-0.2,0.2-0.3,0.3c-0.1,0.3-0.1,0.8-0.1,1.3c0,0.6,0.1,1.8,0.3,3.8
		c0.1,1.1,0.2,2,0.3,2.6c0.1,0.6,0.3,1,0.6,1.3c0.3,0.3,0.8,0.4,1.4,0.4c0.6,0,1.5-0.1,2.6-0.2c1.4-0.1,2.4-0.2,3.1-0.2
		c0.7,0,1.3,0.1,1.6,0.3c0.3,0.2,0.5,0.5,0.6,1s0.1,1.1,0.1,1.9c0.1,1,0.1,1.6,0.1,2c0,0.3-0.1,0.6-0.3,0.7
		c-0.2,0.3-0.7,0.5-1.4,0.6c-0.7,0.1-2.2,0.3-4.3,0.6c-0.9,0.2-1.6,0.3-2.1,0.4c-0.5,0.1-0.8,0.2-1,0.4c-0.2,0.2-0.3,0.4-0.3,0.8
		s0.1,0.8,0.3,1.5c0.1,0.8,0.2,1.9,0.4,3.5c0.2,1.6,0.3,3.2,0.5,5c0.2,1.8,0.3,3.6,0.5,5.3c0.1,1.8,0.2,3.2,0.3,4.4
		c0.1,1.6,0.3,2.6,0.3,2.9c0.1,0.3,0.3,0.5,0.6,0.7c0.2,0.2,0.4,0.3,0.5,0.4c0.1,0,0.3,0,0.5,0c0.1,0,0.8-0.1,2.1-0.3
		c1.3-0.2,2.8-0.4,4.6-0.5c1.9-0.2,3.4-0.4,4.4-0.5c1-0.1,1.7-0.1,2.1,0c0.4,0.1,0.7,0.4,0.7,0.8c0.1,0.4,0.1,1,0.1,1.8
		c0.1,0.6,0.1,1.2,0.2,1.7c0,0.5,0.1,0.8,0.1,0.8c-0.1,0.3-0.4,0.5-0.9,0.7c-0.5,0.2-1.2,0.4-2.2,0.6c-1,0.2-2.3,0.4-3.9,0.6
		c-1.6,0.2-3.7,0.5-6.1,0.7c-1.4,0.1-2.4,0.2-3.1,0.3c-0.7,0.1-1.3,0.1-1.7,0.1c-0.4,0-0.7-0.1-0.9-0.2c-0.2-0.1-0.5-0.2-0.7-0.5
		c-0.7-0.5-1.4-1.2-1.9-2c-0.2-0.3-0.3-0.6-0.5-0.8c-0.1-0.2-0.2-0.7-0.3-1.2c-0.1-0.6-0.2-1.4-0.3-2.6c-0.1-1.1-0.2-2.7-0.3-4.8
		c-0.1-1.1-0.2-2.3-0.2-3.6c-0.1-1.3-0.2-2.5-0.3-3.7c-0.1-1.2-0.2-2.3-0.4-3.4c-0.1-1-0.2-1.9-0.3-2.7c-0.1-0.7-0.2-1.6-0.3-2.7
		c-0.1-1.2-0.3-2.4-0.4-3.8c-0.1-1.4-0.3-2.8-0.4-4.2c-0.1-1.5-0.3-2.9-0.4-4.2c-0.3-2.4-0.5-4.3-0.7-5.6c-0.1-1.3-0.3-2.3-0.3-3
		c-0.1-0.7-0.1-1.1,0-1.4c0-0.3,0.1-0.5,0.2-0.9c0.2-0.2,0.3-0.4,0.4-0.6c0.1-0.2,0.2-0.3,0.3-0.3
		C103.3,175.4,103.3,175.3,103.3,175.2z"/>
	<path class="st0" d="M129.7,226.3c0.4-0.4,0.6-1,0.7-1.7c0.1-0.7,0.1-1.6-0.1-2.7c0-0.5-0.1-1-0.1-1.5c0-0.4,0-0.7,0.1-0.7
		c0,0.1,0.2,0.4,0.6,0.7c0.4,0.4,0.7,0.7,0.8,0.9c0.1,0.1,0.2,0.4,0.3,0.9c0.1,0.5,0.2,1,0.2,1.6c0.1,1.3,0.1,2.2,0,2.8
		c-0.1,0.6-0.4,1.1-0.9,1.6c-0.2,0.2-0.4,0.3-0.6,0.4c-0.2,0.1-0.5,0.2-0.9,0.2c-0.4,0.1-0.9,0.2-1.6,0.3c-0.7,0.1-1.6,0.2-2.9,0.3
		c-1.4,0.1-2.6,0.3-3.7,0.4c-1.1,0.2-1.6,0.3-1.7,0.3c-0.1,0-0.5,0.1-1.2,0.2c-0.7,0.1-1.5,0.3-2.4,0.3c-1.3,0.2-2.2,0.4-2.6,0.4
		c-0.5,0-0.9-0.1-1.2-0.3c-0.1-0.1-0.3-0.1-0.5-0.2c-0.2-0.1-0.4-0.1-0.4-0.1c-0.1,0-0.2,0-0.3,0c-0.1,0-0.2-0.1-0.3-0.4
		c-0.2-0.3-0.4-0.4-0.6-0.4c-0.1,0-0.3-0.1-0.7-0.5c-0.3-0.3-0.4-0.5-0.3-0.5c0.4,0.2,0.7,0.3,0.9,0.3c0.9,0.3,3.6,0.2,8.2-0.5
		c0.7-0.1,1.7-0.3,2.9-0.5c1.2-0.2,2.2-0.4,3.1-0.4c2-0.3,3.3-0.5,3.9-0.6C128.9,226.9,129.4,226.6,129.7,226.3z"/>
	<path class="st0" d="M124.9,174.7c-0.1-0.4-0.3-0.8-0.3-1.3c-0.1-0.5-0.1-0.8-0.1-0.9c0-0.2,0-0.3,0-0.4c0,0,0.1,0,0.2-0.1
		c0.7,0.3,1.2,0.8,1.5,1.7c0.3,0.9,0.5,2,0.7,3.3c0.2,0.9,0.2,1.4,0.2,1.6c0,0.2-0.2,0.5-0.6,1c-0.2,0.3-0.4,0.5-0.6,0.6
		c-0.2,0.1-0.5,0.2-1,0.4c-0.5,0.1-1.2,0.2-2.1,0.4c-0.9,0.1-2.2,0.3-3.8,0.4c-1.6,0.1-2.9,0.3-3.7,0.4c-0.9,0.1-1.5,0.3-1.9,0.5
		c-0.4,0.2-0.6,0.5-0.6,0.9c0,0.4,0,0.9,0,1.6c0,1.3,0,2.1-0.1,2.3c-0.1,0.3-0.3,0.4-0.7,0.6c-0.4,0-0.7-0.1-0.8-0.4
		c-0.1-0.3-0.2-1.4-0.4-3.2c-0.1-0.9-0.1-1.6-0.1-2.1c0-0.5,0.2-0.9,0.5-1.2c0.3-0.3,0.9-0.5,1.7-0.6c0.8-0.1,1.9-0.3,3.3-0.5
		c1.5-0.1,2.8-0.3,3.7-0.3c0.9-0.1,1.7-0.2,2.2-0.3c0.5-0.1,0.9-0.2,1.2-0.4c0.3-0.1,0.5-0.3,0.7-0.6c0.5-0.5,0.8-0.9,0.9-1.4
		C125.1,176.3,125.1,175.6,124.9,174.7z"/>
	<path class="st0" d="M120.6,195.7c0.6-0.6,0.9-1.1,1-1.6c0.1-0.5,0-1.3-0.1-2.6c0-1.2,0-1.9,0-2.1c0.1-0.2,0.3-0.2,0.6,0.1
		c0.4,0.4,0.8,0.9,1.1,1.4c0.3,0.5,0.5,1.3,0.6,2.4c0.2,1.9,0,3.1-0.6,3.8c-0.6,0.7-1.6,1.1-3.3,1.3c-0.4,0-1,0.1-1.8,0.2
		c-0.7,0.1-1.4,0.1-1.9,0.2c-0.5,0.1-0.8,0.3-1.1,0.4c-0.3,0.1-0.4,0.5-0.5,1.2s0,1.6,0.1,3s0.3,3.2,0.5,5.7
		c0.3,2.5,0.5,4.5,0.6,5.9c0.1,1.4,0.2,2.4,0.2,3c0,0.6,0,1-0.1,1.2c-0.1,0.1-0.2,0.2-0.4,0.3c-0.1,0-0.3,0.1-0.4,0.2
		c-0.2,0.1-0.3,0.2-0.4,0.2c-0.1,0-0.2-0.1-0.2-0.5c-0.1-0.3-0.1-0.9-0.2-1.7c-0.1-0.8-0.2-2-0.3-3.4c-0.1-1.4-0.3-3.3-0.5-5.5
		c-0.3-2.7-0.4-4.8-0.6-6.3c-0.1-1.5-0.2-2.6-0.3-3.3c-0.1-0.7,0-1.1,0-1.3c0.1-0.1,0.1-0.3,0.3-0.4c0.2,0,0.7-0.1,1.4-0.2
		c0.7-0.1,1.5-0.2,2.4-0.3c1.5-0.2,2.5-0.4,2.9-0.5C120,196.1,120.3,196,120.6,195.7z"/>
	<path class="st2" d="M135.8,176.4c1.1-2.1,2.7-3.6,4.7-4.7c2-1.1,4.8-1.9,8.5-2.5c1.4-0.2,2.6-0.4,3.4-0.5c0.9-0.1,1.5-0.2,2-0.1
		s0.8,0.2,0.9,0.4c0.2,0.2,0.3,0.6,0.3,1.1c0.1,0.9,0.1,1.7-0.1,2.5c-0.1,0.8-0.3,1.4-0.6,1.7c-0.1,0.1-0.3,0.3-0.5,0.3
		c-0.2,0.1-0.4,0.2-0.7,0.2c-0.3,0.1-0.7,0.1-1.2,0.2c-0.5,0.1-1.2,0.2-2.1,0.3c-2.9,0.5-5,1-6.1,1.6c-1.1,0.5-2,1.3-2.5,2.3
		c-0.7,1.3-1.2,2.4-1.5,3.5c-0.3,1-0.6,2.5-0.9,4.4c0,0.5,0,1.2,0,2.3c0,1.1,0.1,2.2,0.1,3.5c0,1.3,0.1,2.5,0.2,3.8
		c0.1,1.3,0.2,2.3,0.3,3.2c0.1,0.8,0.2,1.8,0.3,3c0.1,1.1,0.3,2.2,0.5,3.3s0.3,2,0.5,2.8c0.1,0.8,0.3,1.3,0.4,1.6
		c0.1,0.1,0.2,0.3,0.3,0.5c0.1,0.3,0.2,0.4,0.2,0.5c0,0.2,0.1,0.4,0.3,0.8c0.2,0.4,0.4,0.8,0.6,1.2c0.2,0.4,0.4,0.8,0.7,1.2
		c0.2,0.4,0.4,0.6,0.6,0.8c1.2,1.2,3.8,1.7,7.8,1.5c1.4,0,2.3-0.1,2.7-0.1c0.4-0.1,0.7-0.3,1-0.6c0.4-0.4,0.7-0.8,0.9-1.2
		c0.2-0.4,0.4-1.3,0.6-2.7c0-0.4,0.1-0.9,0.1-1.4c0-0.5,0.1-0.9,0-1.2c0.1-0.3,0.1-0.7,0.2-1.2c0.1-0.5,0.2-0.9,0.3-1.2
		c0-0.3-0.1-1-0.1-2c0-1-0.1-2.1-0.2-3.2c-0.1-1.3-0.2-2.4-0.3-3c-0.1-0.7-0.3-1.2-0.6-1.4c-0.3-0.3-0.8-0.4-1.5-0.3
		c-0.7,0-1.7,0.1-3,0.2c-1,0.2-1.8,0.3-2.4,0.4c-0.6,0.1-1,0.1-1.3,0.2c-0.3,0-0.5,0-0.6,0c-0.1-0.1-0.2-0.1-0.3-0.3
		c-0.4-0.3-0.6-0.6-0.6-1c-0.1-0.4,0-1,0.1-2.1c0-0.9,0.1-1.5,0.2-1.9c0.1-0.4,0.3-0.7,0.6-1c0.3-0.2,1.2-0.5,2.8-0.7
		c1.6-0.3,3.3-0.5,5.2-0.6c1.6-0.2,2.8-0.3,3.5-0.1c0.7,0.2,1.4,0.5,2.1,1.1c0.4,0.3,0.6,0.6,0.8,0.9c0.2,0.3,0.4,0.6,0.5,1
		c0.1,0.4,0.3,0.9,0.4,1.5c0.1,0.6,0.3,1.4,0.5,2.3c0.3,2.5,0.4,5,0.3,7.5c-0.1,2.5-0.3,5.5-0.8,9c-0.5,3.1-0.9,5.3-1.3,6.4
		c-0.4,1.1-0.8,1.9-1.5,2.2c-0.5,0.3-1.3,0.6-2.2,0.8c-0.9,0.2-1.9,0.4-2.9,0.6c-1,0.2-2.1,0.3-3.1,0.3c-1,0-1.9,0-2.7-0.1
		c-0.5,0-0.9-0.1-1.4-0.2c-0.5-0.1-0.8-0.1-1-0.1c-0.6,0-1.3-0.1-2.2-0.3c-0.9-0.2-1.6-0.4-2-0.6c-0.7-0.3-1.4-0.7-2.2-1.3
		c-0.8-0.6-1.5-1.3-2.1-2c-0.3-0.4-0.5-0.8-0.8-1.3c-0.2-0.4-0.4-0.7-0.5-0.8l0-0.4c-0.2-0.1-0.6-0.6-0.9-1.6c-0.4-1-0.7-2-1-3
		c-0.5-1.7-0.9-3.9-1.3-6.5c-0.4-2.6-0.7-5.3-0.9-8c-0.2-2.7-0.3-5.3-0.3-7.8c0-2.5,0.2-4.4,0.5-5.8c0.1-0.3,0.2-0.8,0.3-1.3
		c-0.1-0.3,0-0.6,0.1-1.1c0.1-0.1,0.1-0.2,0.1-0.4c0-0.2,0-0.4,0-0.5c0.1-0.2,0.3-0.8,0.7-1.7C135,178.1,135.4,177.2,135.8,176.4z"
		/>
	<path class="st0" d="M164.1,192.5c-0.1-0.1-0.2-0.3-0.3-0.6c0-0.2,0.2-0.1,0.7,0.5c0.5,0.5,0.9,1,1.3,1.6c0.4,0.4,0.6,0.9,0.7,1.4
		c0.1,0.5,0.3,1.7,0.6,3.5c0.3,2.4,0.5,4.8,0.5,7.2c0,2.4-0.2,4.7-0.5,6.9c-0.1,0.5-0.1,1-0.2,1.6c-0.1,0.6-0.1,1.1-0.2,1.5
		c-0.4,2.7-0.8,4.7-1.2,6c-0.4,1.3-0.8,2.2-1.3,2.6c-0.1,0.1-0.3,0.4-0.6,0.7c-0.5,0.1-0.9,0.2-1.1,0.3c-0.4,0.3-1.3,0.6-2.7,1
		c-1.4,0.4-2.6,0.6-3.7,0.7c-1.4,0.1-3.2,0-5.2-0.1c-2-0.1-3.7-0.4-5-0.9c-0.4,0-0.9-0.2-1.4-0.4c-0.5-0.2-1-0.5-1.4-0.7
		c-0.4-0.3-0.8-0.5-1.1-0.8c-0.3-0.2-0.5-0.4-0.5-0.6c0,0,0.4,0.2,1.2,0.6c1,0.4,2.1,0.7,3.4,0.8c1.3,0.2,2.6,0.3,4,0.3
		c1.4,0,2.8,0,4.2-0.1c1.4-0.1,2.7-0.4,3.8-0.7c1.1-0.3,2-0.5,2.7-0.8c0.7-0.3,1.2-0.7,1.7-1.3c0.4-0.6,0.8-1.4,1-2.4
		c0.3-1,0.5-2.3,0.9-4c0.2-1.3,0.3-2.4,0.4-3.2c0.1-0.8,0.2-1.7,0.4-2.6c0-0.4,0.1-0.9,0.2-1.4c0.1-0.5,0.1-0.9,0.1-1.2
		c0.2-1.6,0.3-3.4,0.2-5.3c0-1.9-0.2-3.8-0.6-5.6c-0.1-1.2-0.3-2.1-0.4-2.9C164.3,193.2,164.2,192.7,164.1,192.5z"/>
	<path class="st0" d="M156.9,172.5c0-0.4,0.1-0.9,0.1-1.4c0-0.5,0-0.9-0.1-1.2c0-0.4,0-0.7,0.2-0.8c0.2-0.1,0.5,0.1,1.1,0.6
		c0.4,0.3,0.6,0.6,0.7,0.9c0.1,0.3,0.2,1,0.3,2.1c0,2-0.4,3.5-1.1,4.5c-0.3,0.3-0.5,0.5-0.7,0.6c-0.2,0.1-0.4,0.3-0.7,0.4
		c-0.3,0.1-0.6,0.2-1.1,0.3c-0.4,0.1-1.1,0.2-1.9,0.3c-0.7,0.1-1.4,0.2-2.2,0.3c-0.8,0.2-1.5,0.3-2.3,0.5c-0.7,0.2-1.3,0.4-1.9,0.5
		c-0.5,0.2-0.9,0.3-1,0.4c-0.3,0.3-0.6,0.7-1,1.2c-0.4,0.5-0.7,1-0.9,1.6c-0.3,0.5-0.6,1.5-0.9,3c-0.3,1.5-0.5,2.9-0.6,4.2
		c-0.1,0.5-0.1,1-0.2,1.5c0,0.5,0,1.1,0,1.8c0.1,0.7,0.1,1.7,0.2,2.8c0.1,1.1,0.2,2.6,0.4,4.4c0.2,2.3,0.4,4.1,0.5,5.5
		c0.2,1.4,0.3,2.5,0.5,3.4c0.2,0.9,0.3,1.7,0.5,2.2c0.2,0.6,0.4,1.2,0.7,1.8c0.5,1.3,0.4,1.5-0.3,0.7c-0.5-0.5-0.8-0.8-0.9-1
		c-0.1-0.2-0.3-0.6-0.6-1.2c-0.2-0.5-0.4-1-0.6-1.4c-0.2-0.4-0.3-0.8-0.4-1.2c-0.1-0.4-0.2-0.9-0.4-1.4c-0.1-0.5-0.2-1.2-0.3-2
		c-0.3-1.8-0.6-3.8-0.8-5.9c-0.2-2.1-0.4-4.1-0.5-6.2c-0.1-2-0.1-3.9,0-5.6c0.1-1.7,0.3-3.1,0.6-4.2c0.2-1.1,0.4-1.9,0.6-2.3
		c0.1-0.5,0.4-1,0.8-1.7c0.4-0.7,0.7-1.1,1-1.3c0.3-0.2,0.6-0.4,1.1-0.7c0.4-0.1,0.9-0.3,1.6-0.4c0.7-0.2,1.4-0.3,2.1-0.5
		c0.7-0.2,1.5-0.3,2.2-0.5c0.7-0.1,1.3-0.3,1.8-0.4c1.5-0.1,2.6-0.5,3.1-1.1C156.4,174.9,156.7,173.9,156.9,172.5z"/>
	<path class="st0" d="M149.2,200.9c-1.1-0.6-1.5-0.9-1.2-1.1c0.2-0.2,1.4-0.4,3.5-0.7c1-0.1,1.8-0.2,2.6-0.2
		c0.8-0.1,1.2-0.1,1.3-0.1c0.2,0.2,0.2,0.3,0.2,0.4c0,0.2,0.1,0.6,0.2,1c0.1,0.4,0.1,0.7,0,0.8c-1.4,0.2-2.5,0.4-3.3,0.5
		c-0.8,0.1-1.3,0.1-1.8,0.1c-0.4,0-0.7-0.1-0.9-0.2C149.7,201.3,149.5,201.1,149.2,200.9z"/>
	<path class="st2" d="M168.8,169.2c0-0.1,0.1-0.3,0.4-0.6c0.2-0.3,0.5-0.6,0.8-0.8c0.3-0.2,0.6-0.4,0.8-0.5c0.2-0.1,0.6-0.3,1.2-0.4
		c0.6-0.1,1.4-0.2,2.5-0.3c1.1-0.1,2.6-0.3,4.7-0.4c2.1-0.2,3.8-0.3,4.9-0.4c1.2-0.1,2-0.1,2.6-0.1c0.6,0,0.9,0.2,1.1,0.3
		c0.2,0.2,0.3,0.5,0.5,0.8c0.1,0.2,0.2,0.5,0.4,0.9c0.1,0.4,0.2,0.8,0.3,1.2c0.1,0.7,0.2,1.2,0.2,1.4c0,0.2-0.1,0.4-0.4,0.8
		c-0.1,0.2-0.2,0.3-0.4,0.4c-0.1,0.1-0.4,0.2-0.8,0.3c-0.4,0.1-1.1,0.2-2,0.2c-0.9,0.1-2.2,0.2-3.8,0.4c-1.6,0.2-2.8,0.4-3.7,0.5
		c-0.9,0.1-1.5,0.2-2,0.3c-0.4,0.1-0.7,0.2-0.8,0.2c-0.1,0.1-0.2,0.2-0.3,0.3c-0.1,0.3-0.1,0.8-0.1,1.3c0,0.6,0.1,1.8,0.3,3.8
		c0.1,1.1,0.2,2,0.3,2.6c0.1,0.6,0.3,1,0.6,1.3c0.3,0.3,0.8,0.4,1.4,0.4c0.6,0,1.5-0.1,2.6-0.2c1.4-0.1,2.4-0.2,3.1-0.2
		c0.7,0,1.3,0.1,1.6,0.3c0.3,0.2,0.5,0.5,0.6,1c0,0.5,0.1,1.1,0.1,1.9c0.1,1,0.1,1.6,0.1,2c0,0.3-0.1,0.6-0.3,0.7
		c-0.2,0.3-0.7,0.5-1.4,0.6c-0.7,0.1-2.2,0.3-4.3,0.6c-0.9,0.2-1.6,0.3-2.1,0.4c-0.5,0.1-0.8,0.2-1,0.4c-0.2,0.2-0.3,0.4-0.3,0.8
		c0,0.3,0.1,0.8,0.3,1.5c0.1,0.8,0.2,1.9,0.4,3.5c0.2,1.6,0.3,3.2,0.5,5c0.2,1.8,0.3,3.6,0.5,5.3c0.1,1.8,0.2,3.2,0.3,4.4
		c0.1,1.6,0.3,2.6,0.3,2.9c0.1,0.3,0.3,0.5,0.6,0.7c0.2,0.2,0.4,0.3,0.5,0.4s0.3,0,0.5,0c0.1,0,0.8-0.1,2.1-0.3
		c1.3-0.2,2.8-0.4,4.6-0.5c1.9-0.2,3.4-0.4,4.4-0.5c1-0.1,1.7-0.1,2.1,0c0.4,0.1,0.7,0.4,0.7,0.8c0.1,0.4,0.1,1,0.1,1.8
		c0.1,0.6,0.1,1.2,0.2,1.7c0,0.5,0.1,0.8,0.1,0.8c-0.1,0.3-0.4,0.5-0.9,0.7c-0.5,0.2-1.2,0.4-2.2,0.6c-1,0.2-2.3,0.4-3.9,0.6
		c-1.6,0.2-3.7,0.5-6.1,0.7c-1.4,0.1-2.4,0.2-3.1,0.3c-0.7,0.1-1.3,0.1-1.7,0.1c-0.4,0-0.7-0.1-0.9-0.2c-0.2-0.1-0.5-0.2-0.7-0.5
		c-0.7-0.5-1.4-1.2-1.9-2c-0.2-0.3-0.3-0.6-0.5-0.8c-0.1-0.2-0.2-0.7-0.3-1.2c-0.1-0.6-0.2-1.4-0.3-2.6c-0.1-1.1-0.2-2.7-0.3-4.8
		c-0.1-1.1-0.2-2.3-0.2-3.6c-0.1-1.3-0.2-2.5-0.3-3.7c-0.1-1.2-0.2-2.3-0.4-3.4c-0.1-1-0.2-1.9-0.3-2.7c-0.1-0.7-0.2-1.6-0.3-2.7
		c-0.1-1.2-0.3-2.4-0.4-3.8c-0.1-1.4-0.3-2.8-0.4-4.2c-0.1-1.5-0.3-2.9-0.4-4.2c-0.3-2.4-0.5-4.3-0.7-5.6c-0.1-1.3-0.3-2.3-0.3-3
		c-0.1-0.7-0.1-1.1,0-1.4c0-0.3,0.1-0.5,0.2-0.9c0.2-0.2,0.3-0.4,0.4-0.6s0.2-0.3,0.3-0.3C168.7,169.4,168.8,169.3,168.8,169.2z"/>
	<path class="st0" d="M195.1,220.2c0.4-0.4,0.6-1,0.7-1.7c0.1-0.7,0.1-1.6-0.1-2.7c0-0.5-0.1-1-0.1-1.5c0-0.4,0-0.7,0.1-0.7
		c0,0.1,0.2,0.4,0.6,0.7c0.4,0.4,0.7,0.7,0.8,0.9c0.1,0.1,0.2,0.4,0.3,0.9s0.2,1,0.2,1.6c0.1,1.3,0.1,2.2,0,2.8
		c-0.1,0.6-0.4,1.1-0.9,1.6c-0.2,0.2-0.4,0.3-0.6,0.4c-0.2,0.1-0.5,0.2-0.9,0.2c-0.4,0.1-0.9,0.2-1.6,0.3c-0.7,0.1-1.6,0.2-2.9,0.3
		c-1.4,0.1-2.6,0.3-3.7,0.4c-1.1,0.2-1.6,0.3-1.7,0.3c-0.1,0-0.5,0.1-1.2,0.2c-0.7,0.1-1.5,0.3-2.4,0.3c-1.3,0.2-2.2,0.4-2.6,0.4
		c-0.5,0-0.9-0.1-1.2-0.3c-0.1-0.1-0.3-0.1-0.5-0.2c-0.2-0.1-0.4-0.1-0.4-0.1c-0.1,0-0.2,0-0.3,0c-0.1,0-0.2-0.1-0.3-0.4
		c-0.2-0.3-0.4-0.4-0.6-0.4c-0.1,0-0.3-0.1-0.7-0.5c-0.3-0.3-0.4-0.5-0.3-0.5c0.4,0.2,0.7,0.3,0.9,0.3c0.9,0.3,3.6,0.2,8.2-0.5
		c0.7-0.1,1.7-0.3,2.9-0.5c1.2-0.2,2.2-0.4,3.1-0.4c2-0.3,3.3-0.5,3.9-0.6C194.4,220.8,194.8,220.6,195.1,220.2z"/>
	<path class="st0" d="M190.4,168.7c-0.1-0.4-0.3-0.8-0.3-1.3c-0.1-0.5-0.1-0.8-0.1-0.9c0-0.2,0-0.3,0-0.4c0,0,0.1,0,0.2-0.1
		c0.7,0.3,1.2,0.8,1.5,1.7c0.3,0.9,0.5,2,0.7,3.3c0.2,0.9,0.2,1.4,0.2,1.6c0,0.2-0.2,0.5-0.6,1c-0.2,0.3-0.4,0.5-0.6,0.6
		c-0.2,0.1-0.5,0.2-1,0.4c-0.5,0.1-1.2,0.2-2.1,0.4c-0.9,0.1-2.2,0.3-3.8,0.4c-1.6,0.1-2.9,0.3-3.7,0.4c-0.9,0.1-1.5,0.3-1.9,0.5
		c-0.4,0.2-0.6,0.5-0.6,0.9c0,0.4,0,0.9,0,1.6c0,1.3,0,2.1-0.1,2.3c-0.1,0.3-0.3,0.4-0.7,0.6c-0.4,0-0.7-0.1-0.8-0.4
		c-0.1-0.3-0.2-1.4-0.4-3.2c-0.1-0.9-0.1-1.6-0.1-2.1c0-0.5,0.2-0.9,0.5-1.2c0.3-0.3,0.9-0.5,1.7-0.6c0.8-0.1,1.9-0.3,3.3-0.5
		c1.5-0.1,2.8-0.3,3.7-0.3c0.9-0.1,1.7-0.2,2.2-0.3c0.5-0.1,0.9-0.2,1.2-0.4c0.3-0.1,0.5-0.3,0.7-0.6c0.5-0.5,0.8-0.9,0.9-1.4
		C190.6,170.3,190.6,169.6,190.4,168.7z"/>
	<path class="st0" d="M186,189.7c0.6-0.6,0.9-1.1,1-1.6c0.1-0.5,0-1.3-0.1-2.6c0-1.2,0-1.9,0-2.1c0.1-0.2,0.3-0.2,0.6,0.1
		c0.4,0.4,0.8,0.9,1.1,1.4c0.3,0.5,0.5,1.3,0.6,2.4c0.2,1.9,0,3.1-0.6,3.8c-0.6,0.7-1.6,1.1-3.3,1.3c-0.4,0-1,0.1-1.8,0.2
		c-0.7,0.1-1.4,0.1-1.9,0.2c-0.5,0.1-0.8,0.3-1.1,0.4c-0.3,0.1-0.4,0.5-0.5,1.2c-0.1,0.7,0,1.6,0.1,3c0.1,1.3,0.3,3.2,0.5,5.7
		c0.3,2.5,0.5,4.5,0.6,5.9c0.1,1.4,0.2,2.4,0.2,3c0,0.6,0,1-0.1,1.2c-0.1,0.1-0.2,0.2-0.4,0.3c-0.1,0-0.3,0.1-0.4,0.2
		c-0.2,0.1-0.3,0.2-0.4,0.2c-0.1,0-0.2-0.1-0.2-0.5c-0.1-0.3-0.1-0.9-0.2-1.7c-0.1-0.8-0.2-2-0.3-3.4c-0.1-1.4-0.3-3.3-0.5-5.5
		c-0.3-2.7-0.4-4.8-0.6-6.3c-0.1-1.5-0.2-2.6-0.3-3.3c-0.1-0.7,0-1.1,0-1.3c0.1-0.1,0.1-0.3,0.3-0.4c0.2,0,0.7-0.1,1.4-0.2
		c0.7-0.1,1.5-0.2,2.4-0.3c1.5-0.2,2.5-0.4,2.9-0.5C185.5,190.1,185.8,189.9,186,189.7z"/>
	<path class="st2" d="M220.2,163.5c0-0.1,0.1-0.3,0.2-0.5c0.2-0.2,0.3-0.4,0.4-0.5c0.5-0.3,1.2-0.4,2.1-0.5c1.1-0.1,1.9,0,2.5,0.2
		c0.5,0.2,0.9,0.6,1.1,1.2c0.1,0.2,0.3,2,0.6,5.2c0.3,3.2,0.8,7,1.2,11.4c0.5,4.4,1,8.9,1.5,13.6c0.5,4.7,0.9,8.6,1.3,11.8
		c0.2,2.3,0.4,4,0.4,5.3c0.1,1.3,0.1,2.2,0.2,2.8c0,0.6,0,1,0,1.2c-0.1,0.2-0.1,0.3-0.2,0.4c-0.3,0.4-0.7,0.7-1.2,0.9
		c-0.5,0.3-1,0.5-1.6,0.7c-0.6,0.2-1.1,0.3-1.6,0.3c-0.5,0-0.9,0-1.1-0.2c-0.1-0.1-0.5-0.5-0.9-1.2c-0.5-0.7-1-1.6-1.6-2.6
		s-1.2-2-1.8-3.1c-0.6-1-1.1-1.9-1.4-2.7c-0.3-0.5-0.5-0.9-0.7-1.2c-0.2-0.3-0.4-0.7-0.5-1.2c0-0.1-0.2-0.4-0.5-1
		c-0.3-0.6-0.7-1.2-1.3-2.1c-0.2-0.2-0.4-0.6-0.6-1.2c0-0.1,0-0.3-0.1-0.5c0-0.2-0.1-0.4-0.2-0.5c-0.2-0.2-0.4-0.7-0.8-1.3
		c-0.4-0.6-0.8-1.4-1.2-2.2c-0.7-1.2-1.3-2.1-1.8-2.8c-0.5-0.7-0.9-1.3-1.3-1.8c-0.3-0.2-0.5-0.5-0.8-0.8c-0.3-0.3-0.5-0.7-0.6-1
		c-0.2-0.2-0.3-0.4-0.4-0.6c-0.1-0.2-0.3-0.2-0.4-0.1l-0.3-0.2c0-0.1-0.1-0.3-0.4-0.7c-0.3-0.4-0.6-0.9-1-1.4
		c-0.4-0.5-0.8-1-1.2-1.5c-0.4-0.5-0.6-0.8-0.8-1c-0.1-0.1-0.2-0.2-0.3-0.3c-0.1-0.1-0.2-0.3-0.3-0.4c0-0.2-0.2-0.3-0.5-0.2
		c-0.2,0-0.4,0.3-0.4,0.8c0,0.5,0.1,1.7,0.3,3.7c0.1,1.2,0.3,2.7,0.5,4.4c0.2,1.7,0.5,3,0.7,4.1c0.1,0.6,0.1,1.3,0.2,2.2
		c0.1,0.9,0.2,1.8,0.3,2.8c0.1,1,0.2,2,0.4,3.1c0.1,1,0.2,2,0.3,2.9c0.2,1.7,0.4,3,0.5,4c0.1,0.9,0.2,1.6,0.2,2.1
		c0,0.5,0,0.8-0.1,0.9c-0.1,0.1-0.2,0.3-0.4,0.4c-0.2,0.3-0.5,0.4-0.8,0.5c-0.3,0.1-0.8,0.2-1.6,0.2c-1.4,0.3-2.3,0.2-2.7-0.1
		c-0.4-0.3-0.8-1.1-1-2.3c-0.4-2.1-0.8-5.4-1.3-10c-0.5-4.6-0.9-9.3-1.3-14.1c-0.4-4.8-0.7-9.2-0.9-13.1c-0.2-3.9-0.2-6.2,0-6.8
		c0.1-0.5,0.3-0.9,0.8-1.2c0.5-0.3,1.3-0.5,2.4-0.6c1-0.1,1.6-0.1,1.9-0.1c0.3,0,0.6,0.1,0.8,0.4c0.3,0.4,0.5,0.7,0.6,1
		c0.1,0.1,0.2,0.4,0.3,0.7c0.1,0.3,0.2,0.7,0.4,1.2c0.3,0.4,0.5,0.8,0.7,1.5c0.2,0.6,0.5,1.2,0.8,1.6c0.2,0.5,0.3,0.9,0.5,1.3
		c0.2,0.4,0.3,0.6,0.4,0.6c0.2,0.5,0.4,0.9,0.6,1.2c0.1,0.2,0.5,0.7,1.1,1.5c0.6,0.8,1.3,1.6,2,2.5c0.7,0.9,1.4,1.7,2,2.4
		c0.6,0.7,1,1.2,1.1,1.3c0.3,0.3,0.5,0.4,0.5,0.4c0.3,0.5,0.6,0.9,0.8,1.1c0.6,0.7,1.2,1.5,1.8,2.4c0.7,0.9,1.3,1.9,1.9,3
		c0.6,0.8,0.9,1.3,1.1,1.6c0.2,0.2,0.5,0.6,0.9,1.2c0.1,0.2,0.3,0.6,0.5,1c0.2,0.4,0.4,0.9,0.7,1.3c0.1,0.4,0.3,0.7,0.6,1
		c0.2,0.3,0.4,0.6,0.6,0.8c0,0.2,0.1,0.5,0.2,0.6c0.1,0.2,0.2,0.2,0.4,0c-0.2-1.9-0.3-3.6-0.5-5.1c-0.3-2.4-0.6-5.2-1-8.6
		c-0.4-3.4-0.7-6.7-1-9.8c-0.3-3.2-0.5-5.9-0.8-8.2C220.3,164.9,220.2,163.7,220.2,163.5z"/>
	<path class="st0" d="M208.7,210.6c-0.2-1.5-0.4-3.1-0.6-4.8c-0.2-1.7-0.4-3.4-0.6-5c-0.2-1.7-0.4-3.2-0.6-4.7
		c-0.2-1.5-0.4-2.8-0.5-3.9c-0.1-1.2-0.3-2.8-0.4-4.6c0.5,0.5,0.8,0.9,1.1,1.1c0.2,0.3,0.3,0.6,0.5,0.8c0.1,0.2,0.2,0.6,0.3,1
		c0.1,0.5,0.2,1.1,0.3,2c0.1,0.9,0.3,2.1,0.5,3.6c0.1,0.9,0.3,2,0.5,3.2c0.2,1.2,0.3,2.4,0.5,3.6s0.3,2.4,0.4,3.6
		c0.1,1.2,0.3,2.2,0.3,3.1c0.2,1.7,0.4,3,0.5,4c0.1,0.9,0.2,1.7,0.2,2.1c0,0.5,0,0.8-0.1,1c-0.1,0.2-0.3,0.5-0.5,0.7
		c-0.4,0.5-0.9,0.9-1.4,1.1c-0.5,0.2-1.3,0.4-2.4,0.5c-1.1,0.1-2,0-2.7-0.3c-0.7-0.3-1.2-0.7-1.6-1.3c0-0.1,0.2-0.2,0.6-0.3
		c0.4-0.1,1.1-0.1,2.1-0.2c1.2-0.1,2-0.2,2.3-0.4c0.3-0.2,0.6-0.4,0.8-0.6c0.5-0.5,0.9-1.2,1-1.8C209.1,213.4,209,212.2,208.7,210.6
		z"/>
	<path class="st0" d="M206.8,171.4c-0.3-0.5-0.5-1-0.7-1.6c-0.2-0.6-0.4-1-0.5-1.2c-0.3-0.5-0.4-0.7-0.3-0.8c0.1-0.1,0.4,0.2,1,0.7
		c0.4,0.3,0.8,1,1.3,1.9c0.5,0.9,0.9,1.9,1.4,3c0.2,0.6,0.4,1.3,0.7,2c0.3,0.8,0.6,1.2,0.8,1.3c0.1,0.1,0.3,0.3,0.4,0.6
		c0.1,0.3,0.3,0.5,0.5,0.8c0.5,0.7,0.8,1.2,0.9,1.4c0.2,0,0.6,0.4,1.1,1.1c0.6,0.7,0.8,1.1,0.8,1.1c0.3,0.2,0.5,0.5,0.8,0.9
		c0.3,0.4,0.6,0.7,0.8,0.9c0.1,0.3,0.5,0.9,1.4,1.8c0.3,0.4,0.6,0.8,1,1.2c0.4,0.5,0.7,0.8,1,1c0.6,0.8,1.1,1.6,1.5,2.3
		c0.4,0.7,0.6,1.3,0.6,1.7c0,0.4,0,0.5,0,0.4c-0.1-0.1-0.2-0.4-0.5-0.8c-0.2-0.3-0.3-0.7-0.5-1c-0.2-0.3-0.3-0.5-0.4-0.7
		c-0.1,0-0.3-0.2-0.6-0.5c-0.2-0.4-0.5-0.7-0.8-1.1c-0.4-0.5-0.7-0.9-0.9-1.2c-0.2-0.3-0.4-0.5-0.6-0.8c-0.2-0.2-0.4-0.5-0.6-0.8
		c-0.2-0.3-0.6-0.8-1-1.4c-0.4-0.6-0.8-1-1.2-1.5c-0.4-0.4-0.6-0.6-0.7-0.6c0-0.1,0-0.2,0-0.2c0,0,0-0.1,0-0.3
		c-0.5-0.6-0.9-1-1.1-1.4c-0.3-0.2-0.6-0.6-1.1-1.2c-0.7-1-1.1-1.7-1.4-2.1c-0.5-0.5-1.1-1.3-1.6-2.3
		C207.6,173.5,207.2,172.5,206.8,171.4z"/>
	<path class="st0" d="M232.1,199.8c-0.3-1.9-0.5-4-0.8-6.3s-0.5-4.6-0.8-6.9c-0.3-2.3-0.5-4.5-0.7-6.7c-0.2-2.1-0.4-4-0.5-5.6
		c-0.5-3.8-0.8-7.6-1.1-11.5c0.2,0,0.5,0.1,0.9,0.5c0.3,0.4,0.6,0.7,0.7,1c0.1,0.2,0.3,1.6,0.6,4.4c0.3,2.7,0.7,6.2,1.2,10.3
		c0.5,4.2,1,8.8,1.5,13.8c0.6,5.1,1.1,10,1.6,14.9c0.2,2.3,0.4,4.1,0.5,5.4c0.1,1.3,0.2,2.2,0.1,2.9s-0.1,1.1-0.2,1.3
		c-0.1,0.2-0.3,0.4-0.5,0.6c-0.2,0.4-0.6,0.8-1.1,1.1c-0.1,0-0.4,0.1-0.7,0.2c-0.3,0.2-0.7,0.4-1,0.6c-0.9,0.3-1.8,0.5-2.4,0.5
		c-0.7,0-1.4-0.2-2-0.6c-0.7-0.4-1-0.7-1-0.9c0-0.2,0.2-0.3,0.7-0.3c0.4,0,0.9,0,1.5-0.2c0.6-0.2,1.1-0.4,1.7-0.6
		c0.5-0.3,1.1-0.5,1.5-0.9c0.5-0.3,0.8-0.6,1-0.9c0.3-0.4,0.5-0.7,0.6-1.1c0.1-0.3,0.2-1,0.1-2c0-1-0.2-2.5-0.4-4.5
		C232.9,206.4,232.6,203.6,232.1,199.8z"/>
	<path class="st0" d="M262.3,167.8c0-0.1-0.1-0.2-0.2-0.5c-0.1-0.3-0.3-0.4-0.5-0.5c-0.4-0.6-0.4-0.8-0.1-0.5
		c0.3,0.3,0.8,0.8,1.5,1.5c1.7,2,3,4.5,3.9,7.2c0.9,2.8,1.5,6.4,1.9,10.8c0.3,3.3,0.4,6.1,0.2,8.3c-0.1,2.3-0.5,4.4-1.1,6.4
		c-0.1,0.3-0.3,0.8-0.6,1.4c-0.3,0.6-0.6,1.2-0.9,1.8c-0.3,0.6-0.6,1.2-0.8,1.7c-0.3,0.5-0.5,0.9-0.6,1.1c-0.1,0.1-0.2,0.3-0.4,0.6
		c-0.2,0.3-0.4,0.5-0.6,0.8c-1.3,2-2.8,3.7-4.7,5c-1.9,1.4-4.3,2.6-7.1,3.7c-1.4,0.6-2.6,1-3.5,1.3c-0.9,0.3-1.7,0.5-2.3,0.5
		c-0.6,0-1.2-0.1-1.8-0.4c-0.5-0.3-1.1-0.7-1.8-1.2c-0.5-0.3-0.8-0.5-0.8-0.6c0-0.1,0.1-0.1,0.3,0c0.6,0.4,1.1,0.6,1.6,0.7
		c0.5,0.1,1.1-0.1,1.7-0.4c0.5-0.1,1.1-0.2,1.8-0.5c0.7-0.3,1.5-0.5,2.3-0.9c0.8-0.3,1.5-0.6,2.2-0.9c0.7-0.3,1.2-0.5,1.5-0.7
		c1.8-0.9,3.2-1.8,4.4-2.8c1.1-0.9,2.2-2,3.2-3.2c1-1.2,1.9-2.5,2.7-4.1c0.8-1.6,1.7-3.4,2.6-5.6c0.1-0.2,0.2-0.8,0.4-1.6
		c0.2-0.8,0.4-1.7,0.5-2.6c0.1-0.7,0.1-1.8,0.1-3.1c0-1.3-0.1-2.8-0.1-4.3c-0.1-1.6-0.2-3.1-0.4-4.7c-0.2-1.6-0.4-3.1-0.7-4.4
		c-0.2-1.4-0.5-2.4-0.7-3.1c-0.2-0.7-0.5-1.6-1-2.6c-0.3-0.4-0.5-0.8-0.8-1.3C263.4,169.8,263,169,262.3,167.8z"/>
	<path class="st2" d="M236.2,162.3c0.3-0.4,0.5-0.6,0.7-0.8c0.2-0.2,0.6-0.3,1.1-0.5c0.7-0.3,1.4-0.5,2-0.5c0.6-0.1,1.7,0,3.2,0
		c2.3,0,4.5,0.3,6.7,0.8c2.2,0.5,4,1.1,5.4,1.8c3.9,2,6.7,5.5,8.2,10.4c0.6,1.4,1,2.9,1.3,4.4c0.3,1.6,0.5,3.5,0.8,5.9
		c0.2,1.7,0.3,3.3,0.3,4.6c0,1.4,0,2.6-0.1,3.7c-0.1,1.1-0.3,2.2-0.5,3.3c-0.2,1-0.5,2.1-0.9,3.1c-0.2,0.9-0.3,1.5-0.3,1.8l-0.2,0
		c-0.2,0-0.4,0.3-0.4,0.7c-0.1,0.1-0.2,0.4-0.5,0.9c-0.2,0.5-0.5,0.9-0.8,1.5c-0.3,0.5-0.6,1-0.8,1.4c-0.3,0.4-0.4,0.6-0.5,0.7
		c-0.1,0-0.2,0.1-0.2,0.2c0,0.1-0.1,0.2-0.2,0.3c0,0.1-0.3,0.6-1,1.4c-0.7,0.8-1.3,1.5-2,1.9c-0.9,0.7-2.1,1.4-3.5,2.2
		c-1.4,0.8-2.6,1.5-3.8,1.9c-1.7,0.6-3.1,1.1-4.2,1.4c-1.1,0.3-1.8,0.5-2,0.5c-0.2-0.1-0.7-0.3-1.3-0.7c-0.6-0.4-1.1-0.8-1.5-1
		c-0.3-0.3-0.6-0.6-0.8-0.9c-0.2-0.3-0.4-1.2-0.6-2.6c-0.2-1.5-0.5-3.8-0.9-7c-0.4-3.2-0.9-7.9-1.5-14.1c-0.7-6.4-1.2-11.3-1.5-14.7
		c-0.3-3.4-0.5-5.9-0.6-7.5c-0.1-1.6,0-2.7,0.1-3.1C235.6,163.4,235.8,162.9,236.2,162.3z M255.1,170.9c-0.9-0.9-2.2-1.7-4.1-2.5
		c-1.9-0.8-3.8-1.2-5.9-1.2c-0.5,0-1.1-0.1-1.8-0.3c-0.3-0.1-0.6,0-0.9,0.2c-0.3,0.2-0.5,0.5-0.7,0.8c-0.1,0.1-0.2,0.4-0.2,0.9
		c0,0.4,0,1.3,0.1,2.6c0.1,1.3,0.3,3.3,0.6,5.9c0.3,2.6,0.6,6,1.1,10.4c0.4,4.2,0.8,7.6,1.1,10.2c0.3,2.5,0.5,4.5,0.7,5.9
		c0.2,1.4,0.3,2.3,0.4,2.8c0.1,0.5,0.2,0.8,0.3,0.8c0.2,0.3,0.5,0.4,0.8,0.4c0.3,0,0.8-0.2,1.6-0.6c0.6-0.1,1.2-0.4,1.6-0.6
		c0.5-0.3,1.2-0.7,2.1-1.3c0.4-0.3,0.8-0.6,1.3-0.9c0.5-0.4,0.8-0.7,1.1-1.1c0.2-0.1,0.4-0.4,0.7-0.8c0.3-0.4,0.6-0.9,0.9-1.3
		c0.3-0.4,0.6-0.9,0.8-1.2c0.2-0.4,0.4-0.6,0.3-0.7c0-0.1,0-0.2,0.1-0.2c0.1-0.1,0.1-0.1,0.1-0.3c0.1,0,0.2-0.2,0.4-0.5
		c0.2-0.3,0.3-0.6,0.5-1c0.2-0.4,0.3-0.8,0.4-1.1c0.1-0.4,0.2-0.6,0.2-0.7c0-0.1,0-0.2,0.1-0.4c0.1-0.2,0.2-0.4,0.3-0.5
		c0.1-0.1,0.1-0.4,0.2-1c0.1-0.6,0.1-1.2,0.2-1.9c0.1-0.8,0.1-1.9,0.1-3.2c0-1.3-0.1-2.7-0.3-4.1s-0.3-2.8-0.5-4.1s-0.3-2.3-0.5-3.1
		c-0.4-1.2-0.9-2.3-1.5-3.4S255.8,171.7,255.1,170.9z"/>
	<path class="st0" d="M246.8,206c-0.3-2-0.5-3.8-0.7-5.5c-0.2-1.7-0.4-3.7-0.6-5.9c-0.2-2.3-0.4-4.7-0.7-7.2
		c-0.5-4.7-0.9-8.3-1.1-10.9c-0.2-2.5-0.4-4.4-0.5-5.6c-0.1-1.2,0-1.9,0.1-2.1c0.1-0.2,0.3-0.3,0.6-0.4c0.2,0,0.5,0,0.9,0.1
		c0.4,0.1,0.8,0.1,1.1,0.2c0.3,0.1,0.6,0.1,0.9,0.1c0.3,0,0.5,0,0.6,0c0.2,0.1,0.6,0.2,1.1,0.3c0.5,0.2,1,0.4,1.6,0.6
		s1.2,0.5,1.7,0.7c0.5,0.2,1,0.5,1.3,0.7c0.2,0.2,0.5,0.5,0.7,0.8c-0.6-0.1-1-0.3-1.3-0.5c-0.5-0.2-1.1-0.3-1.8-0.5
		c-0.1,0-0.3,0-0.6-0.1c-0.3-0.1-0.6-0.1-1-0.2c-0.3-0.1-0.8-0.1-1.3-0.2c-0.6-0.1-1-0.2-1.3-0.2c-0.4,0-0.7,0.2-0.9,0.4
		c-0.2,0.2-0.3,0.9-0.3,2c0,1.1,0.1,2.9,0.4,5.3c0.2,2.4,0.5,5.8,0.9,10.3c0.4,4.4,0.8,7.8,1,10.2s0.4,4.1,0.4,5.3
		c0.1,1.1,0.1,1.8,0,2c-0.1,0.2-0.2,0.3-0.5,0.4C247.4,206,247.1,206,246.8,206z"/>
	<path class="st2" d="M272.8,170.2c-0.1-2.7,0.3-5.3,1.3-7.6c1-2.3,2.5-4,4.4-5.1c0.6-0.3,1.1-0.5,1.6-0.6c0.5-0.1,1.3-0.2,2.4-0.3
		c1.7-0.2,3.4-0.1,5.1,0.1c1.6,0.2,2.6,0.5,2.9,0.9c0.3,0.2,0.4,0.5,0.4,0.7c0,0.3-0.1,0.8-0.4,1.5c-0.5,1.2-1,2-1.3,2.5
		c-0.3,0.5-0.8,0.7-1.4,0.8c-0.2,0-0.5,0-0.9-0.1c-0.3-0.1-0.6-0.2-0.7-0.3c-0.1,0-0.4,0-0.8-0.1c-0.4,0-0.8,0-1.3,0
		c-1.1,0-2.1,0.2-2.7,0.7c-0.7,0.5-1.3,1.3-1.8,2.5c-0.2,0.4-0.3,0.9-0.3,1.5c0,0.6,0,1.2,0,1.9c0.1,0.6,0.2,1.3,0.3,1.8
		c0.1,0.6,0.3,1,0.6,1.3c0.5,0.9,1.2,1.8,2.2,3c1,1.1,1.9,2.1,2.7,2.9c0.4,0.4,0.9,0.8,1.5,1.3s1.1,0.9,1.5,1.2
		c2.1,2,3.7,3.6,4.8,4.8c1.1,1.2,2,2.4,2.6,3.4c0.5,1,0.9,2.2,1.3,3.8c0.4,1.5,0.6,2.7,0.7,3.6c0.1,1,0,2.3-0.1,3.8
		c-0.2,1.5-0.4,2.7-0.7,3.6c-0.4,0.9-1,1.9-1.7,2.8c-0.7,1-1.3,1.7-1.9,2.1c-0.5,0.3-1.2,0.7-1.9,1c-0.7,0.3-1.5,0.6-2.3,0.9
		c-0.8,0.3-1.5,0.5-2.3,0.7c-0.7,0.2-1.4,0.2-2,0.2c-1,0.1-2.2,0-3.4-0.2c-1.3-0.2-2.3-0.6-3.1-1.2c-0.4-0.2-0.9-0.5-1.3-0.9
		c-0.5-0.4-0.9-0.9-1.3-1.3c-0.4-0.5-0.7-0.9-1-1.4c-0.3-0.4-0.4-0.8-0.3-1.1c0-0.3,0.2-0.6,0.7-0.9c0.5-0.3,1-0.5,1.7-0.7
		c0.6-0.2,1.3-0.3,1.9-0.3c0.6,0,1.1,0.1,1.4,0.3c0.7,0.6,1.3,0.9,1.9,1.1c0.6,0.1,1.6,0.1,3,0c1.1-0.1,1.9-0.2,2.3-0.4
		c0.4-0.2,0.9-0.5,1.7-1c0.9-0.6,1.6-1.3,2-2.1c0.4-0.8,0.5-2.1,0.3-3.9c-0.1-2-0.5-3.8-1.2-5.2c-0.7-1.5-1.9-2.9-3.5-4.3
		c-0.3-0.2-0.5-0.4-0.8-0.6c-0.3-0.2-0.5-0.4-0.6-0.5c0-0.1-0.3-0.5-0.9-1c-0.6-0.6-1.2-1.2-1.9-1.8c-1.8-1.6-3.2-2.9-4.1-3.9
		c-0.9-1-1.8-2.2-2.7-3.6c-0.8-1.2-1.3-2.2-1.6-3.1C273.1,172.7,272.9,171.5,272.8,170.2z"/>
	<path class="st0" d="M294.7,185.9c-0.3-0.4-0.7-0.8-1.1-1.4c0.2,0.1,0.4,0.2,0.6,0.5c0.3,0.1,0.4,0.3,0.5,0.4
		c0,0.1,0.1,0.3,0.2,0.3c0.1,0.1,0.2,0.1,0.4,0.1c0.1,0.1,0.3,0.3,0.6,0.7c0.3,0.4,0.6,0.8,0.9,1.3c0.3,0.5,0.7,1,1,1.5
		c0.3,0.5,0.6,1,0.7,1.3c0.6,1.2,1.1,2.4,1.4,3.4c0.4,1.1,0.6,2.5,0.8,4.2c0.2,1.8,0.2,3.2,0.1,4.2c-0.1,1-0.3,2.1-0.7,3.3
		c-0.3,0.8-0.8,1.7-1.3,2.7c-0.5,1-1,1.6-1.3,1.9c-0.1,0.1-0.3,0.3-0.5,0.4c-0.2,0.1-0.4,0.3-0.5,0.4c-0.2,0.3-0.7,0.6-1.3,1
		c-0.7,0.4-1.4,0.8-2.3,1.1c-2.1,0.9-4.2,1.5-6.4,1.7c-2.2,0.2-4.1,0-5.6-0.6c-0.3-0.1-0.6-0.3-1.1-0.6c-0.5-0.3-0.8-0.5-1.1-0.8
		c-0.6-0.4-0.8-0.7-0.6-0.7c0,0.1,0.2,0.3,0.6,0.4c0.3-0.1,0.7,0,1.3,0.2c0.3,0.2,0.7,0.3,1.3,0.3c0.6,0,1.6-0.1,3-0.2
		c1.5,0,2.6-0.1,3.2-0.2c0.6-0.1,1.3-0.3,2-0.5c1.3-0.6,2.5-1.1,3.4-1.7s1.7-1.2,2.4-1.9c0.7-0.7,1.3-1.6,1.8-2.5
		c0.5-1,1-2.2,1.4-3.6c0.1-0.4,0.1-0.9,0.1-1.5c0-0.7,0-1.4,0-2.1c0-0.8-0.1-1.5-0.1-2.3c-0.1-0.8-0.2-1.5-0.3-2.1
		c-0.1-0.6-0.3-1.2-0.5-1.8c-0.2-0.7-0.4-1.3-0.6-1.9c-0.2-0.6-0.4-1.1-0.6-1.6c-0.2-0.4-0.3-0.7-0.4-0.9l-0.3-0.5
		C296,187.5,295.6,186.9,294.7,185.9z"/>
	<path class="st0" d="M290.8,162.4c0.4-0.9,0.7-1.8,1-2.5c0.3-0.7,0.4-1.3,0.4-1.7c0-0.5,0-0.8,0-0.8c0-0.1,0.2,0,0.5,0.2
		c0.5,0.4,0.8,0.7,1,1c0.1,0.3,0.2,0.8,0.3,1.4c0,0.4,0,0.8,0,1.2c0,0.4-0.2,1-0.5,1.6c-0.9,1.9-1.8,3-2.7,3.3
		c-0.5,0.2-0.9,0.3-1.2,0.2c-0.3,0-1-0.2-2.2-0.5c-1-0.1-1.8-0.1-2.3,0c-0.7,0.2-1.3,0.8-1.8,1.9c-0.5,1-0.6,2.2-0.5,3.4
		c0,0.5,0.1,1,0.2,1.4s0.4,0.9,0.8,1.5c0.3,0.5,0.6,0.9,0.8,1.2c0.3,0.3,0.5,0.6,0.6,0.7c0.3,0.2,0.4,0.3,0.4,0.4c0,0,0,0.1-0.1,0.1
		c-0.1,0-0.3-0.2-0.6-0.5c-0.3-0.3-0.7-0.8-1.2-1.3c-0.4-0.5-0.9-1-1.3-1.5c-0.4-0.5-0.7-1-0.9-1.4c-0.6-0.9-0.9-2.1-0.9-3.4
		c0-1.3,0.4-2.4,1-3.2c0.3-0.4,0.7-0.7,1.1-0.8c0.4-0.1,1.1-0.1,2.1,0c0.9,0.1,1.6,0.1,2,0.1c0.5,0,0.9,0,1.2,0
		c0.3,0,0.5-0.1,0.7-0.1c0.2-0.1,0.4-0.2,0.6-0.3c0.2-0.3,0.5-0.5,0.8-0.8C290.5,162.9,290.7,162.7,290.8,162.4z"/>
</g>
<g>
	<path class="st2" d="M84.4,244.9c1.3-1.1,3-2,4.8-2.2l0.4,0c7.9-0.1,9.3,8,10,14.6c0,0.6,0.1,1.3,0.2,1.8c0.1,0.6,0.1,1.1,0.2,1.7
		c0.6,6.1,0.5,12.2-0.6,18.3c-0.7,3.8-2.8,7.8-7.3,8.3l-0.4,0c-8.3,0.5-11.3-10.2-11.9-16.6C78.7,261.4,79.4,249.1,84.4,244.9z
		 M84.9,277.5c1,2.5,3.5,6.5,6.8,6.4c0.2,0,0.8-0.2,0.9-0.2c3.1-1,5.6-7.4,3.7-26l0-0.5c-0.4-4-1.7-11-6.7-10.9c-0.2,0-0.5,0-0.7,0
		c-6.4,0.6-6.4,15.5-5.6,23.7C83.5,272.6,83.9,275,84.9,277.5z"/>
	<path class="st2" d="M109.7,265.5c-0.4,0.1-1,0.2-1.1,0.2c-1,0.3-0.5,2.5-0.5,3.1c0.3,5.1,1.2,10.3,1.8,15.5l0.3,2.5l-3.1,0.2
		l-0.2-0.2c-0.4-3.4-1-6.6-1.4-9.8c-0.2-1.3-0.8-7.6-2.5-31.1c-0.2-1.1-0.4-2.1-0.5-3.2c-0.1-1.5,1.4-1.6,2.6-1.7l4.9-0.3
		c5.8,0.1,7.7,7.5,8,12c0.3,5-0.7,8.6-4.1,11c3.2,1.7,4.9,4.7,6,11.4c0.5,2.8,0.8,5.4,0.9,8.2l0,0.7c0,0.6,0,2-0.1,2l-0.2,0.1
		l-2.6,0.2l-0.2-0.2l-1.1-8.9c-0.7-4.3-1.5-9.1-5.2-10.9c-0.4-0.2-1.3-0.5-1.6-0.5C109.7,265.6,109.7,265.5,109.7,265.5z
		 M108.3,262.4c5-0.3,6.4-5.7,6.1-9.9c-0.4-7.4-2.4-9.1-7.4-8.8c-0.7,0-0.7,0.7-0.6,1.2l0.4,6.6
		C107.1,254.2,107.1,262.5,108.3,262.4z"/>
	<path class="st2" d="M166.6,295.5l2.1-0.1c0.2,0,0.3,3,0.4,3.3c0,0.2,0.3,1.5,0.3,1.7c0.3,0.9,0.9,1.6,2,1.5l0.7,0
		c2.3-0.1,5-0.1,4.7-6c-0.5-9.2-10.7-7-11.4-13.9c-0.1-0.3-0.2-1.5-0.2-1.8c0-2-0.2-8.9,5-9.2c1.8,0,4.1,0.4,4.8,2.5
		c0.5,1.5,0.8,3,0.8,4.4l0,0.8c0,0.1,0,0.4-0.3,0.4l-2.1,0.1c-0.3,0-0.1-0.4-0.2-1.4c-0.1-1.4-0.7-4.3-2.6-4.2
		c-1.2,0.1-2.5,1.6-2.7,2.8c-0.4,1.5-0.6,5.7,1,6.9c2.4,1.7,6.4,3.6,8.8,6.9c1.1,1.5,1.4,3.2,1.5,5c0.3,4.4-0.8,8.8-6.4,9.1
		c-4.2,0.2-6.4-1.7-6.6-5.9C166.3,297.7,166.1,295.5,166.6,295.5z"/>
	<path class="st2" d="M243.7,292.6l2.1-0.1c0.2,0,0.3,3,0.4,3.3c0,0.2,0.3,1.5,0.3,1.7c0.3,0.9,0.9,1.6,2,1.5l0.7,0
		c2.3-0.1,5-0.1,4.7-6c-0.5-9.2-10.7-7-11.4-13.9c-0.1-0.3-0.2-1.5-0.2-1.8c0-2-0.2-8.9,5-9.2c1.8,0,4.1,0.4,4.8,2.5
		c0.5,1.5,0.8,3,0.8,4.4l0,0.8c0,0.1,0,0.4-0.3,0.4l-2.1,0.1c-0.3,0-0.1-0.4-0.2-1.4c-0.1-1.4-0.7-4.3-2.6-4.2
		c-1.2,0.1-2.5,1.6-2.7,2.8c-0.4,1.5-0.6,5.7,1,6.9c2.4,1.7,6.4,3.6,8.8,6.9c1.1,1.5,1.4,3.2,1.5,5c0.3,4.4-0.8,8.8-6.4,9.1
		c-4.2,0.2-6.4-1.7-6.6-5.9C243.4,294.9,243.3,292.7,243.7,292.6z"/>
	<path class="st2" d="M127.3,241.8c0.1-0.7,0.3-1.2,0.5-1.5c0.2-0.4,0.5-0.6,1-0.9c0.5-0.2,1.1-0.5,2-0.6c0.9-0.2,2.1-0.4,3.5-0.7
		c0.9-0.4,2.1-0.7,3.4-0.9c1.3-0.2,2.6-0.4,3.9-0.5c1.3-0.1,2.4-0.1,3.3,0c1,0.1,1.5,0.3,1.7,0.6c0.3,0.2,0.6,0.6,0.8,1.2
		c0.2,0.7,0.3,1.4,0.4,2.1c0,0.8,0,1.5-0.1,2.2c-0.1,0.7-0.3,1.3-0.6,1.6c-0.3,0.3-0.9,0.7-1.8,1c-0.9,0.3-2,0.5-3.3,0.6
		c-2,0.1-3.5,0.2-4.5,0.3c-1,0.1-1.7,0.3-2.1,0.6c-0.4,0.3-0.6,0.9-0.5,1.7c0.1,0.8,0.1,2,0.2,3.6c0.1,1.6,0.2,3,0.3,4.2
		c0.1,1.1,0.3,1.7,0.7,1.7c0,0.3,0.6,0.6,1.6,0.9c1.1,0.3,2.1,0.5,3.1,0.8c3,0.8,5.4,2.1,7.3,3.9c1.9,1.8,3.6,4.6,5.2,8.5
		c0.4,0.8,0.7,1.6,0.9,2.3c0.2,0.7,0.4,1.6,0.5,2.6c0.1,1,0.3,2.2,0.4,3.7c0.1,1.5,0.2,3.3,0.4,5.6c0.2,2.8,0.3,5,0.3,6.5
		c0.1,1.5,0.1,2.8,0,3.7c-0.1,0.9-0.2,1.6-0.4,2.2c-0.2,0.6-0.6,1.3-1,2.1c-1.1,2.7-2.7,4.7-4.7,6c-2,1.3-4.4,2.4-7.3,3.2
		c-2.9,0.5-5.6,0.6-8.2,0.3c-2.5-0.3-4.6-1.2-6.3-2.8c-1.3-0.9-2.2-1.9-2.6-3c-0.4-1.1-0.3-2,0.3-2.7c0.3-0.3,0.8-0.6,1.6-0.8
		c0.8-0.2,1.6-0.3,2.5-0.4c0.9-0.1,1.7,0,2.4,0.1c0.7,0.1,1.2,0.3,1.4,0.6c0.3,0,0.9,0,1.6,0.1c0.8,0.1,2,0,3.6-0.5
		c1.9-0.3,3.5-0.6,4.7-1.1c1.2-0.5,2.1-1.2,2.7-2.1c0.6-1,1-2.3,1.1-3.9c0.1-1.6,0.1-3.8,0-6.4c0-4.9-0.6-8.9-1.9-12.1
		c-1.3-3.2-2.8-5.3-4.5-6.5c-0.3-0.3-1-0.6-1.9-0.8c-0.9-0.2-1.8-0.3-2.8-0.2c-2,0.1-3.7-0.2-5.3-1c-1.6-0.8-2.7-1.8-3.4-3.1
		c-0.4-0.6-0.6-2-0.8-4c-0.2-2.1-0.2-4.3-0.2-6.7c0-2.4,0.1-4.7,0.3-6.9C126.8,244.2,127,242.7,127.3,241.8z"/>
	<path class="st0" d="M157.6,299.5c0.5-2,0.8-4.5,0.7-7.6c-0.1-3.1-0.4-6.3-0.9-9.5c-0.5-3.2-1.2-6.3-2.1-9.2
		c-0.9-2.9-1.8-5.1-2.9-6.7c-0.4-0.6-0.6-1.3-0.8-2c0.3,0.2,0.8,0.6,1.4,1.4c0.6,0.8,1.2,1.7,1.8,2.9c0.6,1.1,1.3,2.3,1.9,3.6
		c0.6,1.3,1.1,2.4,1.5,3.5c0.4,1.3,0.8,3,1.2,5.1c0.4,2.1,0.7,5,0.9,8.5c0.1,2.3,0.2,4.2,0.3,5.6c0.1,1.4,0.1,2.6,0,3.6
		c0,1-0.1,1.8-0.2,2.4c-0.1,0.7-0.3,1.4-0.6,2.2c-0.8,2.4-2.2,4.5-4.1,6.4c-1.9,1.9-3.8,3.2-5.7,4c-1,0.1-2.3,0.2-4,0.6
		c-1.7,0.3-3.2,0.5-4.5,0.6c-2.3,0.1-4.1,0.1-5.3-0.1c-1.3-0.2-2.6-0.4-3.9-0.7c-1.7-0.9-2.7-1.6-2.9-2c-0.2-0.5,0.5-0.5,2.2,0.1
		c2,0.5,4.4,0.7,7.4,0.5c2.9-0.2,5.7-0.9,8.2-2c2.5-0.8,4.7-2.2,6.6-4.1C155.4,304.5,156.7,302.2,157.6,299.5z"/>
	<path class="st0" d="M137.6,272.6c-1.3,0.1-2.3,0.1-3.1,0c-0.8-0.1-1.5-0.4-2.2-1c-1-0.6-1.4-0.9-1.2-1.1c0.2-0.1,1.5-0.2,3.8-0.4
		c1.3,0.2,2.4,0.4,3.4,0.6c0.9,0.1,1.6,0.5,1.9,1.1c0.7,0.3,0.9,0.5,0.7,0.5C140.6,272.4,139.6,272.5,137.6,272.6z"/>
	<path class="st0" d="M142.1,248.1c1.7-0.2,3.1-0.5,4.2-0.9c1-0.3,1.8-0.8,2.3-1.4c0.5-0.6,0.9-1.3,1.1-2.1c0.2-0.9,0.4-2,0.5-3.3
		c-0.1-1.6-0.1-2.5,0-2.7c0.1-0.2,0.5,0,1.2,0.6c0.7,0.9,1.1,1.9,1.2,2.8c0.1,0.9,0.1,2.4-0.1,4.4c-0.3,1-0.6,1.8-0.9,2.5
		c-0.3,0.6-0.8,1.1-1.4,1.5c-0.6,0.4-1.4,0.6-2.3,0.8c-0.9,0.2-2.1,0.3-3.5,0.4c-1.2,0.1-2.1,0.1-2.7,0.2c-0.6,0.1-1.1,0.2-1.4,0.4
		c-0.3,0.2-0.5,0.4-0.7,0.8c-0.1,0.4-0.2,0.9-0.3,1.5c0.1,1.3,0,2.3-0.2,3c-0.2,0.7-0.5,1-0.8,1c-0.3,0-0.6-0.3-0.9-1
		c-0.3-0.7-0.3-1.9,0-3.5c-0.1-1.1-0.1-2-0.1-2.6c0-0.6,0.2-1.1,0.5-1.4c0.3-0.3,0.8-0.5,1.5-0.6
		C139.8,248.3,140.8,248.2,142.1,248.1z"/>
	<path class="st2" d="M63.6,287.8l-0.5-8.2c-0.4-7.4-0.6-14.7-1-22.1c-0.2-4-0.6-8.1-0.9-12.1c0-0.5,0.4-0.8,0.9-1
		c0.4,0,2.7-0.2,3.2-0.2c3-0.2,6-0.2,9-0.4c0.8,0,2.5,0,2.5,0l0.1,0.3l0.2,2.9c0,0.2-0.1,0.3-0.5,0.3c-0.1,0-0.4-0.1-0.5-0.1
		c-3.1-0.1-5.4,0-8.5,0.2l-2.6,0.2l-0.3,0.3c0.1,1.3,0.2,3.3,0.2,4.7l0.7,11.2c0,0.5,1.2,0.4,1.4,0.4c1.7,0,3.6,0,5.3-0.1
		c0.3,0.1,0.5,0.2,0.5,0.6l0.1,2.4l-0.3,0.3l-6.6,0.4l-0.3,0.1l0.1,1.7c0.2,3.3,0.4,6.6,0.7,9.8c0,0.8,0.8,7.4,0.9,8.2l0,0.2
		c0,0.5-0.5,0.8-1,0.8c-0.1,0-0.8-0.1-0.9-0.1l-1.8,0.1C63.8,288.3,63.7,288,63.6,287.8z"/>
	<path class="st2" d="M179.4,259.8c0-0.2,0-0.7,0.4-0.7l10.3-0.7c0.2-0.1,1.6-0.2,1.8-0.3c0.4,0,4.1-0.3,5.4-0.4
		c0.9-0.1,3.3-0.2,3.4-0.2l0.2,0.2l0.2,3.5l-0.2,0.2c-0.1,0.1-1.6,0.2-2.2,0.2l-16.5,1.1c-0.3,0-2,0.1-2.3,0.1L179.4,259.8z"/>
	<path class="st2" d="M207.9,239.5c-0.1-1.4-0.1-2.2,0.1-2.5c0.2-0.3,0.8-0.6,2-1c0.6,0,2.2-0.2,4.9-0.3c2.7-0.2,5.6-0.4,8.8-0.6
		c2.8-0.2,5-0.3,6.6-0.4c1.6-0.1,2.8,0,3.6,0c0.9,0.1,1.5,0.3,2,0.5c0.5,0.3,1,0.7,1.6,1.2c0.8,0.7,1.3,1.3,1.8,1.8
		c0.4,0.5,0.7,1.2,0.8,1.9c0.1,0.7,0.1,1.6-0.1,2.6c-0.2,1-0.6,2.3-1.2,3.9c-2.6,8.2-4.7,15-6.4,20.4c-1.6,5.4-2.8,9-3.5,10.7
		c-0.6,1.5-1.3,3.2-1.9,5c-0.6,1.8-1.2,3.5-1.7,5.2c-0.5,1.6-0.9,3.1-1.2,4.3c-0.3,1.3-0.4,2.1-0.4,2.5c0.1,0.4,0.1,1.3-0.2,2.7
		c-0.2,1.3-0.6,2.7-1,4.1c-0.4,1.4-0.8,2.7-1.2,3.8c-0.4,1.1-0.7,1.7-0.8,1.7c-0.3,0.2-0.8,0.2-1.6,0c-0.8-0.2-1.6-0.6-2.4-1
		c-0.9-0.4-1.6-0.9-2.4-1.3c-0.7-0.5-1.1-0.8-1.3-1.2c0-0.3,0-0.7,0-1.2c0-0.5,0.1-1.1,0.4-1.7c0.2-0.6,0.5-1.7,0.7-3.5
		c0.2-1.7,0.5-3.5,1-5.2c0.4-2.6,1.1-5.7,2.2-9.3c1.1-3.6,2.4-7.3,3.8-11.2c0.2-0.6,0.6-1.6,1-2.9c0.4-1.4,0.9-2.9,1.4-4.7
		c0.7-1.7,1.4-3.5,2-5.4c0.6-1.9,1.1-3.4,1.3-4.6c0.6-1.7,1.1-3.1,1.4-4.2c0.4-1.1,0.6-2,0.8-2.6s0.2-1.1,0.2-1.5
		c0-0.3-0.1-0.7-0.2-1c-0.3-0.3-1.3-0.4-2.8-0.3c-1.5,0.1-3.9,0.2-7,0.4c-2.2,0.1-3.8,0.3-5,0.3c-1.2,0.1-2.1,0.1-2.7,0
		c-0.6-0.1-1-0.2-1.3-0.4c-0.2-0.2-0.5-0.5-0.8-1c-0.3-0.3-0.6-0.8-0.9-1.5C208.1,241.2,208,240.4,207.9,239.5z"/>
	<path class="st0" d="M238.8,255.2c1.1-3.8,2.1-7.2,2.9-10.3c0.8-3.1,1-5.1,0.6-6c0-0.3,0-0.6,0-1.1c0-0.4,0.2-0.7,0.5-0.7
		c0.1,0,0.3,0.2,0.6,0.6c0.3,0.4,0.6,0.9,0.9,1.4c0.3,0.6,0.5,1.2,0.8,1.8c0.2,0.7,0.4,1.2,0.4,1.8c0.1,0.9-0.2,2.5-0.8,4.9
		c-0.6,2.4-1.4,5.3-2.5,8.9c-1.1,3.5-2.4,7.5-3.9,11.9c-1.5,4.4-3.1,9.1-4.9,14.1c-0.7,2-1.3,3.6-1.8,5c-0.5,1.4-0.8,2.7-1.1,3.9
		c-0.3,1.2-0.5,2.3-0.7,3.4c-0.2,1.1-0.4,2.3-0.5,3.6c-0.8,5-1.7,8.3-2.6,10.1c-0.9,1.8-2,2.8-3.4,2.9c-0.4,0.2-1,0.2-1.8,0.1
		c-0.7-0.1-1.5-0.3-2.3-0.6c-0.8-0.3-1.5-0.7-2.2-1.1c-0.7-0.4-1.2-0.9-1.5-1.3c-0.6-0.5-0.9-0.8-0.8-0.8c0.1,0,0.8,0.2,1.9,0.7
		c1.5,0.8,2.5,1.1,3.1,1.1c0.6,0,1.5-0.5,2.6-1.5c0.5-0.3,1-1,1.3-1.9c0.3-1,0.7-2.5,1.1-4.5c0.4-1.7,0.9-3.4,1.3-5.1
		c0.4-1.7,0.7-3.1,0.9-4.3c0.2-1.4,0.7-3.5,1.5-6.3c0.8-2.8,2.2-6.6,4.2-11.3c0.5-1.4,1-3.2,1.6-5.2c0.6-2,1.2-3.8,1.7-5.3
		c0.4-1.7,1-3.4,1.6-5C238.2,257.3,238.6,256.1,238.8,255.2z"/>
	<path class="st0" d="M220,249c-1.6,0.3-2.8,0.5-3.7,0.6c-0.9,0.1-1.6,0.2-2.1,0.1c-0.5-0.1-0.9-0.2-1.2-0.4c-0.3-0.2-0.7-0.5-1.1-1
		c-0.5-0.2-0.8-0.4-1-0.6c-0.2-0.1-0.1-0.3,0.3-0.4c0.4-0.1,1.1-0.2,2.2-0.3c1.1-0.1,2.6-0.2,4.6-0.3c2-0.1,4.7-0.3,8-0.5
		c0.9,0.5,0.8,1-0.3,1.4C224.8,248.1,222.9,248.5,220,249z"/>
</g>
</svg>
