<?xml version="1.0" encoding="utf-8"?>
<!-- Generator: Adobe Illustrator 20.0.0, SVG Export Plug-In . SVG Version: 6.00 Build 0)  -->
<svg version="1.1" id="Layer_1" xmlns="http://www.w3.org/2000/svg" xmlns:xlink="http://www.w3.org/1999/xlink" x="0px" y="0px"
	 viewBox="0 0 474.5 474.5" style="enable-background:new 0 0 474.5 474.5;" xml:space="preserve">
<style type="text/css">
	.st0{fill:#9F4F2A;}
	.st1{fill:#F59223;}
	.st2{fill:#FBF8F5;}
	.st3{fill:#274E23;}
</style>
<path class="st0" d="M267.2,6C139.3-9.9,22.4,81.1,6.5,209c-15.9,127.9,75.2,244.8,203,260.7c127.9,15.9,244.8-75.2,260.7-203
	C486.1,138.8,395,21.9,267.2,6z"/>
<path class="st1" d="M249.6,35.3c-111.1-6.2-206.1,78.9-212.3,190s78.9,206.1,190,212.3c45.2,2.5,87.8-10.1,122.8-33.5
	c1.3-0.8,2.5-1.7,3.7-2.6c9.5-6.6,18.3-14.1,26.5-22.2c1.6-1.6,3.2-3.2,4.8-4.9c18.5-19.7,33.2-43.1,42.6-69.2
	c0.4-1.1,0.8-2.2,1.2-3.3c2.2-6.3,4-12.7,5.6-19.3c0.4-1.7,0.8-3.4,1.1-5.2c2-9.7,3.3-19.7,3.9-30
	C445.8,136.5,360.7,41.4,249.6,35.3z"/>
<path class="st2" d="M250.8,14.7c-122.4-6.8-227.2,87-234,209.4s87,227.2,209.4,234c122.4,6.8,227.2-87,234-209.4
	C467,126.2,373.2,21.5,250.8,14.7z M227.4,437.5c-111.1-6.2-196.1-101.2-190-212.3s101.2-196.1,212.3-190
	c111.1,6.2,196.1,101.2,190,212.3C433.5,358.6,338.4,443.7,227.4,437.5z"/>
<g>
	<g>
		<path class="st2" d="M395.2,311.5c1.6,0.1,3.2,0.1,4.8,0.2c4.8,0.3,9.7,0.7,14.5,1.3c0.2,0,0.3,0.1,0.5,0.1c3,0.4,6,1,9,1.7
			c0,0,0,0,0,0c0.4,0.1,0.8,0.2,1.2,0.3c0.2,0,0.4,0.1,0.6,0.1c0.3,0,0.5-0.1,0.5-0.8c-0.1-1.7-0.1-3.4-0.1-5
			c-0.1-2.5-0.1-4.9-0.2-7.4c-0.1-4.5,0-9.1,0.5-13.6c0.8-7.9,1.8-15.8,2.1-23.7c0.1-2.6,0.1-5.3,0.1-7.9c-0.1-4.8-0.5-9.5-1.5-14.2
			c-0.1-0.6-0.2-1.2-0.4-1.7c-0.2-0.8-0.4-1.7-0.6-2.5c-0.2-0.9-0.4-1.8-0.6-2.7c-0.1,0-0.1-0.1-0.1-0.2c-0.7-0.6-1.3-1.2-1.1-2.3
			c-0.7-0.7-1.2-1.5-1.5-2.4c-0.3-0.8-0.7-1.6-1.5-2.1c-2,1.4-4.1,2.8-6.2,4c-0.7,0.4-1.4,0.8-2.2,1.1c-5.2,2.5-10.7,3.9-16.5,4.5
			c-4.9,0.5-9.7,0.4-14.6,0c-2.3-0.2-3.7,0.6-4.7,2.8c-0.7,1.8-1.4,3.6-2,5.4c-0.4,1-0.9,2-1.5,2.8c-1,1.4-2.3,1.8-3.9,1.2
			c-1.1-0.4-2.2-1-3.2-1.5c-6.6-3.4-16.3-1.2-20.7,4.8c-0.6,0.8-0.3,0.9,0.4,1c6.1,1.6,11.2,4.8,14.7,10.1c2.5,3.8,4,8.1,4.8,12.5
			c1.2,6.6,2.1,13.3,3.2,19.9c0.9-0.3,1.3-1,1.9-1.7c1-1.1,2.1-2.3,3.6-2.7v0c0.3-0.6,0.5-1.2,0.7-1.8c0.3-1,0.6-2,0.8-3.1
			c0.8-3.4,1.1-6.8,2-10.2c0.1-0.5,0.3-1,0.4-1.4c0.1-0.2,0.1-0.4,0.2-0.6c0.1-0.2,0.2-0.4,0.5-0.5v0l0,0c0.1,1.1,0.3,2.2,0.3,3.3
			c0.1,1.2,0.1,2.4,0,3.7c-0.3,3.1-0.8,6.3-1.3,9.4c-0.8,4.5-1.8,9-3.1,13.4c-0.3,0.9-0.6,1.8-0.9,2.7c-0.2,0.5-0.3,0.9-0.3,1.3
			c0,0,0,0,0,0.1c0,0.9,0.4,1.4,1.6,1.6c0.2,0,0.5,0.1,0.8,0.1c3.1,0.1,6.3,0.2,9.4,0.4C389,311.2,392.1,311.3,395.2,311.5z"/>
		<path class="st2" d="M402.1,314.3c-0.2,0-0.5,0-0.8,0c-4.8,0.1-9.6,0.1-14.4,0.1c-0.3,0-0.6,0-0.9,0c-1.1,0-1.7,0.1-2.1,0.5
			c-0.3,0.3-0.5,0.7-0.7,1.4c-0.1,0.2-0.1,0.4-0.2,0.7c-0.2,0.8-0.3,1.7-0.5,2.5c-0.3,1.7-0.6,3.3-0.9,5c-0.7,4.2-1.3,8.4-1.5,12.7
			c-0.1,1.4-0.2,2.7-0.2,4.1c0,0.3,0,0.6,0.1,0.9c0.1,0.5,0.2,1.1,0.3,1.6c0.3,1.1,0.7,2.2,1.1,3.3c0.3,1.1,0.6,2.2,0.9,3.4
			c0.1,0.3,0.1,0.6,0.2,0.8c0.5,1.5,1.6,2.3,3.1,2.7c0.3,0.1,0.7,0.2,1.1,0.2c0.2,0,0.5,0,0.7,0c0.1,0,0.2,0,0.4,0
			c0.4,0,0.8,0,1.3,0c0.2,0,0.5,0,0.7-0.1c0.7,0,1.6-0.2,2.5-0.4c0.3-0.1,0.6-0.1,0.9-0.2c0.5-0.1,1.1-0.2,1.6-0.4
			c3.4-1.2,5.3-3.7,5.8-7.6c0.3-2.2,0.1-4.4,0.1-6.6c0-2.8,0.1-5.5,0.3-8.3c0.2-1.8,0.4-3.6,0.7-5.4c0.4-2.7,1-5.4,1.8-8.1
			c0.3-1.1,0.4-1.9,0.1-2.3C403.3,314.6,402.8,314.4,402.1,314.3z"/>
		<path class="st2" d="M398.3,355.8c0,0-0.1,0.1-0.1,0.1c-0.7,0.6-1.5,1.1-2.2,1.6c-0.5,0.3-1,0.5-1.5,0.7c0,0,0,0,0,0
			c-3.1,1.2-6.4,0.8-10.1-1.6c-1.2,6.7-1.4,13.2-1.5,19.8c0,0.2,0,0.3,0,0.5c0.8-0.8,1.6-1.7,2.4-2.5c5.8-6.1,11.2-12.7,16.2-19.5
			c-0.1-0.7-0.2-1.3-0.4-2C400.1,354,399.2,355,398.3,355.8z"/>
		<path class="st2" d="M424,319.2c-0.5-0.2-1.1-0.4-1.6-0.6c-0.9-0.3-1.8-0.6-2.7-0.9c-3.6-1.1-7.3-1.9-10.9-2.7
			c-0.1,0-0.2,0-0.3-0.1c-0.3,0-0.6,0-1,0.1c-0.4,0.1-0.8,0.4-0.9,0.9c-0.2,0.5-0.3,1-0.5,1.4c-0.1,0.2-0.1,0.5-0.2,0.7
			c-0.3,1.2-0.4,2.5-0.2,3.8c1.5,0,3,0.4,4.5,0.2l0,0c0.1-0.1,0.3-0.1,0.4-0.2c0.2-0.1,0.4-0.1,0.6-0.2c0.2,0,0.3-0.1,0.5-0.1
			c2.6-0.4,5.3-0.5,7.9-0.6c0.6,0,1.2-0.1,1.7-0.1c0.3,0,0.6,0,0.9-0.1c0.9-0.1,1.8-0.2,2.9-0.5c0.3-0.1,0.7-0.2,1.1-0.3
			C425.5,319.8,424.7,319.5,424,319.2z"/>
		<path class="st2" d="M307,146.5c3.3,6.2,7.4,11.9,10.3,18.2c2.5,5.4,6.2,9.5,10.9,12.9c0.9,0.6,1.7,1.2,2.6,1.8
			c3.8,2.5,7.5,2,10.5-1.4c1.9-2.1,3.2-4.5,4.8-6.8c0.2-0.3,0.5-0.6,0.9-1.2c-0.2,4.4-1.7,7.8-4.6,10.7c-1.2,1.2-2.6,2.1-4,3
			c0.2,0.7,0.4,1.5,0.5,2.2c0.7,0.2,1,0.9,1,1.5c0.1,1.4,0.7,2.6,1.3,3.8c1.8,3.5,3.2,7.2,5.1,10.6c1.2,2.1,2.4,4,4.1,5.9
			c0.6-3.2,0.8-6.3,1-9.4c0.4-4.9,1.1-9.7,3.8-13.9c0.4-0.6,0.7-1.2,1.3-1.6c0.8,0.7,1,1.4,0.6,2.5c-2,5.5-2.6,11.3-3.1,17.1
			c-0.3,4.1-0.5,8.2-2,12.1c-1.4,3.6-3.4,6.8-6.4,9.3c-1.9,2.6-4.6,4.2-7.3,5.8c0.3,1.3,1.2,1.9,2.3,2.3c2.3,0.9,4.1,2.5,6.2,3.8
			c6.8,4,13.7,7.7,21.3,10.1c0.5,0.1,0.9,0.3,1.4,0.4c1.8,0.3,2.9-0.1,3.8-1.8c0.9-1.8,1.6-3.7,2.5-5.5c4-8.3,9.6-15.2,17.7-19.9
			c4.8-2.8,8.6-3.7,14.3-3.3c-10.6,4.1-20,9.7-26.5,19.5c2.2,0.4,4.2,0.6,6.2,0.7c5.8,0.3,11.5,0.1,17.2-1.3
			c4.4-1.1,8.5-2.8,12.4-5.1c0.8-0.5,0.6-0.8,0-1.2c-0.8-0.6-1.8-0.4-3-0.8c1.3-0.6,2.4-1.1,3.5-1.6c2.8-1.3,3.8-3.2,3.5-6.2
			c-0.1-0.8-0.3-1.6-0.6-2.4c-1.6-4.4-3.9-8.5-6.3-12.5c-4.5-7.5-9.2-15-14-22.4c-7.2-11-16.9-19-29.4-23.4c-4.6-1.6-7.3-5-9-9.3
			c-0.6-0.3-1.3-0.6-1.9-0.9c-0.3,0.8-0.6,1.7-0.9,2.5c-1.2,3.2-2.7,4.3-6.1,4.2c-0.6,0-1.1-0.1-1.8-0.1c0.9-0.6,1.6-1.2,2.4-1.7
			c3.8-2.9,5.1-6.8,4-11.4c-0.9-3.6-4.2-4.7-7-2.2c-0.4,0.3-0.6,0.9-1.2,0.9c-0.4-3.1,0.5-4.3,3.6-4.6c0.2,0,0.3-0.1,0.5,0
			c1.1,0.1,1.3-0.5,1-1.5c-2.8-10.6-9.3-17.4-20.2-19.6c-8.4-1.6-15.9-0.3-21.6,7.1c-4,5.2-7.4,10.5-7.4,17.4
			C305.6,141.9,306,144.3,307,146.5z"/>
		<path class="st2" d="M361.8,274.8c-1.7-5.5-4.6-10.4-9.1-14.2c-3.8-3.3-8.3-5.3-13.1-6.7c-1.1,0.3-2.3,0.3-3.1,1.4
			c-0.4,1.9-1,2.6-2.9,2.7c-3.3,0.2-5.9,1.9-8.2,4.1c-1.9,1.9-2.7,4.2-2.3,6.9c0.2,1.5,0.8,2.8,1.4,4.2c0.3,0.8,0.7,0.8,1.4,0.4
			c0.7-0.4,1.5-0.7,2.2-1c3.7-1.3,7.3-0.5,9.6,2.1c-1.7,0.3-3.4,0-5,0.1c-3.4,0.2-6.3,1.3-8.2,4.3c-0.9,1.4-1.5,2.9-1.9,4.5
			c-1.4,5.3-1.1,10.6-0.7,16c0.3,3.2,1.8,5.4,4.5,7c2.3,1.3,4.4,2.9,6,5c0.3,0.4,1.1,0.9,0.7,1.4c-0.5,0.6-1.4,0.4-2,0
			c-0.2-0.1-0.4-0.2-0.6-0.4c-3.1-2.1-6.2-4.3-9.3-6.4c-4.5-3.1-9-6.3-13.6-9.3c-1.7-1.2-3.6-2.1-5.7-2.5c-2.3-0.4-3.7,0.5-4.3,2.7
			c-0.3,1.1-0.5,2.2-0.6,3.2c-0.3,2.2,0.5,3.3,2.6,3.9c0.3,0.1,0.6,0.1,1,0.2c4.5,0.9,8.7,2.8,13,4.2c0.8,0.3,1,0.9,0.8,1.7
			c-0.2,0.8-0.8,0.9-1.5,0.8c-2-0.5-4.1-0.6-6.2-0.8c-2.4-0.3-4.9-0.5-7.4,0.3c1.3,2,2.7,3.8,4.2,5.5c2.3,2.4,5,3.9,8.3,4.5
			c1.7,0.3,3.4,0.1,5.1,0.4c1.9,0.4,3.8,0.8,5.7,1.2c0.7,0.1,1.1,0.6,1,1.3c-0.1,0.8-0.7,0.8-1.3,0.7c-0.5,0-1-0.2-1.4-0.3
			c-1.5-0.3-3-0.3-4.6,0.5c1.1,1.2,2.2,2.3,3.2,3.3c1.4,1.4,2.8,2.7,4.4,3.9c2.6,1.9,5.1,3.8,8.3,4.7c4,1.1,6.8-0.4,7.9-4.3
			c1.1-4,0.8-8.1,1-12.2c0.1-4.5-0.4-8.9-1.2-13.3c-0.5-2.9,0-5.5,1.5-8.1c2.5-4.4,4.1-9.2,4.9-14.3c0.1-0.7,0.3-1.4,1.2-1.5
			c2.3-0.2,4.6-0.7,7-0.7c1.7,0,3.4,0.1,5.1,0.8c-0.8,0.6-1.6,0.9-2.4,1.1c-1.4,0.5-2.8,0.8-4.1,1.5c-1.4,0.7-1.4,0.7-0.5,2
			c3.6,4.6,7.3,9.3,10.9,13.9c0.2,0.3,0.3,0.7,0.8,0.8c0.6-2.2,0.8-4.4,0.6-6.6C364.6,288.4,363.9,281.5,361.8,274.8z"/>
		<path class="st2" d="M267.3,232.3c0.8,1.3,1.9,1.9,3.4,1.7c1.2-0.1,2.4-0.3,3.5-0.5c2.6-0.4,5.1-0.7,7.6,0.4
			c0.7,0.3,1.6,0.5,1.6,1.4c0,0.8-0.9,1-1.6,1.2c0.5,1.1,1.4,1.9,2.1,2.8c0.1,0,0.2,0,0.2,0.1c0.3,0,0.6,0,1,0.1
			c5.5,1,11,1.9,16.5,2.9c8,1.3,16,2.3,24.1,2.8c6.7,0.4,13.5,0.5,20.3,0.1c3.2-0.2,6.5-0.5,9.8-1.1c-0.4-0.2-0.6-0.4-0.8-0.6
			c-3.3-1.9-6.4-4-9.5-6.1c-2.3-1.5-3.9-3.7-5.8-5.6c-0.6-0.6-1.1-0.8-1.9-0.8c-8.7,0.7-17.4,1.5-26.1,2.1c-7,0.5-13.8-0.3-20.1-3.4
			c-4.5-2.2-9.2-3.8-14.2-4.7c-2.6-0.5-5.2-1.1-7.9-1.2c-0.7,0-1.3-0.1-1.1,1c0.2,0.8-0.4,1.3-0.9,1.7c-0.5,0.4-1,0.7-1.5,1
			c-0.4,0.3-0.7,0.6-0.4,1.2C266.2,230,266.7,231.2,267.3,232.3z"/>
		<path class="st2" d="M200.4,332.3c-22.1,1.5-37.9,20.5-36.5,41.5c1.5,22.1,21.1,38,42.2,36.1c21.2-1.5,37-20.3,35.5-41.4
			C240.1,347,221.7,330.9,200.4,332.3z"/>
		<path class="st2" d="M218,332.2c2.9,1.6,5.3,1.1,7.8-0.7c11.5-8.1,23.9-14.5,37.3-18.6c6.1-1.9,12.3-3.2,18.6-4
			c3.2-0.4,6.5-0.8,9.8-1c3.4-0.2,6.8-0.3,10.4-0.2c-0.9-0.6-1.7-0.8-2.4-1c-8.3-2.6-16.9-2.9-25.5-2.3c-10.8,0.7-21.3,2.8-31.6,6
			c-10.4,3.3-20.3,7.6-29.4,13.7c-2.3,1.5-4.5,3.1-6.6,5.1c0.6,0.1,0.9,0.2,1.3,0.3C211.2,330.2,214.9,330.5,218,332.2z"/>
		<path class="st2" d="M296.8,322.8c-9.7,0.7-19.1,2.9-28.3,6c-10.6,3.5-20.6,8.5-29.8,15c-2.4,1.7-2.5,2.3-0.8,4.7
			c1.3,1.8,2.3,3.7,3.2,5.8c1.1,2.5,1.8,5.1,2.8,7.8c18.2-16,36.8-31,60-39.2C301.5,322.5,299.1,322.6,296.8,322.8z"/>
	</g>
	<g>
		<path class="st0" d="M312.6,122.1c5.6-7.3,13.2-8.7,21.6-7.1c10.9,2.1,17.4,9,20.2,19.6c0.3,1,0.1,1.5-1,1.5c-0.2,0-0.3,0-0.5,0
			c-3,0.3-4,1.6-3.6,4.6c0.6-0.1,0.8-0.6,1.2-0.9c2.8-2.4,6.1-1.4,7,2.2c1.1,4.6-0.2,8.5-4,11.4c-0.7,0.6-1.5,1.1-2.4,1.7
			c0.7,0.1,1.3,0.1,1.8,0.1c3.4,0,4.9-1,6.1-4.2c0.3-0.8,0.6-1.7,0.9-2.5c-0.1-0.8,0-1.6-0.1-2.4c0-1.8,0.3-3.6-0.3-5.4
			c-0.4-1.3-1.4-2.2-1.8-3.5c-1.3-4.2-1.9-8.5-3.3-12.7c-0.3-0.5-0.5-1.1-0.8-1.6c-2.7-5.7-6.9-9.2-13.3-9.9
			c-0.8-0.1-1.7-0.2-2.5-0.5c-5.5-2.3-11.1-2-16.5,0.3c-7.8,3.3-13.3,9.1-17.1,16.6c-0.2,0.7-0.3,1.4-0.5,2
			c-0.6,2.8-0.3,5.5,1.4,7.9C305.3,132.7,308.7,127.3,312.6,122.1z"/>
		<path class="st0" d="M366,277.5c-0.8-4.5-2.3-8.7-4.8-12.5c-3.5-5.4-8.6-8.5-14.7-10.1c-0.7-0.2-1-0.3-0.4-1
			c4.4-6,14.1-8.3,20.7-4.8c1.1,0.5,2.1,1.1,3.2,1.5c1.6,0.6,2.9,0.2,3.9-1.2c0.7-0.9,1.1-1.8,1.5-2.8c0.7-1.8,1.3-3.6,2-5.4
			c0.9-2.2,2.3-3,4.7-2.8c4.9,0.4,9.7,0.5,14.6,0c5.8-0.6,11.3-2,16.5-4.5c0.7-0.4,1.5-0.7,2.2-1.1c2.1-1.2,4.1-2.6,6.2-4v0
			c3.8-1.9,4.6-4.4,3.3-8.6c-2.3-7.2-5.9-13.7-9.9-20c-4.6-7.1-9.3-14.2-14-21.3c-2.5-3.8-5.5-7.4-8.9-10.4
			c-5.8-5.2-12.3-9.3-19.4-12.3c-2.7-1.1-5.3-2.3-6.9-4.9c-0.9-1.5-2.2-2-3.8-1.7c1.7,4.3,4.4,7.7,9,9.3
			c12.5,4.4,22.1,12.3,29.4,23.4c4.8,7.4,9.4,14.9,14,22.4c2.4,4,4.7,8,6.3,12.5c0.3,0.8,0.5,1.6,0.6,2.4c0.3,3-0.7,4.9-3.5,6.2
			c-1.1,0.5-2.2,1-3.5,1.6c1.1,0.4,2.2,0.3,3,0.8c0.5,0.4,0.8,0.7,0,1.2c-3.9,2.3-8,4-12.4,5.1c-5.7,1.4-11.4,1.7-17.2,1.3
			c-2-0.1-4.1-0.2-6.2-0.7c6.5-9.8,15.9-15.4,26.5-19.5c-5.7-0.4-9.5,0.5-14.3,3.3c-8.1,4.7-13.7,11.6-17.7,19.9
			c-0.9,1.8-1.6,3.7-2.5,5.5c-0.8,1.7-2,2.1-3.8,1.8c-0.5-0.1-1-0.2-1.4-0.4c-7.6-2.4-14.5-6.1-21.3-10.1c-2.1-1.2-3.9-2.9-6.2-3.8
			c-1.2-0.5-2.1-1-2.3-2.3c-0.2,0-0.4,0-0.6,0c-8.9-0.7-17.8-0.8-26.7,0.2c-2.4,0.3-4.7,0.4-7.1,0.3c-6-0.4-11.5-2.2-16.8-5
			c-6.7-3.5-13.8-5.1-21.4-4c-0.9,0.1-1.7,0.4-2.5,0.7c-0.6,0.3-1.1,0.8-0.6,1.6c1.1,1.7,0.8,3.3-0.4,4.7c-0.5,0.6-0.9,1.1-1.2,1.9
			c-0.2,0.8-0.2,1.4,0.6,1.9c1.2,0.8,2.3,1.8,3.4,2.9c2.1,2.1,4.6,3.5,7.7,2.8c3-0.7,6-0.7,9-1c0.7-0.2,1.6-0.4,1.6-1.2
			c0-0.8-0.9-1.1-1.6-1.4c-2.5-1.1-5.1-0.8-7.6-0.4c-1.2,0.2-2.3,0.4-3.5,0.5c-1.5,0.1-2.7-0.5-3.4-1.7c-0.6-1.1-1.2-2.2-1.7-3.4
			c-0.3-0.5,0-0.9,0.4-1.2c0.5-0.4,1-0.7,1.5-1c0.6-0.4,1.1-1,0.9-1.7c-0.3-1.1,0.4-1,1.1-1c2.7,0.1,5.3,0.7,7.9,1.2
			c4.9,1,9.6,2.5,14.2,4.7c6.3,3.1,13.1,3.9,20.1,3.4c8.7-0.6,17.4-1.4,26.1-2.1c0.8-0.1,1.3,0.2,1.9,0.8c1.9,1.9,3.6,4.1,5.8,5.6
			c3.1,2.1,6.2,4.2,9.5,6.1c0.2,0.1,0.5,0.3,0.8,0.6c-3.4,0.6-6.6,0.9-9.8,1.1c-6.8,0.4-13.5,0.4-20.3-0.1
			c-8.1-0.5-16.1-1.5-24.1-2.8c-5.5-0.9-11-1.9-16.5-2.9c-0.3-0.1-0.6,0-1-0.1c0-0.2-0.1-0.1-0.2-0.1c0.1,0.1,0.1,0.1,0.2,0.2
			c0,0.3,0.2,0.5,0.4,0.7c1.7,2.1,4.1,2.9,6.6,3.4c4.6,0.8,9.2,1.5,13.8,2.4c11.2,2.2,22.5,3,33.9,2.9c2,0,3.9,0.1,6.2,0.1
			c-0.7,0.6-1.3,1-1.8,1.5c-1.3,1.1-2.9,1.8-3.6,3.5c4.8,1.4,9.3,3.4,13.1,6.7c4.4,3.8,7.3,8.7,9.1,14.2c2.1,6.6,2.7,13.5,3.3,20.4
			c0.2,2.2,0,4.4-0.6,6.6c-0.4-0.1-0.6-0.5-0.8-0.8c-3.6-4.6-7.3-9.3-10.9-13.9c-1-1.2-0.9-1.2,0.5-2c1.3-0.7,2.8-1,4.1-1.5
			c0.8-0.3,1.6-0.5,2.4-1.1c-1.7-0.8-3.4-0.8-5.1-0.8c-2.3,0-4.6,0.5-7,0.7c-0.9,0.1-1.1,0.8-1.2,1.5c-0.8,5.1-2.4,9.9-4.9,14.3
			c-1.5,2.6-2,5.3-1.5,8.1c0.7,4.4,1.3,8.8,1.2,13.3c-0.1,4.1,0.2,8.2-1,12.2c-1.1,4-4,5.5-7.9,4.3c-3.1-0.9-5.7-2.8-8.3-4.7
			c-1.6-1.2-3-2.5-4.4-3.9c-1.1-1.1-2.1-2.2-3.2-3.3c1.5-0.8,3.1-0.7,4.6-0.5c0.5,0.1,1,0.2,1.4,0.3c0.6,0,1.2,0.1,1.3-0.7
			c0.1-0.7-0.2-1.2-1-1.3c-1.9-0.4-3.8-0.8-5.7-1.2c-1.7-0.3-3.4-0.1-5.1-0.4c-3.3-0.5-6-2.1-8.3-4.5c-1.6-1.7-2.9-3.5-4.2-5.5
			c2.5-0.8,5-0.6,7.4-0.3c2.1,0.2,4.1,0.3,6.2,0.8c0.6,0.2,1.3,0,1.5-0.8c0.2-0.8,0-1.4-0.8-1.7c-4.3-1.4-8.5-3.3-13-4.2
			c-0.3-0.1-0.6-0.1-1-0.2c-2.1-0.6-2.9-1.7-2.6-3.9c0.1-1.1,0.4-2.2,0.6-3.2c0.5-2.3,1.9-3.2,4.3-2.7c2.1,0.4,4,1.3,5.7,2.5
			c4.6,3.1,9.1,6.2,13.6,9.3c3.1,2.1,6.2,4.3,9.3,6.4c0.2,0.1,0.4,0.3,0.6,0.4c0.7,0.3,1.6,0.6,2,0c0.4-0.5-0.4-1-0.7-1.4
			c-1.7-2.1-3.8-3.6-6-5c-2.7-1.6-4.3-3.7-4.5-7c-0.4-5.4-0.7-10.7,0.7-16c0.4-1.6,1-3.1,1.9-4.5c1.9-3,4.8-4.1,8.2-4.3
			c1.7-0.1,3.3,0.2,5-0.1c-2.3-2.6-5.9-3.4-9.6-2.1c-0.8,0.3-1.5,0.6-2.2,1c-0.7,0.4-1.1,0.4-1.4-0.4c-0.6-1.3-1.2-2.7-1.4-4.2
			c-0.4-2.7,0.4-5.1,2.3-6.9c2.3-2.2,4.8-3.9,8.2-4.1c1.9-0.1,2.5-0.7,2.9-2.7c-1.6,0.1-3.2,0.2-4.8,0.4c-4.7,0.6-8.6,2.5-11.2,6.6
			c-1.8,2.8-2.8,5.7-0.8,8.8c0.8,1.3,1.8,2.3,3,3.2c1.5,1,1.6,1.8,0.5,3.2c-1.3,1.5-2.4,3.2-3.2,5.1c-1.6,3.6-1.7,7.4-1.2,11.2
			c0.3,2.4,0.4,4.9,0.6,7.3c-0.7,0-1-0.4-1.3-0.7c-2.1-1.7-4.2-3.5-6.4-5.2c-2.1-1.7-4.3-3.2-6.9-4.2c-4.3-1.6-7.6,0-9.1,4.3
			c-0.5,1.4-0.8,2.8-1.1,4.3c-0.6,2.8-1.5,3.4-4.3,3c-4-0.5-8-0.7-12-0.6c-4.1,0.1-8.2,0.3-12.2,0.9c-3.3,0.5-6.6,1-9.9,1.7
			c-7,1.5-13.8,3.4-20.5,5.8c-11,3.9-21.3,9.3-30.3,16.7c-2,1.6-4.1,2.5-6.6,2.6c-3,0.1-5.9,0.7-8.8,1.6
			c-10.9,3.6-19,10.6-24.2,20.7c-5.9,11.6-6.5,23.6-1.3,35.7c4,9.4,10.9,16.3,20,20.9c8.3,4.1,17,5.6,26.1,3.8
			c6.1-1.2,11.7-3.6,16.8-7.2c6-4.2,10.5-9.7,13.5-16.4c3.2-7.1,4.2-14.6,4-22.3c0-1.6,0.4-3,1.6-4.1c11.3-10,23.1-19.5,36.2-27.2
			c6.2-3.6,12.5-7,19.4-9.2c6.1-2,11.7-0.9,15.9,4.2c4.6,5.5,10.4,8.5,17.3,9.6c3.4,0.5,5.4-0.6,6.8-3.7c1-2.2,1.7-4.5,2.3-6.9
			c1-4,1.4-8,0-12.1c-1-2.9-1.2-5.9-0.8-9c0.3-3.1,1-6.1,1.8-9.2c1.1-4.2,2.1-8.4,2.3-12.9c0.9,1,1.6,1.9,2.3,2.7
			c4.2,4.9,8.8,9.5,12.7,14.7c0.3,0.4,0.7,0.8,1.1,1.1c1.7,1.5,4.9,0.8,5.1-2.1c0.1-1.7-0.1-3.5,0.3-5.3
			C368.2,290.7,367.2,284.1,366,277.5z M301.8,319.7c0.2,0.4,0.6,0.9-0.3,0.8c-4.5,0.2-8.9,0.7-13.3,1.4c-4.9,0.8-9.7,1.8-14.5,3.2
			c-6.7,1.9-13.3,4.4-19.6,7.4c-6,2.8-11.6,6.1-16.9,10c-1.9,1.4-3.4,1.1-4.8-0.8c-1.3-1.7-2.8-3.1-4.7-4.1
			c-3.1-1.7-3.2-2.9-0.2-4.9c7.4-5.1,15.1-9.5,23.3-13c7.3-3.2,14.9-5.7,22.7-7.3c3.3-0.7,6.7-1.2,10-1.7c3.2-0.4,6.4-0.7,9.7-0.8
			c1.6,0,2.7,0.5,3.6,1.9C298.4,314.4,300.1,317.1,301.8,319.7z M213,324.1c9.1-6.1,19-10.5,29.4-13.7c10.3-3.2,20.8-5.4,31.6-6
			c8.6-0.5,17.2-0.3,25.5,2.3c0.8,0.2,1.6,0.4,2.4,1c-3.6-0.1-7,0-10.4,0.2c-3.3,0.2-6.5,0.6-9.8,1c-6.3,0.8-12.5,2.1-18.6,4
			c-13.5,4.1-25.9,10.5-37.3,18.6c-2.6,1.8-4.9,2.3-7.8,0.7c-3.2-1.7-6.9-2-10.4-2.7c-0.4-0.1-0.8-0.2-1.3-0.3
			C208.5,327.2,210.7,325.6,213,324.1z M206.2,409.9c-21.1,2-40.7-13.9-42.2-36.1c-1.4-21.1,14.4-40.1,36.5-41.5
			c21.3-1.4,39.7,14.7,41.2,36.2C243.2,389.6,227.4,408.4,206.2,409.9z M243.9,362c-0.9-2.7-1.7-5.3-2.8-7.8c-0.9-2-1.9-4-3.2-5.8
			c-1.7-2.3-1.6-3,0.8-4.7c9.2-6.5,19.1-11.4,29.8-15c9.2-3.1,18.6-5.3,28.3-6c2.4-0.2,4.7-0.2,7.1,0C280.7,331,262.1,346,243.9,362
			z"/>
		<path class="st0" d="M345.6,223.7c3-2.5,5-5.7,6.4-9.3c1.5-3.9,1.7-8,2-12.1c0.5-5.8,1-11.6,3.1-17.1c0.4-1.1,0.2-1.8-0.6-2.5
			c-0.6,0.4-0.9,1-1.3,1.6c-2.7,4.2-3.4,9.1-3.8,13.9c-0.3,3.1-0.4,6.2-1,9.4c-1.7-1.9-3-3.8-4.1-5.9c-1.9-3.4-3.3-7.1-5.1-10.6
			c-0.6-1.2-1.2-2.4-1.3-3.8c0-0.7-0.3-1.3-1-1.5c0.1,0.9-0.1,1.9,0.5,2.6c0.5,0.7,0.6,1.5,0.6,2.3c0.3,5,1.7,9.6,4.5,13.8
			c0.9,1.3,1.7,2.6,2.4,4c2.3,4.6,2.3,9-0.9,13.1C345.6,222.3,345.5,223,345.6,223.7z"/>
		<path class="st0" d="M312.5,161.1c0.9,3.3,2.6,6.2,4.6,8.8c2.6,3.3,5.7,6.1,8.5,9.1c3.5,3.7,7.5,5.6,12.6,4.6c1.4-1,2.8-1.9,4-3
			c3-2.8,4.4-6.3,4.6-10.7c-0.4,0.6-0.7,0.9-0.9,1.2c-1.6,2.3-3,4.7-4.8,6.8c-3.1,3.4-6.7,3.9-10.5,1.4c-0.9-0.6-1.8-1.2-2.6-1.8
			c-4.6-3.4-8.4-7.5-10.9-12.9c-2.9-6.3-7-12.1-10.3-18.2c-0.1,2.4,0.7,4.7,1.7,6.8C310,155.9,311.7,158.3,312.5,161.1z"/>
		<path class="st0" d="M425.6,235.5c-0.1-0.9-0.2-1.8-1.1-2.3C424.3,234.3,424.9,234.9,425.6,235.5z"/>
		<path class="st0" d="M319.6,139c2-2.6,2.6-5.4,1.7-8.7c-5.1,8.2-6.5,9.5-14.8,12.9C311.7,143.6,316.3,143.2,319.6,139z"/>
		<path class="st0" d="M330.9,139.4c2.4,1,5,1.9,7.3,3.1c0.9,0.5,1.8,1,2.7,1.7c0.4,0.3,0.8,0.7,1.3,1c0,0.1,0.1,0.2,0.1,0.4
			c0,0,0.1,0,0.1-0.1c0-0.2,0-0.3-0.2-0.3c-0.7-1.8-2-3.1-3.3-4.3c-2.9-2.6-6.4-4.1-10-5.5c-1.9-0.7-3.8-1.4-6-2.2
			C324.9,136.3,327.8,138.1,330.9,139.4z"/>
		<path class="st0" d="M417.6,321.2c-2,0.1-4,0.2-5.9,0.5c-0.2,0-0.3,0.1-0.5,0.1c-0.2,0-0.4,0.1-0.6,0.2c-0.1,0-0.3,0.1-0.4,0.2
			c3.3,0.7,6.6,1.2,10,1.4c0.4-0.9,0.8-1.7,1.2-2.6v0c-0.6,0-1.2,0.1-1.7,0.1C418.9,321.1,418.3,321.2,417.6,321.2z"/>
		<path class="st0" d="M425.7,235.7c0.2,0.9,0.4,1.8,0.6,2.7c0.2,0.8,0.4,1.7,0.6,2.5c0.1,0.6,0.3,1.2,0.4,1.7
			c0.9,4.7,1.3,9.4,1.5,14.2c0.1,2.7,0,5.3-0.1,7.9c-0.3,7.9-1.3,15.8-2.1,23.7c-0.5,4.5-0.5,9.1-0.5,13.6c0,2.5,0.1,4.9,0.2,7.4
			c0.5-1.4,1.1-2.8,1.6-4.2c0.3-0.8,0.6-1.5,0.8-2.3c0-1.4,0-2.8,0.1-4.1c0.2-5.1,0.7-10.3,1.4-15.3c0.9-6.7,2-13.3,2.7-20
			C434,253.3,431.9,243.9,425.7,235.7z"/>
		<path class="st0" d="M415,313.1c-0.2,0-0.3-0.1-0.5-0.1c-4.8-0.7-9.6-1.1-14.5-1.3c-1.6-0.1-3.2-0.2-4.8-0.2
			c-3.1-0.1-6.3-0.2-9.4-0.4c-3.1-0.1-6.3-0.2-9.4-0.4c-0.3,0-0.5,0-0.8-0.1c-0.3,0-0.5-0.1-0.7-0.2c-0.4-0.2-0.7-0.4-0.8-0.8
			c-0.1-0.2-0.1-0.4-0.1-0.6c0,0,0,0,0-0.1c0-0.4,0.1-0.8,0.3-1.3c0.3-0.9,0.6-1.8,0.9-2.7c1.3-4.4,2.4-8.9,3.1-13.4
			c0.5-3.1,1-6.2,1.3-9.4c0.1-1.2,0.1-2.4,0-3.7c-0.1-1.1-0.2-2.2-0.3-3.3v0c-0.2,0.1-0.4,0.3-0.5,0.5c-0.1,0.2-0.1,0.4-0.2,0.6
			c-0.2,0.5-0.3,0.9-0.4,1.4c-0.9,3.3-1.3,6.8-2,10.2c-0.2,1-0.5,2.1-0.8,3.1c-0.2,0.6-0.4,1.2-0.7,1.8v0
			c-0.6,6.1-1.8,12.1-5.3,17.3c-0.9,1.4-0.7,1.9,0.8,2.4c2.2,0.7,4.5,0.9,6.7,1.3c2.4,0.4,2.9,1.2,2.7,3.5c0,0.2-0.1,0.4-0.1,0.6
			c-0.8,4.2-1.7,8.3-2.1,12.6c-0.4,3.7-0.7,7.3-0.9,11c-0.1,1.4,0.2,2.9,0.8,4.2c2.4,4.9,3.3,10.1,3.4,15.5
			c0.1,4.8-0.4,9.6-0.6,14.4c-0.1,1.4-0.1,2.7-0.2,4.1c0.2-0.2,0.4-0.3,0.5-0.5c0.8-0.8,1.5-1.6,2.3-2.4v0c0-0.2,0-0.3,0-0.5
			c0-1.6,0-3.3,0.1-4.9c0.1-4.1,0.4-8.2,1-12.4c0.1-0.8,0.3-1.7,0.4-2.5c3.8,2.4,7.1,2.8,10.1,1.6c0,0,0,0,0,0
			c0.5-0.2,1-0.5,1.5-0.7c0.8-0.4,1.5-0.9,2.2-1.6c0,0,0.1-0.1,0.1-0.1c0.9-0.8,1.9-1.8,2.7-2.8l0,0c0.1,0.7,0.3,1.3,0.4,2
			c0.6-0.9,1.2-1.7,1.9-2.6c-0.5-3.6-0.7-7.2-0.7-10.8c0.1-5.8,0.9-11.5,2.4-17.2c0.2-0.8,0.5-1.5,0.7-2.3c-0.2-1.3-0.1-2.6,0.2-3.8
			c0.1-0.2,0.1-0.5,0.2-0.7c0.1-0.5,0.3-1,0.5-1.4c0.2-0.5,0.5-0.8,0.9-0.9c0.3-0.1,0.6-0.1,1-0.1c0.1,0,0.2,0,0.3,0.1
			c3.6,0.8,7.3,1.5,10.9,2.7c0.9,0.3,1.8,0.6,2.7,0.9c0.6-1.3,1.1-2.6,1.7-3.9c0,0,0,0,0,0C421.1,314.1,418.1,313.5,415,313.1z
			 M403.5,317.2c-0.8,2.7-1.3,5.4-1.8,8.1c-0.3,1.8-0.5,3.6-0.7,5.4c-0.2,2.7-0.4,5.5-0.3,8.3c0,2.2,0.2,4.4-0.1,6.6
			c-0.5,3.9-2.4,6.4-5.8,7.6c-0.5,0.2-1,0.3-1.6,0.4c-0.3,0.1-0.6,0.1-0.9,0.2c-0.9,0.2-1.7,0.4-2.5,0.4c-0.3,0-0.5,0-0.7,0.1
			c-0.5,0-0.9,0-1.3,0c-0.1,0-0.2,0-0.4,0c-0.2,0-0.5,0-0.7,0c-0.4,0-0.8-0.1-1.1-0.2c-1.5-0.4-2.6-1.2-3.1-2.7
			c-0.1-0.3-0.2-0.5-0.2-0.8c-0.2-1.2-0.5-2.3-0.9-3.4c-0.3-1.1-0.7-2.2-1.1-3.3c-0.2-0.5-0.3-1.1-0.3-1.6c0-0.3,0-0.6-0.1-0.9
			c0-1.4,0.1-2.7,0.2-4.1c0.2-4.3,0.7-8.5,1.5-12.7c0.3-1.7,0.6-3.4,0.9-5c0.2-0.8,0.3-1.7,0.5-2.5c0.1-0.3,0.1-0.5,0.2-0.7
			c0.2-0.6,0.4-1.1,0.7-1.4c0.4-0.4,1.1-0.5,2.1-0.5c0.3,0,0.6,0,0.9,0c4.8,0,9.6,0,14.4-0.1c0.3,0,0.6,0,0.8,0c0.2,0,0.3,0,0.5,0.1
			c0.3,0.1,0.5,0.1,0.7,0.3c0.1,0.1,0.2,0.1,0.2,0.2C403.8,315.3,403.8,316.1,403.5,317.2z"/>
		<path class="st0" d="M372.2,412.2L372.2,412.2C372.2,412.2,372.2,412.2,372.2,412.2C372.2,412.2,372.2,412.2,372.2,412.2z"/>
		<path class="st0" d="M372.2,412.2L372.2,412.2c0.4,0.3,0.8,0.1,1.1,0.1C372.9,412.3,372.5,412.5,372.2,412.2z"/>
	</g>
</g>
<g>
	<path class="st3" d="M239.6,310c0,0.2-0.2,0.2-0.3,0.1C239.4,310.1,239.5,310,239.6,310z"/>
	<path class="st3" d="M240.2,309.8c0,0.2-0.2,0.2-0.3,0.2C239.9,309.9,240,309.9,240.2,309.8z"/>
	<path class="st2" d="M71.9,238.3c1.3-1.1,3-2,4.8-2.2l0.4,0c7.9-0.1,9.3,8,10,14.6c0,0.6,0.1,1.3,0.2,1.8c0.1,0.6,0.1,1.1,0.2,1.7
		c0.6,6.1,0.5,12.2-0.6,18.3c-0.7,3.8-2.8,7.8-7.3,8.3l-0.4,0c-8.3,0.5-11.3-10.2-11.9-16.6C66.3,254.8,66.9,242.5,71.9,238.3z
		 M72.4,270.9c1,2.5,3.5,6.5,6.8,6.4c0.2,0,0.8-0.2,0.9-0.2c3.1-1,5.6-7.4,3.7-26l0-0.5c-0.4-4-1.7-11-6.7-10.9c-0.2,0-0.5,0-0.7,0
		c-6.4,0.6-6.4,15.5-5.6,23.7C71,266,71.4,268.4,72.4,270.9z"/>
	<path class="st2" d="M97.2,258.9c-0.4,0.1-1,0.2-1.1,0.2c-1,0.3-0.5,2.5-0.5,3.1c0.3,5.1,1.2,10.3,1.8,15.5l0.3,2.5l-3.1,0.2
		l-0.2-0.2c-0.4-3.4-1-6.6-1.4-9.8c-0.2-1.3-0.8-7.6-2.5-31.1c-0.2-1.1-0.4-2.1-0.5-3.2c-0.1-1.5,1.4-1.6,2.6-1.7l4.9-0.3
		c5.8,0.1,7.7,7.5,8,12c0.3,5-0.7,8.6-4.1,11c3.2,1.7,4.9,4.7,6,11.4c0.5,2.8,0.8,5.4,0.9,8.2l0,0.7c0,0.6,0,2-0.1,2l-0.2,0.1
		l-2.6,0.2l-0.2-0.2l-1.1-8.9c-0.7-4.3-1.5-9.1-5.2-10.9c-0.4-0.2-1.3-0.5-1.6-0.5C97.3,259,97.2,258.9,97.2,258.9z M95.8,255.8
		c5-0.3,6.4-5.7,6.1-9.9c-0.4-7.4-2.4-9.1-7.4-8.8c-0.7,0-0.7,0.7-0.6,1.2l0.4,6.6C94.6,247.6,94.6,255.9,95.8,255.8z"/>
	<path class="st2" d="M154.1,288.9l2.1-0.1c0.2,0,0.3,3,0.4,3.3c0,0.2,0.3,1.5,0.3,1.7c0.3,0.9,0.9,1.6,2,1.5l0.7,0
		c2.3-0.1,5-0.1,4.7-6c-0.5-9.2-10.7-7-11.4-13.9c-0.1-0.3-0.2-1.5-0.2-1.8c0-2-0.2-8.9,5-9.2c1.8,0,4.1,0.4,4.8,2.5
		c0.5,1.5,0.8,3,0.8,4.4l0,0.8c0,0.1,0,0.4-0.3,0.4l-2.1,0.1c-0.3,0-0.1-0.4-0.2-1.4c-0.1-1.4-0.7-4.3-2.6-4.2
		c-1.2,0.1-2.5,1.6-2.7,2.8c-0.4,1.5-0.6,5.7,1,6.9c2.4,1.7,6.4,3.6,8.8,6.9c1.1,1.5,1.4,3.2,1.5,5c0.3,4.4-0.8,8.8-6.4,9.1
		c-4.2,0.2-6.4-1.7-6.6-5.9C153.8,291.1,153.7,288.9,154.1,288.9z"/>
	<path class="st2" d="M167.9,257.6c-0.8-6,0.4-8.3,4-14.2c0.9-1.6-3.3-2-3.8-6.6c0-0.4-0.1-0.7-0.1-1.1c-0.4-6.6,4-13,10.9-13.5
		l0.7,0c0.3,0,1.9,0.2,2.4,0.3c1.8,0.2,3.9,1.9,5,3.5l0.8,2.3l0.2,1.5c0.4,2.9-0.2,5.1-1.7,7c-0.8,0.6-2.5,1.1-3.4,1.1
		c-1.2,0.1-3.7-0.1-3.9-1.3c0-0.3,0.5-1.6,0.8-2.3c0.2,0,0.4,0,0.6,0.1c0.6,0.3,1.4,0.4,1.7,0.4c1.8-0.1,3-1.6,2.9-3.4l0-0.2
		c-0.4-2.9-2.5-6-5.9-5.8c-3,0.2-5.5,3.2-6.4,5.8c-0.5,1.4-0.4,3.3-0.2,5c0.5,3.3,4.8,4.7,4.9,5.2c0,0.5-0.1,2.7-0.1,3.1
		c-0.4,0-1.5,0.8-2.4,1.6c-3,2.6-3.7,6-3.1,10c0.4,2.9,1.4,6.2,4.1,8.2c1.3,1,3.7,0.9,5.2,0.8c1.4-0.1,2.7-0.7,3.8-1.4
		c3.4-2.2,3.6-4.9,3.2-8.4l0-0.1c-0.1-0.9-0.3-2.5-1.4-2.5l-0.6,0c-2.5,0.8-3.5,1.4-3.9,1.6c-0.1-0.1-0.3-0.4-0.3-0.6
		c0-0.1-0.1-0.2-0.1-0.2c-0.3-0.8-0.7-1.9-1-2.8c0-0.2,0.1-0.6,0.4-0.4c0.3,0,0.8,0,1,0c2.7-0.4,5.7-1.3,11.9-3.8
		c0.2,0,0.3,0.4,0.3,0.9l0.1,0.6l0.3,1.1c0.3,0.3,0.4,0.7,0.4,0.7l0.1,0.5c-0.2,0.2-0.6,0.2-1,0.3c-0.2,0-0.5,0-0.6,0.1
		c-0.7,0.1-2.2,0.4-2.2,1.5l0.1,0.7c0,0.3,0.2,0.6,0.2,0.9c0.1,0.5,0.2,0.9,0.2,1.3c0.2,1.7,0.4,3.3,0.1,5c-0.5,3.7-4.6,6.6-7.7,7.7
		C171,270.5,168.6,262.6,167.9,257.6z"/>
	<path class="st2" d="M93.1,105.3c-0.7-2.9-1.1-5.6-1.4-7.9c-0.2-2.3-0.2-3.7,0.2-4c0.3-0.2,0.7-0.3,1.2-0.4c0.5-0.1,1.4,0,2.5,0.2
		c0.8,0,1.4,0.1,1.8,0.3c0.4,0.2,0.8,0.4,1.2,0.6c0.4,0.4,0.6,0.8,0.7,1.2c0.1,0.4,0.1,1.2,0.1,2.4c0,0.6,0.2,1.6,0.4,2.8
		c0.2,1.3,0.4,2.5,0.7,3.7c0.3,1.2,0.5,2.3,0.8,3.3c0.3,0.9,0.5,1.4,0.6,1.5c1.6-0.4,2.9-0.7,4-1c1-0.3,2.1-0.6,3.1-0.9
		c1-0.3,1.7-0.5,2.1-0.7c0.2-0.1,0.3-0.2,0.4-0.3c0.1-0.1,0.1-0.4,0.1-0.9c0-0.5-0.1-1.2-0.3-2.2c-0.2-1-0.4-2.4-0.7-4.2
		c-0.5-2.2-0.9-3.9-1.1-5c-0.3-1.2-0.3-2-0.3-2.5c0.1-0.5,0.4-0.9,0.9-1c0.5-0.2,1.2-0.3,2.2-0.6c1-0.3,1.7-0.5,2.2-0.7
		c0.5-0.2,1,0.5,1.5,1.8c0.5,1.4,1.2,3.9,1.9,7.4c0.8,3.6,2,9,3.6,16.1c1.2,5.3,2.1,9.6,2.9,13c0.8,3.4,1.4,6.1,1.9,8.1
		c0.5,2.1,1,3.7,1.3,4.9c0.3,1.2,0.6,2.2,0.9,3c0.4,1.1,0.7,2,0.9,2.6c0.2,0.6,0.3,1.1,0.4,1.4c0,0.3,0,0.6-0.1,0.8
		c-0.1,0.2-0.3,0.4-0.5,0.7c-0.4,0.6-1,1.2-1.8,1.7c-0.8,0.6-1.7,0.9-2.5,1.1c-0.3,0.1-0.7,0-1.1-0.2c-0.5-0.2-0.8-0.4-0.9-0.5
		c0-0.1-0.1-0.4-0.2-0.8c-0.1-0.4-0.3-0.8-0.5-1.3c-0.1-0.6-0.6-2.5-1.4-5.8c-0.8-3.3-1.8-7.5-2.9-12.5c-1-4.1-1.8-7.3-2.4-9.6
		c-0.5-2.2-1-3.9-1.3-4.9c-0.3-1-0.6-1.6-0.8-1.7c-0.2-0.1-0.4-0.2-0.7-0.1c-0.3,0.1-0.9,0.3-1.9,0.6c-1,0.4-1.9,0.7-2.7,1
		c-0.9,0.4-1.5,0.7-2,1.1c-0.4,0.4-0.7,1.1-0.7,2.2c0,1.1,0.2,2.8,0.6,5.1c0.4,2.3,1.1,5.5,1.9,9.6c0.9,4.2,1.7,7.5,2.2,9.8
		c0.5,2.3,0.8,4,1.1,5.1c0.2,1.1,0.3,1.8,0.3,2.1c0,0.3-0.1,0.5-0.2,0.6c-0.2,0.3-0.5,0.6-0.8,0.9c-0.3,0.2-1.1,0.5-2.3,0.8
		c-1.3,0.3-2.3,0.4-2.8,0.3c-0.5-0.1-0.9-0.5-1.2-1.3c0-0.1-0.5-2.3-1.5-6.4c-1-4.1-2.1-8.9-3.4-14.2c-1.3-5.3-2.5-10.5-3.7-15.6
		C94.4,110.9,93.6,107.3,93.1,105.3z"/>
	<path class="st2" d="M134.8,103.2c-0.1-0.8,0-1.5,0.3-1.9c0.3-0.5,0.9-0.9,1.8-1.3c0.9-0.4,1.7-0.6,2.4-0.6c0.7,0,1.2,0.2,1.3,0.6
		c0,0.1,0.1,0.3,0.1,0.6c0.1,0.3,0.2,0.5,0.4,0.8c0.5,1,1.1,2.2,1.8,3.6c0.6,1.4,1.3,2.8,1.9,4.2c0.6,1.5,1.2,2.9,1.8,4.4
		c0.6,1.4,1.1,2.8,1.5,3.9c1.1,3.2,2.5,6.4,4.1,9.6c0.2,0.3,0.4,0.7,0.6,1.3c0.2,0.5,0.4,1,0.7,1.5c0.3,0.5,0.6,1,0.9,1.6
		c0.3,0.6,0.5,1,0.7,1.3c0.2,0.4,0.4,0.9,0.6,1.5c0.2,0.7,0.5,1.4,0.7,2.1c0.2,0.7,0.5,1.4,0.7,2c0.2,0.6,0.4,1.1,0.5,1.4
		c0,0.2,0.1,0.5,0.2,0.8c0.1,0.3,0.2,0.6,0.4,0.8c0.2,0.5,0.3,1,0.1,1.5c-0.1,0.5-0.5,0.9-1,1.3c-0.6,0.5-1.1,0.9-1.5,1.2
		c-0.4,0.3-0.6,0.5-0.8,0.5c-0.2,0.1-0.4,0.1-0.5,0c-0.1-0.1-0.3-0.2-0.5-0.4c-0.4-0.2-0.8-0.8-1.1-1.6c-0.3-0.8-0.8-2.2-1.5-4.1
		c-0.3-0.8-0.6-1.6-1-2.6c-0.4-0.9-0.7-1.6-0.8-2c-0.2-0.4-0.4-0.9-0.7-1.5c-0.2-0.6-0.4-1.1-0.6-1.5c-0.2-0.5-0.4-0.9-0.7-1.4
		c-0.2-0.4-0.4-0.8-0.5-1c-0.2-0.3-0.3-0.5-0.5-0.8c-0.1-0.3-0.2-0.5-0.1-0.6c0-0.1-0.2-0.1-0.5-0.1c-0.3,0.1-1.1,0.2-2.2,0.5
		c-0.7,0.2-1.4,0.3-2,0.3c-0.6,0.1-1,0.1-1.1,0.1c-0.2,0-0.3,0-0.4,0.1c-0.1,0-0.2,0.2-0.2,0.5c0,0.3-0.1,0.8-0.1,1.4
		c0,0.6,0,1.5,0,2.7c0,0.2,0.1,0.5,0.1,0.9c0,0.4,0.1,0.8,0.2,1.2c0,0.7,0.1,1.6,0.1,3c0,1.3,0.2,2.6,0.3,3.8c0,1,0,1.8,0,2.3
		c0,0.6-0.1,1-0.3,1.2c-0.1,0.1-0.3,0.3-0.7,0.5c-0.4,0.2-0.8,0.4-1.3,0.5c-0.5,0.2-0.9,0.3-1.3,0.4c-0.4,0.1-0.7,0.1-0.9,0
		c-0.4,0-0.8-0.2-1-0.5c-0.2-0.4-0.3-1.1-0.3-2.2c0-0.5-0.1-1-0.1-1.5c-0.1-0.5-0.1-0.8-0.2-1c0-0.2-0.1-0.6-0.1-1c0-0.5,0-1,0-1.5
		c0-0.6-0.1-1.3-0.1-2.1c0-0.8,0-1.5,0-2.2c-0.1-2.1-0.2-3.9-0.1-5.3c0.1-1.4,0.2-2.9,0.4-4.5c0-0.5,0-1,0.1-1.5
		c0.1-0.5,0.1-0.8,0-0.9c-0.1-0.2-0.1-0.6,0-1.1c0.1-0.7,0.2-1.7,0.3-3.2c0.1-1.5,0.2-3,0.2-4.4c0-1.1-0.1-2.1-0.1-3.3
		c0-1.1,0-2.2-0.1-3.3c0-1.1,0-2.1-0.1-3C134.8,104.6,134.8,103.8,134.8,103.2z M142.4,118.1c-0.2-0.5-0.5-1.1-0.8-2
		c-0.3-0.9-0.6-1.7-0.8-2.4c-0.1-0.6-0.3-1.1-0.5-1.6c-0.2-0.5-0.3-0.7-0.3-0.9c-0.1-0.1-0.2,0.3-0.3,1c0,0.7,0,1.9,0,3.6
		c-0.1,1-0.1,1.9-0.1,2.6c0,0.7,0,1.2,0,1.7c0,0.4,0.1,0.8,0.1,1.1c0,0.3,0.1,0.6,0.1,0.9c0,0.5,0,0.9,0.2,0.9
		c0.1,0.1,0.5,0.1,1.1,0.1c0.3-0.1,0.6-0.1,1-0.1c0.4,0,0.7-0.1,0.8-0.3c0.3-0.1,0.5-0.2,0.5-0.3c0-0.1,0-0.5-0.2-1.1
		c-0.1-0.3-0.2-0.8-0.4-1.4C142.7,119.4,142.5,118.8,142.4,118.1z"/>
	<path class="st2" d="M153.9,98.5c0.2-0.7,0.5-1.4,0.9-1.9c0.4-0.6,0.9-1,1.4-1.4c0.2,0,0.7-0.2,1.5-0.3c0.8-0.2,1.6-0.4,2.5-0.6
		c1.1-0.2,2-0.4,2.6-0.4c0.6,0,1.4,0,2.2,0c1.8,0.2,3.1,0.5,4.1,0.9c1,0.4,1.9,1.2,2.7,2.5c0.2,0.4,0.4,0.7,0.6,0.9
		c0.2,0.2,0.3,0.6,0.5,1.1c0.2,0.5,0.4,1.1,0.6,2c0.2,0.8,0.5,2,1,3.6c0.3,1.5,0.6,2.8,0.8,3.6c0.2,0.9,0.3,1.5,0.4,2
		c0.1,0.5,0.1,0.9,0,1.1c0,0.3-0.1,0.6-0.2,0.9c-0.2,0.6-0.5,1.3-0.8,2c-0.3,0.7-0.7,1.2-1.2,1.7c-0.4,0.5-1.1,0.9-2.1,1.5
		c-1,0.5-2.1,1-3.1,1.3c-1,0.2-1.6,0.4-1.9,0.6c-0.3,0.2-0.5,0.4-0.8,0.7c-0.1,0.2-0.2,0.4-0.2,0.6c0,0.2,0,0.5,0.1,1
		c0.1,0.5,0.2,1.2,0.4,2.1c0.2,0.9,0.4,2.1,0.7,3.8c0.3,1.9,0.6,3.8,0.9,5.5c0.3,1.8,0.4,2.9,0.5,3.5c0,0.7,0.1,1.4,0.1,2.1
		c0.1,0.7,0.1,1.2,0.2,1.5c0.6,1.5,0,2.4-1.7,2.7c-1.8,0.4-2.9,0.3-3.5-0.2c-0.5-0.6-0.9-1.9-1-4.1c0-0.4-0.2-1.3-0.4-2.5
		c-0.2-1.2-0.4-2.6-0.7-4.2c-0.3-1.6-0.6-3.2-0.9-5c-0.3-1.8-0.6-3.4-0.9-4.9c-0.2-0.8-0.4-1.7-0.6-2.8c-0.2-1.1-0.5-2.3-0.8-3.6
		c-0.3-1.3-0.6-2.6-0.9-3.9c-0.3-1.3-0.6-2.6-0.9-3.9c-0.6-2-1-3.6-1.4-4.8c-0.3-1.2-0.5-2.1-0.7-2.7c-0.1-0.6-0.2-1.1-0.2-1.3
		C153.8,99,153.8,98.8,153.9,98.5z M166.3,100.9c-0.4-0.2-0.8-0.4-1.2-0.6c-0.4-0.1-0.8-0.2-1.2-0.1c-0.9,0-1.5,0-1.8,0.1
		c-0.3,0-0.5,0.1-0.7,0.3c-0.1,0-0.2,0.1-0.4,0.2c-0.1,0.1-0.2,0.2-0.2,0.3c0,0.2,0.1,0.8,0.3,1.9c0.2,1.1,0.5,2.3,0.8,3.6
		c0.3,1.3,0.6,2.6,0.9,3.7c0.3,1.2,0.5,1.9,0.6,2.1c0.2,0.4,0.5,0.7,0.9,0.9c0.4,0.2,0.9,0.2,1.4-0.1c0.7-0.1,1.4-0.4,2.3-0.7
		c0.9-0.4,1.4-0.6,1.6-0.8c0.1-0.1,0-0.6-0.1-1.4c-0.2-0.8-0.4-2.2-0.8-3.9c-0.3-1.2-0.5-2.1-0.6-2.8c-0.2-0.7-0.3-1.2-0.5-1.5
		c-0.1-0.3-0.3-0.6-0.4-0.7C166.8,101.3,166.6,101.1,166.3,100.9z"/>
	<path class="st2" d="M176.7,93.5c0.2-0.7,0.5-1.4,0.9-1.9c0.4-0.6,0.9-1,1.4-1.4c0.2,0,0.7-0.2,1.5-0.3c0.8-0.2,1.6-0.4,2.5-0.6
		c1.1-0.2,2-0.4,2.6-0.4c0.6,0,1.4,0,2.2,0c1.8,0.2,3.1,0.5,4.1,0.9c1,0.4,1.9,1.2,2.7,2.5c0.2,0.4,0.4,0.7,0.6,0.9
		c0.2,0.2,0.3,0.6,0.5,1.1c0.2,0.5,0.4,1.1,0.6,2c0.2,0.8,0.5,2,1,3.6c0.3,1.5,0.6,2.8,0.8,3.6c0.2,0.9,0.3,1.5,0.4,2
		c0.1,0.5,0.1,0.9,0,1.1c0,0.3-0.1,0.6-0.2,0.9c-0.2,0.6-0.5,1.3-0.8,2c-0.3,0.7-0.7,1.2-1.2,1.7c-0.4,0.5-1.1,0.9-2.1,1.5
		c-1,0.5-2.1,1-3.1,1.3c-1,0.2-1.6,0.4-1.9,0.6c-0.3,0.2-0.5,0.4-0.8,0.7c-0.1,0.2-0.2,0.4-0.2,0.6c0,0.2,0,0.5,0.1,1
		c0.1,0.5,0.2,1.2,0.4,2.1c0.2,0.9,0.4,2.1,0.7,3.8c0.3,1.9,0.6,3.8,0.9,5.5c0.3,1.8,0.4,2.9,0.5,3.5c0,0.7,0.1,1.4,0.1,2.1
		c0.1,0.7,0.1,1.2,0.2,1.5c0.6,1.5,0,2.4-1.7,2.7c-1.8,0.4-2.9,0.3-3.5-0.2c-0.5-0.6-0.9-1.9-1-4.1c0-0.4-0.2-1.3-0.4-2.5
		c-0.2-1.2-0.4-2.6-0.7-4.2c-0.3-1.6-0.5-3.2-0.9-5c-0.3-1.8-0.6-3.4-0.9-4.9c-0.2-0.8-0.4-1.7-0.6-2.8c-0.2-1.1-0.5-2.3-0.8-3.6
		c-0.3-1.3-0.6-2.6-0.9-3.9c-0.3-1.3-0.6-2.6-0.9-3.9c-0.6-2-1-3.6-1.4-4.8c-0.3-1.2-0.5-2.1-0.7-2.7c-0.1-0.6-0.2-1.1-0.2-1.3
		C176.6,93.9,176.6,93.7,176.7,93.5z M189.1,95.8c-0.4-0.2-0.8-0.4-1.2-0.6c-0.4-0.1-0.8-0.2-1.2-0.1c-0.9,0-1.5,0-1.8,0.1
		c-0.3,0-0.5,0.1-0.7,0.3c-0.1,0-0.2,0.1-0.4,0.2c-0.1,0.1-0.2,0.2-0.2,0.3c0,0.2,0.1,0.8,0.3,1.9c0.2,1.1,0.5,2.3,0.8,3.6
		c0.3,1.3,0.6,2.6,0.9,3.7c0.3,1.2,0.5,1.9,0.6,2.1c0.2,0.4,0.5,0.7,0.9,0.9c0.4,0.2,0.9,0.2,1.4-0.1c0.7-0.1,1.4-0.4,2.3-0.7
		c0.9-0.4,1.4-0.6,1.6-0.8c0.1-0.1,0-0.6-0.1-1.4c-0.2-0.8-0.4-2.2-0.8-3.9c-0.3-1.2-0.5-2.1-0.6-2.8c-0.2-0.7-0.3-1.2-0.5-1.5
		c-0.1-0.3-0.3-0.6-0.4-0.7C189.6,96.2,189.4,96,189.1,95.8z"/>
	<path class="st2" d="M199.3,86.7c0.6-0.5,1.1-0.9,1.4-1.2c0.1-0.1,0.2-0.2,0.5-0.3c0.2-0.1,0.5-0.1,0.7-0.2c0.4-0.1,0.7-0.1,0.8,0
		s0.4,0.4,0.8,0.9c0.3,0.3,0.5,0.6,0.8,0.9c0.3,0.4,0.4,0.6,0.4,0.7c1,1.6,1.7,2.8,2.3,3.7c0.5,0.9,0.9,1.7,1.2,2.4
		c0.4,0.9,0.7,1.6,1.1,2c0.3,0.5,0.6,0.8,0.9,1.1c0.2,0.1,0.3,0.1,0.4,0.1c0,0,0.1-0.1,0.2-0.2c0.1-0.1,0.1-0.3,0.3-0.7
		c0.1-0.4,0.3-0.9,0.4-1.4c0.2-0.6,0.3-1.1,0.5-1.8c0.2-0.6,0.3-1.2,0.4-1.8c0.1-0.6,0.2-1.2,0.3-1.7c0.1-0.5,0.3-0.8,0.4-1
		c0.2-0.9,0.3-1.7,0.5-2.2c0.3-1.1,0.5-1.8,0.7-2.2c0.2-0.4,0.5-0.6,0.9-0.7c0.1,0,0.4,0,0.7,0.1c0.3,0.1,0.7,0.2,1.1,0.3
		c0.4,0.1,0.8,0.2,1.1,0.4c0.4,0.1,0.6,0.2,0.8,0.3c0.5,0.2,0.7,0.7,0.8,1.5c0,0.8-0.2,1.7-0.7,2.9c-0.2,0.6-0.3,1-0.3,1.3
		c-0.1,0.3-0.3,1.3-0.7,2.9c-0.4,1.6-0.8,3.3-1.2,5.3c-0.5,2-1,3.8-1.3,5.3c-0.4,1.5-0.6,2.4-0.7,2.5c0,0.3,0.1,1.5,0.6,3.5
		c0.4,2,1.1,5.2,2.1,9.5c0.7,3.6,1.2,6.2,1.6,8c0.3,1.8,0.5,3,0.5,3.7c0,0.7-0.2,1.1-0.6,1.2c-0.4,0-0.9,0.1-1.6,0.3
		c-0.5,0.1-1,0.2-1.4,0.3c-0.4,0.1-0.7,0.2-0.8,0.2c-0.2,0-0.4-0.1-0.6-0.3c-0.2-0.2-0.4-0.7-0.6-1.5s-0.5-2-0.9-3.7
		c-0.4-1.7-0.9-4-1.6-7.1c-0.6-2.9-1.2-5.2-1.6-6.8c-0.4-1.7-0.8-3-1-3.9c-0.3-1-0.5-1.7-0.7-2.1c-0.2-0.5-0.4-1-0.7-1.4
		c-0.2-0.2-0.3-0.4-0.5-0.9c-0.2-0.4-0.4-0.8-0.6-1.2c-0.3-0.4-0.6-1-1-1.6c-0.3-0.6-0.6-1.2-0.8-1.8c-0.3-0.5-0.7-1.2-1.2-2
		c-0.4-0.8-0.8-1.5-1.2-2.1c-0.8-1.8-1.5-3.2-2.1-4.2c-0.5-1-1.1-1.8-1.7-2.5c-0.4-0.5-0.6-1-0.6-1.4
		C198.2,87.6,198.6,87.1,199.3,86.7z"/>
	<path class="st2" d="M227.3,69c0.5-0.7,1.3-1.5,2.4-2.1c1.1-0.7,2.6-1.4,4.6-2.1c0.3-0.1,0.5-0.1,0.9-0.2c0.3-0.1,0.5-0.1,0.7-0.2
		c0.3-0.1,0.9-0.1,1.8-0.2c1-0.1,2-0.2,3-0.3c1.2-0.2,2.1-0.3,2.8-0.4c0.7-0.1,1.2,0,1.5,0.1c0.4,0.1,0.6,0.4,0.8,0.9
		c0.2,0.4,0.3,1,0.5,1.8c0.3,0.6,0.4,1.2,0.5,1.8c0.1,0.6,0.1,0.9,0.1,1c0,1-1,1.6-3,1.7c-0.7,0.1-1.5,0.2-2.5,0.4
		c-1,0.2-2.1,0.4-3,0.5c-1,0.2-1.8,0.4-2.6,0.5c-0.7,0.2-1.1,0.3-1.2,0.3c-0.1,0.2-0.1,0.4-0.1,0.6c0,0.2,0.2,0.5,0.4,1
		c0.1,0.4,0.3,1.1,0.6,2.1c0.3,1,0.6,2.2,0.9,3.6c0.4,1.8,0.7,2.9,0.8,3.5c0.1,0.5,0.3,0.8,0.4,0.8c2.5-0.9,4.6-1.6,6.3-2
		c1.7-0.4,2.8-0.6,3.4-0.4c0.4,0.2,0.7,0.5,0.9,0.9c0.2,0.4,0.4,1.3,0.7,2.7c0.2,1,0.3,1.7,0.4,2c0,0.3-0.1,0.6-0.3,0.9
		c-0.2,0.2-0.3,0.3-0.5,0.4c-0.1,0.1-0.4,0.2-0.7,0.4c-0.3,0.1-0.8,0.3-1.5,0.5c-0.6,0.2-1.5,0.4-2.7,0.7c-1.3,0.3-2.4,0.6-3.3,0.9
		c-1,0.3-1.5,0.5-1.6,0.7c0.3,2.7,0.7,4.9,0.9,6.7c0.4,1.7,0.7,3.1,0.9,4.5c0.2,1.3,0.5,2.6,0.6,3.7c0.2,1.2,0.3,2.3,0.4,3.4
		c0.1,1.1,0.2,2.3,0.3,3.5c0,0.8,0.1,1.7,0.2,2.7c0.1,1,0.3,1.9,0.5,2.6c0.3,1.6,0.4,2.8,0.5,3.7c0.1,0.9,0.1,1.6-0.1,2.1
		c-0.2,0.5-0.5,0.8-1,1c-0.5,0.2-1.2,0.4-2,0.6c-1,0.2-1.7,0.4-2,0.4c-0.3,0-0.7,0-1.1-0.2c-0.3-0.2-0.5-0.4-0.6-0.5
		c-0.1-0.1-0.2-0.6-0.4-1.4c-0.1-0.5-0.2-1.2-0.4-2.2c-0.1-1-0.3-2.1-0.4-3.3c-0.1-1.2-0.3-2.4-0.4-3.7c-0.1-1.2-0.2-2.4-0.3-3.4
		c-0.2-1.5-0.5-4-1.1-7.5c-0.6-3.5-1.3-7.1-2-11c-0.8-3.9-1.5-7.5-2.2-11c-0.7-3.4-1.3-5.9-1.8-7.4c-0.5-1.7-0.8-2.9-0.8-3.7
		C226.5,70.6,226.8,69.8,227.3,69z"/>
	<path class="st2" d="M253.5,75.7c0-0.1,0.1-0.2,0.2-0.5c0.2-0.3,0.4-0.6,0.6-0.8c0.2-0.2,0.5-0.4,0.7-0.6c0.2-0.1,0.5-0.3,1-0.5
		c0.5-0.2,1.2-0.4,2.1-0.6c0.9-0.2,2.3-0.5,4.1-0.9c1.9-0.4,3.3-0.7,4.3-0.9c1-0.2,1.8-0.3,2.3-0.3c0.5,0,0.8,0,1,0.2
		c0.2,0.1,0.3,0.4,0.5,0.6c0.1,0.2,0.3,0.5,0.4,0.8c0.2,0.3,0.3,0.7,0.4,1c0.2,0.6,0.3,1,0.4,1.2c0,0.2-0.1,0.4-0.3,0.7
		c-0.1,0.2-0.2,0.3-0.3,0.4c-0.1,0.1-0.3,0.2-0.7,0.3c-0.4,0.1-1,0.3-1.7,0.4c-0.8,0.2-1.9,0.4-3.3,0.7c-1.4,0.4-2.5,0.7-3.2,0.9
		c-0.8,0.2-1.3,0.4-1.7,0.5c-0.4,0.1-0.6,0.2-0.7,0.3c-0.1,0.1-0.2,0.2-0.2,0.3c0,0.3,0,0.7,0.1,1.2c0.1,0.5,0.3,1.6,0.7,3.4
		c0.2,1,0.4,1.7,0.6,2.3c0.2,0.5,0.4,0.9,0.7,1.1s0.7,0.2,1.3,0.2c0.5-0.1,1.3-0.2,2.3-0.5c1.2-0.3,2.1-0.5,2.8-0.6
		c0.6-0.1,1.1-0.1,1.4,0c0.3,0.1,0.5,0.4,0.6,0.8c0.1,0.4,0.2,1,0.3,1.7c0.2,0.8,0.3,1.4,0.3,1.7c0,0.3,0,0.5-0.2,0.6
		c-0.2,0.3-0.6,0.5-1.2,0.7c-0.6,0.2-1.9,0.5-3.7,1c-0.8,0.3-1.4,0.5-1.8,0.6c-0.4,0.1-0.7,0.3-0.9,0.5c-0.2,0.2-0.2,0.4-0.1,0.7
		c0.1,0.3,0.2,0.7,0.4,1.3c0.2,0.7,0.4,1.7,0.8,3c0.3,1.4,0.7,2.8,1,4.4c0.3,1.6,0.7,3.1,1,4.7c0.3,1.5,0.6,2.8,0.8,3.8
		c0.3,1.4,0.5,2.2,0.6,2.5c0.1,0.3,0.3,0.5,0.6,0.6c0.2,0.2,0.4,0.3,0.5,0.3c0.1,0,0.3,0,0.5-0.1c0.1,0,0.7-0.2,1.8-0.5
		c1.1-0.3,2.5-0.7,4-1c1.7-0.4,3-0.7,3.8-0.9c0.9-0.2,1.5-0.3,1.9-0.2c0.4,0.1,0.6,0.3,0.7,0.6c0.1,0.3,0.2,0.9,0.3,1.6
		c0.1,0.6,0.2,1.1,0.3,1.5c0.1,0.4,0.1,0.7,0.2,0.7c-0.1,0.2-0.3,0.5-0.7,0.7c-0.4,0.2-1,0.5-1.9,0.7c-0.9,0.3-2,0.6-3.4,1
		c-1.4,0.4-3.2,0.8-5.3,1.3c-1.2,0.3-2.1,0.5-2.7,0.6c-0.6,0.1-1.1,0.2-1.5,0.3c-0.4,0-0.6,0-0.9,0c-0.2-0.1-0.4-0.2-0.7-0.3
		c-0.7-0.4-1.3-0.9-1.9-1.5c-0.2-0.2-0.4-0.5-0.5-0.7c-0.1-0.2-0.3-0.6-0.4-1.1c-0.1-0.5-0.3-1.2-0.5-2.2c-0.2-1-0.5-2.4-0.8-4.2
		c-0.2-1-0.4-2-0.6-3.1c-0.2-1.1-0.4-2.2-0.7-3.2s-0.5-2-0.7-2.9c-0.2-0.9-0.4-1.7-0.6-2.3c-0.1-0.6-0.3-1.4-0.6-2.4
		c-0.3-1-0.5-2.1-0.8-3.3c-0.3-1.2-0.6-2.4-0.9-3.7c-0.3-1.3-0.6-2.5-0.8-3.7c-0.5-2.1-1-3.7-1.2-4.9c-0.3-1.1-0.5-2-0.6-2.6
		c-0.1-0.6-0.2-1-0.2-1.2c0-0.2,0-0.5,0.1-0.8c0.1-0.2,0.3-0.4,0.3-0.6c0.1-0.2,0.2-0.3,0.2-0.3C253.5,75.9,253.5,75.8,253.5,75.7z"
		/>
	<path class="st2" d="M275.7,70.7c0-0.1,0.1-0.2,0.2-0.5c0.2-0.3,0.4-0.6,0.6-0.8c0.2-0.2,0.5-0.4,0.7-0.6c0.2-0.1,0.5-0.3,1-0.5
		c0.5-0.2,1.2-0.4,2.1-0.6c0.9-0.2,2.3-0.5,4.1-0.9c1.9-0.4,3.3-0.7,4.3-0.9c1-0.2,1.8-0.3,2.3-0.3c0.5,0,0.8,0,1,0.2
		c0.2,0.1,0.3,0.4,0.5,0.6c0.1,0.2,0.3,0.5,0.4,0.8c0.2,0.3,0.3,0.7,0.4,1c0.2,0.6,0.3,1,0.4,1.2c0,0.2-0.1,0.4-0.3,0.7
		c-0.1,0.2-0.2,0.3-0.3,0.4c-0.1,0.1-0.3,0.2-0.7,0.3c-0.4,0.1-1,0.3-1.7,0.4c-0.8,0.2-1.9,0.4-3.3,0.7c-1.4,0.4-2.5,0.7-3.2,0.9
		c-0.8,0.2-1.3,0.4-1.7,0.5c-0.4,0.1-0.6,0.2-0.7,0.3c-0.1,0.1-0.2,0.2-0.2,0.3c0,0.3,0,0.7,0.1,1.2c0.1,0.5,0.3,1.6,0.7,3.4
		c0.2,1,0.4,1.7,0.6,2.3c0.2,0.5,0.4,0.9,0.7,1.1c0.3,0.2,0.7,0.2,1.3,0.2c0.5-0.1,1.3-0.2,2.3-0.5c1.2-0.3,2.1-0.5,2.8-0.6
		c0.6-0.1,1.1-0.1,1.4,0c0.3,0.1,0.5,0.4,0.6,0.8c0.1,0.4,0.2,1,0.3,1.7c0.2,0.8,0.3,1.4,0.3,1.7c0,0.3,0,0.5-0.2,0.6
		c-0.2,0.3-0.6,0.5-1.2,0.7c-0.6,0.2-1.9,0.5-3.7,1c-0.8,0.3-1.4,0.5-1.8,0.6c-0.4,0.1-0.7,0.3-0.9,0.5c-0.2,0.2-0.2,0.4-0.1,0.7
		c0.1,0.3,0.2,0.7,0.4,1.3c0.2,0.7,0.4,1.7,0.8,3c0.3,1.4,0.7,2.8,1,4.4c0.3,1.6,0.7,3.1,1,4.7c0.3,1.5,0.6,2.8,0.8,3.8
		c0.3,1.4,0.5,2.2,0.6,2.5c0.1,0.3,0.3,0.5,0.6,0.6c0.2,0.2,0.4,0.3,0.5,0.3c0.1,0,0.3,0,0.5-0.1c0.1,0,0.7-0.2,1.8-0.5
		c1.1-0.3,2.5-0.7,4-1c1.7-0.4,3-0.7,3.8-0.9c0.9-0.2,1.5-0.3,1.9-0.2c0.4,0.1,0.6,0.3,0.7,0.6c0.1,0.3,0.2,0.9,0.3,1.6
		c0.1,0.6,0.2,1.1,0.3,1.5c0.1,0.4,0.1,0.7,0.2,0.7c-0.1,0.2-0.3,0.5-0.7,0.7c-0.4,0.2-1,0.5-1.9,0.7c-0.9,0.3-2,0.6-3.4,1
		c-1.4,0.4-3.2,0.8-5.3,1.3c-1.2,0.3-2.1,0.5-2.7,0.6c-0.6,0.1-1.1,0.2-1.5,0.3c-0.4,0-0.6,0-0.9,0c-0.2-0.1-0.4-0.2-0.7-0.3
		c-0.7-0.4-1.3-0.9-1.9-1.5c-0.2-0.2-0.4-0.5-0.5-0.7c-0.1-0.2-0.3-0.6-0.4-1.1c-0.1-0.5-0.3-1.2-0.5-2.2c-0.2-1-0.5-2.4-0.8-4.2
		c-0.2-1-0.4-2-0.6-3.1c-0.2-1.1-0.4-2.2-0.7-3.2c-0.2-1.1-0.5-2-0.7-2.9c-0.2-0.9-0.4-1.7-0.6-2.3c-0.1-0.6-0.3-1.4-0.6-2.4
		c-0.3-1-0.5-2.1-0.8-3.3c-0.3-1.2-0.6-2.4-0.9-3.7c-0.3-1.3-0.6-2.5-0.8-3.7c-0.5-2.1-1-3.7-1.2-4.9c-0.3-1.1-0.5-2-0.6-2.6
		c-0.1-0.6-0.2-1-0.2-1.2c0-0.2,0-0.5,0.1-0.8c0.1-0.2,0.3-0.4,0.3-0.6c0.1-0.2,0.2-0.3,0.2-0.3C275.7,70.9,275.8,70.8,275.7,70.7z"
		/>
	<path class="st2" d="M297,65.7c0.1-0.1,0.5-0.3,1.2-0.6c0.7-0.3,1.7-0.6,2.8-1c1.1-0.4,2.4-0.8,3.8-1.2c1.4-0.4,2.8-0.8,4.1-1.2
		c3-0.9,5.3-1.5,7.1-1.9c1.8-0.4,2.8-0.5,3.1-0.3c0.2,0.1,0.4,0.3,0.5,0.7c0.2,0.4,0.4,0.8,0.5,1.3c0.1,0.5,0.3,1,0.3,1.5
		c0.1,0.5,0.1,0.9,0.1,1.1c-0.1,0.1-0.2,0.3-0.2,0.5c-0.1,0.2-0.2,0.3-0.2,0.3c0,0.1-0.4,0.3-1.1,0.5c-0.8,0.2-1.6,0.5-2.5,0.8
		c-0.9,0.3-1.5,0.5-2,0.7c-0.5,0.2-0.8,0.4-1,0.8c-0.2,0.3-0.2,0.8-0.2,1.4c0.1,0.6,0.2,1.4,0.4,2.5c0.1,0.6,0.3,1.6,0.6,3
		c0.3,1.4,0.6,3,1,4.8c0.4,1.8,0.8,3.8,1.3,5.9c0.5,2.1,0.9,4.2,1.4,6.2c0.5,2.1,0.9,4.2,1.3,6.1c0.4,1.9,0.7,3.6,1,5.1
		c0.3,1.5,0.5,2.6,0.7,3.5c0.2,0.9,0.3,1.3,0.3,1.4c0,0.4-0.2,0.8-0.7,1c-0.4,0.3-1.1,0.5-2,0.8c-0.7,0.3-1.2,0.4-1.4,0.4
		c-0.2,0-0.5-0.1-0.8-0.3c-0.2-0.1-0.3-0.2-0.5-0.3c-0.1-0.1-0.3-0.5-0.4-1c-0.2-0.6-0.4-1.5-0.6-2.7c-0.3-1.2-0.7-2.9-1.2-5.2
		c-0.3-1.2-0.6-2.7-1-4.4c-0.4-1.7-0.8-3.4-1.2-5.3c-0.4-1.8-0.8-3.7-1.2-5.5c-0.4-1.9-0.8-3.6-1.1-5.1c-0.3-1.5-0.6-2.9-0.8-4.2
		c-0.3-1.3-0.5-2.5-0.7-3.5c-0.2-1-0.4-2.1-0.7-3.3c0-0.1-0.4,0-1.1,0.2c-0.7,0.2-1.6,0.4-2.6,0.7c-1,0.4-1.9,0.6-2.8,0.8
		c-0.8,0.2-1.3,0.2-1.4,0.1c-0.9,0-1.5-1-2-3.1c-0.3-0.6-0.4-1-0.4-1.3C296.9,66.1,296.9,65.9,297,65.7z"/>
	<path class="st2" d="M64,169.8c0-1,0.2-1.7,0.6-2.2c0.4-0.5,1.1-0.9,2.2-1.3c1-0.4,2-0.5,2.8-0.3c0.8,0.1,1.3,0.4,1.3,0.9
		c0,0.1,0,0.4,0.1,0.7c0,0.3,0.2,0.6,0.3,1c0.5,1.3,1,2.7,1.5,4.3c0.5,1.6,1.1,3.3,1.6,5.1c0.5,1.7,1,3.5,1.5,5.2
		c0.5,1.7,0.9,3.3,1.2,4.7c0.9,3.8,2,7.6,3.3,11.5c0.1,0.4,0.3,0.9,0.5,1.5c0.2,0.6,0.4,1.2,0.5,1.8c0.3,0.6,0.6,1.2,0.8,1.9
		c0.2,0.7,0.4,1.2,0.6,1.6c0.2,0.4,0.3,1,0.5,1.8c0.2,0.8,0.4,1.6,0.6,2.5c0.2,0.8,0.4,1.6,0.5,2.4c0.2,0.8,0.3,1.3,0.4,1.6
		c0,0.2,0.1,0.6,0.1,1c0.1,0.4,0.2,0.7,0.3,0.9c0.2,0.6,0.1,1.2-0.1,1.7c-0.2,0.6-0.7,1-1.3,1.3c-0.8,0.5-1.4,0.9-1.9,1.2
		c-0.4,0.3-0.8,0.4-1,0.5c-0.2,0.1-0.4,0-0.6-0.1c-0.2-0.1-0.3-0.3-0.5-0.5c-0.4-0.3-0.8-1-1-1.9c-0.3-1-0.7-2.6-1.1-4.9
		c-0.2-0.9-0.5-2-0.8-3c-0.3-1.1-0.5-1.9-0.7-2.4c-0.2-0.5-0.4-1-0.5-1.7c-0.2-0.7-0.4-1.3-0.5-1.8c-0.2-0.6-0.4-1.1-0.6-1.6
		c-0.2-0.5-0.3-0.9-0.5-1.2c-0.2-0.3-0.3-0.7-0.4-1c-0.1-0.3-0.1-0.5,0-0.7c0-0.1-0.2-0.2-0.6-0.1c-0.4,0-1.2,0.1-2.5,0.2
		c-0.8,0.1-1.6,0.1-2.3,0.1c-0.7,0-1.1,0-1.2,0c-0.2,0-0.4,0-0.5,0c-0.1,0-0.2,0.2-0.3,0.6c-0.1,0.3-0.2,0.9-0.3,1.6
		c-0.1,0.7-0.2,1.7-0.4,3.1c0,0.2,0,0.6,0,1c0,0.4,0,0.9,0,1.4c-0.1,0.8-0.2,1.9-0.3,3.4c-0.1,1.5-0.2,3-0.1,4.4
		c-0.1,1.1-0.3,2-0.3,2.6c-0.1,0.6-0.2,1.1-0.5,1.3c-0.1,0.1-0.4,0.3-0.9,0.5c-0.5,0.2-1,0.3-1.5,0.4c-0.6,0.1-1.1,0.2-1.6,0.2
		c-0.5,0-0.8,0-1-0.1c-0.5-0.1-0.8-0.3-1-0.7c-0.2-0.4-0.2-1.3-0.1-2.5c0.1-0.6,0.1-1.2,0-1.7c0-0.6-0.1-0.9-0.1-1.2
		c0-0.2,0-0.6,0-1.2c0-0.6,0.1-1.1,0.2-1.8c0-0.7,0.1-1.5,0.2-2.4c0.1-0.9,0.2-1.7,0.3-2.4c0.1-2.4,0.3-4.4,0.6-6
		c0.3-1.6,0.6-3.3,1-5c0.1-0.6,0.1-1.2,0.3-1.7c0.1-0.6,0.2-0.9,0.2-1c-0.1-0.3,0-0.7,0.1-1.2c0.2-0.7,0.4-2,0.7-3.7
		c0.3-1.7,0.6-3.3,0.8-4.9c0.1-1.2,0.2-2.4,0.4-3.7c0.1-1.3,0.3-2.6,0.4-3.8c0.1-1.2,0.2-2.3,0.3-3.4
		C63.8,171.3,63.9,170.4,64,169.8z M70.6,187.7c-0.2-0.6-0.4-1.4-0.6-2.4c-0.2-1-0.4-2-0.6-2.8c-0.1-0.7-0.2-1.3-0.3-1.9
		c-0.1-0.5-0.2-0.9-0.2-1c-0.1-0.1-0.3,0.3-0.5,1.1c-0.2,0.8-0.3,2.2-0.5,4.1c-0.2,1.2-0.4,2.1-0.5,2.9c-0.1,0.8-0.2,1.4-0.2,1.9
		c0,0.5-0.1,0.9-0.1,1.3c0,0.4,0,0.7,0,1c-0.1,0.6-0.1,1,0,1.1c0.1,0.1,0.5,0.2,1.3,0.2c0.4,0,0.7,0,1.2,0c0.4,0,0.8,0,1-0.2
		c0.4,0,0.6-0.1,0.6-0.2c0-0.1,0-0.5,0-1.3c0-0.4-0.1-0.9-0.3-1.6C70.8,189.2,70.6,188.5,70.6,187.7z"/>
	<path class="st2" d="M84.7,165.7c0.3-0.4,0.5-0.6,0.7-0.8c0.2-0.2,0.6-0.3,1.2-0.5c0.7-0.3,1.4-0.5,2-0.5c0.6-0.1,1.7-0.1,3.3,0
		c2.3,0,4.6,0.3,6.8,0.8c2.2,0.5,4.1,1.1,5.5,1.8c4,2,6.8,5.5,8.4,10.5c0.6,1.4,1,2.9,1.3,4.5c0.3,1.6,0.6,3.6,0.8,6
		c0.2,1.8,0.3,3.4,0.3,4.7c0,1.4,0,2.6-0.1,3.8c-0.1,1.2-0.3,2.3-0.5,3.3c-0.2,1-0.5,2.1-0.9,3.2c-0.2,1-0.2,1.6-0.3,1.8l-0.2,0
		c-0.2,0-0.4,0.3-0.4,0.7c-0.1,0.1-0.2,0.5-0.5,0.9c-0.2,0.5-0.5,1-0.8,1.5s-0.6,1-0.9,1.4c-0.3,0.4-0.5,0.7-0.5,0.7
		c-0.1,0-0.2,0.1-0.2,0.2c0,0.1-0.1,0.2-0.2,0.3c0,0.1-0.3,0.6-1,1.4c-0.7,0.8-1.4,1.5-2,2c-1,0.7-2.1,1.4-3.5,2.3
		c-1.4,0.9-2.7,1.5-3.8,2c-1.7,0.6-3.2,1.1-4.3,1.5c-1.1,0.3-1.8,0.5-2,0.5c-0.3-0.1-0.7-0.3-1.3-0.7c-0.6-0.4-1.1-0.8-1.5-1.1
		c-0.3-0.3-0.6-0.6-0.8-0.9c-0.2-0.3-0.4-1.2-0.6-2.7c-0.2-1.5-0.5-3.9-1-7.1c-0.4-3.3-1-8.1-1.7-14.3c-0.7-6.6-1.3-11.5-1.6-15
		c-0.4-3.4-0.6-6-0.7-7.6c-0.1-1.6,0-2.7,0.1-3.2C84.1,166.7,84.4,166.2,84.7,165.7z M104.1,174.2c-0.9-0.9-2.3-1.7-4.2-2.5
		c-1.9-0.8-3.9-1.1-6-1.2c-0.5,0-1.1-0.1-1.8-0.3c-0.3-0.1-0.7,0-0.9,0.2c-0.3,0.2-0.5,0.5-0.7,0.8c-0.1,0.2-0.2,0.4-0.2,0.9
		s0,1.3,0.2,2.7c0.1,1.4,0.3,3.4,0.6,6c0.3,2.6,0.7,6.1,1.2,10.6c0.5,4.3,0.8,7.8,1.1,10.4c0.3,2.6,0.6,4.6,0.8,6
		c0.2,1.4,0.3,2.4,0.4,2.9c0.1,0.5,0.2,0.8,0.3,0.9c0.3,0.3,0.5,0.4,0.8,0.4c0.3,0,0.8-0.2,1.6-0.7c0.6-0.1,1.2-0.4,1.7-0.7
		c0.5-0.3,1.2-0.7,2.1-1.3c0.4-0.3,0.9-0.6,1.3-0.9c0.5-0.4,0.9-0.7,1.2-1.1c0.2-0.1,0.4-0.4,0.7-0.8c0.3-0.4,0.6-0.9,0.9-1.3
		c0.3-0.5,0.6-0.9,0.8-1.3c0.2-0.4,0.4-0.6,0.3-0.7c0-0.1,0-0.2,0.1-0.2c0.1-0.1,0.1-0.1,0.1-0.3c0.1,0,0.2-0.2,0.4-0.5
		c0.2-0.3,0.3-0.7,0.5-1.1c0.2-0.4,0.3-0.8,0.4-1.2c0.1-0.4,0.2-0.6,0.2-0.8c0-0.1,0-0.2,0.1-0.4c0.1-0.2,0.2-0.4,0.3-0.5
		c0.1-0.1,0.1-0.4,0.2-1c0.1-0.6,0.1-1.2,0.2-1.9c0.1-0.8,0.1-1.9,0-3.3c0-1.3-0.1-2.8-0.3-4.2c-0.1-1.5-0.3-2.9-0.5-4.2
		c-0.2-1.3-0.4-2.4-0.5-3.2c-0.4-1.2-1-2.3-1.5-3.4C105.3,176.1,104.7,175.1,104.1,174.2z"/>
	<path class="st2" d="M115.9,162.5c0.2-0.1,0.7-0.4,1.5-0.7c0.7-0.4,1.3-0.6,1.8-0.8c0.7-0.2,1.4-0.2,2,0.1c0.6,0.2,1,0.6,1,1.1
		c0,0.1,0.1,0.3,0.2,0.8c0.2,0.4,0.3,1,0.6,1.6c0.2,0.6,0.5,1.2,0.7,1.9c0.3,0.6,0.5,1.2,0.8,1.7c0.1,0.2,0.3,0.6,0.5,1.1
		c0.2,0.5,0.3,0.9,0.5,1.3c0.6,1.7,1.4,3.6,2.3,5.9c0.1,0.2,0.2,0.5,0.3,0.8c0.1,0.3,0.1,0.5,0.1,0.6c0.1,0.2,0.3,0.7,0.6,1.4
		c0.2,0.6,0.4,1.3,0.7,2.1c0.3,0.8,0.8,1.9,1.3,3.4c0.2,0.5,0.3,1,0.5,1.5c0.2,0.5,0.4,1.1,0.5,1.5c0.1,0.4,0.3,0.8,0.5,1.3
		c0.2,0.5,0.3,0.9,0.5,1.3c0.1,0.4,0.3,0.7,0.4,1c0.1,0.3,0.2,0.5,0.2,0.6c0,0.1,0,0.4,0.1,0.7c0,0.3,0.2,0.6,0.3,1
		c0.1,0.4,0.3,0.8,0.5,1.3c0.2,0.5,0.3,1,0.5,1.3c0.5,1.2,0.8,1.6,1,1.4c0.2-0.3,0.3-1.4,0.3-3.2c0.1-0.4,0.1-0.8,0.2-1.4
		c0-0.6,0-1.1,0-1.6c0.1-0.4,0.1-0.9,0.2-1.7c0.1-0.7,0.1-1.4,0.2-2.1c0-0.6,0.1-1.4,0.1-2.3c0-0.9,0.1-1.6,0.2-2.1
		c0.1-0.5,0.1-1.2,0.2-2c0-0.8,0.1-1.6,0.2-2.2c0-0.7,0.1-1.6,0.1-2.4c0-0.9,0.1-1.5,0.2-2c0-0.6,0.1-1.3,0.1-2.2
		c0-0.9,0.1-1.6,0.2-2.3c0.1-1.9,0.2-3.4,0.3-4.4s0.1-1.8,0.2-2.3c0.1-0.5,0.1-0.8,0.3-1c0.1-0.2,0.2-0.3,0.4-0.5
		c0.3-0.3,0.7-0.5,1-0.7c0.3-0.2,0.9-0.3,1.6-0.3c1.7-0.2,2.7,0,3.1,0.5c0.4,0.5,0.4,1.9,0.1,4.1c-0.1,1-0.3,2.1-0.4,3.3
		c-0.1,1.2-0.3,2.3-0.4,3.4c-0.2,2-0.4,3.5-0.5,4.4c-0.2,0.9-0.3,1.8-0.3,2.5c-0.1,0.4-0.2,0.9-0.2,1.5c0,0.6-0.1,1.2-0.2,1.7
		c-0.1,1.1-0.3,2.1-0.4,2.8c-0.1,0.7-0.2,1.4-0.2,1.9c0,0.5-0.1,1-0.1,1.4c0,0.4,0,0.9-0.1,1.3c-0.1,1-0.3,2.1-0.5,3.2
		c-0.2,1.2-0.4,2.4-0.5,3.7c-0.3,2-0.6,4.3-0.8,7c-0.1,0.4-0.2,0.9-0.2,1.7c-0.1,0.7-0.1,1.3-0.2,1.8c-0.1,0.5-0.2,1.1-0.2,1.7
		c-0.1,0.7-0.1,1.2-0.2,1.7c-0.1,0.4-0.2,0.8-0.2,1.2c-0.1,0.4-0.1,0.8,0,1c0,0.2,0,0.5-0.2,0.9c-0.2,0.3-0.3,0.6-0.4,0.9
		c-0.3,0.4-0.6,0.7-0.8,0.7c-0.2,0.1-0.8,0.1-1.8,0c-1.2,0.1-2.1,0.1-2.7-0.1c-0.6-0.2-1-0.6-1.3-1.2c-0.2-0.2-0.3-0.8-0.5-1.6
		c-0.2-0.8-0.4-1.6-0.6-2.5c-0.2-1.1-0.4-2.3-0.6-3.5c-0.2-1.2-0.5-2.4-0.7-3.5c-0.2-1.1-0.4-2.1-0.6-3c-0.2-0.9-0.3-1.6-0.4-2.1
		c-0.2-0.2-0.3-0.6-0.5-1.2c-0.2-0.6-0.4-1.1-0.5-1.6c-0.2-0.5-0.4-0.9-0.5-1.3c-0.1-0.4-0.3-0.8-0.5-1.3c-0.2-0.5-0.4-1.1-0.6-1.8
		c-0.2-0.7-0.5-1.6-0.9-2.7c-0.3-0.6-0.6-1.2-0.8-1.9c-0.2-0.7-0.4-1.2-0.5-1.4c0-0.1-0.1-0.4-0.2-0.8c-0.1-0.4-0.3-0.8-0.4-1.2
		c-0.2-0.3-0.3-0.8-0.5-1.3c-0.2-0.5-0.3-0.9-0.5-1.3c-0.3-0.7-0.6-1.4-0.9-2.1c-0.3-0.7-0.7-1.8-1.4-3.3c-0.3-0.6-0.6-1.1-0.8-1.7
		c-0.2-0.5-0.4-0.9-0.5-1.2c0-0.2-0.1-0.5-0.2-0.7c-0.1-0.2-0.1-0.5-0.2-0.7c-0.2-0.2-0.3-0.6-0.5-1c-0.2-0.4-0.3-0.8-0.5-1.2
		c-0.2-0.3-0.3-0.8-0.5-1.3c-0.2-0.5-0.3-0.9-0.5-1.1c-0.3-0.6-0.5-1.3-0.6-2.1C115.6,163.3,115.7,162.8,115.9,162.5z"/>
	<path class="st2" d="M155.1,160.7c0-1,0.2-1.7,0.6-2.2c0.4-0.5,1.1-0.9,2.2-1.3c1-0.4,2-0.5,2.8-0.3c0.8,0.1,1.3,0.4,1.3,0.9
		c0,0.1,0,0.4,0.1,0.7c0,0.3,0.2,0.6,0.3,1c0.5,1.3,1,2.7,1.5,4.3c0.5,1.6,1.1,3.3,1.6,5.1c0.5,1.7,1,3.5,1.5,5.2
		c0.5,1.7,0.9,3.3,1.2,4.7c0.9,3.8,2,7.6,3.3,11.5c0.1,0.4,0.3,0.9,0.5,1.5c0.2,0.6,0.4,1.2,0.5,1.8c0.3,0.6,0.6,1.2,0.8,1.9
		c0.2,0.7,0.4,1.2,0.6,1.6c0.2,0.4,0.3,1,0.5,1.8c0.2,0.8,0.4,1.6,0.6,2.5c0.2,0.8,0.4,1.6,0.5,2.4c0.2,0.8,0.3,1.3,0.4,1.6
		c0,0.2,0.1,0.6,0.1,1c0.1,0.4,0.2,0.7,0.3,0.9c0.2,0.6,0.1,1.2-0.1,1.7c-0.2,0.6-0.7,1-1.3,1.3c-0.8,0.5-1.4,0.9-1.9,1.2
		c-0.4,0.3-0.8,0.4-1,0.5c-0.2,0.1-0.4,0-0.6-0.1c-0.2-0.1-0.3-0.3-0.5-0.5c-0.4-0.3-0.8-1-1-1.9c-0.3-1-0.7-2.6-1.1-4.9
		c-0.2-0.9-0.5-2-0.8-3c-0.3-1.1-0.5-1.9-0.7-2.4c-0.2-0.5-0.4-1-0.5-1.7c-0.2-0.7-0.4-1.3-0.5-1.8c-0.2-0.6-0.4-1.1-0.6-1.6
		c-0.2-0.5-0.3-0.9-0.5-1.2c-0.2-0.3-0.3-0.7-0.4-1c-0.1-0.3-0.1-0.5,0-0.7c0-0.1-0.2-0.2-0.6-0.1c-0.4,0-1.2,0.1-2.5,0.2
		c-0.8,0.1-1.6,0.1-2.3,0.1c-0.7,0-1.1,0-1.2,0c-0.2,0-0.4,0-0.5,0c-0.1,0-0.2,0.2-0.3,0.6c-0.1,0.3-0.2,0.9-0.3,1.6
		c-0.1,0.7-0.2,1.7-0.4,3.1c0,0.2,0,0.6,0,1c0,0.4,0,0.9,0,1.4c-0.1,0.8-0.2,1.9-0.3,3.4c-0.1,1.5-0.2,3-0.1,4.4
		c-0.1,1.1-0.3,2-0.3,2.6c-0.1,0.6-0.2,1.1-0.5,1.4c-0.1,0.1-0.4,0.3-0.9,0.5c-0.5,0.2-1,0.3-1.5,0.4c-0.6,0.1-1.1,0.2-1.6,0.2
		c-0.5,0-0.8,0-1-0.1c-0.5-0.1-0.8-0.3-1-0.7c-0.2-0.4-0.2-1.3-0.1-2.5c0.1-0.6,0.1-1.2,0-1.7c0-0.5-0.1-0.9-0.1-1.2
		c0-0.2,0-0.6,0-1.2c0-0.6,0.1-1.1,0.2-1.8c0-0.7,0.1-1.5,0.2-2.4c0.1-0.9,0.2-1.7,0.3-2.4c0.1-2.4,0.3-4.4,0.6-6
		c0.3-1.6,0.6-3.3,1-5c0.1-0.6,0.1-1.2,0.3-1.7c0.1-0.6,0.2-0.9,0.2-1c-0.1-0.3,0-0.7,0.1-1.2c0.2-0.7,0.4-2,0.7-3.7
		c0.3-1.7,0.6-3.3,0.8-4.9c0.1-1.2,0.2-2.4,0.4-3.7c0.1-1.3,0.3-2.6,0.4-3.8c0.1-1.2,0.2-2.3,0.3-3.4
		C154.9,162.3,155,161.4,155.1,160.7z M161.6,178.7c-0.2-0.6-0.4-1.4-0.6-2.4c-0.2-1-0.4-2-0.6-2.8c-0.1-0.7-0.2-1.3-0.3-1.9
		c-0.1-0.5-0.2-0.9-0.2-1c-0.1-0.1-0.3,0.3-0.5,1.1c-0.2,0.8-0.3,2.2-0.5,4.1c-0.2,1.2-0.4,2.1-0.5,2.9c-0.1,0.8-0.2,1.4-0.2,1.9
		c0,0.5-0.1,0.9-0.1,1.3c0,0.4,0,0.7,0,1c-0.1,0.6-0.1,1,0,1.1c0.1,0.1,0.5,0.2,1.3,0.2c0.4,0,0.7,0,1.2,0s0.8,0,1-0.2
		c0.4,0,0.6-0.1,0.6-0.2c0-0.1,0-0.5,0-1.3c0-0.4-0.1-0.9-0.3-1.6C161.8,180.2,161.7,179.5,161.6,178.7z"/>
	<path class="st2" d="M199.1,154.1c0-0.1,0.1-0.3,0.2-0.5c0.2-0.2,0.3-0.4,0.4-0.6c0.5-0.3,1.2-0.4,2.2-0.5c1.1-0.1,2,0,2.5,0.2
		c0.6,0.2,0.9,0.6,1.1,1.2c0.1,0.2,0.3,2,0.7,5.3c0.4,3.3,0.8,7.1,1.3,11.6c0.5,4.4,1,9.1,1.6,13.8c0.5,4.8,1,8.8,1.4,12.1
		c0.2,2.3,0.4,4.1,0.5,5.4c0.1,1.3,0.2,2.3,0.2,2.9c0,0.6,0,1.1,0,1.2c-0.1,0.2-0.1,0.3-0.2,0.5c-0.3,0.4-0.7,0.7-1.2,1
		c-0.5,0.3-1,0.5-1.6,0.7c-0.6,0.2-1.1,0.3-1.6,0.3c-0.5,0-0.9,0-1.2-0.2c-0.1-0.1-0.5-0.5-1-1.2c-0.5-0.7-1.1-1.6-1.7-2.6
		c-0.6-1-1.2-2.1-1.8-3.1c-0.6-1.1-1.1-2-1.5-2.7c-0.3-0.5-0.5-0.9-0.7-1.2c-0.2-0.3-0.4-0.7-0.5-1.2c0-0.1-0.2-0.4-0.5-1
		c-0.3-0.6-0.7-1.3-1.3-2.1c-0.2-0.2-0.4-0.6-0.6-1.2c0-0.1,0-0.3-0.1-0.5c0-0.2-0.1-0.4-0.3-0.5c-0.2-0.2-0.4-0.7-0.8-1.3
		c-0.4-0.7-0.8-1.4-1.3-2.2c-0.8-1.2-1.4-2.1-1.9-2.9c-0.5-0.8-1-1.4-1.4-1.8c-0.3-0.2-0.5-0.5-0.8-0.8c-0.3-0.3-0.5-0.7-0.6-1.1
		c-0.2-0.2-0.3-0.4-0.5-0.6c-0.1-0.2-0.3-0.2-0.4-0.1l-0.3-0.2c0.1-0.1-0.1-0.3-0.4-0.7c-0.3-0.4-0.7-0.9-1.1-1.4
		c-0.4-0.5-0.8-1.1-1.2-1.5c-0.4-0.5-0.7-0.8-0.8-1c-0.1-0.1-0.3-0.2-0.3-0.3c-0.1-0.1-0.2-0.3-0.3-0.4c0-0.2-0.2-0.3-0.5-0.2
		c-0.2,0-0.4,0.3-0.4,0.8c0,0.5,0.1,1.8,0.3,3.7c0.1,1.3,0.3,2.7,0.6,4.4c0.3,1.7,0.5,3.1,0.8,4.2c0.1,0.6,0.1,1.3,0.2,2.2
		c0.1,0.9,0.2,1.9,0.3,2.9c0.1,1,0.3,2.1,0.4,3.1c0.1,1.1,0.3,2,0.4,2.9c0.2,1.7,0.4,3.1,0.5,4s0.2,1.7,0.2,2.1c0,0.5,0,0.8-0.1,0.9
		c-0.1,0.1-0.2,0.3-0.4,0.4c-0.2,0.3-0.5,0.4-0.8,0.5c-0.3,0.1-0.9,0.2-1.6,0.2c-1.4,0.3-2.3,0.3-2.7-0.1c-0.4-0.3-0.8-1.1-1-2.3
		c-0.4-2.1-0.9-5.5-1.4-10.1c-0.5-4.7-1-9.5-1.5-14.4c-0.4-4.9-0.8-9.4-1-13.3c-0.2-4-0.2-6.3-0.1-6.9c0.1-0.5,0.3-0.9,0.9-1.2
		c0.5-0.3,1.3-0.5,2.5-0.6c1-0.1,1.6-0.1,1.9-0.1c0.3,0,0.6,0.1,0.8,0.4c0.3,0.4,0.6,0.8,0.6,1c0.1,0.1,0.2,0.4,0.3,0.7
		c0.1,0.3,0.2,0.7,0.4,1.2c0.3,0.4,0.5,0.9,0.8,1.5c0.2,0.6,0.5,1.2,0.8,1.6c0.2,0.5,0.3,0.9,0.5,1.3c0.2,0.4,0.3,0.6,0.4,0.6
		c0.2,0.5,0.4,0.9,0.6,1.2c0.1,0.2,0.5,0.8,1.1,1.5c0.6,0.8,1.3,1.6,2,2.5c0.7,0.9,1.4,1.7,2,2.5c0.6,0.8,1,1.2,1.2,1.4
		c0.3,0.3,0.5,0.4,0.5,0.4c0.3,0.5,0.6,0.9,0.9,1.2c0.6,0.7,1.2,1.5,1.9,2.4c0.7,0.9,1.3,1.9,1.9,3c0.6,0.8,0.9,1.4,1.1,1.6
		c0.2,0.2,0.5,0.7,0.9,1.2c0.1,0.2,0.3,0.6,0.5,1c0.2,0.4,0.4,0.9,0.7,1.4c0.1,0.4,0.3,0.7,0.6,1.1c0.3,0.3,0.5,0.6,0.6,0.8
		c0,0.2,0.1,0.5,0.2,0.6c0.1,0.2,0.2,0.2,0.4,0c-0.2-2-0.4-3.7-0.5-5.2c-0.3-2.4-0.7-5.3-1.1-8.8c-0.4-3.5-0.7-6.8-1.1-10
		c-0.3-3.2-0.6-6-0.8-8.3C199.2,155.4,199.1,154.2,199.1,154.1z"/>
	<path class="st2" d="M223,151.8c0.7-0.2,1.8-0.4,3.3-0.8c1.5-0.3,3.1-0.7,4.7-1c0.6-0.2,1.1-0.3,1.6-0.4c0.5-0.1,0.8-0.1,1-0.1
		c0.3-0.1,0.7-0.1,1.1,0.2c0.4,0.2,0.6,0.5,0.7,0.9c0.1,0.6-0.1,1.4-0.3,2.4c-0.3,1-0.6,1.6-0.9,1.9c-0.2,0.3-0.5,0.4-0.8,0.5
		c-0.3,0.1-0.9,0.1-1.7,0.2c-1.6,0.2-3.4,0.6-5.1,1.3c-0.5,0.2-1.1,0.7-1.8,1.4c-0.7,0.7-1.3,1.4-1.7,2.1c-0.3,0.4-0.7,0.9-1,1.6
		c0.1,0.3,0,0.4-0.2,0.5c-0.3,0.6-0.7,1.8-1.1,3.6c-0.4,1.8-0.7,3.6-0.9,5.5c-0.1,0.8-0.2,1.8-0.1,3.1c0,1.3,0.1,2.6,0.3,4
		c0.1,1.4,0.3,2.7,0.5,3.9c0.2,1.2,0.4,2.1,0.7,2.6c0.5,1.6,0.9,2.8,1.2,3.5c0.3,0.7,0.6,1.2,0.7,1.6c0.3,0.5,0.4,0.9,0.4,1.2
		c0,0.1,0.1,0.3,0.3,0.7c0.2,0.4,0.5,0.8,0.8,1.2c0.3,0.5,0.6,0.9,0.9,1.4c0.3,0.5,0.6,0.9,0.8,1.2c0.1,0.2,0.4,0.5,0.9,0.9
		c0.4,0.4,0.9,0.7,1.2,1c0.9,0.9,1.7,1.4,2.3,1.7c0.6,0.2,1.4,0.3,2.2,0c0.7-0.1,1.6-0.3,2.6-0.5c1-0.3,1.7-0.6,2-0.9
		c0.3-0.3,0.9-0.4,1.7-0.5c0.9,0,1.5,0.1,2.1,0.4c0.5,0.2,0.8,0.4,1.1,0.6c0.2,0.2,0.6,0.4,1,0.6c0.2,0.2,0.5,0.4,0.8,0.6
		c0.1,0.2,0.1,0.5,0,0.7c-0.1,0.2-0.2,0.5-0.6,0.8c-0.3,0.3-0.8,0.7-1.5,1.1c-0.7,0.5-1.6,1-2.8,1.7c-0.9,0.5-1.7,1-2.4,1.3
		c-0.6,0.3-1.3,0.5-1.8,0.7c-0.6,0.1-1.1,0.2-1.7,0.1c-0.6,0-1.3-0.2-2-0.3c-1.7-0.2-3-0.4-3.9-0.8c-0.9-0.4-1.9-1-2.9-1.9
		c-2.1-1.7-4-3.9-5.6-6.6c-1.6-2.7-3-6-4.2-10c-0.3-0.7-0.5-1.8-0.7-3.2c-0.2-1.4-0.4-2.9-0.6-4.5c-0.2-1.6-0.3-3.1-0.3-4.6
		c-0.1-1.5,0-2.7,0.1-3.6c0-0.7,0.1-1.2,0.1-1.6c0.1-0.4,0.1-0.8,0.2-1.2c0.1-0.4,0.1-0.8,0.2-1.2c0.1-0.4,0.2-0.9,0.3-1.6
		c0.2-0.6,0.3-1.1,0.4-1.4c0.1-0.4,0.3-1,0.7-2c0.4-1,0.8-1.9,1.3-2.8c0.5-0.9,0.9-1.7,1.3-2.5c0.2-0.3,0.5-0.7,0.9-1.1
		c0.4-0.5,0.8-0.9,1.2-1.3c0.4-0.4,0.8-0.8,1.1-1.1c0.4-0.3,0.6-0.5,0.7-0.5c0.1,0,0.3,0,0.6-0.1C222.5,152.1,222.7,152,223,151.8z"
		/>
	<path class="st2" d="M243.1,150.6c0-0.1,0.1-0.3,0.4-0.6c0.2-0.3,0.5-0.6,0.8-0.9c0.3-0.2,0.6-0.4,0.8-0.5c0.2-0.1,0.7-0.3,1.2-0.4
		c0.6-0.1,1.4-0.2,2.5-0.4c1.1-0.1,2.7-0.3,4.7-0.5c2.2-0.2,3.8-0.4,5-0.5c1.2-0.1,2.1-0.1,2.7-0.1c0.6,0,1,0.2,1.1,0.3
		c0.2,0.2,0.3,0.5,0.5,0.8c0.1,0.2,0.2,0.6,0.4,1c0.1,0.4,0.2,0.8,0.3,1.2c0.2,0.8,0.2,1.2,0.2,1.4c0,0.2-0.1,0.4-0.4,0.8
		c-0.1,0.2-0.2,0.3-0.4,0.4c-0.1,0.1-0.4,0.2-0.9,0.3c-0.4,0.1-1.1,0.2-2,0.3c-0.9,0.1-2.2,0.2-3.9,0.4c-1.6,0.2-2.9,0.4-3.8,0.5
		c-0.9,0.1-1.6,0.2-2,0.3c-0.4,0.1-0.7,0.2-0.8,0.2c-0.1,0.1-0.2,0.2-0.3,0.3c-0.1,0.3-0.1,0.8-0.1,1.4c0,0.6,0.2,1.9,0.4,3.9
		c0.1,1.1,0.2,2,0.3,2.7c0.1,0.6,0.3,1.1,0.6,1.3c0.3,0.3,0.8,0.4,1.4,0.4c0.6,0,1.5-0.1,2.7-0.2c1.4-0.1,2.5-0.2,3.2-0.3
		c0.7,0,1.3,0.1,1.6,0.3c0.4,0.2,0.5,0.5,0.6,1c0,0.5,0.1,1.1,0.2,2c0.1,1,0.1,1.6,0.1,2c0,0.3-0.1,0.6-0.3,0.7
		c-0.2,0.3-0.7,0.5-1.5,0.6c-0.7,0.1-2.2,0.3-4.4,0.6c-0.9,0.2-1.7,0.3-2.2,0.4c-0.5,0.1-0.9,0.3-1.1,0.4c-0.2,0.2-0.3,0.5-0.3,0.8
		c0,0.4,0.1,0.9,0.3,1.5c0.1,0.8,0.3,2,0.4,3.6c0.2,1.6,0.4,3.3,0.5,5.1c0.2,1.8,0.3,3.6,0.5,5.4c0.1,1.8,0.3,3.3,0.4,4.5
		c0.2,1.6,0.3,2.6,0.4,2.9c0.1,0.3,0.3,0.6,0.7,0.7c0.2,0.2,0.4,0.3,0.6,0.4c0.1,0,0.3,0,0.6,0c0.1,0,0.8-0.1,2.1-0.3
		c1.3-0.2,2.9-0.4,4.6-0.6c2-0.2,3.5-0.4,4.5-0.5c1-0.1,1.7-0.1,2.2,0c0.4,0.1,0.7,0.4,0.7,0.8c0.1,0.4,0.1,1,0.2,1.8
		c0.1,0.7,0.1,1.2,0.2,1.7c0,0.5,0.1,0.8,0.1,0.9c-0.1,0.3-0.5,0.5-0.9,0.7c-0.5,0.2-1.2,0.4-2.3,0.6c-1,0.2-2.4,0.4-4,0.6
		c-1.7,0.2-3.7,0.5-6.2,0.8c-1.4,0.1-2.5,0.2-3.2,0.3c-0.7,0.1-1.3,0.1-1.7,0.1c-0.4,0-0.7-0.1-1-0.2c-0.2-0.1-0.5-0.2-0.7-0.5
		c-0.7-0.5-1.4-1.2-1.9-2c-0.2-0.3-0.4-0.6-0.5-0.8c-0.1-0.2-0.2-0.7-0.3-1.3c-0.1-0.6-0.2-1.5-0.3-2.6c-0.1-1.1-0.2-2.8-0.3-4.9
		c-0.1-1.2-0.2-2.4-0.3-3.6c-0.1-1.3-0.2-2.5-0.3-3.8s-0.2-2.4-0.4-3.4c-0.1-1.1-0.3-2-0.3-2.7c-0.1-0.7-0.2-1.6-0.3-2.8
		c-0.2-1.2-0.3-2.5-0.5-3.8c-0.2-1.4-0.3-2.8-0.5-4.3c-0.2-1.5-0.3-2.9-0.4-4.3c-0.3-2.5-0.6-4.3-0.7-5.7c-0.2-1.3-0.3-2.3-0.3-3
		c-0.1-0.7-0.1-1.1,0-1.4c0-0.3,0.1-0.6,0.2-0.9c0.2-0.2,0.3-0.5,0.5-0.6c0.1-0.2,0.2-0.3,0.3-0.3
		C243.1,150.9,243.1,150.7,243.1,150.6z"/>
	<path class="st2" d="M269,147.4c0.3-0.4,0.5-0.6,0.7-0.8c0.2-0.2,0.6-0.3,1.2-0.5c0.7-0.3,1.4-0.5,2-0.5c0.6-0.1,1.7-0.1,3.3,0
		c2.3,0,4.6,0.3,6.8,0.8c2.2,0.5,4.1,1.1,5.5,1.8c4,2,6.8,5.5,8.4,10.5c0.6,1.4,1,2.9,1.3,4.5c0.3,1.6,0.6,3.6,0.8,6
		c0.2,1.8,0.3,3.4,0.3,4.7c0,1.4,0,2.6-0.1,3.8c-0.1,1.2-0.3,2.3-0.5,3.3c-0.2,1-0.5,2.1-0.9,3.2c-0.2,1-0.2,1.6-0.3,1.8l-0.2,0
		c-0.2,0-0.4,0.3-0.4,0.7c-0.1,0.1-0.2,0.5-0.5,0.9c-0.2,0.5-0.5,1-0.8,1.5c-0.3,0.5-0.6,1-0.9,1.4c-0.3,0.4-0.5,0.7-0.5,0.7
		c-0.1,0-0.2,0.1-0.2,0.2c0,0.1-0.1,0.2-0.2,0.3c0,0.1-0.3,0.6-1,1.4c-0.7,0.8-1.4,1.5-2,2c-1,0.7-2.1,1.4-3.5,2.3
		c-1.4,0.9-2.7,1.5-3.8,2c-1.7,0.6-3.2,1.1-4.3,1.5s-1.8,0.5-2,0.5c-0.3-0.1-0.7-0.3-1.3-0.7c-0.6-0.4-1.1-0.8-1.5-1.1
		c-0.3-0.3-0.6-0.6-0.8-0.9c-0.2-0.3-0.4-1.2-0.6-2.7c-0.2-1.5-0.5-3.9-1-7.2c-0.4-3.3-1-8.1-1.7-14.3c-0.7-6.6-1.3-11.5-1.6-15
		c-0.4-3.4-0.6-6-0.7-7.6c-0.1-1.6,0-2.7,0.1-3.2C268.4,148.5,268.6,148,269,147.4z M288.3,156c-0.9-0.9-2.3-1.7-4.2-2.5
		c-1.9-0.8-3.9-1.1-6-1.2c-0.5,0-1.1-0.1-1.8-0.3c-0.3,0-0.7,0-0.9,0.2c-0.3,0.2-0.5,0.5-0.7,0.8c-0.1,0.2-0.2,0.4-0.2,0.9
		c0,0.4,0,1.3,0.2,2.7c0.1,1.4,0.3,3.4,0.6,6c0.3,2.6,0.7,6.1,1.2,10.6c0.5,4.3,0.8,7.8,1.2,10.4c0.3,2.6,0.6,4.6,0.8,6
		c0.2,1.4,0.3,2.4,0.4,2.9c0.1,0.5,0.2,0.8,0.3,0.9c0.3,0.3,0.5,0.4,0.8,0.4c0.3,0,0.8-0.2,1.6-0.7c0.6-0.1,1.2-0.4,1.7-0.7
		c0.5-0.3,1.2-0.7,2.1-1.3c0.4-0.3,0.9-0.6,1.3-0.9c0.5-0.4,0.9-0.7,1.2-1.1c0.2-0.1,0.4-0.4,0.7-0.8c0.3-0.4,0.6-0.9,0.9-1.3
		c0.3-0.5,0.6-0.9,0.8-1.3c0.2-0.4,0.4-0.6,0.3-0.7c0-0.1,0-0.2,0.1-0.2c0.1-0.1,0.1-0.1,0.1-0.3c0.1,0,0.2-0.2,0.4-0.5
		c0.2-0.3,0.3-0.7,0.5-1.1c0.2-0.4,0.3-0.8,0.4-1.2c0.1-0.4,0.2-0.6,0.2-0.8c0-0.1,0-0.2,0.1-0.4c0.1-0.2,0.2-0.4,0.3-0.5
		c0.1-0.1,0.1-0.4,0.2-1c0.1-0.6,0.1-1.2,0.2-1.9c0.1-0.8,0.1-1.9,0-3.3c0-1.3-0.1-2.8-0.3-4.2c-0.1-1.5-0.3-2.9-0.5-4.2
		c-0.2-1.3-0.4-2.4-0.5-3.2c-0.4-1.2-1-2.3-1.5-3.4C289.6,157.8,289,156.8,288.3,156z"/>
	<path class="st2" d="M114.8,235.2c0.1-0.7,0.3-1.2,0.5-1.5c0.2-0.4,0.5-0.6,1-0.9c0.5-0.2,1.1-0.5,2-0.6c0.9-0.2,2.1-0.4,3.5-0.7
		c0.9-0.4,2.1-0.7,3.4-0.9c1.3-0.2,2.6-0.4,3.9-0.5c1.3-0.1,2.4-0.1,3.3,0c1,0.1,1.5,0.3,1.7,0.6c0.3,0.2,0.6,0.6,0.8,1.2
		c0.2,0.7,0.3,1.4,0.4,2.1c0,0.8,0,1.5-0.1,2.2c-0.1,0.7-0.3,1.3-0.6,1.6c-0.3,0.3-0.9,0.7-1.8,1c-0.9,0.3-2,0.5-3.3,0.6
		c-2,0.1-3.5,0.2-4.5,0.3c-1,0.1-1.7,0.3-2.1,0.6c-0.4,0.3-0.6,0.9-0.5,1.7c0.1,0.8,0.1,2,0.2,3.6c0.1,1.6,0.2,3,0.3,4.2
		c0.1,1.1,0.3,1.7,0.7,1.7c0,0.3,0.6,0.6,1.6,0.9c1.1,0.3,2.1,0.5,3.1,0.8c3,0.8,5.4,2.1,7.3,3.9c1.9,1.8,3.6,4.6,5.2,8.5
		c0.4,0.8,0.7,1.6,0.9,2.3c0.2,0.7,0.4,1.6,0.5,2.6c0.1,1,0.3,2.2,0.4,3.7c0.1,1.5,0.2,3.3,0.4,5.6c0.2,2.8,0.3,5,0.3,6.5
		c0.1,1.5,0.1,2.8,0,3.7c-0.1,0.9-0.2,1.6-0.4,2.2c-0.2,0.6-0.6,1.3-1,2.1c-1.1,2.7-2.7,4.7-4.7,6c-2,1.3-4.4,2.4-7.3,3.2
		c-2.9,0.5-5.6,0.6-8.2,0.3c-2.5-0.3-4.6-1.2-6.3-2.8c-1.3-0.9-2.2-1.9-2.6-3c-0.4-1.1-0.3-2,0.3-2.7c0.3-0.3,0.8-0.6,1.6-0.8
		c0.8-0.2,1.6-0.3,2.5-0.4c0.9-0.1,1.7,0,2.4,0.1c0.7,0.1,1.2,0.3,1.4,0.6c0.3,0,0.9,0,1.6,0.1c0.8,0.1,2,0,3.6-0.5
		c1.9-0.3,3.5-0.6,4.7-1.1c1.2-0.5,2.1-1.2,2.7-2.1c0.6-1,1-2.3,1.1-3.9c0.1-1.6,0.1-3.8,0-6.4c0-4.9-0.6-8.9-1.9-12.1
		c-1.3-3.2-2.8-5.3-4.5-6.5c-0.3-0.3-1-0.6-1.9-0.8c-0.9-0.2-1.8-0.3-2.8-0.2c-2,0.1-3.7-0.2-5.3-1c-1.6-0.8-2.7-1.8-3.4-3.1
		c-0.4-0.6-0.6-2-0.8-4c-0.2-2.1-0.2-4.3-0.2-6.7s0.1-4.7,0.3-6.9C114.3,237.6,114.6,236.1,114.8,235.2z"/>
	<path class="st2" d="M201.6,242.8c1.4-3.2,3.2-6,5.4-8.5c2.2-2.5,4.7-4.5,7.5-5.9c1.2-0.7,2.8-1.4,4.8-2.2c0.3,0,0.7,0.2,1.2,0.8
		c0.5,0.5,0.8,1.3,0.8,2.2c0.4,1.1,0.6,2,0.7,2.7c0.1,0.7,0,1.3-0.3,1.7c-0.3,0.5-0.7,0.9-1.3,1.3c-0.6,0.4-1.4,0.8-2.5,1.3
		c-0.6,0.4-1.4,1-2.5,1.8c-1,0.8-2,1.6-2.9,2.2c-2.3,2.9-3.9,6-4.8,9.3c-0.9,3.3-1.4,7.6-1.4,12.8c-0.1,3.1-0.2,5-0.1,5.7
		c0.1,0.7,0.5,0.8,1.1,0.5c0.3,0,1-0.2,2-0.5c1-0.3,2-0.7,2.9-1c2.5-0.5,4.6-0.6,6.5-0.3c1.9,0.3,3.5,1,4.8,2.1
		c1.8,1.3,3,3.1,3.8,5.5c0.8,2.4,1.1,4.9,0.9,7.5c-0.2,2.7-0.8,5.3-1.8,7.9c-1.1,2.6-2.5,4.8-4.4,6.6c-2.7,2.6-5.7,3.9-9.1,3.9
		c-3.4,0-6.4-1.2-9-3.5c-1.2-1.3-2.2-2.9-3-4.7c-0.8-1.8-1.4-4-1.9-6.6c-0.5-2.6-0.8-5.6-0.9-9.1c-0.1-3.5-0.1-7.6,0.2-12.3
		c0-2.6,0-4.9,0.2-7c0.1-2,0.3-3.8,0.5-5.5c0.2-1.6,0.6-3.2,1-4.6C200.6,245.7,201.1,244.2,201.6,242.8z M218,287.9
		c0.8-1.1,1.4-2.4,1.8-3.7s0.6-2.6,0.5-3.8c0-1.2-0.3-2.2-0.7-3.2c-0.4-0.9-1-1.5-1.8-1.8c-0.3,0-0.7,0-1.2,0.1
		c-0.3,0-0.8,0.1-1.4,0.2c-0.6,0.1-1.4,0.3-2.3,0.7c-1,0.1-1.9,0.2-2.7,0.5c-0.8,0.3-1.6,0.6-2.2,1c-1,0.4-1.5,0.8-1.6,1.1
		c-0.1,0.4,0.1,1.5,0.5,3.3c0.3,2.4,0.8,4.3,1.6,5.8c0.8,1.5,1.7,2.5,2.8,3c1,0.5,2.1,0.5,3.3,0C215.9,290.6,217,289.5,218,287.9z"
		/>
	<path class="st0" d="M107.7,117.6c0.3-0.1,0.7-0.2,1.3-0.4c0.6-0.2,1.1-0.4,1.6-0.5c0.9-0.2,1.4-0.3,1.5-0.2c0.2,0,0.3,0.3,0.4,0.7
		c0.1,0.3,0.2,0.7,0.3,1.2c-0.8,0.4-1.4,0.8-2,1c-0.5,0.2-0.9,0.5-1.1,0.7c-0.2,0.3-0.3,0.9-0.2,1.9c0.1,1,0.4,2.6,0.9,4.7
		c0.5,2.1,1.1,5.2,2,9.1c1.1,4.8,1.9,8.7,2.5,11.7c0.6,3.1,0.9,4.8,0.9,5.3c0.1,0.3,0,0.6-0.1,1c-0.2,0.4-0.3,0.7-0.3,1
		c-0.2,0.3-0.5,0.6-1,0.7c-0.4,0.1-1.5,0.4-3.1,0.8c-1.6,0.4-2.6,0.6-3,0.6c-0.3,0-0.8-0.2-1.3-0.5c-0.2-0.1-0.5-0.3-0.8-0.7
		c0-0.1,0.2-0.3,0.7-0.4c0.5-0.2,1.1-0.3,1.9-0.5c1.2-0.3,2-0.5,2.3-0.6c0.4-0.1,0.8-0.5,1.3-1.1c0.3-0.2,0.5-0.5,0.6-1
		c0.2-0.5,0.2-0.8,0.2-1.1c0-0.5-0.2-2-0.8-4.6c-0.5-2.6-1.3-6.8-2.4-12.4c-0.9-3.9-1.5-6.9-2-9.1c-0.5-2.1-0.8-3.7-0.9-4.7
		c-0.1-1-0.2-1.6,0-1.9C107.2,118,107.4,117.8,107.7,117.6z"/>
	<path class="st0" d="M102,100.2c-0.3-1.2-0.5-2.3-0.6-3.4c-0.1-1.1-0.2-1.7-0.3-2c-0.1-0.6-0.2-0.9-0.2-0.9
		c0.3-0.1,0.7,0.1,1.3,0.5c0.5,0.4,0.9,0.8,1,1.2c0.1,0.2,0.3,0.9,0.5,2c0.2,1.1,0.5,2.2,0.7,3.5c0.2,1.2,0.4,2.4,0.6,3.4
		c0.2,1,0.2,1.6,0.2,1.6c-0.2,0-0.3,0.1-0.5,0.3c-0.2,0.1-0.4,0.2-0.7,0.3c-0.3,0.1-0.5,0.1-0.6,0c-0.1,0-0.3-0.3-0.5-0.7
		c-0.1-0.3-0.2-1-0.4-2.1C102.3,102.8,102.1,101.5,102,100.2z"/>
	<path class="st0" d="M130.8,144.2c-0.1-0.3-0.3-1.4-0.7-3c-0.4-1.7-0.9-3.8-1.6-6.4c-0.6-2.6-1.3-5.5-2.1-8.9
		c-0.8-3.3-1.5-6.8-2.4-10.5c-1.5-6.6-2.6-11.7-3.4-15.2c-0.8-3.6-1.4-6.2-1.7-7.8c-0.3-1.6-0.5-2.6-0.4-2.8c0-0.3,0.1-0.4,0.3-0.4
		c0.5,0.2,0.9,0.5,1.2,0.9c0.3,0.4,0.7,1.4,1.2,3c0.5,1.7,1.1,4.3,1.9,7.8c0.8,3.5,2,8.6,3.6,15.2c0.8,3.4,1.5,6.7,2.2,10
		c0.7,3.2,1.4,6.1,1.9,8.7c0.6,2.6,1.1,4.7,1.4,6.5c0.4,1.8,0.6,2.9,0.8,3.4c0.4,1.2,0.7,2.2,0.9,3.2c0.2,0.9,0.3,1.6,0.2,1.9
		c0,0.9-0.4,1.8-1.4,2.8c-1,0.9-2.3,1.7-4.1,2.2c-0.7,0.3-1.5,0.4-2.2,0.3c-0.7-0.1-1.3-0.5-1.7-1c0-0.1,0-0.2,0-0.3
		c0-0.1,0.2-0.2,0.4-0.4c0.1,0,0.4-0.1,0.9-0.3c0.5-0.2,0.8-0.4,1-0.8c0.4-0.2,0.8-0.5,1.2-0.7c0.4-0.2,0.6-0.4,0.8-0.4
		c0.1,0,0.4-0.1,0.7-0.3c0.4-0.2,0.7-0.4,0.9-0.6c0.4-0.7,0.7-1.5,0.8-2.4C131.7,146.8,131.4,145.7,130.8,144.2z"/>
	<path class="st0" d="M141.6,138.6c0-1.1,0-2.2-0.1-3.4c-0.1-1.2-0.1-2.3-0.1-3.3c0-0.5,0.1-0.8,0.2-1c0.2-0.1,0.8-0.3,1.8-0.6
		c1-0.2,1.6-0.3,1.8-0.2c0.2,0.1,0.4,0.2,0.6,0.4c0.2,0.5,0.3,0.8,0.2,0.9c-0.1,0.1-0.5,0.2-1.2,0.4c-0.4,0.1-0.7,0.2-0.9,0.3
		c-0.2,0.1-0.3,0.3-0.4,0.5c-0.1,0.3-0.1,0.7-0.1,1.2c0,0.6,0.1,1.4,0.1,2.4c0,0.4,0,1,0,1.6c0,0.6,0,1.1,0,1.4
		c0.1,0.3,0.1,0.8,0.1,1.3c0,0.5,0,1,0,1.5c0.1,1.4,0.2,2.5,0.3,3.4c0,0.9,0,1.6-0.1,2.1c-0.1,0.5-0.2,1-0.4,1.3
		c-0.2,0.3-0.5,0.6-0.9,0.8c-0.6,0.4-1.3,0.7-2.3,1c-0.9,0.3-1.6,0.4-1.9,0.4c-0.1-0.1-0.4-0.2-0.6-0.3c-0.3-0.1-0.6-0.3-0.8-0.4
		c-0.4-0.2-0.5-0.4-0.4-0.5c0.1-0.1,0.7-0.3,1.7-0.7c1.1-0.3,1.9-0.5,2.4-0.8c0.5-0.3,0.9-0.8,1.2-1.5c0.2-0.4,0.4-0.7,0.4-0.9
		c0-0.2,0-0.4-0.1-0.6c0-0.2-0.1-0.6-0.1-1.1c0-0.5-0.1-1.1,0-1.6c0-0.5-0.1-1.1-0.1-1.9C141.6,139.8,141.6,139.1,141.6,138.6z"/>
	<path class="st0" d="M141.2,121.2c0-0.1,0-0.3,0-0.6c0-0.3,0-0.6-0.1-0.9c0-0.5,0-0.8,0-0.8c0,0,0.1,0.1,0.3,0.4
		c0.1,0.5,0.2,0.9,0.3,1.4c0.2,0.8,0.2,1.1,0,0.9C141.4,121.5,141.3,121.4,141.2,121.2z"/>
	<path class="st0" d="M142.9,102.1c-0.2-0.3-0.4-0.6-0.5-0.9c-0.2-0.3-0.3-0.6-0.3-0.8c-0.1-0.7-0.2-1-0.2-1
		c0.3,0.3,0.5,0.4,0.7,0.5c0.3,0.2,0.6,0.5,0.9,1.1c0.4,0.6,0.8,1.4,1.4,2.5c1.4,3.1,2.7,6.1,3.9,8.8c1.2,2.7,2,4.6,2.3,5.8
		c0.2,0.5,0.4,1.1,0.7,1.9c0.3,0.8,0.6,1.6,1,2.5c0.3,0.9,0.7,1.7,1.1,2.5c0.4,0.8,0.7,1.5,1,2.2c0.2,0.3,0.3,0.7,0.5,1.1
		c0.2,0.4,0.4,0.8,0.6,1c0.2,0.3,0.4,0.7,0.6,1.2c0.2,0.5,0.4,0.9,0.6,1.3c0.2,0.4,0.4,0.9,0.6,1.4c0.2,0.5,0.4,1,0.6,1.4
		c0.2,0.5,0.5,1.2,0.9,2.2c0.4,1,0.7,2,1.1,3.1c0.4,1,0.7,2,0.9,2.8c0.3,0.9,0.4,1.4,0.4,1.5c0,0.8-0.3,1.5-0.8,2.1
		c-0.5,0.6-1.4,1.3-2.6,1.9c-0.6,0.4-1.1,0.6-1.5,0.6c-0.4,0-0.8-0.1-1.3-0.4c-0.5-0.2-0.8-0.4-0.8-0.7c-0.1-0.2,0.1-0.3,0.4-0.3
		c0.1,0,0.3-0.2,0.7-0.4c0.4-0.2,0.8-0.5,1.2-0.7c1.9-1.1,2.8-2.3,2.7-3.6c0-0.2-0.2-0.8-0.5-1.7c-0.3-1-0.7-2-1-3.2
		c-0.4-1.2-0.7-2.3-1.1-3.3c-0.3-1-0.6-1.7-0.7-2c-0.1-0.1-0.3-0.3-0.5-0.7c-0.2-0.4-0.4-0.8-0.6-1.2c-0.2-0.5-0.4-0.9-0.6-1.4
		c-0.2-0.5-0.4-0.8-0.6-1.2c-0.3-0.6-0.8-1.5-1.4-2.7c-0.6-1.2-1-2.3-1.5-3.2c-0.2-0.4-0.5-1-0.7-1.7c-0.3-0.8-0.6-1.5-0.8-2.2
		c-0.8-2.1-1.6-4.1-2.3-6c-0.7-1.9-1.4-3.5-2-4.9c-0.2-0.3-0.4-0.7-0.6-1.3s-0.5-1.1-0.6-1.5c-0.2-0.4-0.4-0.8-0.6-1.3
		C143.2,102.6,143.1,102.3,142.9,102.1z"/>
	<path class="st0" d="M173,96.4c-0.1-0.1-0.2-0.2-0.3-0.3c-0.1-0.1-0.2-0.2-0.3-0.3c0-0.2,0-0.3,0-0.2c0.1,0.1,0.3,0.2,0.7,0.3
		c0.1,0.2,0.4,0.5,0.8,0.8c0.4,0.3,0.7,0.7,1.1,1.1c0.3,0.4,0.6,0.7,0.7,1c0.2,0.3,0.4,0.6,0.5,1.1c0.2,0.4,0.4,1,0.6,1.7
		c0.2,0.7,0.5,1.7,0.8,3c0.4,1.6,0.6,2.9,0.9,4c0.2,1,0.4,1.9,0.5,2.6c0.1,0.7,0.1,1.3,0.1,1.8c0,0.5-0.1,1-0.2,1.5
		c-0.4,1.7-1.3,3.1-2.5,4.2c-1.3,1.1-3.1,2-5.5,2.7c-0.5,0.2-1,0.5-1.4,0.7c-0.4,0.2-0.6,0.4-0.7,0.5c0.2,0.8,0.3,1.4,0.4,1.8
		c0.1,0.9,0.3,2.2,0.6,3.9c0.3,1.7,0.5,3.5,0.8,5.3c0.3,1.8,0.5,3.6,0.8,5.3c0.2,1.7,0.4,2.9,0.5,3.7c0,0.5-0.2,1-0.7,1.7
		c-0.4,0.7-0.8,1.1-1.2,1.3c-0.3,0.2-1,0.3-2,0.4c-1,0.1-1.8,0-2.4-0.1c-0.2,0.1-0.5,0-0.7-0.1c-0.2-0.1-0.4-0.3-0.6-0.5
		c-0.4-0.2-0.6-0.4-0.4-0.4c0.1,0,0.9-0.1,2.1-0.2c0.5-0.1,1-0.2,1.2-0.3c0.3-0.1,0.6-0.2,0.9-0.4c0.7-0.4,1.2-0.9,1.3-1.6
		c0.2-0.7,0.1-2-0.2-3.9c0-0.6-0.1-1.3-0.2-2.3c-0.1-1-0.2-1.8-0.2-2.5c-0.1-0.5-0.3-1.5-0.6-3c-0.3-1.5-0.5-2.9-0.9-4.4
		c-0.2-1.2-0.4-2.1-0.5-2.8c-0.1-0.7-0.2-1.2-0.2-1.5c0-0.3,0-0.5,0.1-0.6c0.1-0.1,0.2-0.2,0.4-0.3c2.1-0.8,3.9-1.6,5.3-2.3
		c1.4-0.7,2.1-1.3,2-1.6c0,0,0.2,0,0.4-0.1c0,0,0.1-0.1,0.3-0.4s0.3-0.6,0.5-0.9c0.2-0.4,0.4-0.7,0.6-1.1c0.2-0.4,0.3-0.7,0.5-1
		c0.1-0.5,0.2-0.9,0.2-1.4c0-0.5,0-1.1,0-1.7c-0.1-0.6-0.2-1.4-0.3-2.4c-0.2-0.9-0.4-2.1-0.7-3.4c-0.3-1-0.5-1.9-0.7-2.5
		s-0.4-1.2-0.5-1.7c-0.2-0.5-0.3-0.9-0.4-1.2c-0.1-0.3-0.3-0.7-0.5-1.1C173.6,97.7,173.3,97.1,173,96.4z"/>
	<path class="st0" d="M165.5,112c-0.2,0.1-0.4,0.1-0.6,0.1c-0.1,0-0.3-0.2-0.4-0.5c-0.1-0.3-0.3-0.9-0.4-1.6
		c-0.2-0.7-0.4-1.8-0.7-3.1c-0.4-1.3-0.6-2.3-0.8-3c-0.2-0.7-0.3-1.2-0.3-1.5c0-0.3,0.1-0.5,0.2-0.6c0.1-0.1,0.4-0.1,0.7-0.1
		c0.4,0,0.7,0.1,1,0.1c0.3,0,0.5,0,0.6,0c0.2,0.1,0.5,0.2,0.9,0.5c0.4,0.3,0.5,0.5,0.5,0.6c0,0.1-0.1,0.2-0.3,0.2
		c-0.2,0-0.4,0-0.6,0c-0.7,0-1.1,0-1.1,0c0.4,1.9,0.8,3.4,1,4.6c0.3,1.1,0.5,2,0.7,2.6c0.1,0.6,0.2,1,0.2,1.3c0,0.3,0,0.4-0.1,0.5
		C165.9,112,165.7,112,165.5,112z"/>
	<path class="st0" d="M195.8,91.3c-0.1-0.1-0.2-0.2-0.3-0.3c-0.1-0.1-0.2-0.2-0.3-0.3c0-0.2,0-0.3,0-0.2c0.1,0.1,0.3,0.2,0.7,0.3
		c0.1,0.2,0.4,0.5,0.8,0.8c0.4,0.3,0.7,0.7,1.1,1.1c0.3,0.4,0.6,0.7,0.7,1c0.2,0.3,0.4,0.6,0.5,1.1c0.2,0.4,0.4,1,0.6,1.7
		c0.2,0.7,0.5,1.7,0.8,3c0.4,1.6,0.6,2.9,0.9,4c0.2,1,0.4,1.9,0.5,2.6c0.1,0.7,0.1,1.3,0.1,1.8c0,0.5-0.1,1-0.2,1.5
		c-0.4,1.7-1.3,3.1-2.5,4.2c-1.3,1.1-3.1,2-5.5,2.7c-0.5,0.2-1,0.5-1.4,0.7c-0.4,0.2-0.6,0.4-0.7,0.5c0.2,0.8,0.3,1.4,0.4,1.8
		c0.1,0.9,0.3,2.2,0.6,3.9c0.3,1.7,0.5,3.5,0.8,5.3c0.3,1.8,0.5,3.6,0.8,5.3c0.2,1.7,0.4,2.9,0.5,3.7c0,0.5-0.2,1-0.7,1.7
		c-0.4,0.7-0.8,1.1-1.2,1.3c-0.3,0.2-1,0.3-2,0.4c-1,0.1-1.8,0-2.4-0.1c-0.2,0.1-0.5,0-0.7-0.1c-0.2-0.1-0.4-0.3-0.6-0.5
		c-0.4-0.2-0.6-0.4-0.4-0.4c0.1,0,0.9-0.1,2.1-0.2c0.5-0.1,1-0.2,1.2-0.3c0.3-0.1,0.6-0.2,0.9-0.4c0.7-0.4,1.2-0.9,1.3-1.6
		c0.2-0.7,0.1-2-0.2-3.9c0-0.6-0.1-1.3-0.2-2.3c-0.1-1-0.2-1.8-0.2-2.5c-0.1-0.5-0.3-1.5-0.6-3c-0.3-1.5-0.5-2.9-0.9-4.4
		c-0.2-1.2-0.4-2.1-0.5-2.8c-0.1-0.7-0.2-1.2-0.2-1.5c0-0.3,0-0.5,0.1-0.6c0.1-0.1,0.2-0.2,0.4-0.3c2.1-0.8,3.9-1.6,5.3-2.3
		c1.4-0.7,2.1-1.3,2-1.6c0,0,0.2,0,0.4-0.1c0,0,0.1-0.1,0.3-0.4c0.1-0.3,0.3-0.6,0.5-0.9c0.2-0.4,0.4-0.7,0.6-1.1
		c0.2-0.4,0.3-0.7,0.5-1c0.1-0.5,0.2-0.9,0.2-1.4c0-0.5,0-1.1,0-1.7c-0.1-0.6-0.2-1.4-0.3-2.4c-0.2-0.9-0.4-2.1-0.7-3.4
		c-0.3-1-0.5-1.9-0.7-2.5c-0.2-0.7-0.4-1.2-0.5-1.7c-0.2-0.5-0.3-0.9-0.4-1.2c-0.1-0.3-0.3-0.7-0.5-1.1
		C196.4,92.6,196.1,92,195.8,91.3z"/>
	<path class="st0" d="M188.3,106.9c-0.2,0.1-0.4,0.1-0.6,0.1c-0.1,0-0.3-0.2-0.4-0.5c-0.1-0.3-0.3-0.9-0.4-1.6
		c-0.2-0.7-0.4-1.8-0.7-3.1c-0.4-1.3-0.6-2.3-0.8-3c-0.2-0.7-0.3-1.2-0.3-1.5c0-0.3,0.1-0.5,0.2-0.6c0.1-0.1,0.4-0.1,0.7-0.1
		c0.4,0,0.7,0.1,1,0.1c0.3,0,0.5,0,0.6,0c0.2,0.1,0.5,0.2,0.9,0.5c0.4,0.3,0.5,0.5,0.5,0.6c0,0.1-0.1,0.2-0.3,0.1
		c-0.2,0-0.4,0-0.6,0c-0.7,0-1.1,0-1.1,0c0.4,1.9,0.8,3.4,1,4.6c0.3,1.1,0.5,2,0.7,2.6c0.1,0.6,0.2,1,0.2,1.3c0,0.3,0,0.4-0.1,0.5
		C188.7,107,188.5,107,188.3,106.9z"/>
	<path class="st0" d="M207.8,89.8c-0.5-0.7-1-1.5-1.4-2.3c-0.5-0.8-0.9-1.5-1.2-1.9c-0.2-0.3-0.3-0.4-0.3-0.5c0-0.1,0-0.1,0.2-0.1
		c0.2,0,0.5,0.1,0.9,0.5c0.4,0.4,0.8,0.8,1.1,1.3c0.1,0.2,0.3,0.4,0.4,0.6c0.1,0.2,0.3,0.4,0.4,0.4c0.3,0.5,0.6,1,0.9,1.6
		c0.3,0.6,0.5,1,0.5,1.2c0.1,0.3,0.3,0.6,0.6,0.9c0.2,0.2,0.3,0.3,0.3,0.5c0,0.2,0,0.5,0,0.9c-0.1,0.5-0.2,0.9-0.4,1
		c-0.1,0.1-0.3,0-0.4-0.4c0-0.1-0.1-0.3-0.2-0.6c-0.1-0.3-0.2-0.6-0.4-0.9c-0.2-0.3-0.4-0.6-0.7-1.1
		C208.1,90.5,207.9,90.1,207.8,89.8z"/>
	<path class="st0" d="M220,91.2c0.4-1.5,0.7-2.7,0.9-3.5c0.2-0.8,0.4-1.4,0.4-1.8c0.1-0.4,0.1-0.6,0.1-0.8c0-0.1-0.1-0.3-0.2-0.4
		c-0.1-0.4-0.1-0.6-0.1-0.6c0,0,0.2,0,0.4,0.2c0.3,0.1,0.7,0.4,1.1,0.8c0.4,0.4,0.7,0.7,0.7,1.1c0.1,0.3,0,0.9-0.2,1.8
		c-0.2,0.9-0.6,2.4-1,4.5c-1.1,4.1-1.9,7.2-2.4,9.3c-0.6,2.1-0.9,3.9-0.9,5.5c-0.1,1.5,0.1,3.2,0.4,4.9c0.4,1.7,0.9,4.2,1.7,7.5
		c0.7,3.4,1.3,5.9,1.7,7.7c0.4,1.8,0.6,3.1,0.8,3.9c0.1,0.8,0.1,1.4-0.1,1.6c-0.2,0.2-0.4,0.5-0.7,0.8c-0.3,0.3-0.5,0.5-0.8,0.6
		c-0.3,0.1-0.9,0.3-1.9,0.5c-0.8,0.2-1.4,0.3-1.8,0.3c-0.4,0-0.7,0-0.9-0.2c-0.9-0.2-1.4-0.5-1.5-0.9c0-0.2,0.5-0.4,1.7-0.6
		c1.1-0.1,1.9-0.3,2.4-0.6c0.5-0.3,0.9-0.7,1.2-1.3c0.1-0.2,0.2-0.5,0.3-0.7c0-0.3,0-0.8-0.1-1.6c-0.1-0.8-0.4-2.1-0.7-3.7
		c-0.4-1.7-0.9-4-1.6-7.1c-0.7-3-1.2-5.4-1.5-7.1c-0.4-1.7-0.6-3.1-0.7-4.2c-0.1-1.1-0.1-2.1,0.1-3c0.1-0.9,0.4-2,0.7-3.4
		c0.4-1.5,0.8-3.2,1.3-5.1C219.3,93.9,219.7,92.4,220,91.2z"/>
	<path class="st0" d="M250.6,88.6c0.2-0.4,0.2-0.8,0.2-1.3c-0.1-0.5-0.2-1.3-0.5-2.6c-0.2-0.8-0.3-1.8-0.4-3.1
		c0.1,0,0.4,0.1,0.7,0.4c0.4,0.3,0.8,0.6,1.1,1.1c0.3,0.2,0.6,0.5,0.8,0.8c0.2,0.3,0.4,1.1,0.7,2.2c0.3,1.5,0.4,2.6,0.3,3.3
		c-0.2,0.7-0.6,1.3-1.2,2c-0.3,0.3-0.7,0.6-1.1,0.8c-0.4,0.2-1.4,0.5-3,0.9c-0.9,0.2-1.7,0.4-2.6,0.6c-0.9,0.2-1.4,0.3-1.7,0.4
		c-0.3,0.2-0.5,0.4-0.6,0.7c0,0.2,0,0.8,0.1,1.8c0.1,0.5,0.3,1.5,0.5,3c0.2,1.5,0.4,2.9,0.6,4.3c0.3,1.5,0.6,3.1,0.9,4.8
		c0.3,1.7,0.4,3,0.5,3.9c0.4,3.4,0.7,5.9,0.9,7.7c0.2,1.8,0.4,3,0.6,3.8c0.2,0.9,0.2,1.6,0.1,2.3c-0.2,0.6-0.5,1.3-1,1.9
		c-0.5,0.4-0.9,0.6-1.2,0.7c-0.4,0.1-1.2,0.3-2.4,0.6c-1.3,0.3-2.1,0.4-2.4,0.4c-0.3,0-0.7-0.1-1.3-0.4c-0.4-0.2-0.9-0.4-1.5-0.7
		c0-0.1,0.2-0.2,0.6-0.4c0.4-0.1,1-0.3,1.6-0.4c1.4-0.2,2.5-0.5,3.2-0.9c0.7-0.4,1.2-1,1.5-1.7c0.2-0.6,0.2-1.1,0.2-1.8
		c0-0.6-0.2-2-0.5-4c-0.2-1.3-0.4-2.7-0.6-4.4c-0.2-1.6-0.3-3-0.3-4.1c-0.1-1-0.3-2.5-0.6-4.3c-0.3-1.9-0.6-3.6-0.9-5.1
		c-0.4-2.1-0.6-3.8-0.8-5c-0.2-1.2-0.3-2.1-0.4-2.7c0-0.6,0-1,0-1.2c0.1-0.2,0.2-0.3,0.4-0.5c0.1,0,0.6-0.2,1.4-0.5
		c0.8-0.3,1.8-0.5,2.8-0.8c2-0.6,3.3-1,3.9-1.3C249.9,89.7,250.3,89.2,250.6,88.6z"/>
	<path class="st0" d="M247.5,71.4c0.5-0.5,0.8-1,0.8-1.6c0-0.6-0.2-1.7-0.5-3.2c-0.2-0.9-0.3-1.8-0.4-2.8c0.3-0.1,0.6,0,1,0.3
		c0.4,0.2,0.8,0.5,1.1,0.8c0.2,0.4,0.4,0.8,0.5,1.3c0.1,0.5,0.3,1.2,0.5,2.2c0.3,1.5,0.5,2.6,0.4,3.2c-0.1,0.6-0.5,1.3-1.3,2
		c-0.5,0.4-0.9,0.6-1.2,0.7c-0.3,0.1-1.3,0.2-3,0.3c-1,0.1-2.1,0.2-3.1,0.3c-1,0.1-1.7,0.2-2,0.3c-0.6,0.3-0.9,0.6-1,0.8
		c0,0.3,0.1,1.1,0.4,2.5c0.5,1.5,0.7,2.4,0.6,2.6c0,0.3-0.4,0.5-1.2,0.7c-0.2,0.2-0.4,0.2-0.5,0c-0.1-0.2-0.4-1.2-0.9-2.8
		c-0.2-0.8-0.3-1.5-0.5-2.4c-0.2-0.8-0.3-1.4-0.4-1.6c-0.3-0.5-0.2-0.8,0.1-0.9c0.3-0.1,1.6-0.4,3.7-0.8c1.4-0.2,2.5-0.4,3.3-0.6
		c0.8-0.2,1.5-0.3,2-0.4c0.5-0.1,0.8-0.2,1.1-0.4C247.2,71.7,247.4,71.6,247.5,71.4z"/>
	<path class="st0" d="M282.6,117.8c0.3-0.4,0.4-1,0.5-1.6c0-0.6-0.1-1.4-0.4-2.4c-0.1-0.5-0.2-0.9-0.3-1.3c-0.1-0.4-0.1-0.6,0-0.6
		c0,0.1,0.2,0.3,0.6,0.6c0.4,0.3,0.7,0.5,0.8,0.7c0.1,0.1,0.2,0.3,0.3,0.8c0.1,0.4,0.3,0.9,0.4,1.4c0.3,1.1,0.4,2,0.3,2.5
		c0,0.5-0.2,1-0.6,1.5c-0.2,0.2-0.4,0.3-0.5,0.4c-0.2,0.1-0.4,0.2-0.7,0.3c-0.3,0.1-0.8,0.2-1.4,0.4c-0.6,0.2-1.4,0.4-2.5,0.6
		c-1.2,0.3-2.3,0.5-3.2,0.8c-0.9,0.3-1.4,0.4-1.5,0.4c-0.1,0-0.4,0.1-1.1,0.3c-0.6,0.2-1.3,0.4-2.1,0.6c-1.1,0.3-1.9,0.6-2.3,0.6
		c-0.4,0.1-0.8,0-1.1-0.1c-0.1-0.1-0.3-0.1-0.5-0.1c-0.2,0-0.3-0.1-0.4,0c-0.1,0-0.2,0-0.3,0c-0.1,0-0.2-0.1-0.3-0.3
		c-0.2-0.2-0.4-0.3-0.6-0.3c-0.1,0-0.3-0.1-0.6-0.3c-0.3-0.2-0.4-0.4-0.3-0.4c0.3,0.1,0.6,0.2,0.9,0.2c0.9,0.2,3.2-0.3,7.2-1.4
		c0.6-0.2,1.4-0.5,2.5-0.8c1-0.3,1.9-0.6,2.7-0.7c1.7-0.5,2.9-0.8,3.4-1C282,118.4,282.4,118.1,282.6,117.8z"/>
	<path class="st0" d="M272.6,72.8c-0.2-0.3-0.3-0.7-0.4-1.1c-0.1-0.4-0.2-0.7-0.2-0.7c0-0.2-0.1-0.3,0-0.3c0,0,0.1-0.1,0.2-0.1
		c0.6,0.2,1.1,0.6,1.5,1.3c0.4,0.7,0.7,1.7,1,2.9c0.2,0.8,0.4,1.2,0.4,1.4c0,0.2-0.1,0.5-0.4,0.9c-0.2,0.3-0.3,0.5-0.4,0.6
		c-0.1,0.1-0.4,0.3-0.8,0.4c-0.4,0.2-1,0.3-1.8,0.5c-0.8,0.2-1.9,0.5-3.3,0.8c-1.4,0.3-2.5,0.6-3.2,0.8c-0.8,0.2-1.3,0.4-1.6,0.7
		c-0.3,0.2-0.5,0.5-0.5,0.9s0.1,0.8,0.2,1.4c0.2,1.1,0.2,1.8,0.2,2.1c0,0.2-0.2,0.4-0.6,0.6c-0.4,0.1-0.6,0-0.7-0.2
		c-0.1-0.2-0.4-1.2-0.7-2.8c-0.2-0.8-0.3-1.4-0.3-1.8c-0.1-0.5,0.1-0.8,0.3-1.1c0.3-0.3,0.7-0.5,1.4-0.7s1.6-0.5,2.9-0.8
		c1.3-0.3,2.4-0.5,3.2-0.7c0.8-0.2,1.5-0.4,1.9-0.5c0.5-0.2,0.8-0.3,1-0.5c0.2-0.1,0.4-0.3,0.6-0.6c0.4-0.5,0.6-0.9,0.6-1.4
		C272.9,74.2,272.8,73.6,272.6,72.8z"/>
	<path class="st0" d="M271.1,91.8c0.5-0.6,0.7-1.1,0.7-1.5c0-0.4-0.1-1.2-0.4-2.3c-0.2-1-0.2-1.7-0.2-1.9c0-0.2,0.2-0.2,0.6,0
		c0.4,0.3,0.8,0.7,1.1,1.1c0.3,0.4,0.6,1.1,0.8,2c0.4,1.6,0.3,2.8-0.1,3.4c-0.4,0.7-1.3,1.2-2.7,1.5c-0.4,0.1-0.9,0.2-1.5,0.3
		c-0.6,0.1-1.2,0.3-1.7,0.4c-0.4,0.2-0.7,0.3-0.9,0.5c-0.2,0.2-0.3,0.5-0.3,1.1c0,0.6,0.2,1.5,0.4,2.6c0.2,1.2,0.6,2.8,1.1,4.9
		c0.5,2.2,0.9,3.9,1.2,5.1c0.3,1.2,0.5,2.1,0.6,2.7c0.1,0.6,0.1,0.9,0,1.1c-0.1,0.1-0.2,0.2-0.3,0.3c-0.1,0-0.2,0.1-0.4,0.2
		c-0.1,0.1-0.3,0.2-0.3,0.2c-0.1,0-0.2-0.1-0.3-0.4c-0.1-0.3-0.2-0.8-0.4-1.5c-0.2-0.7-0.4-1.7-0.7-3c-0.3-1.3-0.6-2.9-1.1-4.8
		c-0.5-2.4-0.9-4.2-1.2-5.5c-0.3-1.3-0.5-2.2-0.6-2.9c-0.1-0.6-0.2-1-0.1-1.1c0-0.1,0.1-0.2,0.2-0.3c0.2,0,0.6-0.2,1.2-0.4
		c0.6-0.2,1.3-0.4,2.1-0.6c1.3-0.4,2.1-0.6,2.5-0.7C270.6,92.3,270.9,92.1,271.1,91.8z"/>
	<path class="st0" d="M304.8,112.8c0.3-0.4,0.4-1,0.5-1.6c0-0.6-0.1-1.4-0.4-2.4c-0.1-0.5-0.2-0.9-0.3-1.3c-0.1-0.4-0.1-0.6,0-0.6
		c0,0.1,0.2,0.3,0.6,0.6c0.4,0.3,0.7,0.5,0.8,0.7c0.1,0.1,0.2,0.3,0.3,0.8c0.1,0.4,0.3,0.9,0.4,1.4c0.3,1.1,0.4,2,0.3,2.5
		c0,0.5-0.2,1-0.6,1.5c-0.2,0.2-0.4,0.3-0.5,0.4c-0.2,0.1-0.4,0.2-0.7,0.3c-0.3,0.1-0.8,0.2-1.4,0.4c-0.6,0.2-1.4,0.4-2.5,0.6
		c-1.2,0.3-2.3,0.5-3.2,0.8c-0.9,0.3-1.4,0.4-1.5,0.4c-0.1,0-0.4,0.1-1.1,0.3c-0.6,0.2-1.3,0.4-2.1,0.6c-1.1,0.3-1.9,0.6-2.3,0.6
		c-0.4,0.1-0.8,0-1.1-0.1c-0.1-0.1-0.3-0.1-0.5-0.1c-0.2,0-0.3-0.1-0.4,0c-0.1,0-0.2,0-0.3,0c-0.1,0-0.2-0.1-0.3-0.3
		c-0.2-0.2-0.4-0.3-0.6-0.3c-0.1,0-0.3-0.1-0.6-0.3c-0.3-0.2-0.4-0.4-0.3-0.4c0.3,0.1,0.6,0.2,0.9,0.2c0.9,0.2,3.2-0.3,7.2-1.4
		c0.6-0.2,1.4-0.5,2.5-0.8c1-0.3,1.9-0.6,2.7-0.7c1.7-0.5,2.9-0.8,3.4-1S304.6,113.2,304.8,112.8z"/>
	<path class="st0" d="M294.8,67.9c-0.2-0.3-0.3-0.7-0.4-1.1c-0.1-0.4-0.2-0.7-0.2-0.7c0-0.2-0.1-0.3,0-0.3c0,0,0.1-0.1,0.2-0.1
		c0.6,0.2,1.1,0.6,1.5,1.3c0.4,0.7,0.7,1.7,1,2.9c0.2,0.8,0.4,1.2,0.4,1.4c0,0.2-0.1,0.5-0.4,0.9c-0.2,0.3-0.3,0.5-0.4,0.6
		c-0.1,0.1-0.4,0.3-0.8,0.4c-0.4,0.2-1,0.3-1.8,0.5c-0.8,0.2-1.9,0.5-3.3,0.8c-1.4,0.3-2.5,0.6-3.2,0.8c-0.8,0.2-1.3,0.4-1.6,0.7
		c-0.3,0.2-0.5,0.5-0.5,0.9s0.1,0.8,0.2,1.4c0.2,1.1,0.2,1.8,0.2,2.1c0,0.2-0.2,0.4-0.6,0.6c-0.4,0.1-0.6,0-0.7-0.2
		c-0.1-0.2-0.4-1.2-0.7-2.8c-0.2-0.8-0.3-1.4-0.3-1.8c-0.1-0.5,0.1-0.8,0.3-1.1c0.3-0.3,0.7-0.5,1.4-0.7c0.7-0.2,1.6-0.5,2.9-0.8
		c1.3-0.3,2.4-0.5,3.2-0.7c0.8-0.2,1.5-0.4,1.9-0.5c0.5-0.2,0.8-0.3,1-0.5s0.4-0.3,0.6-0.6c0.4-0.5,0.6-0.9,0.6-1.4
		C295.1,69.2,295,68.6,294.8,67.9z"/>
	<path class="st0" d="M293.3,86.9c0.5-0.6,0.7-1.1,0.7-1.5c0-0.4-0.1-1.2-0.4-2.3c-0.2-1-0.2-1.7-0.2-1.9c0-0.2,0.2-0.2,0.6,0
		c0.4,0.3,0.8,0.7,1.1,1.1c0.3,0.4,0.6,1.1,0.8,2c0.4,1.6,0.3,2.8-0.1,3.4c-0.4,0.7-1.3,1.2-2.7,1.5c-0.4,0.1-0.9,0.2-1.5,0.3
		c-0.6,0.1-1.2,0.3-1.7,0.4c-0.4,0.2-0.7,0.3-0.9,0.5c-0.2,0.2-0.3,0.5-0.3,1.1c0,0.6,0.2,1.5,0.4,2.6c0.2,1.2,0.6,2.8,1.1,4.9
		c0.5,2.2,0.9,3.9,1.2,5.1c0.3,1.2,0.5,2.1,0.6,2.7c0.1,0.6,0.1,0.9,0,1.1c-0.1,0.1-0.2,0.2-0.3,0.3c-0.1,0-0.2,0.1-0.4,0.2
		c-0.1,0.1-0.3,0.2-0.3,0.2c-0.1,0-0.2-0.1-0.3-0.4c-0.1-0.3-0.2-0.8-0.4-1.5c-0.2-0.7-0.4-1.7-0.7-3c-0.3-1.3-0.6-2.9-1.1-4.8
		c-0.5-2.4-0.9-4.2-1.2-5.5c-0.3-1.3-0.5-2.2-0.6-2.9c-0.1-0.6-0.2-1-0.1-1.1c0-0.1,0.1-0.2,0.2-0.3c0.2,0,0.6-0.2,1.2-0.4
		c0.6-0.2,1.3-0.4,2.1-0.6c1.3-0.4,2.1-0.6,2.5-0.7C292.9,87.3,293.1,87.1,293.3,86.9z"/>
	<path class="st0" d="M300,72.3c0.2,0,0.6-0.1,1.3-0.3c0.6-0.2,1.3-0.4,2-0.6c0.6-0.2,1.2-0.4,1.7-0.6c0.5-0.1,0.9-0.2,1-0.3
		c0.2,0.3,0.3,0.6,0.4,0.8c0.1,0.5,0.1,0.9-0.1,1c-0.2,0.2-0.8,0.4-1.9,0.8c-0.6,0.1-1.2,0.3-1.8,0.4c-0.5,0.1-0.9,0.2-1,0.2
		c-0.3,0-0.7-0.1-1.1-0.3c-0.4-0.2-0.8-0.4-1-0.7c0-0.1,0-0.2,0-0.2C299.5,72.4,299.7,72.4,300,72.3z"/>
	<path class="st0" d="M321.7,65.3c0.2-0.5,0.3-0.9,0.3-1.1c0-0.3-0.1-1-0.4-2.1c-0.1-0.6-0.3-1.4-0.5-2.3c0.2,0,0.5,0,0.8,0.2
		c0.3,0.2,0.6,0.3,0.9,0.5c0.1,0.2,0.3,0.5,0.4,0.9c0.1,0.4,0.3,1.1,0.5,2c0.4,1.2,0.5,2.1,0.5,2.6c-0.1,0.5-0.3,1-0.9,1.4
		c-0.3,0.3-0.6,0.5-1,0.6c-0.4,0.1-1.3,0.3-2.7,0.6c-1.5,0.3-2.3,0.6-2.5,0.8s-0.3,0.7-0.3,1.4c0,0.2,0.2,0.8,0.4,1.9
		c0.2,1.1,0.5,2.6,0.9,4.4c0.4,1.8,0.8,3.8,1.3,6.1c0.5,2.3,1,4.7,1.6,7.2c1,4.6,1.7,8.2,2.2,10.7c0.5,2.5,0.9,4.4,1.1,5.6
		c0.2,1.2,0.4,2,0.4,2.3s0,0.6,0,0.8c-0.1,0.2-0.2,0.5-0.4,0.7c-0.2,0.2-0.4,0.4-0.6,0.6c-0.1,0.2-0.4,0.3-0.8,0.5
		c-0.4,0.2-0.8,0.3-1.3,0.5c-0.5,0.1-0.9,0.3-1.3,0.4c-0.4,0.1-0.7,0.1-1,0.1c-0.2,0-0.6-0.1-1.2-0.4c-0.6-0.3-0.9-0.5-1-0.6
		c0-0.1,0.2-0.2,0.6-0.4c0.4-0.2,1-0.4,1.6-0.5c1.3-0.4,2.2-0.7,2.6-1c0.4-0.3,0.8-0.8,0.9-1.5c0-0.2,0-0.5-0.1-0.9
		c-0.1-0.4-0.2-1.2-0.5-2.4c-0.3-1.2-0.6-3-1.1-5.4s-1.2-5.7-2-9.9c-0.5-2.4-1.1-4.7-1.5-7c-0.5-2.2-0.9-4.2-1.3-6s-0.7-3.2-0.9-4.4
		c-0.2-1.2-0.4-1.9-0.4-2.2c-0.1-1.1-0.1-1.7,0.1-1.9c0.2-0.2,0.9-0.5,2.2-0.8c1.5-0.3,2.6-0.7,3.2-0.9
		C321,66.2,321.4,65.8,321.7,65.3z"/>
	<path class="st0" d="M66.8,210.8c0.1-1.2,0.2-2.5,0.3-3.8c0.1-1.4,0.2-2.6,0.4-3.7c0.1-0.6,0.2-0.9,0.4-1.1
		c0.2-0.1,0.9-0.3,2.1-0.4c1.2-0.1,1.9-0.1,2.1,0c0.2,0.1,0.4,0.3,0.6,0.5c0.2,0.6,0.2,0.9,0.1,1c-0.1,0.1-0.6,0.2-1.4,0.3
		c-0.5,0-0.9,0.1-1.1,0.2c-0.2,0.1-0.4,0.2-0.6,0.5c-0.1,0.3-0.2,0.7-0.3,1.4c0,0.6-0.1,1.6-0.2,2.8c-0.1,0.5-0.2,1.1-0.2,1.8
		c-0.1,0.7-0.1,1.2-0.2,1.6c0,0.4,0,0.9,0,1.5c0,0.6-0.1,1.2-0.2,1.7c0,1.6-0.1,2.9-0.2,3.9c-0.1,1-0.2,1.8-0.4,2.4
		c-0.2,0.6-0.4,1.1-0.7,1.4c-0.3,0.3-0.6,0.6-1.1,0.8c-0.7,0.3-1.6,0.6-2.7,0.8c-1.1,0.2-1.8,0.3-2.2,0.2c-0.1-0.1-0.4-0.2-0.7-0.4
		c-0.3-0.2-0.6-0.4-0.9-0.6c-0.4-0.3-0.6-0.5-0.4-0.6c0.1-0.1,0.8-0.3,2-0.5c1.3-0.1,2.3-0.3,2.9-0.6c0.6-0.3,1.1-0.8,1.5-1.6
		c0.3-0.4,0.5-0.7,0.5-1c0-0.3,0-0.5,0-0.7c0-0.2,0-0.7,0-1.3c0-0.6,0.1-1.2,0.2-1.9c0.1-0.6,0.1-1.3,0.1-2.2
		C66.7,212.2,66.7,211.5,66.8,210.8z"/>
	<path class="st0" d="M68.7,191.1c0-0.1,0-0.3,0.1-0.6c0-0.3,0.1-0.7,0-1.1c0.1-0.6,0.1-0.9,0.1-0.9c0,0,0.1,0.1,0.3,0.4
		c0.1,0.5,0.1,1.1,0.2,1.6c0.1,0.9,0.1,1.3-0.1,1C69,191.5,68.8,191.3,68.7,191.1z"/>
	<path class="st0" d="M73.4,169.6c-0.2-0.3-0.3-0.7-0.4-1.1c-0.1-0.4-0.2-0.7-0.2-1c-0.1-0.8-0.1-1.2-0.1-1.2
		c0.3,0.3,0.5,0.5,0.8,0.6c0.3,0.2,0.6,0.7,0.9,1.4c0.3,0.7,0.7,1.7,1.2,3c1.2,3.8,2.3,7.3,3.3,10.5c1,3.2,1.6,5.5,1.9,6.9
		c0.1,0.6,0.3,1.4,0.5,2.3c0.2,0.9,0.5,1.9,0.7,2.9c0.3,1,0.6,2,0.9,3c0.3,1,0.6,1.9,0.9,2.6c0.1,0.4,0.3,0.8,0.5,1.3
		c0.2,0.5,0.3,0.9,0.5,1.3c0.1,0.4,0.3,0.9,0.5,1.5c0.2,0.6,0.4,1.1,0.5,1.6c0.2,0.5,0.3,1,0.5,1.7c0.2,0.6,0.3,1.2,0.5,1.6
		c0.2,0.6,0.4,1.4,0.7,2.6c0.3,1.2,0.6,2.4,0.8,3.6c0.3,1.2,0.5,2.3,0.7,3.3c0.2,1,0.3,1.6,0.2,1.8c-0.2,0.9-0.6,1.6-1.2,2.2
		c-0.6,0.6-1.7,1.2-3.2,1.9c-0.7,0.3-1.3,0.5-1.7,0.5c-0.4,0-0.9-0.2-1.4-0.7c-0.5-0.3-0.8-0.6-0.9-0.9c-0.1-0.3,0.1-0.4,0.5-0.3
		c0.1,0,0.4-0.1,0.9-0.4c0.5-0.2,1-0.4,1.4-0.6c2.3-1,3.4-2.2,3.5-3.7c0-0.2-0.1-0.9-0.4-2.1c-0.2-1.2-0.5-2.4-0.7-3.8
		c-0.3-1.4-0.5-2.7-0.8-3.9c-0.2-1.2-0.4-2-0.5-2.4c-0.1-0.1-0.3-0.4-0.5-0.9c-0.2-0.5-0.3-1-0.5-1.5c-0.2-0.6-0.4-1.1-0.5-1.7
		s-0.3-1-0.5-1.4c-0.3-0.7-0.7-1.8-1.2-3.2c-0.5-1.5-0.9-2.7-1.2-3.8c-0.2-0.5-0.4-1.1-0.6-2.1c-0.2-0.9-0.4-1.8-0.6-2.7
		c-0.6-2.5-1.2-4.8-1.8-7.1c-0.6-2.2-1.1-4.2-1.6-5.9c-0.2-0.3-0.4-0.9-0.5-1.5c-0.2-0.7-0.4-1.3-0.5-1.7c-0.2-0.5-0.4-1-0.5-1.6
		C73.7,170.2,73.5,169.8,73.4,169.6z"/>
	<path class="st0" d="M111.4,171.1c0-0.1-0.1-0.3-0.2-0.5c-0.1-0.3-0.3-0.4-0.5-0.5c-0.4-0.6-0.4-0.8-0.1-0.5
		c0.3,0.3,0.8,0.8,1.5,1.5c1.7,2.1,3.1,4.5,4,7.3c0.9,2.8,1.6,6.5,2,11c0.3,3.3,0.4,6.2,0.3,8.5c-0.1,2.3-0.5,4.5-1.1,6.5
		c-0.1,0.3-0.3,0.8-0.6,1.4c-0.3,0.6-0.6,1.2-0.9,1.8c-0.3,0.6-0.6,1.2-0.8,1.7c-0.3,0.5-0.5,0.9-0.6,1.2c-0.1,0.1-0.2,0.3-0.4,0.6
		c-0.2,0.3-0.4,0.6-0.6,0.8c-1.3,2-2.9,3.7-4.8,5.2c-1.9,1.4-4.3,2.7-7.2,3.9c-1.5,0.6-2.6,1.1-3.5,1.4c-0.9,0.3-1.7,0.5-2.4,0.5
		c-0.7,0-1.3-0.1-1.8-0.4c-0.5-0.3-1.2-0.7-1.9-1.2c-0.5-0.3-0.8-0.5-0.8-0.6c-0.1-0.1,0.1-0.1,0.3-0.1c0.6,0.4,1.1,0.6,1.7,0.7
		c0.5,0.1,1.1-0.1,1.7-0.4c0.5-0.1,1.1-0.2,1.9-0.5c0.8-0.3,1.5-0.6,2.3-0.9c0.8-0.3,1.5-0.6,2.2-0.9c0.7-0.3,1.2-0.5,1.5-0.7
		c1.8-1,3.3-1.9,4.4-2.8c1.1-0.9,2.2-2,3.2-3.3c1-1.2,1.9-2.6,2.7-4.2c0.8-1.6,1.7-3.5,2.6-5.7c0.1-0.2,0.2-0.8,0.4-1.6
		c0.2-0.9,0.4-1.8,0.5-2.7c0.1-0.8,0.1-1.8,0.1-3.2c0-1.4-0.1-2.8-0.2-4.4c-0.1-1.6-0.2-3.2-0.4-4.8c-0.2-1.6-0.4-3.1-0.7-4.4
		c-0.2-1.4-0.5-2.5-0.7-3.2c-0.2-0.7-0.6-1.6-1-2.7c-0.3-0.4-0.6-0.9-0.8-1.3C112.5,173.1,112.1,172.2,111.4,171.1z"/>
	<path class="st0" d="M95.8,210.1c-0.3-2-0.5-3.8-0.7-5.6c-0.2-1.7-0.4-3.7-0.7-6c-0.2-2.3-0.5-4.8-0.8-7.4c-0.6-4.8-1-8.5-1.2-11.1
		c-0.3-2.6-0.4-4.5-0.5-5.7c-0.1-1.2,0-1.9,0.1-2.2c0.1-0.2,0.3-0.3,0.6-0.4c0.2,0,0.5,0,0.9,0.1c0.4,0.1,0.8,0.1,1.1,0.2
		c0.3,0.1,0.7,0.1,0.9,0.1c0.3,0,0.5,0,0.6,0c0.2,0.1,0.6,0.2,1.1,0.3c0.5,0.2,1.1,0.4,1.7,0.6c0.6,0.2,1.2,0.5,1.7,0.7
		c0.5,0.2,1,0.5,1.3,0.7c0.2,0.2,0.5,0.5,0.7,0.8c-0.6-0.1-1-0.3-1.4-0.5c-0.5-0.2-1.1-0.3-1.8-0.5c-0.1,0-0.3,0-0.6-0.1
		c-0.3-0.1-0.6-0.1-1-0.2c-0.3,0-0.8-0.1-1.4-0.2c-0.6-0.1-1-0.2-1.4-0.2c-0.4,0-0.7,0.2-0.9,0.4c-0.2,0.2-0.3,0.9-0.3,2.1
		c0,1.2,0.2,3,0.4,5.4c0.2,2.4,0.6,5.9,1,10.4c0.5,4.5,0.8,8,1.1,10.4c0.3,2.4,0.4,4.2,0.5,5.4c0.1,1.2,0.1,1.8,0,2.1
		c-0.1,0.2-0.2,0.3-0.5,0.4C96.5,210,96.2,210,95.8,210.1z"/>
	<path class="st0" d="M124.4,163.6c0-0.1-0.1-0.3-0.2-0.6s-0.2-0.6-0.2-0.8c-0.3-0.9-0.1-1,0.7-0.3c0.2,0.2,0.4,0.6,0.7,1.1
		c0.3,0.5,0.5,1,0.8,1.6c0.2,0.6,0.5,1.1,0.7,1.6c0.2,0.5,0.3,0.9,0.3,1.1c0.1,0.3,0.3,0.7,0.6,1.2c0.1,0.2,0.3,0.6,0.4,1
		c0.2,0.4,0.3,0.8,0.5,1.1c0.2,0.5,0.3,1,0.5,1.5c0.2,0.5,0.4,1,0.5,1.3c0.6,1.5,1.1,2.6,1.3,3.2c0.2,0.6,0.4,1.2,0.6,1.8
		c0.3,0.7,0.7,1.6,1,2.6c0.1,0.4,0.3,0.8,0.5,1.3c0.2,0.5,0.4,1,0.5,1.5c0.2,0.6,0.3,1.2,0.5,1.7c0.2,0.5,0.3,0.9,0.5,1.1
		c0.2,0.5,0.3,0.9,0.3,1.2c0,0.3,0,0.8,0,1.4c0,0.9-0.1,1.4-0.2,1.5c-0.1,0.1-0.3-0.3-0.5-1.2c0-0.2-0.1-0.6-0.3-0.9
		c-0.1-0.4-0.3-0.7-0.4-0.9c-0.2-0.3-0.4-0.8-0.6-1.5c-0.2-0.6-0.5-1.3-0.7-2c-0.2-0.7-0.5-1.4-0.7-2.1c-0.2-0.7-0.4-1.2-0.4-1.5
		c-0.2-0.2-0.3-0.6-0.5-1.3c-0.2-0.6-0.4-1.1-0.5-1.6c-0.3-0.5-0.6-1.1-0.9-1.9c-0.3-0.8-0.6-1.5-0.7-2.1c-0.7-1.6-1.1-2.8-1.3-3.4
		c-0.2-0.6-0.4-1.3-0.8-2c-0.3-0.3-0.5-0.7-0.7-1.3c-0.2-0.5-0.4-0.9-0.5-1.3c-0.2-0.3-0.3-0.7-0.5-1.2
		C124.7,164.2,124.5,163.8,124.4,163.6z"/>
	<path class="st0" d="M146.6,164.8c0.2-0.6,0.3-1.2,0.3-1.6c0-0.5,0-0.8,0-1.1c0-0.4,0.2-0.5,0.7-0.3c0.1,0,0.3,0.1,0.5,0.3
		c0.2,0.2,0.4,0.4,0.6,0.6c0.3,0.4,0.5,0.8,0.5,1.4c0.1,0.6,0,1.4-0.1,2.5c-0.1,0.3-0.2,0.7-0.3,1.2c-0.1,0.6-0.1,1.1-0.2,1.8
		c-0.2,1-0.3,2-0.4,2.9c-0.1,0.9-0.2,2.3-0.4,4c-0.3,1.9-0.5,3.3-0.6,4.3c-0.1,1-0.2,2.1-0.3,3.2c-0.1,0.5-0.2,1.1-0.2,1.7
		c-0.1,0.7-0.1,1.2-0.2,1.7c-0.1,0.4-0.2,0.9-0.2,1.5c-0.1,0.6-0.1,1.2-0.2,1.7c-0.1,0.5-0.2,1.1-0.2,1.8c-0.1,0.7-0.1,1.3-0.2,1.6
		c-0.1,0.8-0.1,1.6-0.2,2.5c-0.1,0.9-0.3,2.4-0.6,4.5c-0.2,1.6-0.4,3-0.6,4.1c-0.2,1.1-0.3,2.2-0.5,3.2c-0.1,0.5-0.2,1.1-0.2,1.9
		c-0.1,0.7-0.1,1.4-0.2,1.9c-0.1,1-0.3,1.8-0.4,2.5c-0.1,0.6-0.2,1.1-0.3,1.6c-0.1,0.4-0.2,0.7-0.4,1c-0.1,0.2-0.3,0.5-0.6,0.8
		c-0.3,0.4-0.7,0.7-0.9,0.8c-0.3,0.1-0.9,0.2-1.9,0.3c-1.2,0.1-2.2,0.1-2.9,0c-0.7-0.1-1.3-0.4-1.9-0.8c-0.3-0.2-0.5-0.4-0.7-0.6
		c-0.2-0.2-0.2-0.3-0.1-0.3c0.8,0,1.4,0,2,0.1c1.2,0,2.2-0.1,2.8-0.3c0.7-0.2,1.2-0.7,1.7-1.4c0.3-0.4,0.6-1,0.8-1.8
		c0.2-0.8,0.3-1.5,0.3-2c0-0.1,0-0.3,0.1-0.7c0.1-0.3,0.1-0.7,0.2-1.1c0-0.7,0.1-1.6,0.3-2.6c0.1-1,0.3-2.4,0.5-4.3
		c0.1-0.5,0.1-1.1,0.2-1.7s0.1-1.1,0.2-1.5c0.1-0.4,0.1-0.7,0.1-1c0-0.3,0-0.6,0-0.7c0-0.1,0-0.4,0.1-0.8c0.1-0.4,0.1-0.9,0.2-1.4
		c0.1-0.5,0.1-1,0.2-1.4c0.1-0.4,0.1-1,0.2-1.8c0.1-0.7,0.2-1.7,0.4-2.9c0.1-1.2,0.3-2.7,0.6-4.7c0.1-0.5,0.1-1.1,0.2-1.7
		c0.1-0.6,0.1-1.1,0.2-1.5c0.1-0.4,0.1-0.9,0.2-1.6c0.1-0.7,0.1-1.3,0.2-1.8c0.1-0.5,0.1-1.1,0.2-1.7c0.1-0.6,0.1-1.1,0.2-1.5
		c0.1-0.5,0.1-1.1,0.2-1.7c0.1-0.7,0.1-1.2,0.2-1.7c0.1-1.3,0.2-2.6,0.4-3.7C146.4,167.1,146.5,166,146.6,164.8z"/>
	<path class="st0" d="M157.9,201.8c0.1-1.2,0.2-2.5,0.3-3.8c0.1-1.4,0.2-2.6,0.4-3.7c0.1-0.6,0.2-0.9,0.4-1.1
		c0.2-0.1,0.9-0.3,2.1-0.4c1.2-0.1,1.9-0.1,2.1,0c0.2,0.1,0.4,0.3,0.6,0.5c0.2,0.6,0.2,0.9,0.1,1c-0.1,0.1-0.6,0.2-1.4,0.3
		c-0.5,0-0.9,0.1-1.1,0.2c-0.2,0.1-0.4,0.2-0.6,0.5c-0.1,0.3-0.2,0.7-0.3,1.4c0,0.6-0.1,1.6-0.2,2.8c-0.1,0.5-0.2,1.1-0.2,1.8
		c-0.1,0.7-0.1,1.2-0.2,1.6c0,0.4,0,0.9,0,1.5c0,0.6-0.1,1.2-0.2,1.7c0,1.6-0.1,2.9-0.2,3.9c-0.1,1-0.2,1.8-0.4,2.4
		c-0.2,0.6-0.4,1.1-0.7,1.4c-0.3,0.3-0.6,0.6-1.1,0.8c-0.7,0.3-1.6,0.6-2.7,0.8s-1.8,0.3-2.2,0.2c-0.1-0.1-0.4-0.2-0.7-0.4
		c-0.3-0.2-0.6-0.4-0.9-0.6c-0.4-0.3-0.6-0.5-0.4-0.6c0.1-0.1,0.8-0.3,2-0.5c1.3-0.1,2.3-0.3,2.9-0.6c0.6-0.3,1.1-0.8,1.5-1.6
		c0.3-0.4,0.5-0.7,0.5-1c0-0.3,0-0.5,0-0.7c0-0.2,0-0.7,0-1.3c0-0.6,0.1-1.2,0.2-1.9c0.1-0.6,0.1-1.3,0.1-2.2
		C157.8,203.2,157.8,202.4,157.9,201.8z"/>
	<path class="st0" d="M159.8,182.1c0-0.1,0-0.3,0.1-0.6c0.1-0.3,0.1-0.7,0-1.1c0.1-0.6,0.1-0.9,0.1-0.9c0,0,0.1,0.1,0.3,0.4
		c0.1,0.5,0.1,1.1,0.2,1.6c0.1,0.9,0.1,1.3-0.1,1C160.1,182.5,159.9,182.3,159.8,182.1z"/>
	<path class="st0" d="M164.4,160.6c-0.2-0.3-0.3-0.7-0.4-1.1c-0.1-0.4-0.2-0.7-0.2-1c-0.1-0.8-0.1-1.2-0.1-1.2
		c0.3,0.3,0.5,0.5,0.8,0.6c0.3,0.2,0.6,0.7,0.9,1.4c0.3,0.7,0.7,1.7,1.2,3c1.2,3.8,2.3,7.3,3.3,10.5c1,3.2,1.6,5.5,1.9,6.9
		c0.1,0.6,0.3,1.4,0.5,2.3c0.2,0.9,0.5,1.9,0.7,2.9c0.3,1,0.6,2,0.9,3c0.3,1,0.6,1.9,0.9,2.6c0.1,0.4,0.3,0.8,0.5,1.3
		c0.2,0.5,0.3,0.9,0.5,1.3c0.1,0.4,0.3,0.9,0.5,1.5c0.2,0.6,0.4,1.1,0.5,1.6c0.2,0.5,0.3,1,0.5,1.7c0.2,0.6,0.3,1.2,0.5,1.6
		c0.2,0.6,0.4,1.4,0.7,2.6c0.3,1.2,0.6,2.4,0.8,3.6c0.3,1.2,0.5,2.3,0.7,3.3c0.2,1,0.3,1.6,0.2,1.8c-0.2,0.9-0.6,1.6-1.2,2.2
		c-0.6,0.6-1.7,1.2-3.2,1.9c-0.7,0.3-1.3,0.5-1.7,0.5c-0.4,0-0.9-0.2-1.4-0.7c-0.5-0.3-0.8-0.6-0.9-0.9c-0.1-0.3,0.1-0.4,0.5-0.3
		c0.1,0,0.4-0.1,0.9-0.4c0.5-0.2,1-0.4,1.4-0.6c2.3-1,3.4-2.2,3.5-3.7c0-0.2-0.1-0.9-0.4-2.1c-0.2-1.2-0.5-2.4-0.7-3.8
		c-0.3-1.4-0.5-2.7-0.8-3.9c-0.2-1.2-0.4-2-0.5-2.4c-0.1-0.1-0.3-0.4-0.5-0.9c-0.2-0.5-0.3-1-0.5-1.5c-0.2-0.6-0.4-1.1-0.5-1.7
		c-0.2-0.5-0.3-1-0.5-1.4c-0.3-0.7-0.7-1.8-1.2-3.2c-0.5-1.5-0.9-2.7-1.2-3.8c-0.2-0.5-0.4-1.1-0.6-2.1c-0.2-0.9-0.4-1.8-0.6-2.7
		c-0.6-2.5-1.2-4.8-1.8-7.1c-0.6-2.2-1.1-4.2-1.6-5.9c-0.2-0.3-0.4-0.9-0.5-1.5c-0.2-0.7-0.4-1.3-0.5-1.7c-0.2-0.5-0.4-1-0.5-1.6
		C164.7,161.2,164.6,160.8,164.4,160.6z"/>
	<path class="st0" d="M187.8,202.1c-0.2-1.5-0.5-3.2-0.7-4.9c-0.2-1.7-0.5-3.4-0.7-5.1c-0.2-1.7-0.5-3.3-0.7-4.8
		c-0.2-1.5-0.4-2.8-0.6-4c-0.1-1.2-0.3-2.8-0.5-4.7c0.5,0.5,0.8,0.9,1.1,1.1c0.2,0.3,0.4,0.6,0.5,0.8c0.1,0.2,0.2,0.6,0.4,1.1
		c0.1,0.5,0.2,1.2,0.4,2c0.1,0.9,0.3,2.1,0.6,3.7c0.1,1,0.3,2,0.5,3.2c0.2,1.2,0.3,2.4,0.5,3.6c0.2,1.2,0.3,2.4,0.5,3.6
		c0.2,1.2,0.3,2.2,0.4,3.1c0.2,1.7,0.4,3.1,0.5,4c0.1,1,0.2,1.7,0.2,2.2c0,0.5,0,0.9-0.1,1.1c-0.1,0.2-0.3,0.5-0.5,0.7
		c-0.4,0.5-0.9,0.9-1.4,1.2c-0.5,0.2-1.3,0.4-2.4,0.5c-1.1,0.1-2.1,0-2.8-0.3c-0.7-0.3-1.2-0.7-1.7-1.3c0-0.1,0.2-0.2,0.6-0.3
		c0.4-0.1,1.1-0.2,2.1-0.2c1.2-0.1,2-0.3,2.3-0.4c0.3-0.2,0.6-0.4,0.8-0.6c0.6-0.6,0.9-1.2,1-1.9C188.1,204.9,188,203.7,187.8,202.1
		z"/>
	<path class="st0" d="M185.6,162.2c-0.3-0.5-0.5-1-0.8-1.6c-0.2-0.6-0.4-1-0.5-1.3c-0.3-0.5-0.4-0.7-0.3-0.8c0.1-0.1,0.5,0.2,1,0.7
		c0.4,0.3,0.8,1,1.3,1.9c0.5,0.9,1,2,1.5,3c0.2,0.6,0.4,1.3,0.7,2.1c0.3,0.8,0.6,1.2,0.9,1.3c0.1,0.1,0.3,0.3,0.4,0.6
		c0.2,0.3,0.3,0.5,0.5,0.8c0.6,0.7,0.9,1.2,0.9,1.4c0.2,0,0.6,0.4,1.1,1.1c0.6,0.7,0.9,1.1,0.9,1.2c0.3,0.2,0.5,0.5,0.8,0.9
		c0.3,0.4,0.6,0.8,0.8,1c0.1,0.3,0.6,0.9,1.4,1.8c0.3,0.4,0.6,0.8,1,1.3c0.4,0.5,0.7,0.8,1,1.1c0.6,0.8,1.1,1.6,1.6,2.4
		c0.5,0.8,0.7,1.3,0.6,1.7c0,0.4,0,0.5,0,0.4c-0.1-0.1-0.2-0.4-0.5-0.9c-0.2-0.3-0.3-0.7-0.5-1c-0.2-0.3-0.3-0.6-0.4-0.7
		c-0.1,0-0.3-0.2-0.6-0.5c-0.3-0.4-0.5-0.7-0.8-1.1c-0.4-0.5-0.7-0.9-0.9-1.2c-0.2-0.3-0.4-0.5-0.6-0.8c-0.2-0.2-0.4-0.5-0.7-0.8
		c-0.3-0.3-0.6-0.8-1-1.4c-0.4-0.6-0.8-1.1-1.2-1.5c-0.4-0.4-0.6-0.6-0.7-0.6c0-0.1,0-0.2,0-0.2c0,0,0-0.1,0-0.3
		c-0.5-0.6-0.9-1-1.2-1.4c-0.3-0.2-0.6-0.6-1.1-1.2c-0.7-1-1.2-1.7-1.4-2.1c-0.6-0.6-1.1-1.3-1.7-2.3
		C186.4,164.3,185.9,163.3,185.6,162.2z"/>
	<path class="st0" d="M211.5,191c-0.3-2-0.6-4.1-0.8-6.5c-0.3-2.3-0.6-4.7-0.9-7.1c-0.3-2.4-0.5-4.6-0.8-6.8
		c-0.2-2.2-0.4-4.1-0.6-5.7c-0.5-3.8-0.9-7.7-1.2-11.7c0.2,0,0.5,0.1,0.9,0.5c0.3,0.4,0.6,0.7,0.8,1.1c0.1,0.2,0.3,1.7,0.6,4.4
		c0.4,2.8,0.8,6.3,1.3,10.5c0.5,4.2,1.1,8.9,1.7,14.1c0.6,5.1,1.2,10.2,1.8,15.1c0.2,2.4,0.4,4.2,0.5,5.5c0.1,1.3,0.2,2.3,0.2,2.9
		c0,0.7-0.1,1.1-0.2,1.3c-0.1,0.2-0.3,0.4-0.5,0.6c-0.2,0.4-0.6,0.8-1.1,1.1c-0.1,0-0.4,0.1-0.7,0.3c-0.3,0.2-0.7,0.4-1,0.7
		c-1,0.3-1.8,0.5-2.5,0.6c-0.7,0-1.4-0.2-2-0.6c-0.7-0.4-1-0.7-1.1-0.9c0-0.2,0.2-0.3,0.7-0.3c0.4,0,0.9,0,1.5-0.2
		c0.6-0.2,1.1-0.4,1.7-0.6c0.6-0.3,1.1-0.6,1.5-0.9c0.5-0.3,0.8-0.6,1.1-0.9c0.3-0.4,0.5-0.7,0.6-1.1c0.1-0.3,0.2-1,0.1-2
		c0-1-0.2-2.5-0.5-4.6C212.4,197.7,212,194.8,211.5,191z"/>
	<path class="st0" d="M234.9,156.4c0.4-0.4,0.8-0.8,1-1.4c0.3-0.5,0.5-1.7,0.7-3.4c0.1-0.3,0.2-0.7,0.3-1c0.1-0.3,0.2-0.5,0.3-0.5
		c0.1,0,0.2,0.1,0.4,0.3c0.1,0.2,0.3,0.3,0.4,0.4c0.4,0.5,0.6,0.9,0.7,1.4c0.1,0.5,0.1,1,0.1,1.6c-0.1,0.3-0.2,0.6-0.3,0.9
		c-0.1,0.3-0.2,0.6-0.3,0.9c-0.1,1.2-0.5,2.1-1.2,2.5c-0.7,0.4-1.8,0.8-3.5,1.1c-1.3,0.1-2.5,0.3-3.5,0.6c-1,0.3-1.7,0.6-2.1,0.9
		c-0.3,0.3-0.8,0.9-1.5,1.8c-0.7,0.9-1.1,1.6-1.3,2.1c-0.2,0.4-0.4,1-0.6,1.8c-0.2,0.8-0.4,1.6-0.6,2.5c-0.4,1.4-0.6,2.9-0.7,4.7
		c-0.1,1.8-0.1,3.6,0,5.4c0.1,1.8,0.3,3.6,0.6,5.2c0.3,1.7,0.8,3.1,1.3,4.2c0.5,1.4,1,2.5,1.4,3.3c0.4,0.9,0.7,1.6,1.1,2.2
		c0.3,0.6,0.6,1.1,0.9,1.5c0.3,0.4,0.6,0.8,1,1.2c0.6,0.9,0.5,0.9-0.2,0.3c-1.2-1-2.3-2.4-3.5-4.3c-1.2-1.9-2.1-3.9-2.8-6.2
		c-0.8-2.2-1.4-4.2-1.6-6.1c-0.3-1.9-0.4-4-0.4-6.4c0.1-4,0.7-7.3,1.7-10c1.1-2.7,2.5-4.5,4.2-5.5c0.6-0.3,1.1-0.5,1.6-0.6
		c0.5-0.1,1.3-0.2,2.4-0.3c0.7-0.1,1.3-0.1,1.7-0.2c0.4-0.1,0.7-0.1,1-0.2c0.2-0.1,0.4-0.2,0.6-0.3
		C234.4,156.7,234.6,156.6,234.9,156.4z"/>
	<path class="st0" d="M245,202c0.4-0.5,0.6-1.3,0.5-2.2c-0.3-0.5-0.1-0.5,0.7-0.1c0.4,0.2,0.7,0.5,1,0.9c0.3,0.4,0.5,0.9,0.4,1.3
		c0,0.4-0.1,0.8-0.4,1.3c-0.3,0.5-0.7,0.9-1.3,1.2c-0.9,0.6-2,1.3-3.4,2c-1.4,0.8-2.5,1.4-3.4,2c-0.6,0.3-1.5,0.5-2.7,0.6
		c-1.2,0.1-2.4,0.1-3.5,0c-1.1-0.1-2.2-0.4-3.3-0.9c-1.1-0.4-1.8-0.8-2.1-1c-0.1-0.3-0.3-0.4-0.5-0.4c-0.4-0.1-0.6-0.3-0.7-0.4
		c-0.2-0.2-0.2-0.4-0.1-0.4c0.1,0,0.4,0.1,1.1,0.3c1.4,0.6,2.5,1,3.4,1.1c0.9,0.1,2.1,0.1,3.7-0.1c0.9-0.1,1.7-0.2,2.2-0.3
		c0.5-0.1,0.9-0.3,1.1-0.5c0.3-0.2,0.8-0.5,1.5-0.9c0.7-0.4,1.4-0.8,2.1-1.2c0.7-0.4,1.4-0.8,1.9-1.1c0.6-0.3,0.9-0.5,1-0.5
		C244.5,202.5,244.8,202.3,245,202z"/>
	<path class="st0" d="M270.3,202.5c0.4-0.4,0.6-1,0.7-1.8c0.1-0.7,0.1-1.6-0.1-2.7c-0.1-0.5-0.1-1-0.1-1.5c0-0.5,0-0.7,0.1-0.7
		c0,0.1,0.2,0.4,0.7,0.7c0.4,0.4,0.7,0.7,0.8,0.9c0.1,0.1,0.2,0.4,0.3,0.9c0.1,0.5,0.2,1.1,0.2,1.6c0.1,1.3,0.1,2.3,0,2.9
		c-0.1,0.6-0.4,1.2-0.9,1.6c-0.2,0.2-0.4,0.3-0.6,0.4c-0.2,0.1-0.5,0.2-0.9,0.3c-0.4,0.1-0.9,0.2-1.6,0.3c-0.7,0.1-1.7,0.2-2.9,0.4
		c-1.4,0.1-2.7,0.3-3.7,0.5c-1.1,0.2-1.6,0.3-1.7,0.3c-0.1,0-0.5,0.1-1.3,0.2c-0.7,0.2-1.5,0.3-2.4,0.4c-1.3,0.2-2.2,0.4-2.7,0.4
		c-0.5,0-0.9-0.1-1.3-0.3c-0.1-0.1-0.3-0.1-0.5-0.2c-0.2-0.1-0.4-0.1-0.4-0.1c-0.1,0-0.2,0-0.4,0c-0.1,0-0.2-0.1-0.3-0.4
		c-0.2-0.3-0.4-0.4-0.7-0.4c-0.1,0-0.3-0.1-0.7-0.5c-0.3-0.3-0.4-0.5-0.3-0.5c0.4,0.2,0.7,0.3,0.9,0.3c0.9,0.3,3.7,0.1,8.3-0.6
		c0.7-0.2,1.7-0.3,2.9-0.6c1.2-0.2,2.3-0.4,3.2-0.5c2-0.3,3.4-0.5,4-0.6C269.6,203.1,270,202.8,270.3,202.5z"/>
	<path class="st0" d="M265.1,150c-0.2-0.4-0.3-0.8-0.3-1.3c-0.1-0.5-0.1-0.8-0.1-0.9c0-0.2,0-0.3,0-0.4c0,0,0.1-0.1,0.2-0.1
		c0.7,0.3,1.2,0.8,1.5,1.7c0.3,0.9,0.6,2,0.7,3.4c0.2,0.9,0.2,1.5,0.2,1.7c0,0.2-0.2,0.6-0.6,1c-0.2,0.3-0.4,0.5-0.6,0.6
		c-0.2,0.1-0.5,0.3-1,0.4c-0.5,0.1-1.2,0.3-2.1,0.4c-0.9,0.1-2.2,0.3-3.9,0.5c-1.6,0.2-2.9,0.3-3.8,0.5c-0.9,0.1-1.5,0.3-1.9,0.5
		c-0.4,0.2-0.6,0.5-0.6,0.9c0,0.4,0,0.9,0.1,1.6c0,1.3,0,2.1-0.1,2.4c-0.1,0.3-0.3,0.4-0.7,0.6c-0.4,0-0.7-0.1-0.8-0.4
		c-0.1-0.3-0.2-1.4-0.4-3.3c-0.1-0.9-0.1-1.6-0.1-2.1c0-0.5,0.2-0.9,0.5-1.2c0.3-0.3,0.9-0.5,1.7-0.6c0.8-0.1,1.9-0.3,3.4-0.5
		c1.6-0.2,2.8-0.3,3.8-0.4c1-0.1,1.7-0.2,2.3-0.3c0.6-0.1,1-0.2,1.2-0.4c0.3-0.1,0.5-0.3,0.7-0.6c0.5-0.5,0.8-1,0.9-1.5
		C265.3,151.6,265.3,150.9,265.1,150z"/>
	<path class="st0" d="M260.8,171.4c0.6-0.6,0.9-1.1,1-1.6c0.1-0.5,0-1.3-0.1-2.7c0-1.2,0-1.9,0-2.2c0.1-0.2,0.3-0.2,0.6,0.1
		c0.5,0.4,0.8,0.9,1.1,1.4c0.3,0.5,0.5,1.3,0.6,2.4c0.2,1.9,0,3.2-0.6,3.9c-0.6,0.7-1.7,1.2-3.3,1.3c-0.4,0-1,0.1-1.8,0.2
		c-0.8,0.1-1.4,0.1-1.9,0.2c-0.5,0.1-0.9,0.3-1.1,0.4c-0.3,0.2-0.4,0.6-0.5,1.2c-0.1,0.7,0,1.7,0.1,3c0.1,1.4,0.3,3.3,0.6,5.8
		c0.3,2.6,0.5,4.6,0.7,6c0.2,1.4,0.2,2.4,0.3,3.1s0,1.1-0.1,1.2c-0.1,0.1-0.2,0.2-0.4,0.3c-0.1,0-0.3,0.1-0.4,0.2
		c-0.2,0.1-0.3,0.2-0.4,0.2c-0.1,0-0.2-0.1-0.2-0.5c-0.1-0.3-0.2-0.9-0.2-1.8c-0.1-0.9-0.2-2-0.3-3.5c-0.1-1.5-0.3-3.3-0.6-5.6
		c-0.3-2.8-0.5-4.9-0.6-6.4c-0.1-1.5-0.3-2.6-0.3-3.3c-0.1-0.7-0.1-1.1,0-1.3c0.1-0.1,0.1-0.3,0.3-0.4c0.2,0,0.7-0.1,1.4-0.2
		c0.7-0.1,1.6-0.3,2.5-0.3c1.5-0.2,2.5-0.4,2.9-0.5C260.3,171.8,260.6,171.7,260.8,171.4z"/>
	<path class="st0" d="M295.6,152.8c0-0.1-0.1-0.3-0.2-0.5c-0.1-0.3-0.3-0.4-0.5-0.5c-0.4-0.6-0.4-0.8-0.1-0.5
		c0.3,0.3,0.8,0.8,1.5,1.5c1.7,2.1,3.1,4.5,4,7.3c0.9,2.8,1.6,6.5,2,11c0.3,3.3,0.4,6.2,0.3,8.5c-0.1,2.3-0.5,4.5-1,6.5
		c-0.1,0.3-0.3,0.8-0.6,1.4c-0.3,0.6-0.6,1.2-0.9,1.8c-0.3,0.6-0.6,1.2-0.8,1.7c-0.3,0.5-0.5,0.9-0.6,1.2c-0.1,0.1-0.2,0.3-0.4,0.6
		c-0.2,0.3-0.4,0.6-0.6,0.8c-1.3,2-2.9,3.7-4.8,5.2c-1.9,1.4-4.3,2.7-7.2,3.9c-1.5,0.6-2.6,1.1-3.5,1.4c-0.9,0.3-1.7,0.5-2.4,0.5
		c-0.7,0-1.3-0.1-1.8-0.4c-0.5-0.3-1.2-0.7-1.9-1.2c-0.5-0.3-0.8-0.5-0.8-0.6c-0.1-0.1,0.1-0.1,0.3-0.1c0.6,0.4,1.1,0.6,1.7,0.7
		c0.5,0.1,1.1-0.1,1.7-0.4c0.5-0.1,1.1-0.2,1.9-0.5c0.8-0.3,1.5-0.6,2.3-0.9c0.8-0.3,1.5-0.6,2.2-0.9c0.7-0.3,1.2-0.5,1.5-0.7
		c1.8-1,3.3-1.9,4.4-2.8c1.1-0.9,2.2-2,3.2-3.3c1-1.2,1.9-2.6,2.7-4.2c0.8-1.6,1.7-3.5,2.6-5.7c0.1-0.2,0.2-0.8,0.4-1.6
		c0.2-0.9,0.4-1.8,0.5-2.7c0.1-0.8,0.1-1.8,0.1-3.2c0-1.4-0.1-2.8-0.2-4.4c-0.1-1.6-0.2-3.2-0.4-4.8c-0.2-1.6-0.4-3.1-0.7-4.4
		c-0.3-1.4-0.5-2.5-0.7-3.2c-0.2-0.7-0.6-1.6-1-2.7c-0.3-0.4-0.6-0.9-0.8-1.3C296.8,154.8,296.3,154,295.6,152.8z"/>
	<path class="st0" d="M280.1,191.8c-0.3-2-0.5-3.8-0.7-5.6c-0.2-1.7-0.4-3.7-0.7-6c-0.2-2.3-0.5-4.8-0.8-7.4
		c-0.6-4.8-1-8.5-1.2-11.1c-0.3-2.6-0.4-4.5-0.5-5.7c-0.1-1.2,0-1.9,0.1-2.2c0.1-0.2,0.3-0.3,0.6-0.4c0.2,0,0.5,0,0.9,0.1
		c0.4,0.1,0.8,0.1,1.1,0.2c0.3,0.1,0.7,0.1,0.9,0.1c0.3,0,0.5,0,0.6,0c0.2,0.1,0.6,0.2,1.1,0.3c0.5,0.2,1.1,0.4,1.7,0.6
		c0.6,0.2,1.2,0.5,1.7,0.7c0.5,0.2,1,0.5,1.3,0.7c0.2,0.2,0.5,0.5,0.7,0.8c-0.6-0.1-1-0.3-1.4-0.5c-0.5-0.2-1.1-0.3-1.8-0.5
		c-0.1,0-0.3,0-0.6-0.1c-0.3-0.1-0.6-0.1-1-0.2c-0.3,0-0.8-0.1-1.4-0.2c-0.6-0.1-1-0.2-1.4-0.2c-0.4,0-0.7,0.2-0.9,0.4
		c-0.2,0.2-0.3,0.9-0.3,2.1c0,1.2,0.2,3,0.4,5.4c0.2,2.4,0.6,5.9,1,10.4c0.5,4.5,0.8,8,1.1,10.4c0.3,2.4,0.4,4.2,0.5,5.4
		c0.1,1.2,0.1,1.8,0,2.1c-0.1,0.2-0.2,0.3-0.5,0.4C280.7,191.8,280.4,191.8,280.1,191.8z"/>
	<path class="st0" d="M145.1,292.9c0.5-2,0.8-4.5,0.7-7.6c-0.1-3.1-0.4-6.3-0.9-9.5c-0.5-3.2-1.2-6.3-2.1-9.2
		c-0.9-2.9-1.8-5.1-2.9-6.7c-0.4-0.6-0.6-1.3-0.8-2c0.3,0.2,0.8,0.6,1.4,1.4c0.6,0.8,1.2,1.7,1.8,2.9c0.6,1.1,1.3,2.3,1.9,3.6
		c0.6,1.3,1.1,2.4,1.5,3.5c0.4,1.3,0.8,3,1.2,5.1c0.4,2.1,0.7,5,0.9,8.5c0.1,2.3,0.2,4.2,0.3,5.6c0.1,1.4,0.1,2.6,0,3.6
		c0,1-0.1,1.8-0.2,2.4c-0.1,0.7-0.3,1.4-0.6,2.2c-0.8,2.4-2.2,4.5-4.1,6.4c-1.9,1.9-3.8,3.2-5.7,4c-1,0.1-2.3,0.2-4,0.6
		c-1.7,0.3-3.2,0.5-4.5,0.6c-2.3,0.1-4.1,0.1-5.3-0.1c-1.3-0.2-2.6-0.4-3.9-0.7c-1.7-0.9-2.7-1.6-2.9-2c-0.2-0.5,0.5-0.5,2.2,0.1
		c2,0.5,4.4,0.7,7.4,0.5c2.9-0.2,5.7-0.9,8.2-2c2.5-0.8,4.7-2.2,6.6-4.1C143,297.9,144.3,295.6,145.1,292.9z"/>
	<path class="st0" d="M125.2,266c-1.3,0.1-2.3,0.1-3.1,0c-0.8-0.1-1.5-0.4-2.2-1c-1-0.6-1.4-0.9-1.2-1.1c0.2-0.1,1.5-0.2,3.8-0.4
		c1.3,0.2,2.4,0.4,3.4,0.6c0.9,0.1,1.6,0.5,1.9,1.1c0.7,0.3,0.9,0.5,0.7,0.5C128.2,265.8,127.1,265.9,125.2,266z"/>
	<path class="st0" d="M129.6,241.5c1.7-0.2,3.1-0.5,4.2-0.9s1.8-0.8,2.3-1.4c0.5-0.6,0.9-1.3,1.1-2.1c0.2-0.9,0.4-2,0.5-3.3
		c-0.1-1.6-0.1-2.5,0-2.7c0.1-0.2,0.5,0,1.2,0.6c0.7,0.9,1.1,1.9,1.2,2.8c0.1,0.9,0.1,2.4-0.1,4.4c-0.3,1-0.6,1.8-0.9,2.5
		c-0.3,0.6-0.8,1.1-1.4,1.5c-0.6,0.4-1.4,0.6-2.3,0.8c-0.9,0.2-2.1,0.3-3.5,0.4c-1.2,0.1-2.1,0.1-2.7,0.2c-0.6,0.1-1.1,0.2-1.4,0.4
		c-0.3,0.2-0.5,0.4-0.7,0.8c-0.1,0.4-0.2,0.9-0.3,1.5c0.1,1.3,0,2.3-0.2,3c-0.2,0.7-0.5,1-0.8,1c-0.3,0-0.6-0.3-0.9-1
		c-0.3-0.7-0.3-1.9,0-3.5c-0.1-1.1-0.1-2-0.1-2.6c0-0.6,0.2-1.1,0.5-1.4c0.3-0.3,0.8-0.5,1.5-0.6
		C127.3,241.6,128.3,241.6,129.6,241.5z"/>
	<path class="st0" d="M229.6,272.9c-0.3-0.3-0.6-0.9-0.8-1.8c0-0.3,0.1-0.3,0.5,0.1c0.3,0.4,0.8,1.1,1.6,2.3c0.7,0.9,1.1,2,1.3,3.2
		c0.2,1.2,0.3,3,0.5,5.5c0.1,1.4,0.1,2.6,0.2,3.5c0,0.9,0,1.8-0.1,2.5c-0.1,0.7-0.2,1.4-0.4,2c-0.2,0.6-0.5,1.3-0.9,2.1
		c-1.6,4.2-3.6,7.3-6.1,9.3c-2.4,2-5.3,3.2-8.7,3.4c-1.6,0.1-2.8,0-3.7-0.2s-2-0.7-3.2-1.2c-1.9-1.1-2.9-1.7-2.9-1.8
		c0-0.1,1.2,0.1,3.4,0.6c1.6,0.6,2.7,0.8,3.4,0.9c0.7,0,1.9-0.2,3.4-0.6c2.7-1.1,5.2-2.9,7.4-5.5c2.2-2.6,4-5.8,5.4-9.6
		c0.2-0.8,0.4-1.8,0.5-3.1c0.1-1.3,0.1-2.6,0.1-4c0-1.4-0.1-2.7-0.3-4C229.9,274.7,229.8,273.7,229.6,272.9z"/>
	<path class="st0" d="M220,237.3c1.8-1,3-2.1,3.6-3.3c0.6-1.1,0.7-2.6,0.3-4.5c0-0.6-0.1-1.6-0.2-3.1c0.1,0,0.4,0.3,0.7,0.8
		c0.3,0.5,0.6,1.2,0.9,1.9c0.3,0.8,0.6,1.5,0.9,2.4c0.3,0.8,0.4,1.5,0.5,2.2c0.1,1.6-0.2,2.8-0.9,3.6s-1.9,1.6-3.7,2.3
		c-1.5,1.1-3.2,2.5-4.9,4.3c-1.7,1.8-3,3.7-3.9,5.5c-0.3,0.8-0.6,1.8-0.9,3.1c-0.3,1.3-0.6,2.6-0.8,3.9c-0.2,1.3-0.4,2.6-0.5,3.9
		c-0.1,1.2-0.1,2.2-0.1,3c0.1,1-0.1,1.6-0.4,2c-0.3,0.4-0.8,0.6-1.4,0.6c-0.6,0-1-0.2-1.1-0.8c-0.1-0.6,0-2,0.2-4.2
		c0-5.9,0.9-10.7,2.9-14.5C213.1,242.8,216.1,239.8,220,237.3z"/>
	<path class="st0" d="M208.9,282.2c-0.4-1.2-0.5-1.9-0.4-2.2c0.1-0.3,0.8-0.6,2.1-1c0.6-0.4,1.4-0.6,2.4-0.7c1-0.1,1.9-0.2,2.5-0.2
		c1.2-0.1,2-0.1,2.4-0.1s0.4,0.2,0.1,0.5c0,0.3-0.1,0.6-0.5,1c-0.3,0.3-1,0.7-1.9,1.1c-2.2,0.5-3.5,1-4,1.6
		c-0.5,0.6-0.5,1.8-0.1,3.6c0.1,1.6,0.1,2.6,0.1,3c0,0.4-0.2,0.5-0.5,0.2c-0.4-0.6-0.7-1.2-1.1-2
		C209.8,286.3,209.4,284.7,208.9,282.2z"/>
	<path class="st2" d="M237.6,288.6l2.1-0.1c0.2,0,0.3,3,0.4,3.3c0,0.2,0.3,1.5,0.3,1.7c0.3,0.9,0.9,1.6,2,1.5l0.7,0
		c2.3,0,5-0.1,4.7-5.9c-0.5-9.1-10.7-7-11.4-13.8c-0.1-0.3-0.2-1.5-0.2-1.8c0-2-0.2-8.8,5-9.1c1.8,0,4.1,0.4,4.8,2.5
		c0.5,1.5,0.8,2.9,0.8,4.4l0,0.8c0,0.1,0,0.4-0.3,0.4l-2.1,0.1c-0.3,0-0.1-0.4-0.2-1.4c-0.1-1.4-0.7-4.3-2.6-4.2
		c-1.2,0.1-2.5,1.6-2.7,2.8c-0.4,1.5-0.6,5.7,1,6.9c2.4,1.7,6.3,3.6,8.8,6.9c1.1,1.5,1.4,3.2,1.5,5c0.3,4.4-0.8,8.7-6.4,9.1
		c-4.1,0.2-6.3-1.7-6.6-5.8C237.3,290.9,237.1,288.7,237.6,288.6z"/>
	<path class="st2" d="M51.1,281.2l-0.5-8.2c-0.4-7.4-0.6-14.7-1-22.1c-0.2-4-0.6-8.1-0.9-12.1c0-0.5,0.4-0.8,0.9-1
		c0.4,0,2.7-0.2,3.2-0.2c3-0.2,6-0.2,9-0.4c0.8,0,2.5,0,2.5,0l0.1,0.3l0.2,2.9c0,0.2-0.1,0.3-0.5,0.3c-0.1,0-0.4-0.1-0.5-0.1
		c-3.1-0.1-5.4,0-8.5,0.2l-2.6,0.2l-0.3,0.3c0.1,1.3,0.2,3.3,0.2,4.7l0.7,11.2c0,0.5,1.2,0.4,1.4,0.4c1.7,0,3.6,0,5.3-0.1
		c0.3,0.1,0.5,0.2,0.5,0.6l0.1,2.4l-0.3,0.3l-6.6,0.4l-0.3,0.1l0.1,1.7c0.2,3.3,0.4,6.6,0.7,9.8c0,0.8,0.8,7.4,0.9,8.2l0,0.2
		c0,0.5-0.5,0.8-1,0.8c-0.1,0-0.8-0.1-0.9-0.1l-1.8,0.1C51.3,281.7,51.2,281.4,51.1,281.2z"/>
</g>
</svg>
