<?xml version="1.0" encoding="utf-8"?>
<!-- Generator: Adobe Illustrator 20.0.0, SVG Export Plug-In . SVG Version: 6.00 Build 0)  -->
<svg version="1.1" id="Layer_1" xmlns="http://www.w3.org/2000/svg" xmlns:xlink="http://www.w3.org/1999/xlink" x="0px" y="0px"
	 viewBox="0 0 476.2 476.2" style="enable-background:new 0 0 476.2 476.2;" xml:space="preserve">
<style type="text/css">
	.st0{fill:#274E23;}
	.st1{fill:#169447;}
	.st2{fill:#FBF8F5;}
	.st3{fill:#F7F8F7;}
	.st4{fill:#9F4F2A;}
</style>
<path class="st0" d="M238.1,5.2C109.3,5.2,4.5,110,4.5,238.8c0,128.8,104.8,233.7,233.7,233.7c128.8,0,233.7-104.8,233.7-233.7
	C471.8,110,366.9,5.2,238.1,5.2z"/>
<path class="st1" d="M238.1,37.9c-111.2,0-201.4,90.2-201.4,201.4s90.2,201.4,201.4,201.4c45.3,0,87.1-15,120.8-40.2
	c1.2-0.9,2.4-1.8,3.6-2.8c9.1-7.1,17.5-15,25.3-23.6c1.5-1.7,3-3.4,4.5-5.2c17.4-20.7,30.7-44.9,38.7-71.4c0.3-1.1,0.7-2.2,1-3.3
	c1.8-6.4,3.3-12.9,4.5-19.5c0.3-1.7,0.6-3.5,0.9-5.2c1.5-9.8,2.2-19.9,2.2-30.2C439.5,128.1,349.3,37.9,238.1,37.9z"/>
<g>
	<path class="st2" d="M327.6,337.1c8.9-3.2,17.8-6.5,26.2-11c3.5-1.9,6.8-4,10-6.3c0.3-0.2,0.6-0.5,0.9-0.7c1.9-1.6,2.3-3.2,1.2-5.4
		c-1.1-2.2-2.3-4.4-3.5-6.5c-4.2-7.4-8.6-14.6-14-21.2c-4-4.9-8.6-9.3-13.8-12.9c-0.8-0.6-1.3-1.2-0.7-2.2c-0.6-0.6-1.2-1.3-1.8-1.9
		c-2,1.1-3.6,2.6-5.2,4.1c-4.8,4.2-9,9-13.6,13.5c-2.9,2.8-5.8,5.6-9.2,7.9c-6.1,4.1-12.7,6-20,5.3c-4.4-0.4-8.6-1.7-12.6-3.7
		c-6.4-3.1-12.5-6.6-17.8-11.3c-2.7-2.4-5.2-5.1-7.5-8.2c-0.4,1.1-0.8,2-1.1,3c-2.7,7.6-5.8,15.1-9.9,22c-2.5,4.3-5.5,8.1-9.7,10.8
		c-1,0.6-2,1.3-3.1,1.6l0-0.1c0,0.2-0.2,0.2-0.3,0.2c-0.1,0.1-0.1,0.1-0.2,0c0,0.1-0.1,0.1-0.3,0.1c-0.5,0.6-1.4,0.8-1.9,1.4
		c-1.3,1.4-1.4,3.1-1.4,4.9c1.5,2.7,3,5.3,4.9,7.8c4.9,6.3,11,11.1,17.8,15c2.1,1.2,4.1,0.8,6-0.4c4.4-2.8,8.8-5.8,13.2-8.7
		c8.6-5.8,16.7-12.2,24.9-18.6c7.1-5.5,14.8-10.1,22.9-13.9c1.3-0.6,2.2-0.7,3.4-0.3c-0.8,1-1.8,1.8-2.8,2.5
		c-1.7,1.1-3.4,2.1-5.1,3.2c-2.1,1.4-2.2,1.9-0.6,3.8c7.1,8.3,14.1,16.6,21,25C325.2,337.5,325.9,337.7,327.6,337.1z"/>
	<path class="st2" d="M218.7,326.7c-1.2-2.4-1.5-2.5-3.8-1.1c-8.3,5.3-16.7,10.5-24.6,16.3c-1.1,0.8-2.3,1.7-3.4,2.5
		c-3.3,2.5-4.4,5.9-4,9.9c0.3,3.4,2.2,5.5,5.3,6.7c1.3,0.5,2.6,0.9,3.9,1.3c0.6,0.2,1.1,0.4,1.7,0.7c-1.9,1-3.8,1.2-5.7,0.7
		c-2.1-0.5-4-1.5-5.7-2.9c-2.8-2.3-3.2-5.4-2.7-8.7c0.2-1.9,0.6-3.8,1-5.8c-4.2,1.5-8,3.3-11,6.5c-2.9,3-3.4,6.6-1.6,10.4
		c1.5,3.1,3.8,5.4,6.2,7.6c6,5.6,11.4,11.6,15.9,18.5c0,0.8,0.3,1.3,1,1.6c4.1,1.5,10.6,9.6,23.1,4.7c12.6-4.8-2.9-7.8-2.9-7.8
		l-2-1.6c-0.1-0.3-0.2-0.5-0.2-0.8c-0.4-3.2-0.5-6.3-0.3-9.5c0.2-2.4,0.9-4.7,1.4-7c0.5-2.4-0.1-4.4-2.2-5.8c-0.9-0.6-2-1.1-2.7-1.9
		c-0.9-1.3-0.7-1.9,0.7-2.5c0.4-0.1,0.7-0.3,1.1-0.4c2.4-0.9,4.7-1.8,6.7-3.5c2.8-1.7,5.7-3,8.6-4.5c4-2.1,8.1-4.2,12.2-6.4
		c-2.2-1.4-4.2-2.9-6.1-4.6C224.5,336,221.1,331.7,218.7,326.7z"/>
	<path class="st2" d="M250,276c7.5,9.1,16.9,15.4,28.2,18.8c6.9,2.1,13.7,2,20.2-1.2c3.8-1.9,7.1-4.4,10.2-7.3
		c3.8-3.6,7.4-7.4,11.1-11c2.3-2.3,4.6-4.5,7-6.7c1.4-1.4,1.5-2.3,0.5-4c-0.1-0.2-0.2-0.3-0.3-0.5c-2.5-3.5-4-7.3-3.8-11.7
		c0.2-3-0.4-6-1-9c-1.2-5.9-3.5-11.5-5.9-17c-1.7-3.9-3.8-7.6-5.2-11.7c-0.8-2.1-1.2-4.3-0.9-6.7c0.9,1.2,1.5,2.3,2.1,3.5
		c2.9,5.4,5.7,10.9,8.7,16.3c3,5.3,6.2,10.3,10,15.1c1.6,2,2.7,2.2,4.9,1.1c1.4-0.8,2.8-1.5,4.3-2.2c7.2-3.6,14.6-6.6,22.2-9.5
		c2.5-0.9,2.8-1.9,1-3.9c-4.9-5.7-8-12.2-9.6-19.6c-1.9-9.2-5.3-17.8-11.4-25.1c-2.8-3.3-5.1-6.9-7.4-10.5l0.8-0.2l5.8,0.4
		c0,0,5.2,0.8,6.1,0.9c1,0.1,3.5,0,3.9,0c0.3,0,2.9-1.5,2.9-1.5l4.7-4.6l3.8-4.5l4.6-2.7l-0.9-7.5l1.3-1.8l3.2-6.5l1.9-4.5l0.4-1
		l3.7-0.3l1.5-5.2l-3-13.7l-11.3-15.8l-16.4-5.6c0,0-13.5-3.4-27.8,12.1c-14.2,15.6-0.6,42.3-0.6,42.3l-2.3,3.8
		c-1.6,0-3.2,0.4-4.9,1.3c-3.7,2-7.3,4.2-10.6,6.8c-3.8,3-8.1,4.9-13,5.4c-3.4,0.3-6.8,0.7-10.1,1.4c-7,1.5-13.6,4.1-20.1,7.3
		c-2.3,1.1-4.7,2.1-6.6,3.9c-1.6,1.4-2,3-1.2,4.8c0.5,1.2,1.3,2.2,2.1,3.1c2.2,2.3,4.5,4.5,7,6.5c3.9,3.1,8,6,12.1,8.8
		c1.9,1.3,2.8,1,3.5-1.3c0.4-1.4,0.8-2.9,1.3-4.3c1.5-4.5,3.7-8.7,7.1-12.1c-0.1,0.1-0.1,0.3-0.2,0.4c-2,4.3-3.6,8.8-5.2,13.2
		c-2.4,6.3-4.7,12.7-8.3,18.5c-8.8,14.2-17.1,28.8-25.7,43.1c-1.2,2-1.2,3.9,0.3,5.8C246.5,271.6,248.2,273.9,250,276z"/>
	<path class="st2" d="M363.2,238.1c-1.1-1.1-2.4-1.5-3.9-1.3c-1.9,0.3-3.6,1.3-5.3,2.3c-1.9,1.1-3.8,2.4-5.8,3.3
		c-1.7,0.8-1.9,1.5-0.8,3c1,1.3,2.1,2.6,3.1,3.9c3.7,4.6,7.2,9.4,11.4,13.6c3.9,3.7,7.8,7.3,11.7,11c4.7,4.5,9.1,9.3,12.2,15.1
		c0.8,1.5,2.1,2.4,3.7,2.9c1.4,0.5,2.9,0.5,4.4,0.6c1.6-0.2,2.6-1.3,3.7-2.3c0-0.5,0.1-1.1,0.1-1.6c-0.1-4.7-2.2-8.4-5.8-11.1
		c-4.3-3.3-8.3-6.9-11.4-11.4c-5.3-7.7-10.3-15.7-14.6-24C365.2,240.8,364.4,239.3,363.2,238.1z"/>
	<path class="st2" d="M399.1,362.1l-9-1l-9.5,1l-6.7,2.8l-7.4,6.2l-6.2,7.5l-1.5,2.7c-0.3-0.7-0.8-1.3-1.5-1.8
		c-5.5-4.1-10.6-8.6-15.9-12.9c-1.4-1.1-1.7-2-1.2-3.4c-0.8-1.3-0.5-2.6,0.1-3.9c0.2-0.3,0.3-0.6,0.4-0.9c-0.4-1.1-0.2-2.1,0.4-3.1
		c0.4-0.7,0.8-1.4,1.4-1.9l0-0.1c0-0.7,0-1.4,0.6-1.8c0.2-0.1,0.2-0.4,0.3-0.6c0.2-1,1-1.8,1.4-2.7c0.4-0.8,1-1.5,1.4-2.3
		c0.9-1.9,1.8-3.8,2.6-5.7c1.1-2.4,2.1-4.8,3.2-7.2c0,0-0.1-0.1-0.1-0.1c-0.5,0-0.9,0.1-1.3,0.3c-2.9,1.4-6,2.6-9,3.8
		c-2.1,0.8-4.2,1.8-6.4,2.5c-2.4,0.8-5,0.5-7.6,0.7c-2.8,0.2-5.1,1.2-6.6,3.8c-1.2,2.1-2.2,4.2-3.1,6.5c-1.3,3.3-2.4,6.6-3.9,9.8
		c-1.2,2.6-0.9,4.3,1.4,6.1c2.8,2.2,5.9,2.2,9.2,1.6c2.4-0.4,4.6-1.4,7-2.1c0.9-0.3,1.7-0.6,2.7-0.6c-0.1,0.2-0.2,0.2-0.4,0.4
		c-5.6,5.6-15.6,6.4-22.1,1.6c-0.5-0.4-0.8-0.4-1.2,0.1c-1.8,2.5-2.5,5.3-2.1,8.5c0.3,2.4,1.1,4.6,1.8,6.8c1.2,0.3,2.4,0.6,3.6,0.8
		c0.6-0.4,1-0.4,1.6,0c0.6,0.5,1.5,0.3,2.3,0.4c5.3,0.3,10.4-0.3,15.5-1.8c0.2-0.1,0.4-0.1,0.7-0.1c1.7-0.2,2.1,0.3,1.8,2
		c-0.2,1.3-0.2,2.6,1,3.6c1.5,1.1,2.5,1.1,4,0c0.8-0.6,1.5-1.2,2.3-1.7c1.6-1,2.6-0.7,3.6,0.9c0.1,0.1,0.1,0.2,0.2,0.3
		c1,2.8,3.3,3.7,5.9,4c1.1,0.1,2.1,0.2,3.2,0.2c0.4,0,0.8-0.1,1.1-0.3l1.8,7.1l2.6,7.5l46.9-40.8L399.1,362.1z"/>
</g>
<path class="st2" d="M238.1,17.3c-122.6,0-222,99.4-222,222s99.4,222,222,222s222-99.4,222-222S360.7,17.3,238.1,17.3z M238.1,440.7
	c-111.2,0-201.4-90.2-201.4-201.4S126.9,37.9,238.1,37.9c111.2,0,201.4,90.2,201.4,201.4S349.3,440.7,238.1,440.7z"/>
<path class="st0" d="M205.1,386.8c-1.3-0.3-2.1-1.1-2.3-2.4c-0.4-3.2-0.5-6.3-0.3-9.5c0.2-2.4,0.9-4.7,1.4-7
	c0.5-2.4-0.1-4.4-2.2-5.8c-0.9-0.6-2-1.1-2.7-1.9c1.3-0.1,2.7-0.4,4-0.4c2.3,0,3.4,1.2,3.5,3.5c0.1,2.3-0.4,4.6-0.6,6.9
	c-0.3,3.2-0.4,6.3-0.6,9.5C205.2,382.1,205.2,384.4,205.1,386.8z"/>
<path class="st0" d="M331.8,150.3c-0.1-0.1-0.1-0.1-0.2-0.2C331.8,150,331.7,150.2,331.8,150.3L331.8,150.3z"/>
<path class="st3" d="M345.7,331.7c0.1-0.1,0.1-0.1,0.2,0c0,0-0.1,0.1-0.1,0.1C345.7,331.7,345.7,331.7,345.7,331.7z"/>
<path class="st0" d="M336.3,352.2c-0.5,1.7-1.1,3.4-1.8,5c-0.4-1.1-0.2-2.1,0.4-3.1C335.3,353.4,335.7,352.7,336.3,352.2z"/>
<g>
	<path class="st0" d="M334.7,101.3c4.1-0.8,8.2-1.1,12.3-0.5c9.7,1.3,17.4,5.8,23,13.8c3.4,4.9,5.2,10.4,6,16.3
		c0.5,3.2,0.4,6.2-2.5,8.4c0.3,0.3,0.7,0.7,1,1c1.1,1.2,2.3,2.2,3.8,2.7c1.1,0.3,1.1,0.3,1-0.8c-0.4-2.8-0.6-5.6-0.5-8.5
		c0-2.2,0.1-4.3,0.1-6.5c0-1.2-0.1-2.4-0.1-3.7c-0.1-0.2-0.1-0.4-0.2-0.5c-3.8-11.5-11.3-19.6-22.7-24c-5.8-2.2-11.7-3-17.7-1.2
		c-2.2,0.7-4.2,1.6-6.2,2.8C332.8,101.4,333.7,101.5,334.7,101.3z"/>
	<path class="st0" d="M225.5,312.5c4.2-2.7,7.2-6.6,9.7-10.8c4.1-7,7.2-14.4,9.9-22c0.3-1,0.7-1.9,1.1-3c2.3,3.1,4.8,5.7,7.5,8.2
		c5.3,4.7,11.5,8.2,17.8,11.3c4,1.9,8.2,3.3,12.6,3.7c7.3,0.7,14-1.3,20-5.3c3.4-2.3,6.3-5,9.2-7.9c4.5-4.5,8.8-9.2,13.6-13.5
		c1.7-1.5,3.3-3,5.2-4.1c2.2-2.5,1.6-3.5-0.5-5.7c-3.5-3.7-5.9-7.9-6.7-13c-0.4-2.3-0.3-4.6,0-6.9c0.1-0.7,0.4-0.9,1-0.4
		c0.3,0.2,0.6,0.4,0.8,0.7c1,1.2,2.1,2.3,3.4,3.3c2.7,2,5.6,2.4,8.7,0.7c0.6-0.4,1.3-0.8,1.9-1.2c1.2-0.9,2.2-0.9,3.2,0.2
		c1.4,1.5,2.7,3.2,4,4.8c6.1,7.7,12.3,15.2,19.1,22.2c5.6,5.7,11.1,11.7,16,18.1c2.9,3.8,7.3,4.1,10.9,0.9c-1.5-0.1-2.9-0.1-4.4-0.6
		c-1.6-0.5-2.9-1.4-3.7-2.9c-3.1-5.8-7.4-10.6-12.2-15.1c-3.9-3.7-7.9-7.3-11.7-11c-4.3-4.1-7.8-8.9-11.4-13.6
		c-1-1.3-2.1-2.6-3.1-3.9c-1.2-1.5-0.9-2.2,0.8-3c2-0.9,3.9-2.2,5.8-3.3c1.7-1,3.3-1.9,5.3-2.3c1.6-0.3,2.8,0.2,3.9,1.3
		c1.2,1.2,1.9,2.6,2.7,4.1c4.4,8.3,9.3,16.3,14.6,24c3.1,4.5,7.1,8.1,11.4,11.4c3.6,2.8,5.7,6.5,5.8,11.1c0,0.5-0.1,1.1-0.1,1.6
		c2.9-3.2,3.3-7.6,0.9-11.3c-1.2-1.9-2.8-3.4-4.4-4.8c-5.2-4.6-9.6-9.9-13.7-15.5c-5-6.9-9.3-14.3-13.5-21.7
		c-0.2-0.4-0.4-0.7-0.5-1.1c-0.6-1.5-0.2-2.4,1.1-3.2c2.2-1.4,2.3-1.7,0.4-3.6c-4-4-6.7-8.9-8.7-14.1c-1.9-5-3.2-10.1-4.8-15.2
		c-1.8-5.9-4.2-11.5-8.1-16.5c-1.6-2.1-3.4-3.9-5.4-5.6c-1-0.9-1.7-2-1.5-3.5c0.1-0.7,0.3-0.8,1-0.6c2.2,0.6,4.3,1.4,6.5,1.7
		c3.7,0.6,6.9-0.4,9.7-2.7c1.3-1.1,2.3-2.4,3.3-3.8c1.2-1.8,2.3-3.7,4.1-5c0.9-0.7,1.9-1.2,3.1-1.4c1.4-0.3,2.3-1.5,1.7-2.8
		c-2-4-0.8-7.5,1.5-10.9c0.4-0.6,0.7-1.1,1.1-1.7c0.8-1.1,1.1-2.2,1.1-3.5c0-0.9-0.2-1.8,0.5-2.6c0.1-0.2,0.1-0.5,0.1-0.7
		c-0.9,0.2-0.6,1.1-1,1.7c-1.9,3.1-3.7,6.3-6.4,8.9c-1.1,1-1.4,2.4-1.2,3.9c0.3,1.3,0.9,2.5,1.3,3.8c0.4,1.6,0,2.5-1.6,2.9
		c-0.3,0.1-0.7,0.2-1,0.2c-0.7,0-1.2,0.2-1.3,0.9c-0.1,0.3-0.3,0.5-0.7,0.6c-0.9,0.3-1.5,1-2,1.8c-0.5,0.8-1,1.6-1.5,2.4
		c-0.6,0.9-1.5,1.6-2.6,1.6c-0.9,0-1.1,0.6-1.3,1.2c-0.6,2.7-1.9,3.6-4.6,3c-2.7-0.6-5.4-1.3-8.1-2.2c-2.8-1-5.4-2.4-7.4-4.6
		c-0.8-0.9-1.6-2-2.1-3.1c-1.1-2.2-2.6-4.1-4.7-5.6c-1.6-1.2-1.7-2-0.4-3.5c0.5-0.6,1-1.2,1.5-1.9c0.6-1,1.1-1,1.7,0
		c0.9,1.4,2.2,2,3.6,2.5c2.1,0.7,3.6-0.1,4.5-2.2c0.1-0.3,0.1-0.7,0.4-0.9l0,0c-0.4-0.3-0.6,0.2-0.8,0.3c-1.1,0.7-2.1,0.8-3.3,0.3
		c-0.7-0.3-1.4-0.8-1.9-1.4c-3.5-3.3-4.4-7.4-4.1-12c0.2-2.2,1.3-3.4,3.5-3.9c1.3-0.3,2.7-0.4,4.1-0.7c-1.3-0.7-2.6-1-3.9-1.2
		c-3.5-0.6-6.2,1-6.9,4.2c-0.8,3.4-0.5,6.8,1.4,10c0.3,0.5,0.6,1.1,0.8,1.6c0.3,0.9,0.3,1.8-0.5,2.5c-2.1,1.9-4.3,2.3-5.9-0.4
		c-0.2-0.3-0.3-0.6-0.5-0.8c-1.5-2.7-2.8-5.5-3.7-8.4c-1.8-5.2-2.4-10.6-1.6-16.1c0.7-4.8,2.4-9.2,4.9-13.3c0.3-0.5,0.6-1,0.3-1.6
		c-0.2-0.5-0.4-0.7-0.9-0.3c-1.7,1.4-3,3.1-3.9,5.1c-1.3,2.6-2,5.4-3,8.1c-0.2,3.2-0.2,6.5,0,9.7c0.5,6.7,2.2,13,5.6,18.8
		c0.5,0.9,0.5,0.9-0.5,1.1c-0.1,0-0.2,0-0.3,0c-4.6,0.7-8.9,2.3-12.3,5.6c-4.2,4-9.1,6.6-14.7,8.1c-3.5,1-7.1,1.4-10.6,1.8
		c-6.5,0.8-12.7,2.8-18.6,5.6c-3.6,1.7-7.2,3.5-10.4,5.9c-3,2.3-3.7,5.1-2,8.5c0.4,0.9,0.9,1.7,1.5,2.5c3.7,5.2,8.5,9.3,13.8,12.8
		c2.2,1.4,4.4,2.7,6.6,4.2c1.7,1.2,2,2.7,1.2,4.6c-0.5,1.1-1.2,2.1-1.8,3.2c-8.3,13.1-16.8,26.1-24.3,39.6c-1.5,2.8-3.2,5.5-4.4,8.5
		c-0.8,2.1-0.8,4.2,0.7,5.9c1.4,1.5,1.3,3,0.7,4.7c-1.8,5.1-3.8,10.1-6.1,15c-2.8,5.9-5.7,11.8-9.9,17c-1.5,1.9-2.8,3.9-3.8,6.2
		c-0.2,0.4-0.5,0.7-0.3,1.2C223.5,313.8,224.5,313.1,225.5,312.5z M244.6,263.6c8.6-14.3,16.9-28.9,25.7-43.1
		c3.6-5.8,5.9-12.1,8.3-18.5c1.6-4.4,3.3-8.9,5.2-13.2c0.1-0.1,0.1-0.3,0.2-0.4c-3.4,3.4-5.6,7.6-7.1,12.1c-0.5,1.4-0.8,2.9-1.3,4.3
		c-0.7,2.3-1.5,2.6-3.5,1.3c-4.1-2.8-8.2-5.7-12.1-8.8c-2.5-2-4.9-4.1-7-6.5c-0.9-0.9-1.6-1.9-2.1-3.1c-0.8-1.8-0.4-3.4,1.2-4.8
		c1.9-1.8,4.3-2.8,6.6-3.9c6.4-3.1,13.1-5.7,20.1-7.3c3.3-0.7,6.7-1.1,10.1-1.4c4.9-0.5,9.1-2.4,13-5.4c3.3-2.6,6.9-4.8,10.6-6.8
		c4-2.2,7.8-1.6,11.4,1.4c3.8,3.2,6.8,7.1,9.6,11.2c3,4.3,5.6,8.8,9,12.8c6.2,7.3,9.5,15.9,11.4,25.1c1.5,7.3,4.7,13.9,9.6,19.6
		c1.7,2,1.5,3-1,3.9c-7.5,2.9-15,5.9-22.2,9.5c-1.4,0.7-2.8,1.5-4.3,2.2c-2.2,1.2-3.3,0.9-4.9-1.1c-3.8-4.7-7-9.8-10-15.1
		c-3-5.4-5.8-10.9-8.7-16.3c-0.6-1.2-1.2-2.3-2.1-3.5c-0.3,2.4,0.2,4.6,0.9,6.7c1.4,4,3.5,7.8,5.2,11.7c2.4,5.5,4.7,11.1,5.9,17
		c0.6,3,1.2,6,1,9c-0.3,4.5,1.2,8.2,3.8,11.7c0.1,0.2,0.2,0.3,0.3,0.5c1.1,1.7,0.9,2.6-0.5,4c-2.3,2.2-4.7,4.4-7,6.7
		c-3.7,3.7-7.3,7.5-11.1,11c-3.1,2.9-6.4,5.4-10.2,7.3c-6.6,3.3-13.3,3.4-20.2,1.2c-11.3-3.5-20.7-9.7-28.2-18.8
		c-1.8-2.2-3.5-4.5-5.2-6.7C243.4,267.4,243.3,265.6,244.6,263.6z"/>
	<path class="st0" d="M363.3,133.7c-2.6-0.2-5.2,0-7.7,1c-3.4,1.3-5.9,3.7-8.1,6.5c-1.1,1.4-2.3,2.9-3.5,4.3
		c-1.1,1.2-2.6,0.9-3.3-0.6c-0.2-0.5-0.4-1-0.5-1.5c-0.1-0.8-0.5-1.4-1.1-2.1c-0.8,0.9-1.3,1.7-0.7,2.8c0.4,0.7,0.7,1.5,1,2.3
		c0.2,0.7,0.5,1.4,0.9,2c0.7,1.1,1.6,1.3,2.7,0.8c0.7-0.3,1.3-0.8,1.8-1.2c2.4-2.1,4.4-4.5,6.3-7c2.2-3,5.1-4.6,8.9-4.4
		c2.4,0.1,4.9,0,7.3-0.4c1.7-0.3,3-1.7,3.1-3.3C368.2,133.7,365.8,133.9,363.3,133.7z"/>
	<path class="st0" d="M401.8,361.3c-2.3-0.7-4.6-1.3-7-1.6c-12.3-1.7-25.2,2.9-32.4,14.4c-1.7,2.7-2.5,2.8-5.1,0.9
		c-4.3-3.1-8.3-6.6-12.8-9.4c-0.6-0.4-1.2-0.8-1.8-1.1c0,0,0,0,0,0c-2.2-2.2,6.7-21.7,8.5-25.2c2.1-3.7,4.6-7.2,7.6-10.3
		c2.3-2.4,5-4.4,7.9-6c1.4-0.8,2.6-1.9,3.7-3.1c1-1,0.8-2.2,0.3-3.3c-2.8-7.2-6.1-14.1-10.3-20.6c-3.4-5.3-7.4-10.2-12-14.6
		c-4-3.8-8.5-7.1-13.3-9.9c-0.4-0.2-0.8-0.4-1.2-0.6c-0.5,1-0.1,1.6,0.7,2.2c5.2,3.7,9.7,8,13.8,12.9c5.4,6.6,9.9,13.8,14,21.2
		c1.2,2.2,2.5,4.3,3.5,6.5c1.1,2.2,0.6,3.8-1.2,5.4c-0.3,0.3-0.6,0.5-0.9,0.7c-3.2,2.3-6.6,4.4-10,6.3c-8.4,4.5-17.3,7.8-26.2,11
		c-1.7,0.6-2.4,0.4-3.7-1.1c-7-8.4-13.9-16.7-21-25c-1.6-1.9-1.5-2.4,0.6-3.8c1.7-1.1,3.4-2.1,5.1-3.2c1-0.7,2-1.5,2.8-2.5
		c-1.2-0.4-2.1-0.3-3.4,0.3c-8.1,3.8-15.8,8.4-22.9,13.9c-8.2,6.3-16.3,12.7-24.9,18.6c-4.4,3-8.8,5.9-13.2,8.7
		c-1.9,1.2-3.9,1.6-6,0.4c-6.9-3.9-13-8.7-17.8-15c-1.9-2.4-3.4-5.1-4.9-7.8c-7,4.4-14.1,8.9-21.1,13.3c-3.1,2-6.1,4.1-9.2,6
		c-3.5,2.1-7.3,3.5-11,5.2c-3.6,1.7-7.1,3.7-9.9,6.6c-4.5,4.8-4.7,10.4-0.6,15.6c1.6,2.1,3.7,3.8,5.5,5.7
		c5.3,5.3,10.3,10.8,14.6,16.9c4.4,6.5,15.5,13.9,29.4,7.8c13.9-6-3.9-10.1-4.3-11.2c-0.4-1.1-2.5,0.7-0.4,1.6
		c2.1,0.8,8.6,3.3,7,4.6c-1.6,1.4-18,8.5-28-3.2c-4.5-6.8-10-12.9-15.9-18.5c-2.4-2.3-4.8-4.6-6.2-7.6c-1.8-3.8-1.3-7.4,1.6-10.4
		c3-3.2,6.8-5.1,11-6.5c-0.3,2-0.7,3.9-1,5.8c-0.4,3.3,0,6.4,2.7,8.7c1.7,1.4,3.6,2.4,5.7,2.9c2,0.4,3.9,0.2,5.7-0.7
		c-0.6-0.4-1.1-0.6-1.7-0.7c-1.3-0.4-2.6-0.8-3.9-1.3c-3.1-1.2-5-3.3-5.3-6.7c-0.4-4,0.7-7.4,4-9.9c1.1-0.9,2.3-1.7,3.4-2.5
		c7.9-5.8,16.3-11,24.6-16.3c2.3-1.5,2.6-1.4,3.8,1.1c2.4,5,5.8,9.2,10,12.9c1.9,1.6,3.9,3.1,6.1,4.6c-4.1,2.2-8.2,4.2-12.2,6.4
		c-2.9,1.5-5.8,2.9-8.6,4.5c0.3,0,0.6-0.1,1-0.1c3.4-0.7,6.6-2,9.8-3.5c3.4-1.6,6.8-3.5,10.4-4.6c2.2-0.7,4.4-0.9,6.4,0.3
		c3,1.7,5.6,1.3,8.3-0.7c2.6-2,5.3-4,8-6c7.4-5.5,14.9-11,22.3-16.5c5-3.7,10-7.5,15.1-11.1c2.3-1.7,3.9-1.4,5.7,0.9
		c1.1,1.4,2.3,2.9,3.4,4.3c4.8,6,9.6,12,14.6,17.9c1.3,1.5,1.5,3,0.6,4.8c-1.6,3.2-2.8,6.6-4.1,10c-1.9,5-3.8,10.2-6.5,14.8
		c-2,3.4-3.1,7-3.6,10.9c-0.4,3.8,1.6,6.3,5.4,6.2c-0.7-2.3-1.5-4.5-1.8-6.8c-0.4-3.1,0.3-5.9,2.1-8.5c0.4-0.6,0.6-0.5,1.2-0.1
		c6.5,4.7,16.4,4,22.1-1.6c0.1-0.1,0.3-0.2,0.4-0.4c-1-0.1-1.9,0.3-2.7,0.6c-2.3,0.7-4.6,1.7-7,2.1c-3.2,0.6-6.4,0.5-9.2-1.6
		c-2.2-1.7-2.6-3.5-1.4-6.1c1.5-3.2,2.6-6.5,3.9-9.8c0.9-2.2,1.9-4.4,3.1-6.5c1.5-2.6,3.8-3.6,6.6-3.8c2.5-0.2,5.1,0.1,7.6-0.7
		c2.2-0.7,4.2-1.6,6.4-2.5c3-1.2,6.1-2.4,9-3.8c0.4-0.2,0.8-0.3,1.3-0.3c0.1-0.1,0.1-0.1,0.2,0c0,0-0.1,0.1-0.1,0.1
		c-1.1,2.4-2.1,4.8-3.2,7.2c-12.9,23.2-9.6,21.1-8.8,24.7v0c0,0.1,0,0.2,0.1,0.3c0.3,1.1,0.9,1.6,1.5,1.7
		c5.2,4.2,10.2,8.7,15.6,12.7c1.5,1.1,2.1,2.7,1.8,4.6c-0.3,1.8-0.8,3.5-0.9,5.4c0,1.1-0.8,1.7-1.9,1.6c-1.1,0-2.1-0.1-3.2-0.2
		c-2.6-0.3-5-1.1-5.9-4c0-0.1-0.1-0.2-0.2-0.3c-1-1.6-2-1.9-3.6-0.9c-0.8,0.5-1.6,1.1-2.3,1.7c-1.5,1.1-2.5,1.1-4,0
		c-1.3-0.9-1.2-2.3-1-3.6c0.2-1.7-0.2-2.1-1.8-2c-0.2,0-0.4,0.1-0.7,0.1c-5.1,1.4-10.3,2-15.5,1.8c-0.8,0-1.7,0.1-2.3-0.4
		c-0.6-0.4-1.1-0.4-1.6,0c0.6,0.4,1.4,0,1.9,0.7c0.5,0.8,1.3,1.1,2.2,1.2c2.8,0.4,5.5,0.7,8.3,1.2c4,0.6,7.9,1.4,11.4,3.6
		c0.8,0.5,1.5,0.7,2.4,0.2c0.3-0.2,0.8-0.2,1.2-0.2c2-0.2,3.6,0.7,5.3,1.5c1.5,0.7,3.1,0.9,4.8,0.7c3.6-0.4,5.5,0.9,5.9,4.3
		c0.1,1.1,0.2,2.3,0.4,3.4c0.4,0.1,0.8,0.2,1.2,0.3c1.5,0.2,2.1-0.4,1.8-1.8c-1-3.9-1-7.8-0.3-11.7c1.5-8.6,5.8-15.5,13.2-20.2
		c7.9-4.9,16.3-5.6,25.1-3c0.9,0.3,1.9,0.7,2.7,0.1C402.5,363.2,402,362.2,401.8,361.3z"/>
</g>
<g>
	<path class="st4" d="M163.9,121.4c0-0.1,0-0.4,0.1-0.8c0.1-0.4,0.1-0.8,0.1-1.3c0.1-0.7,0.2-1.1,0.2-1.2c0-0.1,0.1,0.1,0.3,0.6
		c0,0.7,0,1.4,0,2.1c0.1,1.2,0,1.6-0.2,1.3C164.1,122,163.9,121.8,163.9,121.4z"/>
	<path class="st0" d="M201.2,115.6c-0.3,0-0.6,0-0.8-0.1c-0.2-0.1-0.3-0.4-0.4-0.9c-0.1-0.5-0.1-1.3-0.2-2.4c0-1.1,0-2.6-0.1-4.6
		c-0.1-2-0.2-3.5-0.3-4.5c0-1,0-1.8,0.1-2.3c0.1-0.5,0.3-0.7,0.5-0.8c0.2-0.1,0.5,0,1,0c0.5,0.2,1,0.3,1.4,0.4
		c0.4,0.1,0.7,0.2,0.9,0.2c0.3,0.2,0.7,0.5,1.2,1c0.5,0.5,0.6,0.8,0.5,1c0,0.2-0.1,0.2-0.4,0.1c-0.3-0.1-0.6-0.1-0.9-0.1
		c-1.1-0.3-1.6-0.4-1.6-0.3c0,2.8,0.1,5.1,0.1,6.9c0.1,1.7,0.2,3,0.2,3.8c0,0.9,0,1.5-0.1,1.9c-0.1,0.4-0.2,0.6-0.3,0.6
		C201.8,115.8,201.5,115.7,201.2,115.6z"/>
	<path class="st0" d="M235.1,115.2c-0.3,0-0.6,0-0.8-0.1c-0.2-0.1-0.3-0.4-0.4-0.9c-0.1-0.5-0.1-1.3-0.2-2.4c0-1.1,0-2.6-0.1-4.6
		c-0.1-2-0.2-3.5-0.3-4.5c0-1,0-1.8,0.1-2.3c0.1-0.5,0.3-0.7,0.5-0.8c0.2-0.1,0.5,0,1,0c0.5,0.2,1,0.3,1.4,0.4
		c0.4,0.1,0.7,0.2,0.9,0.2c0.3,0.2,0.7,0.5,1.2,1c0.5,0.5,0.6,0.8,0.5,1c0,0.2-0.1,0.2-0.4,0.1c-0.3-0.1-0.6-0.1-0.9-0.1
		c-1.1-0.3-1.6-0.4-1.6-0.3c0,2.8,0.1,5.1,0.1,6.9c0.1,1.7,0.2,3,0.2,3.8c0,0.9,0,1.5-0.1,1.9c-0.1,0.4-0.2,0.6-0.3,0.6
		C235.7,115.3,235.4,115.3,235.1,115.2z"/>
	<path class="st0" d="M95.3,192.9c0.4-0.5,0.6-1.1,0.6-1.8c0-0.7,0-1.9,0-3.8c0-1.1,0.1-2.6,0.3-4.4c0.2,0,0.5,0.2,0.9,0.8
		c0.5,0.5,0.9,1.1,1.3,1.8c0.4,0.4,0.7,0.8,0.9,1.4c0.2,0.5,0.3,1.7,0.3,3.3c0,2.2-0.2,3.8-0.6,4.6c-0.4,0.9-1.2,1.7-2.3,2.4
		c-0.5,0.4-1.1,0.7-1.7,0.8c-0.6,0.2-2.1,0.3-4.5,0.3c-1.3,0-2.5,0-3.8,0c-1.3,0-2.1,0-2.5,0c-0.5,0.2-0.9,0.5-1,0.7
		c-0.1,0.3-0.3,1.1-0.4,2.6c0,0.8,0,2.2-0.2,4.4c-0.1,2.1-0.3,4.2-0.4,6.2c0,2.2,0,4.5-0.2,6.9c-0.1,2.4-0.3,4.3-0.4,5.6
		c-0.5,4.8-0.8,8.5-1,11c-0.2,2.6-0.3,4.4-0.2,5.5c0,1.3-0.2,2.3-0.6,3.2c-0.4,0.8-1,1.6-1.9,2.4c-0.8,0.4-1.4,0.6-1.9,0.7
		c-0.5,0-1.7,0.1-3.5,0.1c-1.9,0-3,0-3.4-0.1c-0.4-0.1-1-0.4-1.7-0.9c-0.6-0.4-1.2-0.9-1.9-1.4c0-0.2,0.3-0.3,1-0.3s1.4-0.1,2.4-0.1
		c2,0.2,3.6,0.1,4.7-0.3c1.2-0.4,2-1,2.6-2c0.4-0.7,0.6-1.5,0.8-2.4c0.2-0.9,0.4-2.8,0.5-5.7c0.1-1.8,0.3-3.9,0.5-6.3
		c0.2-2.4,0.5-4.3,0.8-5.8c0.1-1.4,0.3-3.5,0.4-6.2c0.1-2.7,0.2-5.2,0.2-7.4c0.1-3.1,0.2-5.5,0.3-7.2c0.1-1.7,0.2-3,0.3-3.9
		c0.1-0.9,0.2-1.4,0.4-1.6c0.1-0.2,0.4-0.4,0.7-0.5c0.2,0,0.9-0.1,2.1-0.2c1.3-0.1,2.6-0.2,4.1-0.2c2.9-0.2,4.9-0.4,5.8-0.7
		C94.1,194.2,94.8,193.7,95.3,192.9z"/>
	<path class="st0" d="M96.1,168c0.9-0.5,1.4-1.2,1.6-2.1c0.2-0.9,0.2-2.4,0.2-4.6c0-1.3,0.1-2.6,0.3-4c0.4,0,0.8,0.2,1.3,0.7
		c0.5,0.5,0.9,0.9,1.3,1.4c0.2,0.6,0.3,1.2,0.3,1.9c0,0.7,0.1,1.8,0.1,3.2c0,2.2-0.1,3.7-0.5,4.6c-0.3,0.9-1.1,1.7-2.4,2.4
		c-0.8,0.4-1.4,0.6-1.9,0.6c-0.5,0-1.9-0.2-4.3-0.5c-1.5-0.2-3-0.3-4.4-0.4c-1.4-0.1-2.4-0.2-2.9-0.2c-0.9,0.2-1.5,0.5-1.6,0.9
		c-0.1,0.4-0.2,1.5-0.2,3.5c0.2,2.2,0.2,3.5,0.1,3.9c-0.1,0.4-0.8,0.6-1.9,0.6c-0.4,0.2-0.6,0.1-0.7-0.2c-0.1-0.4-0.2-1.7-0.4-4.2
		c0-1.1,0-2.3,0-3.5c0-1.2,0-2,0-2.4c-0.2-0.7-0.1-1.1,0.4-1.2c0.5-0.1,2.3-0.1,5.4,0c2,0.1,3.6,0.2,4.8,0.2c1.2,0,2.2,0,2.9,0
		c0.7,0,1.2-0.1,1.6-0.2C95.5,168.4,95.8,168.2,96.1,168z"/>
	<path class="st0" d="M132.1,242.9c0.5-0.5,0.9-1.2,1.1-2.2s0.3-2.1,0.2-3.5c0-0.7,0-1.3,0-1.9c0-0.6,0.1-0.9,0.2-0.9
		c0,0.1,0.2,0.5,0.7,1c0.5,0.5,0.8,0.9,1,1.2c0.1,0.1,0.2,0.5,0.3,1.2c0.1,0.7,0.1,1.4,0.1,2.1c0,1.7-0.1,2.9-0.3,3.7
		c-0.2,0.8-0.6,1.4-1.3,2c-0.3,0.2-0.6,0.3-0.8,0.4c-0.2,0.1-0.6,0.2-1.1,0.2c-0.5,0.1-1.2,0.1-2.1,0.2c-0.9,0-2.1,0.1-3.7,0.2
		c-1.8,0-3.4,0.1-4.8,0.2c-1.4,0.1-2.1,0.2-2.2,0.2c-0.1,0-0.7,0.1-1.6,0.2c-0.9,0.1-2,0.2-3.1,0.2c-1.7,0.2-2.8,0.2-3.5,0.2
		c-0.6,0-1.2-0.2-1.6-0.5c-0.1-0.1-0.3-0.2-0.6-0.3s-0.4-0.2-0.6-0.2c-0.1,0-0.3,0-0.4,0c-0.2,0-0.3-0.2-0.4-0.5
		c-0.2-0.3-0.5-0.5-0.8-0.6c-0.1,0-0.4-0.2-0.8-0.7c-0.4-0.4-0.5-0.7-0.4-0.7c0.5,0.2,0.8,0.4,1.2,0.5c1.2,0.5,4.7,0.6,10.6,0.2
		c0.9-0.1,2.2-0.3,3.7-0.4c1.6-0.2,2.9-0.2,4.1-0.3c2.6-0.1,4.3-0.3,5.1-0.4C131.1,243.6,131.7,243.3,132.1,242.9z"/>
	<path class="st0" d="M131.3,176c-0.1-0.5-0.2-1.1-0.3-1.7c0-0.6-0.1-1-0.1-1.1c0-0.3,0-0.4,0-0.5c0,0,0.1-0.1,0.3-0.1
		c0.8,0.4,1.4,1.2,1.8,2.3c0.3,1.1,0.5,2.6,0.5,4.4c0.1,1.2,0.1,1.9,0.1,2.1c-0.1,0.3-0.4,0.7-0.9,1.2c-0.3,0.3-0.6,0.5-0.8,0.7
		c-0.2,0.1-0.7,0.3-1.3,0.4c-0.6,0.1-1.5,0.2-2.7,0.2c-1.2,0-2.8,0.1-4.9,0.2c-2.1,0-3.7,0.1-4.8,0.2c-1.1,0.1-2,0.2-2.5,0.5
		c-0.5,0.2-0.8,0.6-0.9,1.1c-0.1,0.5-0.1,1.2-0.1,2c-0.1,1.7-0.2,2.7-0.4,3c-0.1,0.3-0.5,0.5-1,0.6c-0.6,0-0.9-0.2-1-0.6
		c-0.1-0.4-0.2-1.8-0.2-4.2c0-1.2,0-2.1,0.1-2.7c0.1-0.7,0.3-1.2,0.8-1.5c0.5-0.3,1.2-0.5,2.2-0.6c1-0.1,2.5-0.2,4.4-0.3
		c2,0,3.6,0,4.8-0.1c1.2,0,2.2-0.1,2.9-0.1c0.7-0.1,1.2-0.2,1.6-0.3c0.3-0.1,0.7-0.4,1-0.7c0.7-0.5,1.1-1.1,1.3-1.8
		C131.4,178,131.4,177.1,131.3,176z"/>
	<path class="st0" d="M123.5,202.6c0.8-0.7,1.3-1.4,1.4-1.9c0.1-0.6,0.2-1.7,0.2-3.4c0.1-1.5,0.2-2.4,0.3-2.7
		c0.1-0.3,0.4-0.2,0.8,0.2c0.5,0.6,0.9,1.2,1.3,1.9c0.3,0.7,0.5,1.7,0.5,3.1c0,2.4-0.3,4-1.1,4.9c-0.8,0.8-2.2,1.3-4.3,1.3
		c-0.6,0-1.3,0-2.3,0c-1,0-1.8,0-2.5,0c-0.6,0.1-1.1,0.3-1.5,0.4c-0.3,0.2-0.6,0.7-0.7,1.5c-0.1,0.8-0.2,2.1-0.2,3.9
		c0,1.7,0,4.2,0.1,7.4c0.1,3.3,0.1,5.8,0.2,7.6c0,1.8,0,3.1,0,4c0,0.8-0.1,1.3-0.3,1.5c-0.1,0.2-0.3,0.3-0.6,0.3
		c-0.1,0-0.3,0.1-0.6,0.2c-0.2,0.1-0.4,0.2-0.5,0.2c-0.1,0-0.2-0.2-0.2-0.6c-0.1-0.4-0.1-1.2-0.1-2.3c0-1.1,0-2.6-0.1-4.5
		s-0.1-4.3-0.1-7.2c0-3.6-0.1-6.3-0.1-8.2c0-1.9,0-3.3,0-4.2c0-0.9,0.1-1.4,0.1-1.6c0.1-0.2,0.2-0.3,0.4-0.4c0.3,0,0.9-0.1,1.9-0.2
		c1-0.1,2-0.2,3.2-0.2c2-0.1,3.2-0.2,3.7-0.3C122.8,203.1,123.2,202.9,123.5,202.6z"/>
	<path class="st0" d="M165.2,242.5c0.5-0.5,0.9-1.2,1.1-2.2s0.3-2.1,0.2-3.5c0-0.7,0-1.3,0-1.9c0-0.6,0.1-0.9,0.2-0.9
		c0,0.1,0.2,0.5,0.7,1c0.5,0.5,0.8,0.9,1,1.2c0.1,0.1,0.2,0.5,0.3,1.2c0.1,0.7,0.1,1.4,0.1,2.1c0,1.7-0.1,2.9-0.3,3.7
		c-0.2,0.8-0.6,1.4-1.3,2c-0.3,0.2-0.6,0.3-0.8,0.4c-0.2,0.1-0.6,0.2-1.1,0.2c-0.5,0.1-1.2,0.1-2.1,0.2c-0.9,0-2.1,0.1-3.7,0.2
		c-1.8,0-3.4,0.1-4.8,0.2c-1.4,0.1-2.1,0.2-2.2,0.2c-0.1,0-0.7,0.1-1.6,0.2c-0.9,0.1-2,0.2-3.1,0.2c-1.7,0.2-2.8,0.2-3.5,0.2
		s-1.2-0.2-1.6-0.5c-0.1-0.1-0.3-0.2-0.6-0.3c-0.3-0.1-0.4-0.2-0.6-0.2c-0.1,0-0.3,0-0.4,0c-0.2,0-0.3-0.2-0.4-0.5
		c-0.2-0.3-0.5-0.5-0.8-0.6c-0.1,0-0.4-0.2-0.8-0.7c-0.4-0.4-0.5-0.7-0.4-0.7c0.5,0.2,0.8,0.4,1.2,0.5c1.2,0.5,4.7,0.6,10.6,0.2
		c0.9-0.1,2.2-0.3,3.7-0.4c1.5-0.2,2.9-0.2,4.1-0.3c2.6-0.1,4.3-0.3,5.2-0.4C164.2,243.2,164.8,242.9,165.2,242.5z"/>
	<path class="st0" d="M164.3,175.6c-0.1-0.5-0.2-1.1-0.3-1.7c0-0.6-0.1-1-0.1-1.1c0-0.3,0-0.4,0-0.5c0,0,0.1-0.1,0.3-0.1
		c0.8,0.4,1.4,1.2,1.8,2.3c0.3,1.1,0.5,2.6,0.5,4.4c0.1,1.2,0.1,1.9,0.1,2.1c-0.1,0.3-0.4,0.7-0.9,1.2c-0.3,0.3-0.6,0.5-0.8,0.7
		c-0.2,0.1-0.7,0.3-1.3,0.4c-0.6,0.1-1.5,0.2-2.7,0.2c-1.2,0.1-2.8,0.1-4.9,0.2c-2.1,0-3.7,0.1-4.8,0.2c-1.1,0.1-2,0.2-2.5,0.5
		c-0.5,0.2-0.8,0.6-0.9,1.1c-0.1,0.5-0.1,1.2-0.1,2c-0.1,1.7-0.2,2.7-0.4,3c-0.1,0.3-0.5,0.5-1,0.6c-0.6,0-0.9-0.2-1-0.6
		c-0.1-0.4-0.2-1.8-0.2-4.2c0-1.2,0-2.1,0.1-2.7c0.1-0.7,0.3-1.2,0.8-1.5c0.5-0.3,1.2-0.5,2.2-0.6c1-0.1,2.5-0.2,4.4-0.3
		c2,0,3.6,0,4.8-0.1c1.2,0,2.2-0.1,2.9-0.1c0.7-0.1,1.2-0.2,1.6-0.3c0.3-0.1,0.7-0.4,1-0.7c0.7-0.5,1.1-1.1,1.3-1.8
		C164.4,177.6,164.5,176.7,164.3,175.6z"/>
	<path class="st0" d="M156.6,202.1c0.8-0.7,1.3-1.4,1.4-1.9c0.1-0.6,0.2-1.7,0.2-3.4c0.1-1.5,0.2-2.4,0.3-2.7
		c0.1-0.3,0.4-0.2,0.8,0.2c0.5,0.6,0.9,1.2,1.3,1.9c0.3,0.7,0.5,1.7,0.5,3.1c0,2.4-0.3,4-1.1,4.9c-0.8,0.8-2.2,1.3-4.3,1.3
		c-0.6,0-1.3,0-2.3,0c-1,0-1.8,0-2.5,0c-0.6,0.1-1.1,0.3-1.5,0.4c-0.3,0.2-0.6,0.7-0.7,1.5c-0.1,0.8-0.2,2.1-0.2,3.9
		c0,1.7,0,4.2,0.1,7.4c0.1,3.3,0.1,5.8,0.2,7.6c0,1.8,0,3.1,0,4c0,0.8-0.1,1.3-0.3,1.5c-0.1,0.2-0.3,0.3-0.6,0.3
		c-0.1,0-0.3,0.1-0.6,0.2c-0.2,0.1-0.4,0.2-0.5,0.2c-0.1,0-0.2-0.2-0.2-0.6c-0.1-0.4-0.1-1.2-0.1-2.3c0-1.1,0-2.6-0.1-4.5
		s-0.1-4.3-0.1-7.2c0-3.6-0.1-6.3-0.1-8.2c0-1.9,0-3.3,0-4.2c0-0.9,0.1-1.4,0.1-1.6c0.1-0.2,0.2-0.3,0.4-0.4c0.3,0,0.9-0.1,1.9-0.2
		c1-0.1,2-0.2,3.2-0.2c2-0.1,3.2-0.2,3.7-0.3C155.8,202.7,156.3,202.5,156.6,202.1z"/>
	<path class="st0" d="M170.4,183.4c0.3,0,0.9,0,1.9-0.1c0.9,0,2-0.1,3-0.3c0.9-0.2,1.8-0.2,2.6-0.3c0.8,0,1.3-0.1,1.5-0.1
		c0.2,0.5,0.3,0.9,0.3,1.2c0,0.8-0.1,1.2-0.4,1.4c-0.3,0.2-1.3,0.3-2.9,0.5c-0.9,0-1.8,0-2.6,0c-0.8,0-1.3,0-1.4,0
		c-0.5-0.1-1-0.4-1.5-0.8c-0.5-0.4-1-0.8-1.3-1.3c0-0.1,0-0.2,0.1-0.3C169.6,183.4,169.9,183.4,170.4,183.4z"/>
	<path class="st0" d="M203.3,179.9c0.4-0.6,0.7-1.1,0.8-1.5c0.1-0.4,0.1-1.4,0.1-3.1c0-0.9,0-2,0-3.3c0.3,0,0.7,0.2,1.1,0.5
		c0.4,0.3,0.8,0.7,1.1,1c0.1,0.3,0.2,0.8,0.3,1.4c0,0.6,0.1,1.6,0.1,3c0.2,1.9,0.1,3.2-0.1,3.8c-0.2,0.7-0.8,1.3-1.7,1.7
		c-0.5,0.3-1,0.5-1.5,0.5c-0.5,0-1.9,0.1-4,0.1c-2.2,0-3.4,0.1-3.8,0.4c-0.4,0.2-0.7,0.8-0.8,1.9c0,0.2,0,1.2,0,2.9
		c0,1.7,0,3.8,0,6.5c0,2.7,0,5.7,0,9.1c0,3.4,0.1,7,0.1,10.8c0,6.9,0,12.2,0,15.9c0,3.7,0,6.5,0,8.3c0,1.8-0.1,2.9-0.1,3.4
		c-0.1,0.5-0.2,0.8-0.3,1.2c-0.2,0.3-0.4,0.6-0.8,0.9c-0.4,0.3-0.7,0.5-1,0.6c-0.2,0.2-0.7,0.3-1.3,0.5c-0.6,0.1-1.3,0.2-2,0.3
		c-0.7,0.1-1.4,0.1-2,0.1s-1.1,0-1.4-0.1c-0.3,0-0.8-0.3-1.5-0.9c-0.7-0.6-1.1-1-1.3-1.2c0-0.1,0.3-0.3,1-0.4
		c0.7-0.1,1.5-0.2,2.4-0.2c2-0.2,3.3-0.4,4-0.7c0.7-0.3,1.3-0.9,1.8-1.9c0.1-0.3,0.1-0.7,0.1-1.3c0-0.5,0-1.7,0-3.5c0-1.8,0-4.4,0-8
		c0-3.5,0-8.4,0-14.7c0-3.6-0.1-7.1-0.1-10.4c0-3.3,0-6.3,0-8.9c0-2.6,0-4.8,0-6.5c0-1.7,0-2.8,0-3.2c0.1-1.5,0.3-2.4,0.7-2.7
		c0.3-0.3,1.4-0.4,3.3-0.4c2.3,0,3.9-0.1,4.9-0.4C202.1,180.9,202.9,180.5,203.3,179.9z"/>
	<path class="st2" d="M52.7,281.5l-0.1-5.4c-0.1-4.8,0.1-9.6,0-14.5c0-2.6-0.2-5.3-0.2-8c0-0.3,0.3-0.5,0.6-0.6
		c0.3,0,1.8-0.1,2.1-0.1c2,0,4,0,5.9,0c0.5,0,1.6,0,1.6,0.1l0.1,0.2l0,1.9c0,0.1-0.1,0.2-0.3,0.2c0,0-0.2-0.1-0.3-0.1
		c-2-0.1-3.5-0.1-5.5-0.1l-1.7,0l-0.2,0.2c0,0.9,0.1,2.2,0,3.1l0.1,7.4c0,0.3,0.8,0.3,0.9,0.3c1.1,0.1,2.3,0.1,3.5,0.1
		c0.2,0.1,0.3,0.2,0.3,0.4l0,1.6l-0.2,0.2l-4.3,0.1l-0.2,0.1l0,1.1c0,2.2,0.1,4.3,0.2,6.5c0,0.5,0.3,4.9,0.3,5.4l0,0.1
		c0,0.3-0.3,0.5-0.7,0.5c-0.1,0-0.5-0.1-0.6-0.1l-1.2,0C52.8,281.8,52.8,281.6,52.7,281.5z"/>
	<path class="st2" d="M65.8,255.3c0.8-0.6,1.9-1.2,3-1.2l0.2,0c4.8,0.1,5.5,5.1,5.7,9.2c0,0.4,0,0.8,0.1,1.1c0,0.4,0,0.7,0,1
		c0.2,3.8,0,7.5-0.9,11.2c-0.5,2.3-1.9,4.7-4.7,4.9l-0.2,0c-5.1,0.1-6.6-6.5-6.8-10.5C61.9,265.2,62.7,257.7,65.8,255.3z
		 M65.2,275.2c0.5,1.6,2,4.1,4,4.1c0.1,0,0.5-0.1,0.6-0.1c1.9-0.6,3.6-4.4,3-15.8l0-0.3c-0.1-2.5-0.7-6.8-3.8-6.9
		c-0.1,0-0.3,0-0.4,0c-3.9,0.2-4.4,9.3-4.1,14.4C64.5,272.2,64.7,273.7,65.2,275.2z"/>
	<path class="st2" d="M80.7,268.6c-0.2,0-0.6,0.1-0.7,0.1c-0.6,0.1-0.4,1.5-0.4,1.9c0,3.1,0.5,6.3,0.7,9.6l0.1,1.6l-1.9,0l-0.1-0.1
		c-0.1-2.1-0.4-4.1-0.6-6.1c-0.1-0.8-0.3-4.7-0.6-19.1c-0.1-0.7-0.2-1.3-0.2-2c0-0.9,0.9-1,1.6-1l3,0c3.6,0.2,4.5,4.8,4.5,7.6
		c0,3.1-0.7,5.3-2.8,6.6c1.9,1.1,2.9,3,3.4,7.1c0.2,1.7,0.3,3.3,0.3,5l0,0.4c0,0.4-0.1,1.2-0.1,1.2l-0.1,0.1l-1.6,0l-0.1-0.1
		l-0.4-5.5c-0.3-2.6-0.7-5.6-2.9-6.8c-0.2-0.1-0.8-0.3-1-0.3C80.8,268.6,80.7,268.6,80.7,268.6z M80,266.7c3.1,0,4-3.3,4-5.9
		c-0.1-4.6-1.2-5.6-4.3-5.6c-0.4,0-0.4,0.4-0.4,0.7l0.1,4.1C79.5,261.6,79.2,266.7,80,266.7z"/>
	<path class="st0" d="M95.9,312.6c-2.9-0.3-5-0.7-6.6-1.1c-1.5-0.4-2.4-1-2.8-1.7c0-0.3,0-0.5,0.1-0.6c0.1-0.1,0.3-0.1,0.6-0.1
		c0.7,0.4,1.7,0.6,3.1,0.6c1.4,0,3,0,4.8,0c2.5,0,4.1,0.1,4.7,0.4c0.7,0.3,1,0.6,1,0.9c0,0.7-0.2,1.1-0.6,1.3
		C99.8,312.5,98.3,312.6,95.9,312.6z"/>
	<path class="st0" d="M98.5,294.7c-0.7,0-1.1-0.2-1.1-0.5c0-0.4,0.3-1.6,1-3.8c1-2.2,1.6-3.2,1.8-3.2c0.2,0,0.3,1.1,0.3,3.2
		c0,1.1,0,2.5,0.1,4.3C99.8,295,99.1,295,98.5,294.7z"/>
	<path class="st0" d="M117.9,309.4c1-0.4,1.8-1,2.2-1.9c0.4-0.9,0.6-2.4,0.6-4.6c0-1.8,0.2-2.8,0.7-3.2c0.5-0.4,1,0,1.4,1
		c0.3,0.6,0.6,1.3,0.8,2.2s0.3,1.8,0.3,2.8c0,0.9,0,1.8,0,2.6c-0.1,0.8-0.2,1.4-0.3,1.7c-0.4,0.4-0.8,0.8-1.4,1.1
		c-0.6,0.4-1,0.7-1.4,1.1c-0.7,0.2-1.3,0.5-1.7,0.6c-0.4,0.2-0.7,0.6-0.8,1.3c-0.2,0.7-0.2,1.7-0.2,3c0,1.3,0,3.2,0,5.7
		c0,2.5,0,4.5,0,6c0,1.5-0.1,2.6-0.2,3.4c-0.1,0.8-0.2,1.4-0.4,1.8c-0.2,0.4-0.4,0.7-0.7,1.1c-0.7,0.6-1.8,1-3,1.2
		c-1.3,0.2-2.5,0.2-3.8,0.1c-1.2-0.1-2.3-0.4-3.3-0.8c-0.9-0.4-1.4-1-1.4-1.8c1.7,0,2.9,0,3.6,0c1.4,0,2.4-0.2,3-0.6
		c0.6-0.4,1.2-0.9,1.9-1.6c0.3-0.3,0.6-0.7,0.7-1c0.2-0.3,0.3-0.9,0.4-1.7c0.1-0.8,0.2-1.8,0.2-3.2c0-1.4,0-3.2,0-5.5
		c0-2.5,0-4.4,0-5.8c0-1.4,0.1-2.4,0.2-3c0.2-0.7,0.4-1.1,0.8-1.3C116.6,309.9,117.2,309.7,117.9,309.4z"/>
	<path class="st0" d="M116.3,295.2c-0.4,0-0.7-2.1-1.1-6.2c-0.4-4.2-0.6-10.2-0.7-18c0-3.6-0.1-7.9-0.2-12.9
		c0.6,1.1,1.1,1.8,1.5,2.1c0.3,0.7,0.6,3,0.9,6.8c0.2,3.8,0.4,7.8,0.4,12.1c0.1,4.3,0,8-0.1,11.4
		C116.9,293.8,116.7,295.4,116.3,295.2z"/>
	<path class="st2" d="M128,309.5l2.3,0c0.2,0,0.2,3.4,0.3,3.8c0,0.2,0.2,1.7,0.2,1.9c0.2,1.1,1,1.8,2.2,1.8l0.8,0
		c2.6,0.1,5.6,0.1,5.5-6.4c-0.1-10.3-11.7-8.4-12.1-16.1c-0.1-0.3-0.2-1.7-0.2-2c0.1-2.2,0.2-9.9,6.1-10c2,0.1,4.6,0.7,5.3,3
		c0.5,1.7,0.7,3.3,0.7,5l0,0.9c0,0.1,0,0.5-0.3,0.5l-2.3,0c-0.3,0-0.1-0.5-0.1-1.6c0-1.6-0.5-4.8-2.7-4.8c-1.4,0-2.9,1.7-3.2,3
		c-0.5,1.6-1,6.4,0.8,7.8c2.6,2.1,6.9,4.3,9.5,8.2c1.1,1.7,1.4,3.7,1.4,5.7c0.1,5-1.3,9.8-7.6,9.9c-4.7,0.1-7.1-2.2-7.1-6.9
		C127.5,312,127.5,309.5,128,309.5z"/>
	<path class="st2" d="M202.3,304.4l2.3,0c0.2,0,0.2,3.4,0.3,3.8c0,0.2,0.2,1.7,0.2,1.9c0.2,1.1,1,1.8,2.2,1.8l0.8,0
		c2.6,0.1,5.6,0.1,5.5-6.4c-0.1-10.3-11.7-8.4-12.1-16.1c-0.1-0.3-0.2-1.7-0.2-2c0.1-2.2,0.2-9.9,6.1-10c2,0.1,4.6,0.7,5.3,3
		c0.5,1.7,0.7,3.3,0.7,5l0,0.9c0,0.1,0,0.5-0.3,0.5l-2.3,0c-0.3,0-0.1-0.5-0.1-1.6c0-1.6-0.5-4.8-2.7-4.8c-1.4,0-2.9,1.7-3.2,3
		c-0.5,1.6-1,6.4,0.8,7.8c2.6,2.1,6.9,4.3,9.5,8.2c1.1,1.7,1.4,3.7,1.4,5.7c0.1,5-1.3,9.8-7.6,9.9c-4.7,0.1-7.1-2.2-7.1-6.9
		C201.9,306.9,201.8,304.4,202.3,304.4z"/>
	<path class="st2" d="M143.9,281c-0.4-4.1,0.5-5.7,3.1-9.6c0.7-1-2.2-1.5-2.4-4.6c0-0.3,0-0.5,0-0.8c-0.1-4.5,3.1-8.8,7.9-8.9l0.5,0
		c0.2,0,1.3,0.2,1.6,0.3c1.2,0.2,2.6,1.4,3.3,2.6l0.5,1.6l0.1,1.1c0.2,2-0.3,3.5-1.4,4.7c-0.5,0.4-1.8,0.7-2.4,0.7
		c-0.8,0-2.5-0.2-2.6-1c0-0.2,0.4-1.1,0.7-1.5c0.2,0,0.3,0,0.4,0.1c0.4,0.2,0.9,0.3,1.1,0.3c1.3,0,2.1-1,2.1-2.2l0-0.2
		c-0.2-2-1.6-4.2-3.9-4.2c-2.1,0-3.9,2-4.6,3.8c-0.4,0.9-0.4,2.3-0.3,3.4c0.2,2.3,3.2,3.4,3.2,3.7c0,0.3-0.2,1.9-0.2,2.1
		c-0.3,0-1.1,0.5-1.7,1c-2.1,1.7-2.7,4-2.4,6.7c0.2,2,0.8,4.3,2.6,5.7c0.9,0.7,2.5,0.7,3.6,0.7c0.9,0,1.9-0.4,2.7-0.8
		c2.4-1.4,2.6-3.3,2.5-5.7l0-0.1c0-0.6-0.1-1.7-0.9-1.7l-0.4,0c-1.7,0.5-2.4,0.8-2.7,0.9c-0.1,0-0.2-0.3-0.2-0.4c0-0.1,0-0.1,0-0.2
		c-0.2-0.6-0.5-1.3-0.6-2c0-0.1,0.1-0.4,0.3-0.2c0.2,0,0.5,0,0.7,0c1.9-0.2,3.9-0.7,8.3-2.2c0.2,0,0.2,0.3,0.2,0.6l0,0.4l0.2,0.8
		c0.2,0.2,0.2,0.5,0.2,0.5l0,0.4c-0.1,0.1-0.4,0.1-0.7,0.2c-0.1,0-0.4,0-0.4,0c-0.5,0-1.5,0.2-1.5,0.9l0,0.5c0,0.2,0.1,0.4,0.1,0.6
		c0.1,0.3,0.1,0.6,0.1,0.9c0.1,1.1,0.1,2.2-0.1,3.4c-0.4,2.5-3.3,4.4-5.5,5C145.6,290,144.2,284.5,143.9,281z"/>
	<path class="st2" d="M68.5,158.8c0.9-0.9,2.2-1.7,3.9-2.3c1.7-0.6,4.1-1.1,7-1.6c0.4,0,0.8,0,1.2,0c0.4,0,0.8,0,1,0
		c0.4,0,1.3,0.1,2.6,0.2c1.4,0.2,2.8,0.3,4.3,0.5c1.7,0.1,3,0.2,4,0.3c0.9,0.1,1.6,0.3,2.1,0.6c0.5,0.3,0.7,0.8,0.8,1.4
		c0.1,0.6,0.1,1.5,0.2,2.7c0.2,0.9,0.2,1.8,0.2,2.6c-0.1,0.8-0.1,1.3-0.1,1.5c-0.3,1.4-1.9,1.9-4.8,1.5c-0.9-0.1-2.2-0.1-3.7-0.2
		c-1.5-0.1-3-0.1-4.4-0.1c-1.4,0-2.7,0-3.7,0c-1.1,0-1.6,0.1-1.7,0.2c-0.2,0.2-0.3,0.5-0.3,0.7c0,0.3,0.1,0.8,0.3,1.5
		c0,0.6,0.1,1.6,0.2,3.1c0.1,1.5,0.2,3.3,0.2,5.3c0,2.6,0.1,4.3,0.1,5.1c0,0.8,0.2,1.2,0.4,1.2c3.8-0.6,7-0.9,9.4-1s4.1,0,4.8,0.4
		c0.5,0.4,0.8,0.9,1,1.5c0.1,0.6,0.2,2,0.2,3.9c0,1.5,0,2.4-0.1,2.8c-0.1,0.4-0.3,0.8-0.7,1.2c-0.3,0.2-0.5,0.4-0.8,0.5
		c-0.2,0.1-0.6,0.2-1.1,0.3c-0.5,0.1-1.2,0.2-2.2,0.2c-1,0.1-2.3,0.1-4,0.2c-1.9,0-3.5,0.1-4.9,0.3c-1.4,0.2-2.2,0.3-2.4,0.5
		c-0.3,3.8-0.5,7-0.6,9.6c0,2.4,0,4.6,0,6.5c0,1.9-0.1,3.7-0.2,5.4c-0.1,1.7-0.2,3.3-0.4,4.8c-0.1,1.6-0.3,3.2-0.6,4.9
		c-0.2,1.2-0.4,2.4-0.5,3.9c-0.1,1.4-0.2,2.7-0.1,3.8c-0.1,2.3-0.2,4.1-0.3,5.4c-0.1,1.3-0.4,2.3-0.8,2.9c-0.4,0.6-0.9,1-1.6,1.1
		c-0.7,0.1-1.7,0.2-3,0.2c-1.5,0-2.5,0-2.9,0c-0.5,0-1-0.2-1.5-0.6c-0.4-0.4-0.6-0.7-0.7-0.9c-0.1-0.2-0.1-0.9-0.1-2
		c0-0.7,0-1.8,0.1-3.3c0.1-1.4,0.2-3,0.4-4.8c0.1-1.7,0.3-3.5,0.5-5.2s0.4-3.4,0.6-4.8c0.2-2.2,0.4-5.8,0.6-10.8S67,199.6,67,194
		c0.1-5.6,0.1-10.9,0.1-16c0-5-0.1-8.7-0.3-10.9c-0.2-2.5-0.2-4.4,0-5.4C67,160.7,67.6,159.7,68.5,158.8z"/>
	<path class="st2" d="M103.3,174.4c0-0.1,0.2-0.3,0.5-0.7c0.3-0.4,0.7-0.7,1.1-1c0.4-0.2,0.8-0.4,1.1-0.6c0.3-0.1,0.9-0.3,1.6-0.4
		c0.7-0.1,1.8-0.2,3.2-0.2c1.4,0,3.4-0.1,6-0.1c2.8,0,4.9,0,6.4,0c1.5,0,2.6,0.1,3.4,0.2c0.7,0.1,1.2,0.3,1.4,0.6
		c0.2,0.3,0.4,0.6,0.6,1.1c0.1,0.3,0.2,0.7,0.4,1.3c0.1,0.5,0.2,1,0.2,1.6c0.1,1,0.2,1.6,0.2,1.8c0,0.2-0.2,0.6-0.6,1
		c-0.2,0.2-0.3,0.4-0.5,0.5c-0.2,0.1-0.5,0.2-1.1,0.3c-0.6,0.1-1.4,0.1-2.6,0.1c-1.2,0-2.8,0-4.9,0.1c-2.1,0.1-3.7,0.2-4.9,0.3
		c-1.2,0.1-2,0.1-2.6,0.2c-0.6,0.1-0.9,0.1-1.1,0.2c-0.2,0.1-0.3,0.2-0.4,0.3c-0.1,0.4-0.2,1-0.2,1.7c0,0.7,0,2.4,0,5
		c0,1.5,0.1,2.6,0.1,3.4c0.1,0.8,0.3,1.4,0.7,1.7c0.4,0.4,1,0.6,1.8,0.6c0.8,0,1.9,0.1,3.4,0c1.8,0,3.1,0,4.1,0c0.9,0,1.6,0.2,2,0.5
		c0.4,0.3,0.6,0.7,0.6,1.3c0,0.6,0,1.4,0,2.5c0,1.3,0,2.1,0,2.5c0,0.4-0.2,0.7-0.5,0.8c-0.3,0.3-0.9,0.5-1.9,0.6
		c-1,0.1-2.8,0.2-5.6,0.3c-1.2,0.1-2.2,0.2-2.8,0.3c-0.6,0.1-1.1,0.2-1.4,0.4c-0.3,0.2-0.4,0.5-0.4,1c0,0.5,0.1,1.1,0.2,1.9
		c0,1,0.1,2.5,0.2,4.6c0.1,2,0.1,4.2,0.1,6.5c0,2.3,0,4.7,0,6.9c0,2.3,0,4.2,0,5.7c0,2.1,0.1,3.3,0.2,3.7c0.1,0.4,0.3,0.7,0.7,1
		c0.3,0.3,0.5,0.5,0.7,0.5c0.2,0,0.4,0,0.7,0c0.1,0,1-0.1,2.7-0.2c1.7-0.1,3.7-0.2,5.9-0.2c2.5-0.1,4.4-0.1,5.7-0.2
		c1.3,0,2.2,0,2.7,0.3c0.5,0.2,0.8,0.6,0.8,1.1c0,0.5,0,1.3,0,2.4c0,0.8,0,1.6,0,2.2c0,0.6,0,1,0,1.1c-0.2,0.3-0.6,0.6-1.3,0.8
		c-0.6,0.2-1.6,0.4-2.9,0.5c-1.3,0.1-3,0.2-5.2,0.4c-2.1,0.1-4.8,0.2-8,0.3c-1.8,0-3.1,0-4.1,0.1c-0.9,0-1.7,0-2.2-0.1
		c-0.5-0.1-0.9-0.2-1.2-0.3c-0.3-0.1-0.6-0.4-0.9-0.7c-0.9-0.8-1.6-1.7-2.2-2.7c-0.2-0.4-0.4-0.8-0.5-1.1c-0.1-0.3-0.2-0.9-0.3-1.6
		c0-0.8-0.1-1.9-0.1-3.3c0-1.5,0-3.5,0.1-6.2c0-1.5,0-3,0-4.6c0-1.6,0-3.2,0-4.8c0-1.6-0.1-3-0.1-4.4c-0.1-1.4-0.1-2.5-0.1-3.5
		c0-0.9-0.1-2.1-0.1-3.6c-0.1-1.5-0.1-3.1-0.2-4.9c0-1.8-0.1-3.6-0.1-5.5c0-1.9-0.1-3.7-0.1-5.5c-0.1-3.1-0.2-5.6-0.3-7.3
		c-0.1-1.7-0.1-3-0.1-3.8c0-0.9,0-1.4,0.1-1.8c0.1-0.3,0.2-0.7,0.4-1.1c0.3-0.3,0.5-0.5,0.6-0.8c0.2-0.2,0.3-0.3,0.4-0.3
		C103.2,174.7,103.3,174.5,103.3,174.4z"/>
	<path class="st2" d="M136.4,173.9c0-0.1,0.2-0.3,0.5-0.7c0.3-0.4,0.7-0.7,1.1-1c0.4-0.2,0.8-0.4,1.1-0.6c0.3-0.1,0.9-0.3,1.6-0.4
		c0.7-0.1,1.8-0.2,3.2-0.2c1.4,0,3.4-0.1,6-0.1c2.8,0,4.9,0,6.4,0c1.5,0,2.6,0.1,3.4,0.2c0.7,0.1,1.2,0.3,1.4,0.6
		c0.2,0.3,0.4,0.6,0.6,1.1c0.1,0.3,0.2,0.7,0.4,1.3c0.1,0.5,0.2,1,0.2,1.6c0.1,1,0.2,1.6,0.2,1.8c0,0.2-0.2,0.6-0.6,1
		c-0.2,0.2-0.3,0.4-0.5,0.5c-0.2,0.1-0.5,0.2-1.1,0.3c-0.6,0.1-1.4,0.1-2.6,0.1c-1.2,0-2.8,0-4.9,0.1c-2.1,0.1-3.7,0.2-4.9,0.3
		c-1.2,0.1-2,0.1-2.6,0.2c-0.6,0.1-0.9,0.1-1.1,0.2c-0.2,0.1-0.3,0.2-0.4,0.3c-0.1,0.4-0.2,1-0.2,1.7c0,0.7,0,2.4,0,5
		c0,1.5,0.1,2.6,0.1,3.4c0.1,0.8,0.3,1.4,0.7,1.7c0.4,0.4,1,0.6,1.8,0.6c0.8,0,1.9,0.1,3.4,0c1.8,0,3.1,0,4.1,0c0.9,0,1.6,0.2,2,0.5
		c0.4,0.3,0.6,0.7,0.6,1.3s0,1.4,0,2.5c0,1.3,0,2.1,0,2.5c0,0.4-0.2,0.7-0.5,0.8c-0.3,0.3-0.9,0.5-1.9,0.6c-1,0.1-2.8,0.2-5.6,0.3
		c-1.2,0.1-2.2,0.2-2.8,0.3c-0.6,0.1-1.1,0.2-1.4,0.4c-0.3,0.2-0.4,0.5-0.4,1c0,0.5,0.1,1.1,0.2,1.9c0,1,0.1,2.5,0.2,4.6
		c0.1,2,0.1,4.2,0.1,6.5c0,2.3,0,4.6,0,6.9c0,2.3,0,4.2,0,5.7c0,2.1,0.1,3.3,0.2,3.7s0.3,0.7,0.7,1c0.3,0.3,0.5,0.5,0.7,0.5
		c0.2,0,0.4,0,0.7,0c0.1,0,1-0.1,2.7-0.2c1.7-0.1,3.7-0.2,5.9-0.2c2.5-0.1,4.4-0.1,5.7-0.2c1.3,0,2.2,0,2.7,0.3
		c0.5,0.2,0.8,0.6,0.8,1.1c0,0.5,0,1.3,0,2.4c0,0.8,0,1.6,0,2.2c0,0.6,0,1,0,1.1c-0.2,0.3-0.6,0.6-1.3,0.8c-0.6,0.2-1.6,0.4-2.9,0.5
		c-1.3,0.1-3,0.2-5.2,0.4c-2.1,0.1-4.8,0.2-8,0.3c-1.8,0-3.1,0-4.1,0.1c-0.9,0-1.7,0-2.2-0.1c-0.5-0.1-0.9-0.2-1.2-0.3
		c-0.3-0.1-0.6-0.4-0.9-0.7c-0.9-0.8-1.6-1.7-2.2-2.7c-0.2-0.4-0.4-0.8-0.5-1.1c-0.1-0.3-0.2-0.9-0.3-1.6c0-0.8-0.1-1.9-0.1-3.3
		c0-1.5,0-3.5,0.1-6.2c0-1.5,0-3,0-4.6c0-1.6,0-3.2,0-4.8c0-1.6-0.1-3-0.1-4.4c-0.1-1.4-0.1-2.5-0.1-3.5c0-0.9-0.1-2.1-0.1-3.6
		c-0.1-1.5-0.1-3.1-0.2-4.9c0-1.8-0.1-3.6-0.1-5.5c0-1.9-0.1-3.7-0.1-5.5c-0.1-3.1-0.2-5.6-0.3-7.3c-0.1-1.7-0.1-3-0.1-3.8
		c0-0.9,0-1.4,0.1-1.8c0.1-0.3,0.2-0.7,0.4-1.1c0.3-0.3,0.5-0.5,0.6-0.8c0.2-0.2,0.3-0.3,0.4-0.3
		C136.3,174.3,136.4,174.1,136.4,173.9z"/>
	<path class="st2" d="M168.1,173.2c0.1-0.1,0.8-0.3,1.9-0.5c1.2-0.2,2.6-0.4,4.3-0.6c1.7-0.2,3.6-0.4,5.7-0.5
		c2.1-0.2,4.1-0.3,6.2-0.4c4.5-0.4,8-0.6,10.7-0.6c2.7,0,4.1,0.1,4.5,0.4c0.2,0.2,0.4,0.6,0.6,1.2c0.2,0.6,0.3,1.3,0.3,2
		c0.1,0.7,0.1,1.5,0.1,2.2c0,0.7-0.1,1.3-0.2,1.6c-0.2,0.2-0.3,0.4-0.5,0.6c-0.2,0.2-0.3,0.3-0.4,0.3c0,0.2-0.6,0.3-1.7,0.4
		c-1.2,0.1-2.4,0.2-3.8,0.3c-1.3,0.1-2.3,0.2-3.1,0.4c-0.7,0.1-1.2,0.4-1.6,0.8c-0.3,0.4-0.6,1.1-0.6,1.9c-0.1,0.9-0.1,2.1-0.2,3.7
		c0,0.9,0,2.4,0,4.5c0,2.1,0,4.4,0,7.1c0,2.7,0,5.6,0,8.7c0,3.1,0.1,6.2,0.1,9.3c0,3.2,0.1,6.2,0,9c0,2.8,0,5.3,0,7.5
		c0,2.2,0,3.9,0,5.2c0,1.3,0,2,0,2c-0.2,0.6-0.6,1.1-1.2,1.3c-0.7,0.2-1.7,0.4-3,0.6c-1.1,0.2-1.8,0.2-2.1,0.1
		c-0.3-0.1-0.7-0.4-1-0.7c-0.2-0.1-0.4-0.3-0.6-0.5c-0.1-0.2-0.2-0.8-0.3-1.6c-0.1-0.9-0.1-2.2-0.1-4c0-1.8-0.1-4.4-0.1-7.7
		c0-1.8-0.1-4-0.1-6.5c0-2.5-0.1-5.1-0.1-7.8c0-2.7-0.1-5.5-0.1-8.2c0-2.8-0.1-5.3-0.1-7.6c0-2.2,0.1-4.3,0.1-6.3c0-2,0-3.7,0-5.2
		c0-1.5,0-3.1,0-4.9c0-0.1-0.5-0.2-1.6-0.1c-1.1,0.1-2.4,0.1-3.9,0.2c-1.6,0.2-3,0.3-4.2,0.3c-1.2,0-1.9-0.1-2-0.2
		c-1.2-0.3-1.9-1.9-1.9-4.9c-0.2-0.9-0.2-1.5-0.1-1.9C167.8,173.7,168,173.4,168.1,173.2z"/>
	<path class="st2" d="M86.3,289.9c0.7-1.9,1.8-4.7,3.5-8.3c1.7-3.6,3.5-7.3,5.3-10.9c1.8-3.6,3.5-6.9,5-9.7c1.5-2.8,2.5-4.5,2.8-4.8
		c0.1-0.2,0.5-0.2,1.1-0.2s1.2,0.1,1.9,0.2c0.7,0.1,1.5,0.3,2.2,0.5c0.8,0.2,1.4,0.5,2,0.8c0.3,0.4,0.6,0.8,0.8,1.2
		c0.2,0.4,0.3,1.2,0.5,2.5c0.1,1.2,0.2,3.1,0.3,5.6c0.1,2.5,0.1,6.1,0.2,10.7c0.1,5,0.1,8.8,0.2,11.5c0.1,2.7,0.2,4.6,0.5,5.9
		c0.3,1.2,0.7,2,1.3,2.3c0.6,0.3,1.4,0.6,2.5,1c1.1,0.4,1.7,0.7,1.9,1.1c0.2,0.4,0.3,1.4,0.3,3.2c0,1.8,0,3-0.2,3.6
		c-0.1,0.6-0.6,1.1-1.2,1.4c-0.4,0-0.7,0.1-1.1,0.4c-0.4,0.2-0.7,0.4-1,0.4c-0.4,0.2-0.7,0.5-0.8,0.9c-0.2,0.3-0.3,0.9-0.4,1.6
		c-0.1,0.7-0.1,1.7-0.1,2.9c0,1.2,0,2.8,0.1,4.7c-0.2,3.2-0.3,5.7-0.4,7.5c-0.1,1.7-0.2,3-0.4,3.8c-0.2,0.8-0.7,1.2-1.3,1.2
		c-0.6,0-1.5,0-2.8-0.2c-1.1,0-1.9,0-2.5-0.1c-0.6-0.1-1-0.5-1.4-1.1c-0.3-0.7-0.6-1.7-0.7-3.2c-0.2-1.4-0.3-3.5-0.5-6.2
		c-0.3-2.8-0.5-5-0.7-6.5c-0.2-1.5-0.6-2.7-1.1-3.5c-0.6-0.8-1.4-1.2-2.4-1.4c-1.1-0.2-2.6-0.4-4.5-0.6c-2,0-3.5,0-4.6,0
		c-1.1,0-1.9-0.1-2.6-0.2c-0.6-0.1-1.1-0.3-1.5-0.6c-0.4-0.3-0.8-0.7-1.3-1.3c-0.6-0.9-1-1.7-1.3-2.4c-0.3-0.7-0.4-1.6-0.3-2.7
		c0.1-1.1,0.3-2.4,0.8-4.1C84.7,294.8,85.4,292.6,86.3,289.9z M102.1,296.8c0.3,0,0.6-0.8,0.9-2.5c0.3-1.7,0.4-3.9,0.4-6.8
		c0-2.1-0.3-5-0.8-8.6c-0.4-0.1-1.1,0.6-2.1,2.4c-1,1.7-2,3.7-3,5.9c-1,2.2-1.8,4.3-2.5,6.2c-0.7,2-0.9,3.1-0.7,3.5
		c0.2,0.4,0.6,0.6,1.3,0.8c0.7,0.2,1.5,0.2,2.3,0.2c0.8,0,1.7-0.1,2.5-0.3C101.1,297.4,101.7,297.2,102.1,296.8z"/>
	<path class="st2" d="M167.8,258.3c0.1-0.7,0.3-1.2,0.5-1.6c0.2-0.4,0.6-0.7,1.1-0.9c0.5-0.2,1.2-0.4,2.1-0.6
		c0.9-0.1,2.2-0.3,3.7-0.5c1-0.4,2.2-0.6,3.6-0.8c1.4-0.2,2.8-0.3,4.1-0.3c1.3,0,2.5,0.1,3.5,0.2c1,0.2,1.6,0.4,1.8,0.7
		c0.3,0.2,0.6,0.6,0.8,1.3c0.2,0.7,0.3,1.4,0.3,2.2s-0.1,1.6-0.2,2.3c-0.2,0.8-0.4,1.3-0.7,1.6c-0.3,0.3-1,0.7-2,1
		c-1,0.3-2.1,0.5-3.5,0.5c-2.1,0-3.6,0.1-4.7,0.1c-1.1,0-1.8,0.2-2.2,0.6c-0.4,0.3-0.6,0.9-0.6,1.8c0,0.8,0.1,2.1,0.1,3.8
		c0,1.7,0.1,3.2,0.1,4.4c0.1,1.2,0.3,1.8,0.6,1.8c0,0.3,0.6,0.7,1.6,1c1.1,0.3,2.2,0.6,3.2,1c3.1,1,5.6,2.5,7.5,4.4
		c1.9,2,3.6,5,5,9.1c0.4,0.9,0.6,1.7,0.8,2.5c0.2,0.8,0.3,1.7,0.4,2.7c0.1,1.1,0.2,2.3,0.2,3.9c0,1.5,0.1,3.5,0.1,5.9
		c0,2.9,0,5.2,0,6.8c0,1.6-0.1,2.9-0.2,3.8c-0.1,0.9-0.3,1.7-0.6,2.3c-0.3,0.6-0.7,1.3-1.1,2.1c-1.3,2.8-3,4.8-5.2,6.1
		c-2.1,1.3-4.7,2.3-7.7,3c-3.1,0.4-5.9,0.4-8.5-0.1c-2.6-0.4-4.8-1.5-6.5-3.2c-1.4-1-2.2-2.1-2.6-3.3c-0.4-1.2-0.2-2.1,0.4-2.8
		c0.3-0.3,0.9-0.6,1.7-0.8c0.8-0.2,1.7-0.3,2.6-0.3c0.9,0,1.7,0.1,2.5,0.2c0.8,0.2,1.2,0.4,1.4,0.7c0.3,0,0.9,0.1,1.7,0.2
		c0.8,0.2,2,0.1,3.8-0.3c2-0.2,3.7-0.5,4.9-0.9c1.3-0.4,2.2-1.1,2.9-2.1c0.7-1,1.1-2.3,1.3-4.1c0.2-1.7,0.3-3.9,0.3-6.7
		c0.3-5.1-0.2-9.4-1.4-12.7c-1.2-3.4-2.6-5.7-4.4-7.1c-0.3-0.3-1-0.6-1.9-0.9c-0.9-0.3-1.9-0.4-2.9-0.4c-2.1,0-3.9-0.4-5.5-1.3
		c-1.6-0.9-2.8-2-3.5-3.4c-0.3-0.7-0.6-2.1-0.6-4.3c-0.1-2.2,0-4.5,0.1-7c0.1-2.5,0.3-4.9,0.6-7.2
		C167.2,260.8,167.5,259.2,167.8,258.3z"/>
	<path class="st0" d="M196.7,320.1c0.7-2,1-4.7,1.1-7.9c0.1-3.3-0.1-6.6-0.5-10c-0.4-3.4-1-6.6-1.7-9.7c-0.8-3.1-1.7-5.5-2.7-7.2
		c-0.3-0.7-0.6-1.4-0.7-2.1c0.3,0.2,0.8,0.7,1.3,1.6c0.6,0.9,1.1,1.9,1.7,3.1c0.6,1.2,1.2,2.5,1.8,3.8s1.1,2.6,1.4,3.8
		c0.4,1.4,0.7,3.2,1,5.4c0.3,2.3,0.5,5.2,0.5,9c0,2.4,0,4.4,0,5.8c0,1.5,0,2.7-0.1,3.7c-0.1,1-0.2,1.8-0.4,2.5
		c-0.2,0.7-0.4,1.5-0.7,2.3c-1,2.4-2.5,4.6-4.6,6.5c-2.1,1.9-4.2,3.2-6.2,3.9c-1,0-2.4,0.1-4.2,0.4c-1.8,0.2-3.4,0.4-4.7,0.4
		c-2.4,0-4.3-0.1-5.6-0.3c-1.3-0.3-2.7-0.6-4-0.9c-1.7-1-2.7-1.8-3-2.3c-0.2-0.5,0.5-0.5,2.3,0.2c2,0.7,4.6,0.9,7.7,0.8
		c3.1-0.1,6-0.7,8.7-1.7c2.7-0.7,5.1-2,7.1-4C194.3,325.3,195.7,322.9,196.7,320.1z"/>
	<path class="st0" d="M177.2,291c-1.4,0-2.4,0-3.2-0.2c-0.8-0.1-1.6-0.5-2.2-1.2c-1-0.7-1.4-1.1-1.2-1.2c0.2-0.1,1.5-0.2,3.9-0.2
		c1.4,0.3,2.5,0.6,3.5,0.7c1,0.2,1.6,0.6,2,1.3c0.7,0.3,0.9,0.5,0.7,0.6C180.3,290.9,179.2,291,177.2,291z"/>
	<path class="st0" d="M183,265.6c1.8-0.2,3.3-0.4,4.4-0.7c1.1-0.3,1.9-0.7,2.5-1.3c0.6-0.6,1-1.3,1.3-2.2c0.3-0.9,0.5-2,0.6-3.4
		c0-1.7,0-2.6,0.1-2.8c0.1-0.2,0.5,0,1.2,0.7c0.7,1,1.1,2,1.1,3c0.1,1-0.1,2.5-0.4,4.5c-0.3,1.1-0.7,1.9-1.1,2.5
		c-0.4,0.6-0.9,1.1-1.6,1.5c-0.7,0.3-1.5,0.6-2.4,0.7c-1,0.1-2.2,0.2-3.7,0.2c-1.2,0-2.2,0-2.8,0.1c-0.7,0-1.2,0.2-1.5,0.3
		s-0.6,0.4-0.7,0.8c-0.1,0.4-0.3,0.9-0.4,1.6c0,1.4-0.1,2.4-0.4,3.1c-0.3,0.7-0.6,1.1-0.9,1.1c-0.3,0-0.6-0.4-0.9-1.1
		c-0.2-0.7-0.2-2,0.1-3.7c0-1.2,0-2.1,0-2.7c0-0.6,0.2-1.1,0.6-1.4c0.3-0.3,0.9-0.5,1.6-0.6C180.5,265.7,181.6,265.6,183,265.6z"/>
	<path class="st2" d="M105.9,94.8c0-3.8,0.1-7.2,0.4-10.1c0.3-2.9,0.7-4.6,1.4-5c0.4-0.2,0.9-0.2,1.6-0.2c0.7,0.1,1.7,0.4,3.1,0.9
		c1,0.2,1.7,0.5,2.2,0.8c0.5,0.3,0.9,0.7,1.3,1.1c0.4,0.6,0.6,1.2,0.6,1.6c0,0.5-0.2,1.5-0.5,3c-0.1,0.8-0.2,2-0.3,3.6
		c-0.1,1.6-0.1,3.2-0.1,4.8c0,1.6,0,3,0.1,4.3c0.1,1.2,0.2,1.9,0.4,2c2.1-0.1,3.8-0.2,5.2-0.3c1.4-0.1,2.7-0.2,4-0.3
		c1.3-0.1,2.3-0.2,2.7-0.3c0.2-0.1,0.5-0.2,0.6-0.3c0.2-0.1,0.3-0.5,0.4-1.1c0.1-0.6,0.2-1.6,0.2-2.8c0-1.3,0.1-3.1,0.2-5.4
		c0-2.8-0.1-5-0.1-6.5c0-1.5,0.1-2.6,0.3-3.2c0.2-0.6,0.7-1,1.3-1c0.7-0.1,1.6-0.1,2.9-0.1c1.3-0.1,2.3-0.2,3-0.3
		c0.7-0.1,1.1,0.8,1.4,2.7c0.3,1.9,0.4,5.1,0.5,9.7c0,4.6,0.1,11.6,0.2,21c0.1,6.9,0.2,12.5,0.3,16.9c0.1,4.4,0.2,7.9,0.3,10.6
		c0.1,2.7,0.2,4.8,0.3,6.4c0.1,1.5,0.2,2.8,0.4,4c0.2,1.5,0.3,2.6,0.4,3.4c0.1,0.8,0.1,1.4,0.1,1.9c0,0.4-0.1,0.8-0.3,1
		c-0.2,0.2-0.5,0.4-0.8,0.7c-0.6,0.6-1.5,1.2-2.7,1.7c-1.2,0.5-2.3,0.7-3.5,0.8c-0.4,0-0.8-0.2-1.3-0.6c-0.5-0.4-0.9-0.7-1-0.9
		c0-0.2,0-0.5-0.1-1c0-0.5-0.2-1.1-0.3-1.7c0-0.7-0.1-3.3-0.3-7.6c-0.2-4.3-0.3-9.8-0.4-16.3c-0.2-5.4-0.3-9.6-0.4-12.5
		c-0.1-2.9-0.2-5.1-0.4-6.4c-0.1-1.4-0.3-2.2-0.5-2.4c-0.2-0.2-0.5-0.3-0.9-0.3c-0.4,0-1.2,0.1-2.5,0.3c-1.3,0.2-2.5,0.4-3.6,0.6
		c-1.2,0.2-2.1,0.5-2.7,0.8c-0.6,0.3-1.1,1.2-1.4,2.6c-0.3,1.4-0.5,3.6-0.5,6.5c0,2.9-0.1,7.1-0.1,12.5c0.1,5.5,0.1,9.8,0.1,12.8
		c0,3,0,5.2,0,6.6c0,1.4-0.1,2.3-0.2,2.6c-0.1,0.3-0.2,0.6-0.4,0.7c-0.4,0.4-0.8,0.7-1.3,0.9c-0.5,0.2-1.5,0.3-3,0.3
		c-1.7,0-2.9-0.1-3.5-0.4c-0.6-0.3-1-0.9-1.2-1.9c0-0.2-0.1-2.9-0.2-8.3c-0.2-5.4-0.3-11.6-0.5-18.5c-0.2-6.9-0.4-13.7-0.5-20.3
		C106.1,102,106,97.4,105.9,94.8z"/>
	<path class="st2" d="M160.2,94c0.1-1.2,0.5-2.1,1-2.7s1.5-1,2.9-1.3c1.4-0.3,2.6-0.4,3.6-0.1c1.1,0.3,1.6,0.7,1.6,1.3
		c0,0.2,0,0.5,0,0.9c0,0.4,0.1,0.8,0.3,1.3c0.4,1.6,0.9,3.5,1.4,5.6c0.5,2.1,1,4.3,1.4,6.6c0.4,2.3,0.9,4.5,1.3,6.7
		c0.4,2.2,0.8,4.2,1,6.1c0.7,4.8,1.7,9.8,3,14.9c0.1,0.5,0.3,1.1,0.4,2c0.1,0.8,0.3,1.6,0.5,2.3c0.3,0.8,0.6,1.6,0.8,2.5
		c0.2,0.9,0.4,1.6,0.6,2c0.1,0.6,0.3,1.3,0.4,2.4c0.2,1,0.3,2.1,0.4,3.2c0.1,1.1,0.3,2.1,0.4,3.1c0.1,1,0.3,1.7,0.4,2.1
		c0,0.3,0,0.7,0,1.2c0,0.5,0.1,0.9,0.3,1.2c0.1,0.8,0.1,1.5-0.3,2.2c-0.3,0.7-0.9,1.2-1.8,1.5c-1.1,0.6-1.9,1-2.5,1.3
		c-0.6,0.3-1,0.5-1.4,0.5c-0.3,0.1-0.6,0-0.7-0.1c-0.2-0.2-0.4-0.4-0.6-0.7c-0.5-0.4-0.9-1.3-1.1-2.6c-0.2-1.3-0.5-3.3-0.9-6.3
		c-0.2-1.2-0.4-2.5-0.7-3.9c-0.3-1.4-0.5-2.4-0.6-3.1c-0.2-0.6-0.3-1.3-0.5-2.3c-0.2-0.9-0.3-1.7-0.4-2.3c-0.2-0.7-0.4-1.4-0.5-2.1
		c-0.2-0.7-0.3-1.2-0.5-1.5c-0.2-0.5-0.3-0.9-0.4-1.3c-0.1-0.4-0.1-0.7,0.1-0.9c0-0.1-0.2-0.2-0.7-0.3c-0.5,0-1.6,0-3.2,0
		c-1.1,0-2.1,0-3-0.1c-0.9-0.1-1.4-0.1-1.6-0.1c-0.2-0.1-0.4-0.1-0.6,0c-0.2,0-0.3,0.3-0.5,0.7c-0.2,0.4-0.3,1.1-0.5,2
		c-0.2,0.9-0.5,2.2-0.8,3.9c0,0.3,0,0.8-0.1,1.3c-0.1,0.6-0.1,1.1-0.1,1.7c-0.2,0.9-0.4,2.4-0.7,4.2c-0.3,1.9-0.5,3.7-0.7,5.6
		c-0.3,1.4-0.5,2.5-0.7,3.3c-0.2,0.8-0.4,1.3-0.7,1.7c-0.2,0.2-0.6,0.3-1.2,0.5c-0.6,0.1-1.3,0.3-2,0.4c-0.7,0.1-1.4,0.1-2,0.1
		c-0.6,0-1-0.1-1.3-0.3c-0.6-0.1-1-0.5-1.2-1.1c-0.2-0.6-0.1-1.6,0.2-3.2c0.1-0.7,0.2-1.5,0.2-2.1c0-0.7,0-1.2,0-1.5
		c0-0.3,0-0.8,0.2-1.5c0.1-0.7,0.3-1.4,0.4-2.2c0.1-0.9,0.3-1.9,0.5-3c0.2-1.1,0.4-2.1,0.6-3.1c0.4-3,0.9-5.6,1.4-7.6
		c0.5-2,1.1-4.1,1.9-6.3c0.1-0.7,0.3-1.4,0.5-2.1c0.2-0.7,0.3-1.1,0.3-1.3c0-0.3,0.1-0.9,0.3-1.5c0.3-0.9,0.7-2.4,1.3-4.5
		c0.6-2.1,1.1-4.2,1.6-6.2c0.3-1.5,0.5-3.1,0.9-4.7c0.3-1.6,0.6-3.2,0.9-4.7c0.3-1.5,0.6-2.9,0.8-4.2C159.8,95.9,160,94.8,160.2,94z
		 M166.5,117.4c-0.2-0.7-0.4-1.8-0.5-3.1c-0.2-1.3-0.3-2.5-0.5-3.6c0-0.9-0.1-1.7-0.2-2.4c-0.1-0.7-0.2-1.1-0.2-1.3
		c-0.2-0.1-0.4,0.3-0.7,1.3c-0.3,1-0.6,2.7-1.1,5.1c-0.4,1.5-0.7,2.7-0.9,3.6c-0.2,0.9-0.3,1.7-0.4,2.4c-0.1,0.6-0.2,1.2-0.2,1.6
		c0,0.5-0.1,0.9-0.2,1.3c-0.2,0.8-0.2,1.2-0.1,1.4c0.1,0.2,0.7,0.3,1.6,0.4c0.5,0,1,0,1.5,0.1c0.5,0.1,1,0,1.3-0.1
		c0.5,0,0.7-0.1,0.8-0.2c0.1-0.1,0.1-0.7,0.1-1.6c0-0.5-0.1-1.2-0.2-2.1C166.6,119.3,166.5,118.4,166.5,117.4z"/>
	<path class="st2" d="M188.7,93c0.5-1,1.1-1.8,1.9-2.5c0.8-0.7,1.6-1.2,2.4-1.5c0.3,0,1,0,2.2,0c1.2,0,2.4,0,3.7,0
		c1.6,0,2.9,0.1,3.8,0.2c0.9,0.2,1.9,0.4,3.1,0.7c2.5,0.8,4.3,1.7,5.5,2.5c1.2,0.9,2.3,2.3,3.1,4.3c0.2,0.6,0.4,1.1,0.5,1.5
		c0.1,0.4,0.3,1,0.4,1.7c0.1,0.7,0.2,1.7,0.2,3c0.1,1.3,0.2,3,0.3,5.3c0,2.3,0,4.1,0,5.4c0,1.3,0,2.3-0.1,3
		c-0.1,0.7-0.2,1.3-0.3,1.6c-0.1,0.4-0.3,0.8-0.5,1.3c-0.5,0.8-1.1,1.7-1.7,2.6c-0.6,0.9-1.3,1.6-2.1,2.1c-0.7,0.5-1.8,1-3.4,1.5
		c-1.6,0.5-3.2,0.8-4.9,0.9c-1.5,0-2.5,0.1-2.9,0.3c-0.4,0.2-0.9,0.4-1.4,0.8c-0.2,0.3-0.4,0.6-0.4,0.8c-0.1,0.3-0.2,0.8-0.2,1.5
		c-0.1,0.7-0.1,1.7-0.1,3.1c0,1.3,0,3.2-0.1,5.5c-0.1,2.8-0.3,5.5-0.4,8.1c-0.1,2.6-0.3,4.3-0.4,5.1c-0.2,1-0.3,2-0.4,3
		c-0.1,1-0.2,1.8-0.2,2.3c0.4,2.3-0.7,3.4-3.3,3.3c-2.7,0-4.3-0.4-4.9-1.4c-0.6-1-0.7-3-0.2-6.1c0.1-0.6,0.1-1.8,0.2-3.6
		c0.1-1.8,0.2-3.9,0.3-6.2c0.1-2.3,0.2-4.8,0.3-7.4c0.1-2.6,0.2-5,0.2-7.2c0-1.2,0-2.6-0.1-4.2s0-3.4-0.1-5.3c0-1.9,0-3.8-0.1-5.8
		c0-2-0.1-3.9-0.1-5.8c-0.2-3-0.4-5.4-0.5-7.2c-0.1-1.8-0.1-3.1-0.2-4.1c0-0.9,0-1.6,0.1-2S188.5,93.3,188.7,93z M205.6,100.1
		c-0.5-0.5-1.1-0.9-1.6-1.2c-0.5-0.3-1.1-0.5-1.7-0.4c-1.3-0.3-2.2-0.5-2.6-0.5c-0.4,0-0.7,0.1-1,0.2c-0.2,0-0.4,0.1-0.6,0.2
		c-0.2,0.1-0.4,0.3-0.4,0.4c-0.1,0.2-0.2,1.1-0.2,2.7c0,1.6,0,3.4,0,5.4c0,2,0.1,3.8,0.1,5.5c0.1,1.7,0.1,2.8,0.3,3.2
		c0.1,0.7,0.5,1.2,1,1.6c0.5,0.4,1.2,0.5,2,0.3c1,0,2.1-0.1,3.4-0.4c1.3-0.2,2.2-0.5,2.5-0.6c0.1-0.1,0.2-0.8,0.2-2.1
		c0-1.3,0-3.2,0-5.9c0-1.8-0.1-3.2-0.1-4.2c0-1-0.1-1.8-0.2-2.3c-0.1-0.5-0.2-0.9-0.4-1.2C206.2,100.7,205.9,100.4,205.6,100.1z"/>
	<path class="st2" d="M222.6,92.6c0.5-1,1.1-1.8,1.9-2.5c0.8-0.7,1.6-1.2,2.4-1.5c0.3,0,1,0,2.2,0c1.2,0,2.4,0,3.7,0
		c1.6,0,2.9,0.1,3.8,0.2c0.9,0.2,1.9,0.4,3.1,0.7c2.5,0.8,4.3,1.7,5.5,2.5c1.2,0.9,2.3,2.3,3.1,4.3c0.2,0.6,0.4,1.1,0.5,1.5
		c0.1,0.4,0.3,1,0.4,1.7c0.1,0.7,0.2,1.7,0.2,3c0.1,1.3,0.2,3,0.3,5.3c0,2.3,0,4.1,0,5.4c0,1.3,0,2.3-0.1,3
		c-0.1,0.7-0.2,1.3-0.3,1.6c-0.1,0.4-0.3,0.8-0.5,1.3c-0.5,0.8-1.1,1.7-1.7,2.6c-0.6,0.9-1.3,1.6-2.1,2.1c-0.7,0.5-1.8,1-3.4,1.5
		c-1.6,0.5-3.2,0.8-4.9,0.9c-1.5,0-2.5,0.1-2.9,0.3c-0.4,0.2-0.9,0.4-1.4,0.8c-0.2,0.3-0.4,0.6-0.4,0.8c-0.1,0.3-0.2,0.8-0.2,1.5
		c-0.1,0.7-0.1,1.7-0.1,3.1c0,1.3,0,3.2-0.1,5.5c-0.1,2.8-0.3,5.5-0.4,8.1c-0.1,2.6-0.3,4.3-0.4,5.1c-0.2,1-0.3,2-0.4,3
		c-0.1,1-0.2,1.8-0.2,2.3c0.4,2.3-0.7,3.4-3.3,3.3c-2.7,0-4.3-0.4-4.9-1.4c-0.6-1-0.7-3-0.2-6.1c0.1-0.6,0.1-1.8,0.2-3.6
		c0.1-1.8,0.2-3.9,0.3-6.2c0.1-2.3,0.2-4.8,0.3-7.4c0.1-2.6,0.2-5,0.2-7.2c0-1.2,0-2.6-0.1-4.2s0-3.4-0.1-5.3c0-1.9,0-3.8-0.1-5.8
		c0-2-0.1-3.9-0.1-5.8c-0.2-3-0.4-5.4-0.5-7.2c-0.1-1.8-0.1-3.1-0.2-4.1c0-0.9,0-1.6,0.1-2C222.3,93.2,222.4,92.9,222.6,92.6z
		 M239.5,99.6c-0.5-0.5-1.1-0.9-1.6-1.2c-0.5-0.3-1.1-0.5-1.7-0.4c-1.3-0.3-2.2-0.5-2.6-0.5c-0.4,0-0.7,0.1-1,0.2
		c-0.2,0-0.4,0.1-0.6,0.2c-0.2,0.1-0.4,0.3-0.4,0.4c-0.1,0.2-0.2,1.1-0.2,2.7s0,3.4,0,5.4c0,2,0.1,3.8,0.1,5.5
		c0.1,1.7,0.1,2.8,0.3,3.2c0.1,0.7,0.5,1.2,1,1.6c0.5,0.4,1.2,0.5,2,0.3c1,0,2.1-0.1,3.4-0.4c1.3-0.2,2.2-0.5,2.5-0.6
		c0.1-0.1,0.2-0.8,0.2-2.1c0-1.3,0-3.2,0-5.9c0-1.8-0.1-3.2-0.1-4.2c0-1-0.1-1.8-0.2-2.3c-0.1-0.5-0.2-0.9-0.4-1.2
		C240.1,100.3,239.9,100,239.5,99.6z"/>
	<path class="st2" d="M256.8,89.6c1-0.5,1.8-0.9,2.4-1.2c0.1-0.1,0.4-0.2,0.8-0.2c0.4,0,0.7,0,1,0c0.6,0,1,0.1,1.1,0.2
		c0.2,0.2,0.5,0.7,0.9,1.5c0.3,0.4,0.6,1,0.8,1.6c0.3,0.6,0.4,1,0.4,1.1c0.9,2.5,1.6,4.5,2.1,6s0.8,2.7,1,3.8
		c0.3,1.4,0.6,2.4,0.9,3.2c0.3,0.8,0.6,1.4,0.9,1.8c0.3,0.2,0.5,0.3,0.5,0.3c0.1,0,0.2-0.1,0.4-0.3c0.1-0.1,0.3-0.4,0.6-1
		c0.3-0.5,0.7-1.2,1-1.9c0.4-0.7,0.8-1.5,1.2-2.4c0.4-0.9,0.8-1.7,1.2-2.4c0.3-0.9,0.6-1.6,0.9-2.3c0.4-0.7,0.6-1.1,0.8-1.3
		c0.5-1.3,1-2.3,1.4-3c0.7-1.5,1.3-2.4,1.7-2.9c0.4-0.5,0.9-0.7,1.5-0.7c0.2,0,0.6,0.1,1,0.3c0.5,0.2,1,0.4,1.5,0.7
		c0.5,0.3,1,0.6,1.5,0.8c0.5,0.3,0.8,0.5,1.1,0.7c0.6,0.4,0.8,1.2,0.7,2.3c-0.2,1.1-0.8,2.4-1.8,3.9c-0.4,0.8-0.7,1.4-0.9,1.8
		c-0.2,0.5-0.8,1.7-1.9,3.8c-1.1,2.1-2.2,4.5-3.3,7.2c-1.3,2.7-2.5,5.1-3.5,7.2c-1,2.1-1.6,3.2-1.7,3.3c-0.2,0.5-0.2,2.2-0.2,5.1
		c0,2.9,0.1,7.7,0.2,14.2c0,5.3-0.1,9.2-0.1,11.8c0,2.6-0.2,4.4-0.4,5.4c-0.2,1-0.6,1.5-1.1,1.5c-0.5,0-1.3-0.1-2.3,0
		c-0.7,0-1.4,0-2.1,0c-0.6,0-1,0-1.2,0c-0.3-0.1-0.6-0.3-0.7-0.6c-0.2-0.3-0.3-1-0.4-2.2c-0.1-1.2-0.1-3.1-0.2-5.5
		c0-2.5-0.1-6-0.1-10.5c-0.1-4.3-0.1-7.7-0.2-10.2c-0.1-2.5-0.2-4.5-0.3-5.9c-0.1-1.4-0.3-2.5-0.4-3.3c-0.1-0.7-0.3-1.5-0.5-2.2
		c-0.2-0.3-0.3-0.7-0.5-1.4c-0.1-0.6-0.3-1.3-0.4-1.9c-0.3-0.7-0.6-1.6-0.9-2.5c-0.3-1-0.5-1.9-0.7-2.8c-0.3-0.9-0.7-1.9-1.1-3.2
		c-0.4-1.3-0.7-2.4-1-3.3c-0.7-2.8-1.2-5-1.7-6.5c-0.5-1.5-1-2.9-1.7-4.1c-0.5-0.9-0.6-1.6-0.4-2.1
		C254.9,90.6,255.6,90.1,256.8,89.6z"/>
	<g>
		<path class="st0" d="M120.9,113.9c0.4,0,1-0.1,1.8-0.2c0.8-0.1,1.5-0.2,2.1-0.2c1.1,0,1.8,0,2,0.1c0.2,0.1,0.3,0.4,0.3,1
			c0,0.4,0,0.9,0,1.5c-1.1,0.3-2,0.6-2.7,0.8c-0.7,0.1-1.2,0.3-1.6,0.6c-0.4,0.3-0.6,1.1-0.8,2.4s-0.2,3.3-0.2,6.1
			c0,2.8,0.1,6.7,0.2,11.8c0.1,6.2,0.1,11.3,0.1,15.2c0,4-0.1,6.2-0.3,6.8c0,0.4-0.1,0.8-0.4,1.2c-0.3,0.4-0.5,0.8-0.7,1.2
			c-0.4,0.4-0.8,0.6-1.4,0.7c-0.6,0.1-1.9,0.1-4,0.1c-2.1,0-3.4,0-3.9-0.1c-0.4-0.1-0.9-0.4-1.5-1c-0.2-0.2-0.5-0.5-0.8-1.1
			c0-0.2,0.3-0.3,1-0.4c0.7-0.1,1.5-0.1,2.5-0.1c1.5,0,2.5-0.1,3.1-0.1c0.5-0.1,1.2-0.4,1.9-1c0.4-0.2,0.7-0.5,1-1
			c0.3-0.5,0.5-1,0.5-1.3c0.2-0.6,0.2-2.6,0.3-5.9c0-3.4,0.1-8.7,0.2-16.1c-0.1-5.1-0.1-9-0.2-11.8c0-2.8,0-4.8,0.1-6.1
			c0.1-1.3,0.2-2.1,0.4-2.4C120.1,114.2,120.4,114,120.9,113.9z"/>
		<path class="st0" d="M118.3,90.7c0-1.5,0-3,0.1-4.3c0.1-1.4,0.2-2.2,0.2-2.6c0-0.7,0-1.1,0-1.2c0.4,0,0.8,0.3,1.4,0.9
			c0.6,0.6,0.9,1.2,0.9,1.8c0.1,0.3,0.1,1.2,0.2,2.6c0,1.4,0,2.9,0,4.5c0,1.6-0.1,3.1-0.1,4.4c-0.1,1.3-0.1,2-0.2,2.1
			c-0.2,0-0.4,0.1-0.6,0.2c-0.2,0.1-0.5,0.2-0.9,0.2c-0.4,0-0.6,0-0.7-0.1c-0.1-0.1-0.3-0.4-0.4-1c0-0.4,0-1.3,0-2.7
			C118,94,118.1,92.4,118.3,90.7z"/>
		<path class="st0" d="M142.6,153c0-0.5-0.1-1.8-0.1-4c-0.1-2.2-0.2-5-0.3-8.3c-0.1-3.4-0.2-7.2-0.3-11.6c-0.1-4.3-0.1-8.9-0.2-13.6
			c-0.1-8.6-0.2-15.2-0.3-19.8c-0.1-4.6-0.1-8-0.1-10.1c0-2.1,0.1-3.3,0.2-3.7c0.1-0.3,0.3-0.5,0.5-0.4c0.5,0.4,1,0.9,1.3,1.4
			c0.3,0.5,0.5,1.9,0.7,4.1c0.2,2.2,0.3,5.6,0.4,10.2c0.1,4.6,0.2,11.2,0.5,19.8c0.1,4.5,0.1,8.8,0.2,13s0.1,7.9,0.1,11.3
			c0,3.3,0.1,6.2,0.1,8.4c0,2.3,0,3.8,0.1,4.4c0.2,1.6,0.3,3,0.3,4.2c0,1.2-0.1,2-0.2,2.4c-0.2,1.2-1,2.2-2.4,3.1
			c-1.4,0.9-3.3,1.5-5.6,1.7c-1,0.2-1.9,0.2-2.8-0.2c-0.9-0.3-1.5-0.9-1.9-1.7c0-0.2,0-0.3,0.1-0.4c0.1-0.1,0.3-0.2,0.7-0.4
			c0.2,0,0.6,0,1.2-0.1c0.6-0.1,1.1-0.3,1.5-0.7c0.6-0.2,1.1-0.4,1.6-0.5c0.5-0.2,0.9-0.3,1.1-0.3c0.2,0,0.5-0.1,1-0.2
			c0.5-0.2,1-0.3,1.3-0.5c0.7-0.8,1.3-1.7,1.6-2.8C143.1,156.4,143,154.9,142.6,153z"/>
		<path class="st0" d="M159.3,146.3c0.3-1.5,0.6-3.1,0.9-4.8c0.3-1.7,0.6-3.3,0.9-4.7c0.1-0.7,0.3-1.2,0.6-1.3
			c0.3-0.1,1.2-0.2,2.7-0.2c1.5,0,2.4,0,2.7,0.2c0.3,0.2,0.5,0.4,0.7,0.7c0.1,0.8,0.1,1.2,0,1.3c-0.2,0.1-0.8,0.2-1.8,0.2
			c-0.6,0-1.1,0-1.4,0.1c-0.3,0.1-0.6,0.3-0.8,0.6c-0.2,0.3-0.4,0.9-0.5,1.7c-0.1,0.8-0.3,2-0.6,3.5c-0.2,0.6-0.3,1.4-0.5,2.3
			c-0.1,0.9-0.3,1.6-0.4,2c0,0.5-0.1,1.1-0.2,1.9c-0.1,0.8-0.3,1.5-0.4,2.1c-0.2,2-0.4,3.6-0.6,4.9c-0.2,1.3-0.5,2.3-0.7,3
			c-0.3,0.7-0.6,1.3-1,1.7s-0.9,0.7-1.5,0.9c-0.9,0.3-2.1,0.6-3.5,0.7c-1.4,0.2-2.4,0.2-2.8,0c-0.2-0.1-0.4-0.3-0.8-0.6
			c-0.4-0.3-0.7-0.6-1-0.9c-0.5-0.4-0.6-0.7-0.5-0.8s1.1-0.3,2.6-0.5c1.7,0,2.9-0.2,3.7-0.4c0.8-0.3,1.5-0.9,2.1-1.8
			c0.4-0.5,0.7-0.8,0.8-1.2c0.1-0.3,0.1-0.6,0.1-0.9c0-0.3,0-0.9,0.2-1.6c0.1-0.8,0.3-1.6,0.4-2.3c0.1-0.7,0.3-1.7,0.4-2.8
			C159,148,159.1,147,159.3,146.3z"/>
		<path class="st0" d="M172,94.8c-0.2-0.4-0.3-0.9-0.4-1.5c-0.1-0.5-0.2-1-0.2-1.3c0-1,0-1.5,0-1.5c0.3,0.4,0.6,0.7,0.9,0.9
			c0.3,0.3,0.6,0.9,1,1.9c0.3,0.9,0.7,2.2,1.3,3.9c1.1,4.9,2.1,9.4,3,13.6c0.9,4.2,1.4,7.2,1.6,9c0.1,0.8,0.2,1.8,0.4,3
			c0.2,1.2,0.4,2.5,0.6,3.8c0.2,1.3,0.5,2.6,0.8,3.9c0.3,1.3,0.6,2.4,0.8,3.4c0.1,0.5,0.3,1.1,0.4,1.7c0.1,0.6,0.3,1.2,0.5,1.6
			c0.1,0.5,0.3,1.1,0.5,1.9c0.2,0.8,0.3,1.5,0.5,2.1c0.1,0.6,0.3,1.3,0.4,2.2c0.1,0.8,0.3,1.5,0.5,2.1c0.1,0.7,0.3,1.9,0.6,3.4
			c0.2,1.5,0.4,3.1,0.6,4.7c0.2,1.6,0.4,3,0.5,4.3c0.1,1.3,0.1,2,0.1,2.2c-0.3,1.1-0.9,2-1.8,2.7c-0.9,0.7-2.3,1.4-4.3,2
			c-0.9,0.3-1.7,0.5-2.2,0.4c-0.6,0-1.1-0.4-1.7-1c-0.6-0.4-1-0.8-1-1.2c0-0.3,0.2-0.5,0.7-0.3c0.1,0,0.5-0.1,1.1-0.4
			c0.6-0.2,1.2-0.4,1.9-0.6c3-1,4.6-2.4,4.9-4.3c0-0.3-0.1-1.2-0.2-2.6c-0.2-1.5-0.3-3.1-0.5-4.9c-0.2-1.8-0.4-3.4-0.6-5
			c-0.2-1.6-0.3-2.6-0.4-3.1c-0.2-0.1-0.3-0.5-0.5-1.2c-0.2-0.6-0.3-1.3-0.5-1.9c-0.2-0.7-0.4-1.5-0.5-2.2c-0.1-0.7-0.3-1.3-0.4-1.8
			c-0.3-0.9-0.7-2.3-1.1-4.2c-0.4-1.9-0.8-3.5-1.1-4.9c-0.2-0.6-0.4-1.5-0.5-2.7c-0.2-1.2-0.3-2.3-0.5-3.4c-0.5-3.2-1-6.3-1.5-9.2
			c-0.5-2.9-1-5.4-1.4-7.6c-0.2-0.5-0.4-1.1-0.5-2c-0.2-0.9-0.3-1.6-0.5-2.3c-0.2-0.6-0.4-1.3-0.5-2C172.3,95.6,172.2,95.1,172,94.8
			z"/>
		<path class="st0" d="M216.4,95.6c-0.2-0.1-0.3-0.3-0.4-0.5c-0.1-0.2-0.2-0.3-0.3-0.5c0-0.3,0-0.4,0.1-0.3c0.1,0.1,0.4,0.3,0.9,0.6
			c0.1,0.3,0.4,0.8,0.9,1.4c0.4,0.6,0.8,1.2,1.2,1.8c0.3,0.7,0.6,1.2,0.8,1.7c0.2,0.5,0.3,1,0.4,1.7c0.1,0.7,0.2,1.5,0.3,2.6
			c0.1,1.1,0.2,2.6,0.3,4.6c0,2.4,0,4.4,0.1,5.9c0,1.5,0,2.8-0.1,3.9c-0.1,1-0.2,1.9-0.4,2.6c-0.1,0.7-0.4,1.4-0.7,2.1
			c-1.1,2.3-2.7,4-4.8,5.2c-2.1,1.1-5,1.9-8.6,2.2c-0.8,0.2-1.6,0.4-2.2,0.6c-0.6,0.2-1,0.3-1.1,0.5c0,1.2,0,2,0,2.7
			c-0.1,1.4-0.2,3.3-0.3,5.8c-0.1,2.5-0.3,5.1-0.4,7.8c-0.2,2.7-0.3,5.3-0.5,7.7c-0.2,2.4-0.3,4.3-0.4,5.5c-0.2,0.7-0.6,1.4-1.4,2.2
			c-0.8,0.8-1.5,1.3-2.1,1.4c-0.5,0.2-1.5,0.2-2.9-0.1c-1.4-0.2-2.6-0.5-3.4-0.8c-0.3,0-0.7-0.1-1-0.4c-0.3-0.3-0.5-0.6-0.7-0.9
			c-0.5-0.5-0.7-0.7-0.5-0.8c0.2,0,1.2,0.1,3.1,0.4c0.8,0,1.4,0,1.9-0.1c0.4,0,0.9-0.2,1.4-0.3c1.1-0.3,1.9-1,2.4-1.9
			c0.4-0.9,0.7-2.8,0.8-5.7c0.1-0.8,0.3-1.9,0.4-3.3c0.2-1.4,0.3-2.6,0.5-3.6c0-0.8,0-2.3,0.1-4.4c0.1-2.1,0.1-4.3,0.1-6.5
			c0-1.8,0.1-3.2,0.1-4.1c0-1,0.1-1.7,0.2-2.2c0.1-0.5,0.2-0.8,0.3-0.9c0.1-0.1,0.3-0.2,0.6-0.3c3.3-0.5,6-1.1,8.2-1.7
			c2.2-0.6,3.3-1.2,3.3-1.7c0.1,0,0.3,0,0.6,0c0.1,0,0.2-0.2,0.5-0.5s0.6-0.7,1-1.1c0.4-0.4,0.8-0.9,1.1-1.4c0.4-0.5,0.7-0.9,1-1.3
			c0.3-0.6,0.6-1.3,0.8-2c0.2-0.7,0.3-1.5,0.4-2.4c0.1-0.9,0.2-2.1,0.2-3.5c0.1-1.4,0.1-3,0-5c-0.1-1.6-0.2-2.9-0.3-3.8
			c-0.1-1-0.1-1.8-0.2-2.5c-0.1-0.7-0.2-1.3-0.3-1.8c-0.1-0.5-0.2-1.1-0.4-1.7C216.9,97.6,216.7,96.8,216.4,95.6z"/>
		<path class="st0" d="M250.4,95.2c-0.2-0.1-0.3-0.3-0.4-0.5c-0.1-0.2-0.2-0.3-0.3-0.5c0-0.3,0-0.4,0.1-0.3c0.1,0.1,0.4,0.3,0.9,0.6
			c0.1,0.3,0.4,0.8,0.9,1.4c0.4,0.6,0.8,1.2,1.2,1.8c0.3,0.7,0.6,1.2,0.8,1.7c0.2,0.5,0.3,1,0.4,1.7c0.1,0.7,0.2,1.5,0.3,2.6
			c0.1,1.1,0.2,2.6,0.3,4.6c0,2.4,0,4.4,0.1,5.9c0,1.5,0,2.8-0.1,3.9c-0.1,1-0.2,1.9-0.4,2.6c-0.1,0.7-0.4,1.4-0.7,2.1
			c-1.1,2.3-2.7,4-4.8,5.2c-2.1,1.1-5,1.9-8.6,2.2c-0.8,0.2-1.6,0.4-2.2,0.6c-0.6,0.2-1,0.3-1.1,0.5c0,1.2,0,2,0,2.7
			c-0.1,1.4-0.2,3.3-0.3,5.8c-0.1,2.5-0.3,5.1-0.4,7.8c-0.2,2.7-0.3,5.3-0.5,7.7c-0.2,2.4-0.3,4.3-0.4,5.5c-0.2,0.7-0.6,1.4-1.4,2.2
			c-0.8,0.8-1.5,1.3-2.1,1.4c-0.5,0.2-1.5,0.2-2.9-0.1c-1.4-0.2-2.6-0.5-3.4-0.8c-0.3,0-0.7-0.1-1-0.4c-0.3-0.3-0.5-0.6-0.7-0.9
			c-0.5-0.5-0.7-0.7-0.5-0.8c0.2,0,1.2,0.1,3.1,0.4c0.8,0,1.4,0,1.9-0.1c0.4,0,0.9-0.2,1.4-0.3c1.1-0.3,1.9-1,2.4-1.9
			c0.4-0.9,0.7-2.8,0.8-5.7c0.1-0.8,0.3-1.9,0.4-3.3c0.2-1.4,0.3-2.6,0.5-3.6c0-0.8,0-2.3,0.1-4.4c0.1-2.1,0.1-4.3,0.1-6.5
			c0-1.8,0.1-3.2,0.1-4.1c0-1,0.1-1.7,0.2-2.2c0.1-0.5,0.2-0.8,0.3-0.9c0.1-0.1,0.3-0.2,0.6-0.3c3.3-0.5,6-1.1,8.2-1.7
			c2.2-0.6,3.3-1.2,3.3-1.7c0.1,0,0.3,0,0.6,0c0.1,0,0.2-0.2,0.5-0.5c0.3-0.3,0.6-0.7,1-1.1c0.4-0.4,0.8-0.9,1.1-1.4
			c0.4-0.5,0.7-0.9,1-1.3c0.3-0.6,0.6-1.3,0.8-2c0.2-0.7,0.3-1.5,0.4-2.4c0.1-0.9,0.2-2.1,0.2-3.5c0.1-1.4,0.1-3,0-5
			c-0.1-1.6-0.2-2.8-0.3-3.8c-0.1-1-0.1-1.8-0.2-2.5c-0.1-0.7-0.2-1.3-0.3-1.8c-0.1-0.5-0.2-1.1-0.4-1.7
			C250.8,97.2,250.6,96.3,250.4,95.2z"/>
		<path class="st0" d="M267.9,96.6c-0.5-1.1-0.9-2.4-1.4-3.7c-0.4-1.3-0.8-2.3-1.1-3.1c-0.2-0.4-0.3-0.7-0.3-0.8
			c0-0.1,0.1-0.1,0.3-0.1c0.3,0,0.7,0.3,1.2,1.1c0.5,0.7,0.9,1.4,1.2,2.2c0.1,0.3,0.3,0.7,0.4,1c0.1,0.4,0.3,0.6,0.5,0.8
			c0.3,0.7,0.6,1.6,0.8,2.6c0.3,1,0.4,1.6,0.4,1.9c0,0.4,0.2,0.9,0.6,1.5c0.3,0.3,0.4,0.6,0.3,0.8c-0.1,0.2-0.2,0.7-0.3,1.3
			c-0.3,0.7-0.6,1.2-0.8,1.3c-0.2,0.1-0.4-0.1-0.4-0.7c0-0.1,0-0.5,0-0.9s-0.1-1-0.3-1.4c-0.2-0.4-0.4-1-0.7-1.7
			C268.2,97.6,268,97,267.9,96.6z"/>
		<path class="st0" d="M284.8,102.3c1-2.1,1.7-3.7,2.3-4.8c0.5-1.1,0.9-1.9,1.1-2.4c0.2-0.5,0.3-0.9,0.4-1.1c0-0.2,0-0.4-0.1-0.7
			c0-0.6,0-0.9,0.1-0.9c0.1,0,0.2,0.1,0.6,0.4c0.4,0.3,0.9,0.8,1.4,1.4c0.5,0.6,0.7,1.2,0.7,1.8c0,0.5-0.3,1.3-0.9,2.6
			c-0.6,1.2-1.5,3.3-2.8,6.1c-2.8,5.6-4.8,9.7-6.2,12.6c-1.4,2.8-2.4,5.3-3,7.5c-0.6,2.2-0.8,4.5-0.8,7.1c0,2.5,0.1,6.3,0.1,11.2
			c0.1,5,0.1,8.8,0.1,11.4c0,2.6,0,4.5-0.1,5.8c-0.1,1.2-0.3,2-0.6,2.3c-0.3,0.3-0.7,0.6-1.3,1c-0.5,0.3-0.9,0.5-1.3,0.6
			c-0.4,0.1-1.4,0.1-2.8,0.1c-1.2,0-2.1,0-2.6,0c-0.6,0-1-0.2-1.3-0.5c-1.2-0.5-1.8-1.1-1.8-1.7c0-0.2,0.9-0.4,2.7-0.3
			c1.6,0.2,2.8,0.1,3.6-0.1c0.8-0.2,1.5-0.7,2.1-1.4c0.3-0.3,0.5-0.6,0.6-1c0.1-0.4,0.2-1.1,0.3-2.3c0.1-1.2,0.1-3,0.1-5.5
			c0-2.5-0.1-6-0.1-10.5c-0.1-4.5-0.1-8-0.1-10.5c0-2.5,0.1-4.6,0.3-6.2c0.2-1.6,0.5-3,1-4.2c0.5-1.2,1.1-2.8,2-4.7
			c1-2.1,2.2-4.4,3.4-6.8C283.2,105.8,284.1,103.8,284.8,102.3z"/>
	</g>
</g>
</svg>
