<?xml version="1.0" encoding="utf-8"?>
<!-- Generator: Adobe Illustrator 20.0.0, SVG Export Plug-In . SVG Version: 6.00 Build 0)  -->
<svg version="1.1" id="Layer_1" xmlns="http://www.w3.org/2000/svg" xmlns:xlink="http://www.w3.org/1999/xlink" x="0px" y="0px"
	 viewBox="0 0 476.4 476.4" style="enable-background:new 0 0 476.4 476.4;" xml:space="preserve">
<style type="text/css">
	.st0{fill:#231E5E;}
	.st1{fill:#1277BC;}
	.st2{fill:#FBF8F5;}
</style>
<g>
	<path class="st0" d="M238.1,5.4C109.2,5.4,4.4,110.2,4.4,239c0,128.8,104.8,233.7,233.7,233.7S471.7,367.9,471.7,239
		C471.7,110.2,366.9,5.4,238.1,5.4z"/>
	<g>
		<path class="st1" d="M238.1,37.6C126.8,37.6,36.6,127.8,36.6,239s90.2,201.4,201.4,201.4c45.3,0,87.1-15,120.8-40.2
			c1.2-0.9,2.4-1.8,3.6-2.8c9.1-7.1,17.5-15,25.3-23.6c1.5-1.7,3-3.4,4.5-5.2c17.4-20.7,30.7-44.9,38.7-71.4c0.3-1.1,0.7-2.2,1-3.3
			c1.8-6.4,3.3-12.9,4.5-19.5c0.3-1.7,0.6-3.5,0.9-5.2c1.5-9.8,2.2-19.9,2.2-30.2C439.5,127.8,349.3,37.6,238.1,37.6z"/>
		<path class="st2" d="M234.7,241l-11.8,1l-7.5,2.3l-6.3,6.3v8.4l7.7,3l9.1-1.4l4.2-4.4c0,0,40.9-16.9,42.1-17.2
			c1.1-0.4,12.3-7.6,12.3-7.6l4.2-1.9l2.4,20.8l-1,26.1l-3.4,22.8l-1.5,11.5l0.8,3.9l-3.4,7.9l-10.8,23.2l-4.2,10.2
			c0,0-1.5,8.9-1.1,9.1c0.3,0.2,1.8,9.9,1.8,9.9l4.7,10c0,0,12.3,2.4,12.7,2.6c0.5,0.2,11.9,0,11.9,0s-0.5,24.8,15.3,24.7
			c15.8-0.2,16.4-15.5,17.6-21c1.1-5.5,2.9-21.9,2.9-21.9l19.2,3.1l8.7,28.1l30.6-27.1l-2.6-6.3c0,0,2.3-9.8,2.6-11
			s-2.9-18.7-2.9-18.7s-10.4-18.5-1.6-31.2l-3.1-16.9l-3.7-10.8l6-20l3.1-19.6l3.2,2l5.8,12l10.2,12.6l9,11.3l15.2,20.8l5-24.1
			L425.6,248l-9.7-11.9l-7.9-6.6l5.5-9.8l-2.7-3.9l-11.1-5.9l-11.4-9.7l-8.7-8.7l-10.8-8.7l-8.9-5.2c0,0-3.6-4.1,0-8.2
			s4.9-2.9,4.9-2.9l2.9-9.4l2.6-16.1l4.7-4.7l-0.3-13.9l-4.7-11l-13.8-6.6l-7.1-4.5l-13-4.4l-11.4,2.1l-11.3,6l-12.9,14.7l-5.3,13.4
			c0,0-1.9,18.4,6.9,19.3l1.6,3.1l0.5,4.1c0,0-0.3,4.4,5,17.8l-8.2,2.4l-11.8,5.5l-7.6,8.2l-11.8,17.3l-9.2,9.7l-14.3,10L234.7,241z
			"/>
		<path class="st2" d="M238.1,17C115.4,17,16,116.4,16,239s99.4,222,222,222s222-99.4,222-222S360.7,17,238.1,17z M238.1,440.4
			c-111.2,0-201.4-90.2-201.4-201.4S126.8,37.6,238.1,37.6c111.2,0,201.4,90.2,201.4,201.4S349.3,440.4,238.1,440.4z"/>
		<g>
			<path class="st0" d="M432.5,258.2c-4.1-8.3-7.7-16.8-14.1-23.9c-2.1-1.9-4.1-3.9-6.5-5.4c-0.6-0.4-0.3-0.7-0.1-1.1c1-2,2.1-4,3-6
				c1.5-3.3,1-4.7-2-6.8c-3.8-2.5-7.8-4.6-11.5-7.2c-5.8-4.1-11.1-8.6-15.7-13.9c-6.3-7.1-13.7-12.8-22.9-16.3
				c-1.1-0.4-2.1-1.2-3.4-1.3c-0.6,0.9-0.3,1.5,0.6,2.1c2.3,1.5,4.6,3.1,6.8,4.8c6.8,5,12.7,11,18.9,16.7c7,6.4,14.1,12.5,22.6,17.2
				c1.2,0.6,2.3,3.7,1.7,4.9c-3.3,6.9-8.1,12.6-15.1,16.4c-0.7,0.4-1.2,0.4-1.8-0.2c-1.3-1.2-2.7-2.2-4.3-3.1
				c-5-3-10.3-3.6-15.8-1.1c-5.1,2.3-8.9,6-12.6,10c0.8,0.2,1.2-0.2,1.7-0.5c4.2-2.5,8.5-4.6,13-6.6c2.4-1.1,4.9-2,7.6-2.1
				c1.5,0,2.3,0.6,2.7,1.9c0.4,1.1,0.4,2.2,0.4,3.3c0,6-0.3,12-1.2,17.9c-1.2,7.9-3.4,15.6-7.6,22.5c-0.5,0.8-0.3,1.2,0.3,1.7
				c2.1,1.5,3.2,3.6,3.8,5.9c0.1,0.6,0.4,1.1,0.6,1.7c1.7,5.2,3.4,10.4,5,15.6c0.3,0.2,0.2,0.7,0.6,0.9c1-4.9,0.4-9.6-0.9-14.3
				c-0.7-2.4-1.3-4.8-2.2-7.1c-1.5-3.7-1.5-7.3-0.4-11.1c1.8-6.6,3.8-13.2,4.9-20c0.6-3.6,0.9-7.2,1.4-10.9c0.6,0.5,0.7,1.1,1,1.6
				c4.2,7.7,9.8,14.4,15.6,21.1c3.7,4.2,7.3,8.5,10.9,12.7c0.3,0.3,0.5,0.7,0.8,1.1c2.9,3.2,5.5,6.6,7.5,10.3
				c1.4,2.6,3.1,5.1,4.9,7.4c0.3-1.1,0.7-2.2,1-3.3c-6.9-9-13.5-18.2-20.3-27.3c-5-6.9-10.3-13.6-14.8-20.8
				c-1.1-1.8-0.8-3.8,0.8-5.2c3-2.7,6.3-5.2,9.4-7.8c0.9-0.8,1.5-0.7,2.3,0c5.5,4.8,10.3,10.2,14,16.4c3.4,5.7,6,11.8,9.1,17.7
				c1.3,2.5,2.6,5,4,7.4c0.3-1.7,0.6-3.5,0.9-5.2C435.6,265.6,434.2,261.8,432.5,258.2z"/>
			<path class="st0" d="M302.3,154.4c0.8,0.3,1.3,0.3,1.9-0.2c0.3-0.3,0.7-0.6,1-0.9c4-3.4,7.9-6.9,11.9-10.3
				c0.3-0.3,0.9-0.5,0.4-1.1c-0.4-0.5-0.8,0.1-1.1,0.2c-3.7,2-7.5,4-11.2,6c-3.5,1.9-4,1.7-6-1.6c-0.3-0.5-0.6-1.1-0.8-1.7
				c-1.4-3.4-1.6-7-1-10.6c2.2-11.6,7.6-21.5,17.4-29.1c8.5-6.5,17.9-9.2,28.7-6.3c1.7,0.4,3.3,1,5.3,1.6c-2.1-1.9-4.3-3.1-6.7-4
				c-1.9-0.8-4-1-5.9-1.6c-2.4,0-4.7,0-7.1,0c0,0.2-0.2,0.3-0.4,0.3c-3.1,0.5-5.9,1.8-8.6,3.2c-6.3,3.3-11.7,7.8-16.4,13
				c-3.3,4-6.2,8.2-8,13c-2.6,6.7-3.7,13.5-1.8,20.5C295.2,149.1,297.8,152.5,302.3,154.4z"/>
			<path class="st0" d="M392.6,365.5c2.4-7.4,2.3-14.9,0.2-22.4c-1.3-4.9-3.7-9.4-5.7-14c-3.2-7.1-3.5-14.1-0.3-21.3
				c0.1-0.3,0.4-0.6,0.2-0.9c-0.3,0.1-0.4,0.6-0.8,0.5c-0.1,0.3-0.2,0.7-0.4,1c-2.9,4.6-4.2,9.6-4.3,15c-0.1,2.5,0,5,1.4,7.2
				c4.4,7.1,7,14.8,7.1,23c0,2.8-0.3,5.7-1,8.6c-1,3.8-3.1,5.2-7.2,5.1c-5.2-0.2-10.3-0.2-15.4,0.6c-5.4,0.9-10.7,1.6-16.2,1.4
				c-4-0.2-8-0.6-12-1.2c-2-0.3-4-0.5-6-0.9c-3.2-0.6-4.1-2.2-3.1-5.1c0.2-0.7,0.5-1.4,0.7-2c0.8-1.9,1.7-3.8,2.7-6
				c-2.9,1.8-5.2,3.7-7,6.1c-2.2,3-2,5,0.1,7.7c1.1,1.4,2.7,2.2,4.3,3.1c0.6,0.3,0.9,0.5,0.8,1.4c-0.4,2.6-0.4,5.3-0.7,7.9
				c-0.4,3.9-0.9,7.7-1.6,11.5c-0.6,3.6-1.3,7.2-2.6,10.6c-1.9,4.8-5.7,7.2-10.9,7.7c-7.1,0.7-12.6-3.9-14.1-10.5
				c-0.4-1.8-0.4-3.7-0.7-5.5c-0.6-4,0.1-6.1,4.2-7.4c5.1-1.6,9.9-3.8,14.8-5.7c0.2-0.1,1,0,0.6-0.7c-0.3-0.6-0.5-0.6-1.2-0.5
				c-4.4,1.2-8.8,2.4-13.2,3.5c-4.1,1-8.2,2-12.4,2.2c-4.7,0.2-9.4,0.2-14-0.8c-2.5-0.5-4.8-1.3-6.5-3.2c-2.3-2.6-2.9-5.5-2.2-8.8
				c0.4-1.7,0.3-1.6,1.8-0.6c3.9,2.7,8.4,4.3,13.2,4.6c3.6,0.2,7.1-0.7,10.4-2.2c3.8-1.7,7.2-4,10.3-6.7c3.3-2.8,6.7-5.5,10-8.2
				c2.2-1.8,4.3-3.6,6.5-5.4c2.8-2.2,5.6-4.4,8.4-6.6c2.7-2.2,5.4-4.3,8-6.5c0.4-0.4,1-0.3,1.3-0.2c0.4,0.2,0,0.6-0.1,0.9
				c-0.3,1-0.6,2.1-0.9,3.3c1.9-0.8,3.4-1.9,4.5-3.3c1-1.2,0.9-2.6,0.2-4c-0.6-1.1-1.8-0.6-2.7-0.7c-0.5-0.1-1-0.1-1.6,0
				c-2.6,0.2-4.9,0.8-6.9,2.5c-2.2,1.8-4.2,3.8-6.4,5.7c-4.2,3.5-8.2,7.3-12.2,10.9c-3,2.7-6,5.6-9.1,8.3c-2.8,2.4-5.8,4.6-9.2,6.1
				c-3.6,1.5-7.3,2.3-11.2,1.6c-5.8-1.1-10.6-3.9-14.9-7.7c-2-1.8-2.2-3.1-1.2-5.5c2.8-6.2,5.5-12.4,8.2-18.6
				c3.5-7.7,7-15.4,10.4-23.2c0.5-1.2,1-1.4,2.2-0.9c5.4,2,11.1,3,16.9,3.4c3.7,0.2,7.3,0.2,11-0.1c6.5-0.5,12.8-1.8,19-3.6
				c5.6-1.6,11.3-2.9,17.1-3.8c3.9-0.6,7.8-1.2,11.7-1.8c4.4-0.7,8.7-1.3,13.2-1.1c1.4,0.1,2.8-0.1,4.2-0.3
				c-0.5-0.9-1.4-1.3-2.3-1.5c-2.2-0.6-4.6-0.7-6.9-0.8c-3.4-0.2-6.8-0.1-10.2,0.2c-3.1,0.3-6.2,0.7-9.3,1.3c-6.2,1.1-12.1,3-18,5.1
				c-7.2,2.6-14.6,3.9-22.3,3.6c-2.8-0.1-5.6-0.4-8.4-0.8c-5.9-1-11.4-2.8-16.8-5c-0.6-0.3-0.8-0.6-0.7-1.1
				c0.9-3.8,1.1-7.6,1.7-11.4c0.5-3.6,0.8-7.2,1.2-10.9c0.3-3.7,0.6-7.5,0.8-11.2c0.3-4.1,0.3-8.2,0.5-12.3
				c0.2-3.4,0.2-6.9,0.2-10.3c0-5.1-0.3-10.1-0.4-15.2c-0.1-3.1-0.5-6.1-0.3-9.2c0-0.1,0-0.3,0-0.4c-0.5-3.1-0.4-6.3-0.8-9.5
				c-0.3-2.3-0.3-4.7-0.8-7c-0.9,4.1-1.3,8.3-1.9,12.4c0.3,1.2-0.3,2.4-0.2,3.6c0.1,2.1,0.4,4.1,0.5,6.2c0.3,3.7,0.6,7.4,0.8,11.1
				c0.2,3.8,0.2,7.7,0.3,11.5c0.1,2.3-0.3,4.5-0.3,6.8c0.1,2.6,0,5.2-0.3,7.7c-0.3,2.5-0.4,5.1-0.7,7.6c-0.3,2-0.4,4.1-0.7,6.2
				c-0.5,3.6-1.1,7.2-1.9,10.7c-0.9,4.3-1.8,8.6-3,12.8c-0.3,0.8-0.4,1.8,0.4,2.7c1.2,1.3,1.3,2.8,0.5,4.3c-0.8,1.6-1.6,3.2-2.3,4.8
				c-3.2,7.4-7.2,14.5-10.6,21.8c-2.6,5.7-4.8,11.6-5.4,17.8c-0.4,4.3-0.4,8.6,0.5,12.9c1.1,5.3,3.1,10.2,7.9,13.6
				c2.5,1.8,5.4,2.9,8.5,3.1c4.3,0.2,8.7,0.2,13-0.2c1.4-0.1,1.9,0.4,1.9,1.7c-0.1,3.3,0.1,6.5,0.9,9.7c1,4.1,3.1,7.8,6.7,10.2
				c5.9,4,12.3,3.5,18.4,0.4c5.9-3.1,8.2-8.3,9-14.3c0.5-3.9,0.6-7.9,0.8-11.8c0.2-4.3,1.2-8.5,1.8-12.8c0.1-0.4,0.1-0.8,1-0.7
				c4.2,0.7,8.4,1.2,12.7,1.7c0.7,0.1,1.1,0.3,1.2,1c0.2,1.3,0.4,2.7,0.9,4c1.9,5.5,3.8,11,6.3,16.3c0.8,1.7,1.6,3.3,2.4,4.9
				c1.2-0.9,2.4-1.8,3.6-2.8c-1.1-2.1-2.1-4.2-3.1-6.3c-2.4-5.3-4.1-10.8-5.4-16.4c-0.5-2.1-0.4-2.3,2-2.3c1.8,0,3.6-0.2,5.3-0.3
				c3.8-0.2,7.6-0.7,11.4-1c2.9-0.2,5.8-0.5,8.6-0.8c3.3-0.3,5.2,0.3,6.2,3.5c1.5-1.7,3-3.4,4.5-5.2
				C392.2,367.6,392.3,366.6,392.6,365.5z"/>
			<path class="st0" d="M337,188c-5.8,3.3-11.4,2.8-16.4-1.5c-1.4-1.2-2.8-2.5-4.2-3.8c-6.1-5.9-10.1-12.7-10.9-21.1
				c-0.2-2.1-0.3-4.2-1-6.1c-1.4,0-2,0.5-1.5,1.9c0.1,0.3,0.1,0.7,0.2,1.1c1,4.9,2.6,9.6,4,14.4c0.9,3.1,0.9,3.1-2.5,4
				c-4.4,1.1-8.8,2.2-13,3.8c-4.8,1.9-8.1,5.4-10.8,9.5c-3.4,5.2-6.7,10.5-10.5,15.6c-6.1,8.3-12.6,16-22.1,21
				c-2.5,1.3-4.5,3.2-6.4,5.2c-2,2.2-4.2,4.2-6.8,5.8c-3,1.9-6.3,2.9-9.9,2.4c-2-0.2-3.8-0.2-5.7,0.3c-7.8,2-13.4,9.4-12.6,17
				c0.1,1.1,0.6,2.1,1.3,2.9c5.1,5.4,13.8,5.1,18.4-0.7c0.8-1,1.2-1.8-0.1-2.6c-1.8-1.4-3.6-2.9-5.6-4.5c-0.1,2,0.2,3.8,0.4,5.6
				c0.2,1.1,0.1,1.7-1.3,1.7c-1.2,0-2.3,0.3-3.5,0.4c-2.9,0.2-4.4-0.9-5.1-3.6c-1.5-6.2,2-11.3,9-12.9c3.3-0.8,6.7-1.1,10.1-0.8
				c3.9,0.4,7-1.2,9.7-3.6c3.8-3.3,7.7-6.5,11.6-9.7c3.2-2.6,6.5-5.2,9.7-7.8c0.5-0.4,0.8-0.5,1.4-0.1c5.4,3.7,10.9,7.4,16.4,11.1
				c0.1,0.1,0.2,0.1,0.6,0.4c-2.5,1.1-4.8,2.2-7,3.2c-13.6,6-27.5,11.3-41,17.4c-1.3,0.6-2.7,1.1-4,1.7c-0.8,0.8,0,1.4,0.3,2
				c0.4,0.7,0.9,0,1.3-0.1c1-0.3,2.1-0.6,3.1-0.9c4-1.2,8.3-1.9,12.1-3.6c10.5-4.6,20.9-9.3,31.4-14c4.4-2,7.1-5.4,10.3-8.6
				c-0.7-0.2-1.2-0.4-1.7-0.5c-4.7-0.9-9.1-2.4-12.9-5.3c-2.6-2-4.3-4.5-5.2-7.5c-0.2-0.5-0.3-1.1,0.2-1.6
				c6.1-8,11.9-16.3,18.9-23.6c4.7-4.9,9.7-9.4,16.1-12.3c3.4-1.5,5.7-1.2,8.5,1.1c2.2,1.8,3.7,4.1,5.7,6.1
				c4.1,4.2,9.1,6.1,15.1,5.5c6.5-0.6,11.6-3.6,15.8-8.1c1.4-1.5,2.5-3.3,2.9-5.6c-1,0.7-1.8,1.3-2.6,2
				C344,183.2,340.7,185.9,337,188z"/>
			<path class="st0" d="M366.8,165.2c0.3-0.9,0.6-1.8,0.8-2.7c0.9-5,2.4-10,2.5-15.2c0.1-2.2,1.3-3.4,3.4-4c2-0.5,2.4-1,2.6-2.9
				c0.2-2,0.5-3.9,0.7-5.9c1-8.5-0.2-16.6-6.3-23.4c-4.2-4.1-10.7-6.9-14.6-6.4c1.9,1.1,3.8,2.2,5.6,3.3c5.7,3.6,10,8.2,11.3,14.8
				c0.8,4,0.7,8.1,0.4,12.2c-0.1,1.2-0.4,1.5-1.6,1.2c-0.2-0.1-0.5-0.1-0.7-0.1c-0.9-0.3-1.3,0-1.5,1c-0.5,2-1,3.9-1.7,5.8
				c-1.3,3.6-3.3,6.7-6.5,9.1c-0.6,0.5-1,0.6-1.2-0.3c-0.2-1.1-0.6-2.1-1-3.4c-0.6,0.7-1,1.2-1.4,1.6c-2.1,2-4.2,4-6.6,5.7
				c-2.1,1.6-4.3,1.8-6.7,0.6c-0.6-0.3-1.3-0.6-2.1-0.9c0.3,1.7,0.6,3.3,0.8,4.9c0.1,1.2,0.6,1.5,1.8,1.2c3.8-0.9,7.5-2.3,11.4-3.1
				c3.7-0.7,6.9-2.4,9.1-5.4c0,0,0.2,0,0.3,0c0.6,4,0.8,7.9-1.7,11.5c-2.5,3.5-6.4,4.9-10.6,6.1c1.5,1,3.1,1.2,4.6,1.5
				C362.7,171.5,365.5,169.2,366.8,165.2z"/>
			<path class="st0" d="M330.8,140.5c0.2-0.3,0.7-0.7,0.2-1c-0.6-0.4-0.8,0.2-1.1,0.6c-4.4,5.8-8.7,11.6-13.1,17.5
				c-0.5,0.6-0.4,0.8,0.4,1.1c2.7,0.9,5.5,1.6,8.4,1.7c3.4,0.1,6.6-0.5,9.2-2.8c0.5-0.4,1-0.7,1.1-1.4c-4.4,0.4-8.7,0.7-13.2,1.1
				c0.3-0.6,0.5-1,0.7-1.5C325.9,150.6,328.3,145.5,330.8,140.5z"/>
		</g>
		<path class="st0" d="M154.6,115.7c-0.8-1.3-1.4-2.2-1.7-2.6c-0.3-0.4-0.5-0.8-0.7-1.1c-0.7-0.4-0.7-0.5-0.1-0.3
			c0.5,0.4,1.3,1.1,2.5,2.3c1.2,1.2,2,2.2,2.6,3.1c1.2,1.6,2,3.3,2.6,5c0.6,1.8,1.1,4,1.5,6.8c0.3,2,0.6,3.5,0.7,4.4
			c0.1,0.9,0.1,1.8-0.1,2.7c-0.6,5.1-3.3,9.6-8.1,13.3c-2.5,1.8-5,3.2-7.5,4.3c-2.4,1.1-5.5,2-9.2,2.7c-2.1,0.5-3.6,0.8-4.5,0.8
			c-0.8,0-1.5-0.1-2-0.3c-0.7-0.5-1-0.7-1.1-0.7c-0.2,0-0.7-0.2-1.3-0.7c-0.4-0.4-0.6-0.6-0.6-0.6c0,0,0.2,0,0.5,0
			c0.2,0.1,0.7,0.2,1.4,0.1c0.7,0,1.5-0.2,2.5-0.3c1-0.2,1.9-0.4,2.9-0.6c1-0.2,1.9-0.5,2.7-0.8c0.7-0.2,1.5-0.4,2.5-0.7
			c0.9-0.3,1.9-0.7,2.8-1.1c0.9-0.4,1.7-0.7,2.3-1c0.6-0.3,1-0.6,1.1-0.8l0.5-0.4c0.1,0,0.4-0.1,0.8-0.3c0.5-0.2,0.9-0.5,1.4-0.8
			c0.5-0.3,0.9-0.6,1.3-0.8c0.4-0.3,0.6-0.4,0.7-0.6c0-0.1,0.1-0.3,0.2-0.5c0.2-0.2,0.4-0.4,0.7-0.6c1.2-0.9,2.2-2.1,3.3-3.6
			c1-1.4,1.9-3,2.5-4.6c0.2-0.5,0.5-1.2,0.8-2.2c0-0.1,0-0.3-0.1-0.6c0-0.3,0-0.5,0.1-0.7c0.3-0.8,0.4-2,0.2-3.8
			c-0.2-1.7-0.5-3.6-0.9-5.6c-0.5-1.9-1-3.5-1.6-5C156,118.1,155.3,116.8,154.6,115.7z"/>
		<path class="st0" d="M126.6,106.8c-0.7-3.2-1.3-6-1.7-8.3c-0.5-2-0.8-3.6-1-4.8c-0.2-1.1-0.2-2-0.1-2.6c0.1-0.6,0.5-1,1-1.2
			c0.5-0.2,1.3-0.4,2.3-0.6c2.9-0.5,5-0.6,6.3-0.4c1.3,0.2,2.1,0.8,2.2,1.6c0,0.1,0,0.3,0,0.4c-0.1,0.1-0.3,0.1-0.8,0.1
			c-1.3,0.1-2.4,0.2-3.2,0.2c-0.8,0-1.7,0.2-2.7,0.5c-0.7,0.2-1.2,0.4-1.5,0.6c-0.3,0.2-0.5,0.5-0.6,1c-0.1,0.5-0.1,1.2,0.1,2.1
			c0.1,0.9,0.4,2.3,0.7,4c0.3,1.7,0.5,3,0.6,3.9c0.1,0.9,0.2,1.6,0.2,2c0,0.4-0.1,0.7-0.2,0.9c-0.1,0.1-0.3,0.2-0.6,0.3
			c-0.3,0.1-0.6,0.1-0.8,0.2C126.7,107,126.6,107,126.6,106.8z"/>
		<path class="st0" d="M133.2,140.5c-0.9-4-1.6-7.4-2.1-10.3c-0.5-2.5-1-4.5-1.2-5.9c-0.3-1.4-0.4-2.4-0.5-3.1
			c-0.1-0.6-0.1-1,0.1-1.1c0.1-0.1,0.3-0.1,0.5-0.1c0.3,0,0.7-0.1,1.2-0.1c0.5,0,1.1-0.1,1.7-0.2c0.4-0.1,1.1-0.1,2.1,0
			c1,0.1,1.9,0.1,2.6,0.1c1.2,0.1,2.1,0.3,2.7,0.4c0.6,0.2,1.2,0.4,1.6,0.6c0.7,0.5,1,0.9,0.9,1.2c-0.1,0.3-0.5,0.3-1.3,0.1
			c-0.2-0.1-0.8-0.1-1.6-0.2c-0.8-0.1-1.7-0.1-2.7-0.1c-1,0-1.9-0.1-2.7-0.1c-0.8,0-1.4,0-1.7,0.1c-0.6,0.1-0.9,0.3-1,0.5
			c0,0.2,0.1,1,0.5,2.2c0.1,0.6,0.4,1.8,0.8,3.5c0.4,1.7,0.8,3.6,1.1,5.4c0.3,1.6,0.5,2.8,0.6,3.7c0.1,0.9,0.2,1.5,0.2,2
			c0,0.4-0.1,0.7-0.2,0.8c-0.1,0.1-0.3,0.2-0.6,0.3c-0.3,0.1-0.6,0.1-0.8,0.2C133.4,140.7,133.3,140.6,133.2,140.5z"/>
		<path class="st0" d="M149.4,91c-0.3-1.9-0.8-3.6-1.4-5.3c-0.6-1.6-1.4-3-2.3-4.2c-0.6-0.8-0.4-0.8,0.6-0.1c1.5,1,2.8,2.7,4.2,5.3
			c0.3,0.4,0.5,0.8,0.7,1.1c0.2,0.3,0.3,0.7,0.5,1.2c0.1,0.5,0.3,1,0.4,1.7c0.1,0.7,0.3,1.6,0.5,2.7c0.4,2.2,0.6,3.6,0.6,4.4
			c0.1,0.8,0,1.7-0.3,2.7c0,0.8-0.1,1.5-0.2,2.3c-0.1,0.8-0.3,1.2-0.3,1.3c-0.2,1.1-0.5,2.1-0.8,2.9c-0.3,0.8-0.5,1.5-0.7,2.2
			c-0.3,0.7-0.6,1-0.8,1c-0.2,0-0.6-0.3-1.3-1c-1.2-0.7-1.7-1.2-1.4-1.5c0.1-0.1,0.3-0.5,0.5-1.2c0.2-0.7,0.5-1.4,0.7-2.2
			c0.2-0.8,0.4-1.5,0.6-2.2c0.2-0.7,0.2-1.1,0.2-1.3c0-0.3,0.1-0.8,0.3-1.5c0.2-0.6,0.3-1.8,0.2-3.6C149.8,93.9,149.7,92.3,149.4,91
			z"/>
		<path class="st0" d="M170.6,113.4c-0.2-2.8-0.5-5.5-0.7-8c-0.2-2.5-0.5-4.9-0.8-7.2c-0.3-2.4-0.6-4.7-1-7.1
			c-0.3-2.4-0.7-4.9-1.2-7.6c-0.4-2.9-0.7-5.2-0.9-6.7c-0.2-1.5-0.3-2.6-0.2-3.1c0-0.6,0.2-0.7,0.5-0.6c0.3,0.2,0.7,0.5,1.3,0.9
			c0.1,0.2,0.2,0.4,0.3,0.7c0.1,0.2,0.3,0.7,0.4,1.3c0.2,0.6,0.3,1.5,0.5,2.7c0.2,1.2,0.4,2.8,0.7,4.8c0.9,5.3,1.7,10.7,2.3,16.2
			c0.6,5.5,1.1,10.3,1.4,14.4c0,1.5,0.2,3.6,0.6,6.3c0.3,2.7,0.7,5.1,1.1,7.3c1.3,7.5,1.8,13,1.4,16.7c-0.4,3.6-1.5,5.6-3.5,5.9
			c-1,0-1.9-0.1-2.9-0.4c-1-0.2-1.8-0.6-2.6-1c-0.5-0.5-0.7-0.7-0.6-0.8c0.1-0.1,0.6-0.1,1.6-0.1c1.5,0,2.7-0.5,3.6-1.5
			c0.9-1,1.4-2.4,1.5-4.3c0.1-1.3,0.2-2.5,0.2-3.5c0-1,0-2-0.1-3.1c-0.1-1.1-0.2-2.2-0.4-3.5c-0.2-1.3-0.4-2.8-0.8-4.7
			c-0.3-2-0.7-4.4-1-7.1C171,117.6,170.7,115.3,170.6,113.4z"/>
		<path class="st0" d="M203.4,71.2c0-0.6,0-1.2-0.1-1.9c-0.1-0.6-0.1-1.2-0.2-1.6c-0.1-0.6,0-0.9,0.2-1c0.3-0.1,0.7,0.1,1.5,0.7
			c0.5,0.4,0.8,0.7,1,1.1c0.1,0.4,0.3,1.3,0.6,2.7c0.2,2.7-0.1,4.7-1,6.1c-0.3,0.4-0.6,0.7-0.8,0.9c-0.2,0.2-0.5,0.4-0.8,0.6
			c-0.3,0.2-0.8,0.3-1.4,0.5c-0.6,0.2-1.4,0.3-2.5,0.6c-0.9,0.2-1.8,0.4-2.9,0.7c-1,0.3-2,0.6-2.9,0.9c-0.9,0.3-1.7,0.6-2.4,0.9
			c-0.7,0.3-1.1,0.5-1.3,0.7c-0.4,0.4-0.8,0.9-1.2,1.7c-0.4,0.7-0.8,1.5-1.1,2.2c-0.3,0.7-0.6,2-0.9,4.1c-0.3,2-0.4,3.9-0.4,5.7
			c-0.1,0.7-0.1,1.4-0.1,2c0,0.7,0.1,1.5,0.3,2.4c0.1,1,0.3,2.2,0.6,3.7c0.3,1.5,0.6,3.4,1,5.8c0.5,3,0.9,5.4,1.3,7.2
			c0.4,1.8,0.7,3.4,1,4.5c0.3,1.2,0.6,2.2,0.9,2.9c0.3,0.8,0.7,1.6,1.2,2.3c0.8,1.6,0.7,2-0.4,0.9c-0.7-0.6-1.2-1-1.4-1.3
			c-0.2-0.3-0.5-0.8-0.9-1.6c-0.3-0.7-0.6-1.3-0.9-1.7c-0.2-0.5-0.5-1-0.7-1.5c-0.2-0.5-0.4-1.1-0.6-1.8c-0.2-0.7-0.4-1.6-0.7-2.7
			c-0.6-2.4-1.2-5-1.7-7.8c-0.5-2.8-1-5.5-1.3-8.2c-0.3-2.7-0.5-5.2-0.6-7.5c-0.1-2.3,0.1-4.2,0.4-5.7c0.2-1.5,0.3-2.6,0.5-3.2
			c0.1-0.6,0.4-1.4,0.9-2.4c0.4-0.9,0.8-1.6,1.1-1.8c0.3-0.3,0.8-0.6,1.3-1c0.5-0.2,1.2-0.4,2.1-0.7c0.9-0.3,1.8-0.6,2.8-0.9
			c1-0.3,1.9-0.6,2.9-0.9c0.9-0.3,1.7-0.5,2.4-0.7c2-0.3,3.4-0.9,4-1.8C202.9,74.6,203.3,73.2,203.4,71.2z"/>
		<path class="st0" d="M215,97.1c-0.2-0.1-0.3-0.4-0.4-0.8c0-0.3,0.3-0.1,0.9,0.5c0.7,0.7,1.3,1.3,1.8,1.9c0.5,0.5,0.9,1.1,1.1,1.8
			c0.2,0.7,0.6,2.2,1.2,4.6c0.7,3.2,1.1,6.3,1.4,9.5c0.3,3.2,0.3,6.2,0.1,9.2c0,0.6-0.1,1.3-0.1,2.1c0,0.8,0,1.5-0.1,2.1
			c-0.3,3.6-0.6,6.3-0.9,8.1c-0.4,1.7-0.9,3-1.5,3.7c-0.1,0.2-0.4,0.5-0.8,1c-0.7,0.2-1.1,0.4-1.4,0.5c-0.5,0.4-1.7,1-3.5,1.6
			c-1.8,0.6-3.4,1.1-4.8,1.3c-1.9,0.2-4.2,0.3-6.9,0.4c-2.7,0-5-0.2-6.8-0.6c-0.6,0-1.2-0.1-1.9-0.4c-0.7-0.2-1.4-0.5-2-0.8
			c-0.6-0.3-1.1-0.6-1.6-0.9c-0.4-0.3-0.7-0.5-0.7-0.7c0,0,0.6,0.2,1.6,0.7c1.3,0.4,2.8,0.7,4.6,0.8c1.8,0.1,3.6,0.1,5.4,0
			c1.8-0.1,3.7-0.3,5.5-0.6c1.8-0.3,3.5-0.8,5-1.4c1.5-0.5,2.6-0.9,3.5-1.4c0.9-0.5,1.6-1.1,2.1-1.9c0.5-0.8,0.9-1.9,1.1-3.3
			c0.2-1.3,0.5-3.1,0.7-5.4c0.1-1.8,0.2-3.2,0.2-4.3c0-1.1,0.1-2.3,0.2-3.5c0-0.6,0-1.2,0.1-1.9c0-0.7,0-1.2-0.1-1.6
			c0.1-2.2,0-4.6-0.2-7.1c-0.2-2.6-0.7-5-1.4-7.4c-0.3-1.6-0.6-2.8-0.9-3.8C215.4,98.1,215.1,97.4,215,97.1z"/>
		<path class="st0" d="M196.1,109.9c-1.5-0.6-2-1.1-1.8-1.3c0.3-0.2,1.8-0.7,4.6-1.3c1.3-0.2,2.4-0.4,3.5-0.6c1-0.2,1.6-0.3,1.8-0.3
			c0.2,0.3,0.3,0.4,0.4,0.5c0.1,0.3,0.2,0.8,0.3,1.3c0.1,0.5,0.2,0.9,0.1,1c-1.9,0.4-3.4,0.8-4.4,1c-1,0.2-1.8,0.3-2.3,0.4
			c-0.5,0-0.9,0-1.2-0.1C196.7,110.3,196.4,110.1,196.1,109.9z"/>
		<path class="st0" d="M62.6,182.3c0.3,0,1-0.1,1.9-0.2c1-0.1,2-0.3,3.1-0.5c0.9-0.2,1.8-0.4,2.6-0.5c0.8-0.1,1.3-0.2,1.5-0.2
			c0.3,0.5,0.4,0.9,0.4,1.2c0.1,0.8-0.1,1.3-0.4,1.5c-0.3,0.2-1.3,0.4-3,0.7c-1,0.1-1.9,0.1-2.7,0.2s-1.3,0.1-1.5,0.1
			c-0.5-0.1-1.1-0.3-1.6-0.7c-0.6-0.4-1-0.8-1.4-1.3c0-0.1,0-0.2,0.1-0.3C61.8,182.4,62.1,182.3,62.6,182.3z"/>
		<path class="st0" d="M96.3,176.6c0.4-0.7,0.7-1.2,0.7-1.6c0.1-0.4,0-1.5-0.1-3.2c-0.1-0.9-0.2-2.1-0.3-3.4c0.3,0,0.7,0.1,1.1,0.5
			c0.4,0.3,0.8,0.6,1.2,0.9c0.2,0.3,0.3,0.8,0.4,1.4c0.1,0.6,0.2,1.6,0.3,3c0.3,1.9,0.3,3.3,0.2,4c-0.2,0.7-0.7,1.3-1.6,1.9
			c-0.5,0.4-1,0.6-1.5,0.7c-0.6,0.1-1.9,0.2-4.1,0.4c-2.2,0.2-3.5,0.4-3.9,0.6c-0.4,0.2-0.6,0.9-0.7,2c0,0.3,0.1,1.2,0.1,3
			c0.1,1.7,0.2,4,0.4,6.7c0.2,2.7,0.4,5.9,0.6,9.4c0.2,3.5,0.5,7.2,0.8,11.1c0.4,7.1,0.7,12.6,1,16.4c0.2,3.8,0.4,6.7,0.5,8.5
			c0.1,1.8,0.1,3,0.1,3.5c0,0.5-0.1,0.9-0.2,1.2c-0.2,0.3-0.4,0.7-0.8,1c-0.4,0.3-0.7,0.6-1,0.7c-0.2,0.2-0.7,0.4-1.3,0.6
			c-0.6,0.2-1.3,0.3-2.1,0.4c-0.7,0.1-1.4,0.2-2.1,0.2c-0.6,0-1.1,0-1.5-0.1c-0.3,0-0.9-0.3-1.6-0.9c-0.8-0.6-1.2-1-1.4-1.1
			c0-0.1,0.3-0.3,1-0.5c0.7-0.2,1.5-0.3,2.5-0.4c2-0.3,3.4-0.6,4.1-1c0.7-0.3,1.3-1,1.7-2c0-0.3,0.1-0.8,0.1-1.3
			c0-0.6-0.1-1.8-0.2-3.6c-0.1-1.8-0.3-4.6-0.5-8.2c-0.2-3.6-0.5-8.7-0.9-15.2c-0.3-3.7-0.5-7.3-0.8-10.7c-0.2-3.4-0.4-6.5-0.6-9.2
			c-0.2-2.7-0.3-4.9-0.4-6.7c-0.1-1.8-0.1-2.9-0.2-3.3c0-1.6,0.2-2.5,0.5-2.8c0.3-0.3,1.5-0.5,3.4-0.7c2.4-0.2,4-0.4,5-0.7
			C95.1,177.7,95.8,177.3,96.3,176.6z"/>
		<path class="st0" d="M111,181.8c0.3-1,0.6-2,1.1-3.1c0.5-1.1,0.8-1.7,1.2-1.9c0.2-0.2,0.6-0.3,1.2-0.4c0.6-0.1,1.3-0.2,2-0.2
			c0.7,0,1.4,0,2.1,0.1c0.7,0.1,1.2,0.2,1.5,0.4c0.5,0.3,1.1,0.7,1.7,1.3c0.6,0.5,0.9,0.8,0.7,0.8c0,0-0.6,0-1.6-0.2
			c-1.7-0.3-3-0.4-4-0.1c-1,0.3-1.8,1.1-2.3,2.5c-1.1,2.5-1.7,6.2-1.9,10.9c-0.1,4.7,0.3,11.1,1.2,19.2c0.2,2.1,0.4,3.9,0.6,5.3
			c0.2,1.4,0.4,2.7,0.6,3.8c0.2,1.1,0.4,2,0.6,2.7c0.2,0.8,0.5,1.6,0.8,2.3c0.2,0.6,0.5,1.4,0.8,2.2c0.2,0.3,0.1,0.5-0.1,0.5
			c-0.2,0-0.5-0.2-0.9-0.7c-0.6-0.6-1-1.3-1.4-1.9c-0.4-0.7-0.7-1.5-0.9-2.5c-0.4-0.9-0.8-2.5-1.3-4.6c-0.5-2.2-0.9-4.5-1.2-7.1
			c-0.4-2.6-0.7-5.2-1-7.9c-0.3-2.7-0.4-4.9-0.5-6.8c-0.1-1.1-0.1-2.4-0.1-3.8c0-1.4,0-2.8,0.1-4.2c0.1-1.4,0.2-2.7,0.4-3.8
			C110.6,183.3,110.8,182.4,111,181.8z"/>
		<path class="st0" d="M132.7,171.4c-0.2-0.1-0.4-0.4-0.7-0.9c0-0.1,0.1-0.1,0.4,0.1c0.3,0.2,0.5,0.4,0.7,0.5
			c0.2,0.3,0.5,0.7,1.1,1.2c0.2,0.2,0.4,0.5,0.8,1.1c0.4,0.5,0.8,1.2,1.2,1.9c0.5,0.7,0.9,1.5,1.3,2.3c0.4,0.8,0.8,1.5,1.1,2.2
			c0.6,1.5,1,2.8,1.4,3.8c0.3,1,0.6,2.3,0.8,3.7c0.2,1.5,0.4,3.4,0.6,5.7c0.2,2.3,0.5,5.5,0.8,9.6c0.2,3.2,0.4,5.8,0.5,7.8
			c0.1,2.1,0.2,3.8,0.2,5.1c0,1.3,0.1,2.4,0,3.1c0,0.8,0,1.5-0.1,2.1c-0.7,6.2-2.2,11.1-4.4,14.5c-2.3,3.4-5.7,5.7-10.3,6.8
			c-1.8,0.6-3.2,1-4.3,1.1c-1.1,0.1-2.5,0-4.1-0.2c-1.7-0.3-3-0.8-4.1-1.3c-1-0.5-2.2-1.2-3.4-2.1c-0.5-0.4-0.8-0.6-0.7-0.7
			c0.1,0,0.5,0.2,1.4,0.6c0.5,0.1,0.9,0.3,1.4,0.4c0.4,0.1,0.6,0.3,0.7,0.4c0.2,0.2,0.7,0.3,1.4,0.4c0.7,0.1,1.5,0.1,2.3,0.1
			c0.9,0,1.8-0.1,2.7-0.1c1-0.1,1.8-0.2,2.7-0.4c1.4-0.3,2.5-0.5,3.2-0.9c0.7-0.3,1.9-1,3.4-1.9c1.6-0.8,3-2,4.4-3.7
			c1.4-1.7,2.4-3.5,3.1-5.3c0.5-1.5,1-3,1.3-4.6c0.3-1.6,0.5-3.4,0.6-5.4c0.1-2.1,0.1-4.5,0-7.4c-0.1-2.8-0.2-6.3-0.4-10.4
			c-0.1-2.6-0.2-4.7-0.3-6.3c-0.1-1.6-0.2-2.9-0.3-4c-0.1-1.1-0.2-2-0.3-2.8c-0.2-0.8-0.3-1.7-0.6-2.8c-0.7-2.2-1.2-4-1.5-5.2
			c-0.3-1.2-0.7-2.3-1.1-3.1c-0.3-0.7-0.8-1.5-1.5-2.5c-0.2-0.6-0.5-1.2-0.8-1.6C133.1,172.1,132.8,171.7,132.7,171.4z"/>
		<path class="st0" d="M176.5,234.9c0.5-0.6,0.8-1.3,1-2.3c0.2-1,0.2-2.1-0.1-3.6c-0.1-0.7-0.1-1.4-0.1-2c0-0.6,0-0.9,0.2-0.9
			c0,0.1,0.3,0.5,0.8,1c0.5,0.5,0.9,0.9,1.1,1.2c0.1,0.1,0.2,0.6,0.3,1.2c0.1,0.7,0.2,1.4,0.2,2.1c0.1,1.7,0.1,3,0,3.8
			c-0.2,0.8-0.6,1.5-1.3,2.1c-0.3,0.2-0.6,0.4-0.8,0.5c-0.2,0.1-0.6,0.2-1.1,0.3c-0.5,0.1-1.2,0.2-2.2,0.3c-0.9,0.1-2.2,0.2-3.8,0.4
			c-1.9,0.1-3.5,0.3-4.9,0.5c-1.4,0.2-2.2,0.3-2.3,0.3c-0.1,0-0.7,0.1-1.7,0.3c-1,0.2-2,0.3-3.2,0.4c-1.7,0.3-2.9,0.4-3.5,0.5
			c-0.6,0-1.2-0.1-1.7-0.4c-0.2-0.1-0.4-0.2-0.6-0.3c-0.3-0.1-0.5-0.2-0.6-0.1c-0.1,0-0.3,0-0.5,0c-0.2,0-0.3-0.2-0.4-0.5
			c-0.3-0.3-0.6-0.5-0.9-0.5c-0.1,0-0.4-0.2-0.9-0.6c-0.4-0.4-0.6-0.7-0.4-0.7c0.5,0.2,0.9,0.4,1.2,0.5c1.2,0.5,4.9,0.3,10.9-0.5
			c1-0.2,2.2-0.4,3.8-0.7c1.6-0.3,3-0.4,4.2-0.5c2.7-0.3,4.4-0.5,5.3-0.7C175.5,235.7,176.1,235.4,176.5,234.9z"/>
		<path class="st0" d="M171.4,166c-0.2-0.5-0.3-1.1-0.4-1.7c-0.1-0.6-0.1-1-0.1-1.2c0-0.3,0-0.5,0-0.5c0,0,0.1-0.1,0.3-0.1
			c0.9,0.4,1.5,1.1,2,2.3c0.4,1.1,0.7,2.6,0.8,4.5c0.2,1.2,0.3,1.9,0.2,2.2c-0.1,0.3-0.3,0.7-0.8,1.3c-0.3,0.3-0.6,0.6-0.8,0.8
			c-0.2,0.2-0.7,0.3-1.3,0.5c-0.6,0.2-1.6,0.3-2.8,0.4c-1.2,0.1-2.9,0.3-5.1,0.5c-2.2,0.2-3.8,0.3-5,0.5c-1.2,0.2-2,0.4-2.5,0.6
			c-0.5,0.3-0.8,0.7-0.9,1.2c-0.1,0.5,0,1.2,0,2.1c0,1.7-0.1,2.8-0.2,3.1c-0.1,0.3-0.4,0.6-1,0.7c-0.6,0-0.9-0.1-1-0.5
			c-0.1-0.4-0.3-1.8-0.5-4.3c-0.1-1.2-0.1-2.1-0.1-2.8c0-0.7,0.3-1.2,0.7-1.6c0.5-0.4,1.2-0.6,2.3-0.8c1.1-0.2,2.5-0.4,4.5-0.6
			c2-0.2,3.7-0.3,5-0.4c1.3-0.1,2.3-0.2,3-0.3c0.7-0.1,1.3-0.3,1.6-0.4c0.3-0.2,0.7-0.4,1-0.8c0.7-0.6,1.1-1.2,1.2-1.9
			C171.6,168.1,171.5,167.2,171.4,166z"/>
		<path class="st0" d="M165,193.9c0.8-0.8,1.3-1.5,1.4-2.1c0.1-0.6,0.1-1.8,0-3.5c0-1.6,0-2.5,0.1-2.8c0.1-0.3,0.4-0.2,0.8,0.2
			c0.6,0.5,1.1,1.2,1.4,1.9s0.6,1.8,0.7,3.2c0.2,2.5-0.1,4.2-0.9,5.1c-0.8,0.9-2.2,1.5-4.4,1.6c-0.6,0-1.4,0.1-2.3,0.2
			c-1,0.1-1.8,0.1-2.6,0.2c-0.6,0.2-1.1,0.3-1.5,0.5c-0.3,0.2-0.6,0.7-0.7,1.6c-0.1,0.9-0.1,2.2,0,4c0.1,1.8,0.3,4.3,0.5,7.6
			c0.3,3.4,0.5,6,0.7,7.8c0.2,1.9,0.2,3.2,0.2,4.1c0,0.9,0,1.4-0.2,1.6c-0.1,0.2-0.3,0.3-0.6,0.4c-0.1,0-0.3,0.1-0.6,0.2
			c-0.2,0.1-0.4,0.2-0.5,0.2c-0.1,0-0.2-0.2-0.3-0.6c-0.1-0.4-0.2-1.2-0.3-2.3c-0.1-1.1-0.2-2.7-0.3-4.6c-0.1-1.9-0.3-4.4-0.6-7.4
			c-0.3-3.7-0.5-6.5-0.6-8.5c-0.1-2-0.2-3.4-0.3-4.4c-0.1-0.9,0-1.5,0-1.7c0.1-0.2,0.2-0.3,0.4-0.5c0.3,0,0.9-0.1,1.9-0.3
			c1-0.2,2.1-0.3,3.2-0.4c2-0.3,3.3-0.4,3.8-0.6C164.3,194.5,164.7,194.2,165,193.9z"/>
		<path class="st2" d="M113.3,83.2c0.6-0.8,1.2-1.5,1.9-2c0.7-0.5,1.7-0.9,3.2-1.3c0.7-0.1,1.9-0.3,3.5-0.6c1.6-0.3,3.2-0.6,4.8-0.8
			c1.3-0.2,2.3-0.4,3.2-0.5c0.8-0.1,1.5-0.1,2.1-0.1c0.6,0,1.1,0,1.5,0c0.4,0,0.9,0.1,1.5,0.1c0.8,0.2,1.5,0.3,2,0.4
			c0.5,0.1,1,0.2,1.4,0.4c0.4,0.2,0.8,0.3,1.2,0.5c0.4,0.2,0.9,0.5,1.5,0.8c1.2,0.9,1.9,1.5,2.3,1.8c0.3,0.4,0.8,0.9,1.4,1.7
			c1.6,2.1,2.6,4.6,3.1,7.5c0.3,1.5,0.4,3.1,0.3,5c0,1.9-0.2,3.2-0.5,4c-0.2,0.6-0.2,1-0.1,1.2c0,0.1-0.1,0.4-0.2,0.7
			c-0.2,0.3-0.3,0.7-0.3,1.2c-0.1,0.3-0.2,0.8-0.4,1.3c-0.2,0.5-0.3,0.9-0.4,1.2c-0.3,0.4-0.5,0.8-0.7,1.3c-0.1,0-0.2,0.2-0.3,0.5
			c0,0.3,0,0.6,0.3,1c0.1,0.4,0.2,0.7,0.3,1c0.1,0.2,0.4,0.4,0.9,0.6c0.4,0.4,0.8,0.8,1.5,1.3c0.6,0.5,1.3,1,2,1.4
			c0.1,0,0.3,0.2,0.7,0.6c0.3,0.4,0.7,0.9,1.1,1.4c0.9,1.3,1.8,2.8,2.5,4.5c0.7,1.8,1.3,3.6,1.8,5.4c0.4,1.8,0.7,3.6,0.9,5.4
			c0.1,1.7,0.1,3.2-0.3,4.4c-0.1,0.3-0.2,0.8-0.4,1.3c0.1,0.1,0,0.3-0.1,0.7c-0.1,0.4-0.3,0.8-0.5,1.3c-0.2,0.5-0.5,0.9-0.7,1.4
			c-0.2,0.5-0.4,0.8-0.6,1.1c-0.4,0.4-0.9,0.9-1.6,1.7c-0.7,0.7-1.3,1.4-2,1.9c-0.4,0.4-0.9,0.8-1.6,1.3c-0.7,0.5-1.3,0.9-1.9,1.3
			c-0.6,0.4-1.2,0.7-1.7,1c-0.5,0.3-0.8,0.4-0.9,0.4c-0.7,0.4-1.2,0.7-1.7,0.9c-1.2,0.7-2.9,1.4-5,2.1c-2.1,0.7-4.1,1.3-6,1.6
			c-0.9,0.1-1.6,0.2-2.1,0.2c-0.5,0-0.9,0-1.3-0.1c-0.3-0.1-0.7-0.2-1-0.4c-0.3-0.2-0.7-0.5-1.2-0.9c-1-0.6-1.7-1.1-2.1-1.5
			c-0.4-0.5-0.7-1-0.9-1.6c-0.3-0.4-1-3.7-2.3-10c-1.3-6.3-2.7-13.2-4.1-20.6c-1.5-7.5-2.8-14.3-3.9-20.6c-1.2-6.3-1.7-9.6-1.7-10
			c0.2-0.8,0.4-1.5,0.6-2.1C112.4,84.3,112.7,83.8,113.3,83.2z M138.5,93.1c-0.3-2-0.8-3.4-1.3-4.1c-0.5-0.7-1.3-1.3-2.4-1.8
			c-0.7-0.3-1.4-0.5-2-0.4c-0.7,0-2.2,0.3-4.5,0.7c-1.5,0.3-2.7,0.5-3.6,0.7c-0.9,0.2-1.6,0.3-2,0.5c-0.5,0.1-0.7,0.3-0.9,0.4
			c-0.1,0.1-0.2,0.3-0.2,0.5c-0.1,0.5,0,1.8,0.4,3.8c0.3,2.1,0.7,4.2,1.2,6.5c0.5,2.3,0.9,4.4,1.4,6.3c0.5,1.9,0.8,2.9,1,2.9
			c0.1,0.1,0.4,0.1,1.1-0.1c0.7-0.2,1.4-0.4,2.3-0.7c0.9-0.3,1.7-0.5,2.6-0.9c0.9-0.3,1.5-0.6,1.9-0.9c2.4-1.3,4.1-3,4.9-5.1
			C139,99.4,139.1,96.6,138.5,93.1z M144.8,121c-0.6-1.2-1.6-2-2.9-2.4c-1.3-0.4-3.2-0.7-5.7-0.9c-0.8,0-1.7,0-2.9,0
			c-1.2,0-2.2,0-3,0.2c-0.9,0.1-1.6,0.3-2,0.4c-0.4,0.2-0.7,0.6-0.8,1.4c-0.1,0.7,0,1.9,0.3,3.4c0.3,1.5,0.7,3.7,1.3,6.6
			c0.5,2.7,0.8,4.8,1.1,6.3c0.3,1.5,0.5,2.7,0.6,3.5c0.1,0.8,0.2,1.3,0.3,1.6c0.1,0.3,0.2,0.5,0.3,0.7c0.5,0.5,1.1,0.8,1.7,0.9
			c0.6,0,1.4-0.1,2.6-0.4c0.8-0.2,1.7-0.6,2.7-1.1c1-0.5,2-1,2.9-1.5c0.9-0.5,1.7-1,2.3-1.5c0.6-0.5,0.9-0.8,0.9-0.9
			c0,0,0.1,0,0.3,0c0.1,0,0.3-0.2,0.6-0.6c0.3-0.4,0.6-0.8,1-1.3c0.3-0.5,0.6-1.1,0.9-1.6c0.3-0.6,0.5-1,0.6-1.5
			c0.2-0.6,0.2-1.4,0.1-2.3c-0.1-1-0.3-2-0.6-3c-0.3-1-0.6-2.1-1.1-3.1C145.7,122.6,145.2,121.7,144.8,121z M155.4,74.7
			c0-0.2,0.1-0.4,0.3-0.6c0.2-0.2,0.4-0.4,0.6-0.7c0.2,0,0.6-0.1,1.2-0.2c0.6-0.1,1.3-0.2,2.1-0.4c0.9-0.2,1.6-0.2,2-0.3
			c0.5,0,0.9,0.1,1.4,0.4c0.2,0.2,0.4,0.3,0.5,0.5c0.1,0.1,0.2,0.4,0.3,0.8c0.1,0.4,0.2,1,0.3,1.7c0.1,0.8,0.2,1.8,0.4,3.2
			c0.1,0.9,0.3,1.9,0.5,3.1c0.2,1.2,0.3,2.6,0.5,4c0.1,1.4,0.3,2.8,0.5,4.3c0.2,1.5,0.3,2.8,0.5,4.1c0.5,2.8,0.9,5.4,1.2,8
			c0.3,2.5,0.5,4.2,0.6,4.9c0,0.4,0,1.1,0,2.2c0.1,1,0.2,2.3,0.4,3.8c0.2,1.5,0.4,3.1,0.7,4.9c0.3,1.8,0.6,3.5,0.9,5.4
			c0.4,3.3,0.6,6.1,0.9,8.4c0.2,2.2,0.4,4.1,0.4,5.6c0.1,1.5,0,2.7,0,3.7c-0.1,0.9-0.2,1.8-0.4,2.6c-0.3,0.8-0.7,1.4-1.3,1.8
			c-0.6,0.4-1.2,0.5-1.9,0.4c-0.7-0.1-1.3-0.4-2-0.8c-0.6-0.5-1.1-1.2-1.5-2.1c-0.2-0.3-0.5-1.6-0.9-4c-0.4-2.4-0.9-5.2-1.4-8.4
			c-0.5-3.2-1-6.5-1.5-9.9c-0.5-3.4-0.9-6.2-1.1-8.6c-0.2-2.2-0.6-5.6-1.2-10.2c-0.6-4.6-1.4-11.3-2.5-20
			C155.7,80.2,155.6,77.8,155.4,74.7z M175.6,78.7c1.3-2.8,3.2-5.1,5.7-6.7s6.3-3,11.1-4.2c1.9-0.4,3.4-0.8,4.5-1
			c1.1-0.2,2-0.4,2.6-0.3c0.6,0,1.1,0.2,1.3,0.5c0.2,0.3,0.4,0.8,0.5,1.4c0.2,1.2,0.3,2.3,0.2,3.4c-0.1,1.1-0.3,1.9-0.7,2.4
			c-0.2,0.2-0.4,0.4-0.6,0.5c-0.2,0.1-0.5,0.2-0.9,0.4c-0.4,0.1-0.9,0.3-1.6,0.4c-0.7,0.2-1.6,0.4-2.8,0.6c-3.9,1-6.5,1.9-8,2.7
			c-1.5,0.8-2.5,1.9-3.1,3.4c-0.8,1.8-1.3,3.4-1.6,4.8c-0.3,1.4-0.6,3.4-0.7,6c0,0.6,0.1,1.6,0.2,3c0.1,1.4,0.3,2.9,0.5,4.6
			c0.2,1.7,0.4,3.3,0.6,5c0.3,1.7,0.5,3.1,0.7,4.2c0.2,1.1,0.4,2.4,0.7,3.9c0.3,1.5,0.6,2.9,1,4.3c0.3,1.4,0.7,2.6,0.9,3.7
			c0.3,1.1,0.5,1.8,0.7,2c0.1,0.1,0.3,0.4,0.5,0.7c0.2,0.3,0.3,0.5,0.3,0.7c0,0.2,0.2,0.6,0.5,1.1c0.3,0.5,0.6,1,0.9,1.6
			c0.3,0.5,0.7,1,1,1.5c0.4,0.5,0.6,0.8,0.8,1c1.7,1.4,5.3,1.8,10.6,1.1c1.9-0.2,3-0.3,3.5-0.5c0.5-0.1,0.9-0.5,1.3-1
			c0.5-0.5,0.8-1.1,1-1.7c0.2-0.6,0.3-1.8,0.5-3.6c0-0.6,0-1.2,0-1.9c0-0.7,0-1.2-0.1-1.7c0-0.4,0.1-1,0.2-1.6
			c0.1-0.7,0.1-1.2,0.2-1.7c-0.1-0.4-0.2-1.3-0.3-2.7c-0.1-1.4-0.3-2.8-0.6-4.3c-0.3-1.8-0.6-3.1-0.8-4c-0.2-0.9-0.5-1.5-1-1.8
			c-0.5-0.3-1.1-0.4-2.1-0.3c-0.9,0.1-2.2,0.3-3.9,0.6c-1.4,0.3-2.4,0.6-3.2,0.8c-0.8,0.2-1.3,0.3-1.7,0.3c-0.4,0.1-0.6,0.1-0.8,0
			c-0.2-0.1-0.3-0.2-0.4-0.3c-0.5-0.4-0.8-0.8-0.9-1.2c-0.1-0.5-0.1-1.4,0-2.8c-0.1-1.2-0.1-2,0.1-2.6c0.1-0.6,0.4-1,0.7-1.4
			c0.4-0.4,1.6-0.8,3.7-1.3c2.1-0.5,4.4-1,6.8-1.4c2.1-0.5,3.6-0.6,4.6-0.5c1,0.1,1.9,0.5,2.9,1.3c0.5,0.4,0.9,0.7,1.2,1.1
			c0.3,0.4,0.6,0.8,0.8,1.3c0.2,0.5,0.4,1.2,0.7,2c0.2,0.8,0.6,1.8,1,3.1c0.7,3.3,1.1,6.6,1.3,10c0.2,3.4,0.1,7.4-0.1,12
			c-0.3,4.2-0.7,7.1-1,8.6c-0.4,1.5-0.9,2.6-1.7,3.1c-0.7,0.4-1.6,0.9-2.8,1.3c-1.2,0.4-2.4,0.8-3.8,1.1c-1.3,0.3-2.7,0.6-4.1,0.8
			c-1.4,0.2-2.6,0.2-3.6,0.2c-0.6,0-1.3,0-1.9-0.1c-0.6,0-1.1,0-1.4,0c-0.8,0-1.8,0-3-0.2c-1.2-0.2-2.2-0.3-2.8-0.6
			c-0.9-0.3-1.9-0.8-3-1.5c-1.1-0.7-2.1-1.6-3-2.5c-0.4-0.5-0.8-1-1.2-1.6c-0.4-0.6-0.6-0.9-0.8-1l-0.1-0.6
			c-0.3-0.1-0.8-0.7-1.4-2.1c-0.6-1.3-1.2-2.6-1.7-3.9c-0.8-2.3-1.6-5.1-2.4-8.6c-0.8-3.4-1.5-7-2-10.6c-0.6-3.6-0.9-7.1-1.2-10.4
			c-0.2-3.3-0.2-5.9,0.1-7.8c0-0.4,0.1-1,0.3-1.8c-0.1-0.3-0.1-0.8,0.1-1.5c0.1-0.1,0.1-0.3,0.1-0.6c0-0.3,0-0.5-0.1-0.6
			c0.1-0.3,0.3-1.1,0.7-2.4C174.7,81,175.2,79.8,175.6,78.7z M59.6,171.9c0.1-0.2,0.8-0.4,2-0.6c1.2-0.3,2.6-0.6,4.4-0.9
			c1.8-0.3,3.7-0.6,5.9-0.9c2.1-0.3,4.3-0.6,6.3-0.9c4.6-0.7,8.2-1.1,11-1.3c2.7-0.2,4.3-0.2,4.6,0.1c0.2,0.2,0.4,0.6,0.7,1.2
			c0.2,0.6,0.4,1.3,0.5,2.1c0.1,0.8,0.2,1.5,0.2,2.3c0,0.8,0,1.3-0.1,1.7c-0.2,0.2-0.3,0.4-0.5,0.7c-0.1,0.2-0.3,0.4-0.4,0.4
			c0,0.2-0.6,0.3-1.8,0.5c-1.2,0.1-2.5,0.3-3.9,0.6c-1.4,0.2-2.4,0.4-3.1,0.6c-0.7,0.2-1.3,0.5-1.6,0.9c-0.3,0.5-0.5,1.1-0.5,2
			c0,0.9,0,2.2,0,3.8c0.1,1,0.2,2.5,0.3,4.6c0.1,2.1,0.2,4.6,0.4,7.4c0.2,2.8,0.4,5.8,0.6,9c0.2,3.2,0.4,6.4,0.7,9.5
			c0.2,3.3,0.4,6.4,0.6,9.3c0.2,2.9,0.3,5.5,0.4,7.7c0.1,2.2,0.2,4,0.3,5.3c0.1,1.3,0.1,2,0.1,2.1c-0.1,0.7-0.5,1.1-1.2,1.4
			c-0.7,0.3-1.7,0.6-3.1,0.8c-1.1,0.3-1.8,0.3-2.2,0.2c-0.4-0.1-0.7-0.3-1-0.6c-0.3-0.1-0.5-0.3-0.6-0.5c-0.2-0.2-0.3-0.8-0.4-1.6
			c-0.1-0.9-0.2-2.2-0.4-4.1c-0.1-1.9-0.3-4.5-0.6-8c-0.1-1.9-0.3-4.1-0.5-6.7c-0.2-2.6-0.4-5.3-0.6-8.1c-0.2-2.8-0.4-5.6-0.6-8.5
			c-0.2-2.8-0.4-5.5-0.6-7.9c-0.1-2.3-0.2-4.4-0.3-6.5c-0.1-2.1-0.2-3.8-0.3-5.3c-0.1-1.5-0.2-3.2-0.3-5c0-0.1-0.6-0.1-1.7,0
			c-1.1,0.2-2.5,0.3-4,0.4c-1.6,0.3-3,0.5-4.3,0.6c-1.2,0.1-1.9,0.1-2.1-0.1c-1.3-0.2-2-1.9-2.3-5c-0.2-0.9-0.3-1.6-0.3-2
			C59.3,172.4,59.4,172.1,59.6,171.9z M108.3,167.4c0.3-0.2,0.8-0.4,1.3-0.6c0.6-0.2,1.2-0.4,1.8-0.7c1.1-0.4,2-0.6,2.8-0.7
			c0.8-0.1,1.9,0,3.4,0.2c1.3,0.1,2.6,0.3,4,0.6c1.3,0.3,2.4,0.6,3.3,0.8c0.8,0.4,1.9,1.2,3.1,2.3c1.2,1.1,2.3,2.1,3.2,3
			c0.7,0.9,1.5,2.3,2.4,4.1c0.9,1.8,1.5,3.4,1.9,4.7c0,0.5,0.1,1,0.3,1.6c0.2,0.6,0.4,1.1,0.6,1.6c0.2,0.5,0.4,2.3,0.7,5.4
			c0.3,3.1,0.5,6.5,0.8,10.3c0.2,3.8,0.4,7.4,0.6,10.9c0.1,3.5,0.2,5.7,0.1,6.9c-0.2,1.5-0.5,3.2-0.8,5c-0.3,1.9-0.5,3-0.6,3.5
			c-0.2,0.2-0.3,0.5-0.4,0.9c-0.1,0.4-0.3,0.8-0.4,1.1c-0.5,1.3-1.4,2.7-2.6,4.1c-1.2,1.4-2.3,2.4-3.4,3.2c-3.1,2-6.4,3.1-9.9,3.2
			c-3.5,0.1-6.6-0.8-9.3-2.7c-0.3-0.2-0.8-0.5-1.2-1c-0.5-0.5-1-1-1.4-1.6c-0.5-0.6-0.9-1.1-1.3-1.6c-0.4-0.5-0.6-0.8-0.7-1
			c-0.1-0.5-0.2-0.8-0.4-0.9c-0.7-0.7-1.5-2.4-2.2-5.1c-0.8-2.7-1.5-5.5-2-8.6c-0.2-1.6-0.5-3.8-0.7-6.6c-0.2-2.8-0.5-5.6-0.7-8.5
			c-0.2-2.9-0.4-5.6-0.6-8.1c-0.2-2.5-0.2-4.3-0.2-5.4c0.3-2.8,0.6-5.2,1-7.4c0.4-2.2,0.9-3.9,1.7-5.1c0.1-0.5,0.3-0.9,0.5-1.4
			c0.2-0.4,0.3-0.8,0.3-0.9c0.1-0.2,0.4-0.6,0.8-1.1c0.4-0.5,0.9-1,1.4-1.6c0.5-0.6,1-1.1,1.6-1.7
			C107.4,168.1,107.9,167.7,108.3,167.4z M124,176.9c-0.9-0.9-1.7-1.5-2.4-1.8c-0.7-0.3-1.8-0.6-3.3-1c-0.7-0.1-1.3-0.1-2-0.1
			c-0.7,0-1.1,0-1.2,0c-1.3,0.1-2.5,0.8-3.8,1.9c-0.2,0.3-0.5,0.7-0.8,1.4c-0.3,0.7-0.6,1.4-0.8,2.2c-0.2,0.8-0.4,1.5-0.6,2.2
			c-0.1,0.7-0.2,1.2-0.2,1.5c0,0.4-0.2,1.3-0.5,2.6c-0.1,0.4-0.3,0.9-0.3,1.5c-0.1,0.6-0.1,1.4,0,2.5c0,1.1,0.1,2.6,0.3,4.5
			c0.1,1.9,0.3,4.4,0.6,7.4c0.2,3.2,0.4,5.8,0.6,7.8c0.1,2,0.3,3.5,0.4,4.7c0.1,1.2,0.3,2.1,0.4,2.9c0.2,0.7,0.4,1.5,0.6,2.4
			c0.6,2.1,1.4,4,2.2,5.8c0.8,1.8,1.5,2.7,2,2.6c0,0.2,0.1,0.3,0.2,0.3c0.1,0,0.2,0.1,0.2,0.3c0.4,0.5,0.7,0.8,1,0.9
			c1,0.4,2.4,0.6,4.3,0.5c1.8-0.1,3.2-0.5,4.1-1.2c1.2-0.7,2.2-1.8,3-3.1c0.7-1.3,1.3-2.8,1.7-4.4c0.2-1.1,0.4-3.3,0.4-6.4
			c0-3.1-0.1-6.5-0.2-10.1c-0.2-3.6-0.4-7-0.6-10.4c-0.2-3.3-0.5-5.8-0.8-7.3c-0.7-2.4-1.4-4.4-2-6.1
			C125.6,179.6,124.9,178.2,124,176.9z M142.5,166.1c0-0.1,0.2-0.4,0.5-0.7c0.3-0.4,0.7-0.8,1.1-1.1c0.4-0.3,0.8-0.5,1.1-0.7
			c0.3-0.2,0.9-0.3,1.6-0.5c0.7-0.1,1.8-0.3,3.3-0.4c1.5-0.1,3.5-0.3,6.2-0.5c2.8-0.2,5-0.4,6.6-0.4c1.6-0.1,2.7-0.1,3.5,0
			c0.8,0.1,1.3,0.2,1.5,0.5c0.2,0.3,0.4,0.6,0.6,1.1c0.1,0.3,0.3,0.7,0.4,1.3c0.2,0.5,0.3,1.1,0.3,1.6c0.2,1,0.3,1.6,0.3,1.8
			c0,0.2-0.2,0.6-0.6,1c-0.2,0.2-0.3,0.4-0.5,0.6c-0.2,0.1-0.6,0.3-1.1,0.4c-0.6,0.1-1.5,0.2-2.7,0.3c-1.2,0.1-2.9,0.2-5.1,0.4
			c-2.1,0.3-3.8,0.5-5,0.6c-1.2,0.1-2.1,0.2-2.6,0.3c-0.6,0.1-0.9,0.2-1.1,0.3c-0.2,0.1-0.3,0.2-0.4,0.3c-0.1,0.4-0.1,1-0.1,1.8
			c0,0.7,0.2,2.5,0.4,5.1c0.1,1.5,0.2,2.7,0.3,3.5c0.1,0.8,0.4,1.4,0.8,1.8c0.4,0.3,1,0.5,1.9,0.5c0.8,0,2-0.1,3.5-0.2
			c1.8-0.1,3.2-0.2,4.2-0.2c1,0,1.7,0.1,2.1,0.4c0.5,0.3,0.7,0.7,0.7,1.3c0,0.6,0.1,1.5,0.1,2.6c0.1,1.3,0.1,2.2,0.1,2.6
			c0,0.5-0.2,0.7-0.4,0.9c-0.3,0.3-0.9,0.6-1.9,0.7c-1,0.1-2.9,0.4-5.8,0.7c-1.2,0.2-2.2,0.4-2.9,0.5c-0.7,0.1-1.1,0.3-1.4,0.5
			c-0.3,0.2-0.4,0.6-0.4,1.1c0,0.5,0.1,1.1,0.3,2c0.1,1,0.3,2.6,0.5,4.7c0.2,2.1,0.4,4.3,0.6,6.7c0.2,2.4,0.3,4.8,0.5,7.1
			c0.1,2.4,0.2,4.3,0.3,5.9c0.2,2.2,0.3,3.4,0.4,3.8c0.1,0.4,0.4,0.7,0.8,1c0.3,0.3,0.6,0.5,0.7,0.5c0.2,0,0.4,0,0.7,0
			c0.1,0,1-0.1,2.8-0.4c1.8-0.2,3.8-0.4,6.1-0.6c2.6-0.2,4.5-0.4,5.9-0.5c1.3-0.1,2.3-0.1,2.8,0.1c0.6,0.2,0.9,0.5,0.9,1.1
			c0.1,0.5,0.1,1.3,0.2,2.4c0.1,0.9,0.1,1.6,0.2,2.3c0,0.6,0.1,1,0.1,1.1c-0.2,0.3-0.6,0.6-1.3,0.9c-0.7,0.2-1.6,0.5-3,0.7
			c-1.3,0.2-3.1,0.4-5.3,0.7c-2.2,0.3-4.9,0.5-8.2,0.8c-1.8,0.1-3.2,0.2-4.2,0.3c-1,0.1-1.7,0.1-2.3,0.1c-0.5,0-1-0.1-1.3-0.2
			c-0.3-0.1-0.6-0.3-1-0.6c-1-0.7-1.8-1.6-2.5-2.7c-0.2-0.4-0.4-0.8-0.6-1.1c-0.2-0.3-0.3-0.9-0.4-1.7c-0.1-0.8-0.2-1.9-0.3-3.4
			c-0.1-1.5-0.2-3.7-0.3-6.4c-0.1-1.5-0.2-3.1-0.2-4.8c-0.1-1.7-0.2-3.3-0.3-4.9c-0.1-1.6-0.3-3.1-0.4-4.5c-0.1-1.4-0.3-2.6-0.4-3.5
			c-0.1-0.9-0.2-2.1-0.4-3.7c-0.2-1.5-0.3-3.2-0.5-5.1c-0.2-1.8-0.3-3.7-0.5-5.7c-0.2-2-0.3-3.9-0.5-5.7c-0.3-3.2-0.6-5.7-0.8-7.5
			c-0.2-1.8-0.3-3.1-0.3-4c-0.1-0.9-0.1-1.5,0-1.8c0.1-0.3,0.2-0.7,0.3-1.1c0.3-0.3,0.5-0.6,0.6-0.8c0.1-0.2,0.3-0.4,0.4-0.4
			C142.4,166.4,142.5,166.2,142.5,166.1z M178.6,177.5c-0.1-3.7,0.5-7.1,1.9-10.1c1.4-3.1,3.4-5.3,6-6.7c0.8-0.4,1.5-0.6,2.1-0.7
			c0.6-0.1,1.7-0.2,3.2-0.3c2.3-0.2,4.6-0.1,6.8,0.3c2.2,0.4,3.5,0.8,3.8,1.3c0.3,0.3,0.5,0.6,0.5,1c0,0.4-0.2,1-0.6,2.1
			c-0.7,1.6-1.4,2.7-1.8,3.3c-0.5,0.6-1.1,1-1.9,1c-0.3,0-0.7,0-1.2-0.1c-0.5-0.1-0.8-0.2-0.9-0.4c-0.2,0-0.5,0-1-0.1
			c-0.5-0.1-1.1-0.1-1.7,0c-1.5,0-2.7,0.3-3.7,0.9c-0.9,0.6-1.8,1.7-2.5,3.3c-0.2,0.6-0.4,1.2-0.5,2c-0.1,0.8-0.1,1.6,0,2.5
			c0.1,0.9,0.2,1.7,0.4,2.4c0.2,0.8,0.4,1.4,0.8,1.8c0.6,1.1,1.5,2.5,2.8,4c1.3,1.5,2.5,2.8,3.6,4c0.5,0.5,1.2,1.1,1.9,1.7
			c0.8,0.6,1.4,1.2,2,1.7c2.7,2.7,4.8,4.9,6.3,6.5c1.5,1.6,2.6,3.2,3.4,4.7c0.6,1.3,1.1,3,1.6,5.1c0.5,2.1,0.7,3.7,0.8,4.9
			c0.1,1.4,0,3.1-0.3,5.1c-0.3,2-0.6,3.6-1,4.8c-0.6,1.2-1.4,2.5-2.3,3.7c-0.9,1.3-1.8,2.2-2.6,2.7c-0.7,0.4-1.6,0.8-2.6,1.3
			c-1,0.4-2,0.8-3.1,1.2c-1,0.3-2,0.6-3,0.8c-1,0.2-1.8,0.3-2.6,0.2c-1.4,0.1-2.9,0-4.6-0.4c-1.7-0.3-3-0.9-4.1-1.7
			c-0.6-0.3-1.2-0.7-1.8-1.3c-0.6-0.6-1.2-1.2-1.7-1.8s-1-1.2-1.3-1.9c-0.3-0.6-0.5-1.1-0.4-1.5c0-0.4,0.3-0.8,0.9-1.1
			c0.6-0.4,1.4-0.6,2.2-0.8c0.9-0.2,1.7-0.3,2.6-0.4c0.9,0,1.5,0.1,1.9,0.4c0.9,0.8,1.7,1.3,2.5,1.5c0.8,0.2,2.1,0.2,4,0.1
			c1.5-0.1,2.5-0.3,3.1-0.5c0.5-0.2,1.3-0.6,2.2-1.3c1.3-0.7,2.2-1.7,2.7-2.8c0.5-1.1,0.7-2.8,0.5-5.2c-0.1-2.7-0.5-5-1.4-7
			c-0.9-2-2.4-3.9-4.6-5.8c-0.3-0.3-0.7-0.6-1-0.9c-0.3-0.3-0.6-0.5-0.8-0.7c0-0.1-0.4-0.6-1.2-1.4c-0.8-0.8-1.6-1.6-2.5-2.4
			c-2.4-2.2-4.2-4-5.4-5.4c-1.2-1.4-2.4-3-3.5-4.8c-1-1.6-1.7-3-2.1-4.2C179,180.9,178.7,179.3,178.6,177.5z"/>
		<path class="st0" d="M207.5,199c-0.4-0.5-0.9-1.1-1.5-1.9c0.3,0.1,0.5,0.3,0.8,0.6c0.3,0.2,0.6,0.4,0.7,0.6c0,0.2,0.1,0.3,0.3,0.5
			c0.2,0.1,0.3,0.2,0.5,0.2c0.2,0.1,0.4,0.4,0.8,0.9c0.4,0.5,0.8,1.1,1.2,1.8c0.4,0.7,0.9,1.4,1.3,2.1c0.4,0.7,0.7,1.3,0.9,1.7
			c0.8,1.6,1.4,3.2,1.8,4.6c0.4,1.4,0.8,3.3,0.9,5.6c0.2,2.4,0.2,4.2,0.1,5.6c-0.1,1.3-0.5,2.8-1,4.3c-0.5,1-1.1,2.2-1.8,3.5
			c-0.7,1.3-1.3,2.2-1.8,2.5c-0.2,0.2-0.4,0.4-0.7,0.6c-0.3,0.2-0.5,0.4-0.6,0.5c-0.3,0.3-0.9,0.8-1.8,1.3c-0.9,0.5-1.9,1-3.1,1.4
			c-2.8,1.2-5.7,1.9-8.6,2.2c-2.9,0.2-5.4-0.1-7.5-1c-0.3-0.1-0.8-0.4-1.4-0.8c-0.6-0.4-1.1-0.7-1.4-1c-0.8-0.6-1-0.9-0.8-1
			c0,0.2,0.3,0.4,0.7,0.6c0.4-0.1,1,0,1.7,0.3c0.3,0.3,0.9,0.4,1.7,0.4c0.8,0,2.2-0.1,4-0.2c2,0,3.5,0,4.3-0.2
			c0.8-0.2,1.8-0.4,2.7-0.6c1.8-0.7,3.3-1.4,4.6-2.2c1.3-0.7,2.4-1.6,3.3-2.5c0.9-0.9,1.7-2.1,2.4-3.4c0.7-1.3,1.4-2.9,2-4.7
			c0.1-0.5,0.2-1.2,0.2-2c0-0.9,0.1-1.8,0.1-2.9c0-1,0-2.1-0.1-3.1c-0.1-1-0.2-2-0.3-2.8c-0.2-0.7-0.4-1.6-0.6-2.4
			c-0.2-0.9-0.5-1.7-0.7-2.5c-0.3-0.8-0.5-1.5-0.7-2.1c-0.2-0.6-0.4-1-0.6-1.2l-0.4-0.6C209.1,201.2,208.6,200.3,207.5,199z"/>
		<path class="st0" d="M202.9,167.5c0.6-1.2,1-2.3,1.4-3.3c0.4-1,0.5-1.7,0.5-2.3c0-0.6,0-1,0-1.1c0.1-0.1,0.3,0,0.6,0.3
			c0.7,0.5,1.1,1,1.3,1.4c0.2,0.4,0.3,1.1,0.3,1.9c0,0.5,0,1.1,0,1.7c0,0.6-0.3,1.3-0.7,2.1c-1.2,2.5-2.4,3.9-3.7,4.3
			c-0.7,0.2-1.2,0.3-1.5,0.3c-0.4,0-1.3-0.3-2.9-0.7c-1.4-0.1-2.4-0.2-3-0.1c-1,0.3-1.8,1.1-2.4,2.5c-0.6,1.4-0.9,2.9-0.8,4.6
			c0.1,0.7,0.1,1.3,0.3,1.9c0.1,0.6,0.5,1.3,1.1,2.1c0.4,0.7,0.7,1.2,1.1,1.7c0.3,0.5,0.6,0.8,0.8,0.9c0.3,0.3,0.5,0.5,0.6,0.5
			c0,0.1,0,0.1-0.2,0.1c-0.1,0-0.4-0.2-0.8-0.7c-0.4-0.5-0.9-1-1.5-1.7c-0.6-0.7-1.1-1.4-1.7-2.1c-0.5-0.7-0.9-1.3-1.2-1.9
			c-0.8-1.3-1.1-2.8-1.1-4.6c0-1.8,0.5-3.2,1.5-4.3c0.5-0.5,1-0.9,1.5-1.1c0.5-0.2,1.5-0.2,2.8,0.1c1.2,0.1,2.1,0.2,2.7,0.2
			c0.7,0,1.2,0,1.5,0c0.4,0,0.7-0.1,0.9-0.2c0.2-0.1,0.5-0.2,0.9-0.4c0.3-0.3,0.7-0.7,1.1-1.1C202.4,168.2,202.7,167.9,202.9,167.5z
			"/>
		<path class="st2" d="M58.3,306.8l-0.7-8.9c-0.6-7.9-0.9-15.8-1.5-23.8c-0.3-4.3-0.8-8.7-1.1-13.1c0-0.5,0.4-0.8,0.9-1.1
			c0.5,0,2.9-0.3,3.5-0.3c3.2-0.2,6.5-0.4,9.7-0.6c0.8-0.1,2.7-0.1,2.7,0l0.1,0.3l0.2,3.1c0,0.2-0.2,0.3-0.5,0.3
			c-0.1-0.1-0.4-0.1-0.5-0.1c-3.3,0-5.8,0.1-9.1,0.4l-2.8,0.2l-0.3,0.3c0.2,1.4,0.3,3.5,0.3,5l0.9,12.1c0,0.5,1.3,0.4,1.5,0.4
			c1.9,0,3.8-0.1,5.7-0.3c0.3,0.1,0.5,0.3,0.6,0.6l0.2,2.5l-0.3,0.3l-7.1,0.5l-0.3,0.1l0.1,1.8c0.3,3.5,0.5,7.1,0.9,10.6
			c0.1,0.9,0.9,8,1.1,8.8l0,0.2c0,0.5-0.5,0.9-1,0.9c-0.1,0-0.8-0.1-0.9,0l-2,0.1C58.5,307.3,58.4,307,58.3,306.8z"/>
		<path class="st2" d="M77.2,262.4c1.3-1.1,3-2.1,4.8-2.3l0.4,0c8-0.2,9.5,7.9,10.3,14.5c0,0.6,0.2,1.3,0.2,1.8
			c0.1,0.6,0.1,1.2,0.2,1.7c0.8,6.2,0.7,12.3-0.3,18.5c-0.6,3.9-2.7,7.9-7.2,8.5l-0.4,0c-8.3,0.6-11.5-10.1-12.2-16.6
			C71.8,279.2,72.2,266.7,77.2,262.4z M78.2,295.3c1,2.5,3.6,6.5,6.9,6.3c0.2,0,0.8-0.2,0.9-0.2c3.1-1.1,5.5-7.5,3.3-26.3l0-0.5
			c-0.5-4-1.9-11-6.9-10.9c-0.2,0-0.5,0-0.7,0.1c-6.4,0.7-6.2,15.8-5.3,24C76.7,290.4,77.2,292.8,78.2,295.3z"/>
		<path class="st2" d="M103,282.8c-0.4,0.1-1,0.2-1.1,0.2c-1,0.3-0.5,2.5-0.5,3.2c0.4,5.2,1.4,10.4,2,15.6l0.3,2.5l-3.1,0.2
			l-0.2-0.2c-0.4-3.4-1.1-6.6-1.6-9.9c-0.2-1.3-1-7.6-3-31.3c-0.3-1.1-0.4-2.1-0.5-3.2c-0.1-1.5,1.4-1.7,2.6-1.8l5-0.4
			c5.9,0,7.9,7.4,8.2,12c0.4,5-0.6,8.7-3.9,11.1c3.3,1.7,5,4.7,6.3,11.4c0.5,2.8,0.9,5.4,1.1,8.2l0.1,0.7c0,0.6,0,2,0,2l-0.2,0.1
			l-2.7,0.2l-0.2-0.2l-1.3-9c-0.8-4.3-1.7-9.2-5.4-10.9c-0.4-0.2-1.3-0.5-1.7-0.5C103.1,282.9,103,282.8,103,282.8z M101.6,279.7
			c5-0.4,6.3-5.9,6-10.1c-0.6-7.5-2.6-9.1-7.6-8.7c-0.7,0.1-0.6,0.7-0.5,1.3l0.5,6.7C100.3,271.4,100.4,279.8,101.6,279.7z"/>
		<path class="st2" d="M131.7,256.5c-0.6-1.3-0.5-2.4,0.4-3.3c0.9-0.9,3.1-2.2,6.8-3.9c5.5-1.8,10.3-2.4,14.3-1.8
			c4,0.6,7.5,2.1,10.5,4.7c2.1,2.3,3.7,4.6,4.8,6.9c1.1,2.4,1.8,4.9,2,7.7c0.2,2.4-0.2,5-1.2,7.8c-1,2.8-2.1,4.7-3.4,5.8
			c-0.9,1-1.2,2.2-0.9,3.5c0.3,1.3,1.8,3.2,4.4,5.8c3,3.1,5.5,6.8,7.4,11.1c1.9,4.3,3.6,9.4,5,15.4c1.2,6.3,1.4,12.3,0.7,17.9
			c-0.7,5.6-2.1,10.4-4.3,14.5c-2.2,4.1-5,7.4-8.5,9.7c-3.5,2.4-7.5,3.4-12,3.3c-1.4,0.1-3.2,0-5.4-0.3c-2.1-0.3-4.3-0.8-6.4-1.4
			c-2.1-0.6-4.1-1.3-5.8-2.1c-1.8-0.8-3-1.5-3.8-2.2c-0.6-0.6-1-1.2-1.2-1.6c-0.2-0.4-0.3-0.9-0.1-1.5c0.2-0.6,0.6-1.4,1.3-2.4
			c0.7-1,1.7-2.4,3-4.2c1.2-2,2.1-3,2.6-3.1c0.5-0.1,1.5,0.5,3.1,1.7c0.9,0.4,2.1,1,3.5,1.7c1.4,0.7,2.8,1.2,4.3,1.5
			c2.9,0.8,5.5,0.7,7.8-0.2c2.3-0.9,4.3-3.1,5.9-6.5c0.6-1.2,1.1-2.2,1.4-2.9c0.3-0.8,0.5-1.7,0.6-2.7c0.1-1,0.1-2.3,0.1-3.9
			c-0.1-1.6-0.2-3.8-0.4-6.6c-0.9-12.1-3.4-19.8-7.4-23.2c-0.5-0.4-1.8-1.1-3.9-2.2c-2-1-4-1.9-6-2.8c-2.5-1.2-4.6-2.2-6.3-3
			c-1.7-0.8-2.6-1.5-2.6-2c-0.5-0.4-0.9-1.3-1-2.5c-0.2-1.2-0.3-2.6-0.4-4c-0.2-2.8-0.2-4.5,0.1-5.1c0.3-0.6,1.3-1.2,3.2-1.9
			c4.1-1.7,7-3.1,8.8-4.3c1.7-1.2,3-2.3,3.9-3.3c0.4-1.4,0.2-3-0.4-4.7c-0.6-1.7-1.7-3.2-3.1-4.5c-0.5-0.4-1.2-0.8-1.9-1
			c-0.7-0.3-2-0.1-3.8,0.5c-2.6,0.5-4.7,0.8-6.2,1c-1.5,0.2-2.8,0.1-3.9-0.1c-1-0.3-2-0.8-2.7-1.6
			C133.7,259.4,132.8,258.2,131.7,256.5z"/>
		<path class="st0" d="M139.3,268.3c-1-0.8-1.5-1.4-1.3-1.6c0.2-0.2,1.2-0.7,3-1.3c3.2-0.7,5.9-0.9,8.1-0.7c2.2,0.2,3.3,0.8,3.4,1.7
			c0.5,0.5,0.5,0.8-0.1,1c-0.5,0.2-1.7,0.6-3.6,1.2c-2.4,0.7-4.3,1.1-5.8,1.1C141.5,269.6,140.3,269.2,139.3,268.3z"/>
		<path class="st0" d="M185.2,324.6c-0.5-6.6-1.4-12.4-2.8-17.4c-1.4-5.1-3.1-9.2-5.2-12.3c-1.1-1.8-1.7-2.9-1.8-3.4
			c-0.1-0.4,0.1-0.2,0.7,0.6c1.5,1.1,3,2.9,4.5,5.5c1.5,2.6,3,5.6,4.2,9c1.3,3.4,2.3,7,3.1,10.9c0.8,3.9,1.3,7.7,1.4,11.5
			c0.3,4.5,0.2,8.8-0.5,12.9c-0.7,4.1-1.8,7.9-3.3,11.3c-1.5,3.4-3.5,6.3-5.9,8.7c-2.4,2.4-5.2,4.2-8.4,5.4c-2.8,1.2-5.1,1.8-6.9,2
			c-1.8,0.1-3.9-0.2-6.3-1c-1.4-0.1-3.3-0.4-5.5-1.1c-2.2-0.7-4.4-1.5-6.5-2.4c-2.1-0.9-3.9-1.7-5.4-2.6c-1.5-0.8-2.2-1.5-2.3-2
			c0.8,0.1,1.4,0.4,2,0.8c1.4,0.6,3.1,1.3,5,1.9c1.9,0.7,3.8,1.2,5.7,1.8c1.9,0.5,3.6,0.9,5.2,1.2c1.6,0.3,2.7,0.4,3.5,0.3
			c0.9-0.1,2.1-0.4,3.5-0.9c1.4-0.5,2.8-1.1,4.3-1.9c1.5-0.8,2.9-1.6,4.3-2.5c1.4-0.9,2.5-1.8,3.4-2.6c1.7-2,3.4-4.5,5-7.3
			c1.6-2.9,3-6,4.2-9.4c0.1-0.9,0.2-1.9,0.4-2.8c0.2-0.9,0.3-2,0.4-3.2c0.1-1.2,0.1-2.7,0.1-4.5
			C185.5,329.4,185.4,327.2,185.2,324.6z"/>
		<path class="st0" d="M158,303.8c0.5,0.5,0.3,0.6-0.6,0.4c-0.9-0.2-2-0.6-3.4-1.1c-1.4-0.6-2.9-1.2-4.4-2c-1.5-0.7-2.6-1.5-3.3-2.2
			c-1-0.8-1.5-1.3-1.4-1.4c0.1-0.1,0.8,0,2.3,0.4c2.4,0.8,4.7,1.7,6.8,2.8C156.1,302,157.5,303,158,303.8z"/>
		<path class="st0" d="M173.2,266.7c-0.2-2.8-0.6-5-1.1-6.6c-0.5-1.6-1.1-3.1-1.6-4.5c-1.1-1.3-1.6-1.9-1.5-2c0.1,0,0.9,0.6,2.4,1.9
			c1.5,1.8,2.8,3.8,3.8,6.2c1,2.3,1.7,4.7,2,7.2c0.4,2.5,0.4,4.9,0.1,7.3c-0.3,2.4-1,4.6-2,6.6c-1.7,2.5-2.9,3.9-3.6,4.2
			c-0.7,0.3-1.3,0-1.8-1c-0.6-0.9-0.8-1.8-0.7-2.7c0.1-0.9,0.8-2.6,2-5.1c1.2-2,1.9-3.7,2.1-5.1
			C173.5,271.7,173.4,269.5,173.2,266.7z"/>
		<path class="st2" d="M192.2,285.4l3.2-0.2c0.3,0,0.6,4.6,0.7,5.1c0,0.3,0.4,2.3,0.4,2.6c0.4,1.4,1.5,2.4,3.1,2.3l1.1-0.1
			c3.5-0.1,7.7-0.3,7-9.3c-1-14.1-16.6-10.5-17.9-21c-0.1-0.4-0.4-2.3-0.4-2.7c-0.1-3.1-0.5-13.6,7.5-14.2c2.7,0,6.4,0.5,7.4,3.7
			c0.8,2.2,1.2,4.5,1.4,6.8l0.1,1.2c0,0.2,0,0.6-0.4,0.7l-3.2,0.2c-0.4,0-0.2-0.6-0.3-2.2c-0.2-2.2-1.1-6.6-4.1-6.3
			c-1.9,0.1-3.8,2.5-4.1,4.4c-0.6,2.3-0.8,8.8,1.7,10.5c3.8,2.6,9.9,5.3,13.7,10.4c1.7,2.2,2.2,4.9,2.4,7.6c0.5,6.8-1,13.5-9.6,14.1
			c-6.4,0.5-9.8-2.4-10.3-8.8C191.8,288.9,191.5,285.5,192.2,285.4z"/>
		<path class="st2" d="M242.4,435.3c-10.2,9.1-22.3,13-36.3,11.1c-13.9-1.9-24-8.8-29.7-21.1c-3.9-8.3-4.6-17.1-4.2-26
			c0-0.7,0.6-1.7-0.1-2c0,0,0,0-0.1,0c1.3-6.4,4.2-11.9,9.3-16.5c10.2-9.1,22.3-13,36.3-11.1c13.9,1.9,24,8.8,29.7,21.1
			c3.9,8.3,4.6,17.1,4.2,26c0,0.7-0.6,1.7,0.1,2c0,0,0,0,0.1,0C250.4,425.2,247.5,430.7,242.4,435.3z"/>
		<path class="st0" d="M255.7,416.4c0.2-0.5,0.4-1.1,0.5-1.7c0.1-0.9,0.1-1.9,0.2-2.8c0.1-1.2,0.2-2.4,0.1-3.6c0-3.7-0.2-7.4-1.2-11
			c-6.3-24.7-33.6-36.5-54.8-30.9c-18.3,4.8-29.5,19.1-32.5,33.4c-0.2,0.5-0.4,1.1-0.5,1.7c-0.1,0.9-0.1,1.9-0.2,2.8
			c-0.1,1.2-0.2,2.4-0.1,3.6c0,3.7,0.2,7.4,1.2,11c1,3.9,2.6,7.5,4.5,10.8c2.4,0.8,4.9,1.6,7.4,2.4c-1.5-2-2.8-4.3-4-6.7
			c-3.9-8.3-4.6-17.1-4.2-26c0-0.7,0.6-1.7-0.1-2c0,0,0,0-0.1,0c1.3-6.4,4.2-11.9,9.3-16.5c10.2-9.1,22.3-13,36.3-11.1
			c13.9,1.9,24,8.8,29.7,21.1c3.9,8.3,4.6,17.1,4.2,26c0,0.7-0.6,1.7,0.1,2c0,0,0,0,0.1,0c-1.3,6.4-4.2,11.9-9.3,16.5
			c-2.2,2-4.5,3.7-6.9,5.1c0.9,0,1.7,0,2.6,0c1.1,0,2.1,0,3.2,0C249,433.8,253.9,425.1,255.7,416.4z"/>
	</g>
</g>
</svg>
