<?xml version="1.0" encoding="utf-8"?>
<!-- Generator: Adobe Illustrator 21.0.2, SVG Export Plug-In . SVG Version: 6.00 Build 0)  -->
<svg version="1.1" id="Layer_1" xmlns="http://www.w3.org/2000/svg" xmlns:xlink="http://www.w3.org/1999/xlink" x="0px" y="0px"
	 viewBox="0 0 474.4 474.4" style="enable-background:new 0 0 474.4 474.4;" xml:space="preserve">
<style type="text/css">
	.st0{fill:#8D1F1C;}
	.st1{fill:#E9292A;}
	.st2{fill:#FBF8F6;}
	.st3{fill:#FBF8F8;}
</style>
<g>
	<path class="st0" d="M237.9,4.4C109,4.4,4.2,109.2,4.2,238c0,128.8,104.8,233.7,233.7,233.7S471.5,366.9,471.5,238
		C471.5,109.2,366.7,4.4,237.9,4.4z"/>
	<g>
		<path class="st1" d="M238.5,35.3c-111.2,0-201.4,90.2-201.4,201.4s90.2,201.4,201.4,201.4c45.3,0,87.1-15,120.8-40.2
			c1.2-0.9,2.4-1.8,3.6-2.8c9.1-7.1,17.5-15,25.3-23.6c1.5-1.7,3-3.4,4.5-5.2c17.4-20.7,30.7-44.9,38.7-71.4c0.3-1.1,0.7-2.2,1-3.3
			c1.8-6.4,3.3-12.9,4.5-19.5c0.3-1.7,0.6-3.5,0.9-5.2c1.5-9.8,2.2-19.9,2.2-30.2C439.9,125.4,349.7,35.3,238.5,35.3z"/>
		<path class="st2" d="M238.5,14.6c-122.6,0-222,99.4-222,222s99.4,222,222,222s222-99.4,222-222S361.1,14.6,238.5,14.6z
			 M238.5,438.1c-111.2,0-201.4-90.2-201.4-201.4S127.3,35.3,238.5,35.3c111.2,0,201.4,90.2,201.4,201.4S349.7,438.1,238.5,438.1z"
			/>
		<g>
			<path class="st3" d="M277.6,221.2C277.6,221.2,277.6,221.2,277.6,221.2L277.6,221.2L277.6,221.2z"/>
			<path class="st3" d="M409.5,222.3l-11.6-22.6l-13.8-15.1l-10.6-8.2c-14.4,1-11.1-2.5-11.1-2.5l2.9-9.7l4.7-3l3-5.7l1.4-9.9
				l-0.7-4l-1.1-12.5l-3.1-11.6l-7.2-9.1l-13.3-8.1l-10-3.7h-5.7l-8.3,1.1l-9.8,4.9l-5.8,7.8l-6.6,9.9l-0.8,8.6c0,0-0.3,7.2,0,7.8
				c0.3,0.6-2.4,4.6-2.8,4.8c-0.4,0.2-4.7,1.2-4.7,1.2l3.1,8.4l2.6,4.8l-0.5,4.6l5.5,1.6l5.3-1.6l3.4,4.5l2.5,11.2
				c0,0-5.8,3.7-6.3,3.9c-0.5,0.2-5.5,8.9-5.5,8.9l-6.9,9.9l-1.8,2.3c-0.2-0.4-0.6-0.6-1.1-0.8c-2.8-0.9-5.1-2.5-7.4-4.2
				c-2.5-1.9-4.9-4-7.6-5.5c-5.8-3.2-11.6-1.7-14.9,4c-2.9,4.9-3.7,10.3-3.2,15.9c0.2,2.3,0.9,4.5,2.3,6.5c0.6,0.8,1.1,1.6,2,2
				c0.8,0.4,1.7,0.4,2.4-0.3c0.7-0.6,0.1-1.3-0.1-1.9c-0.1-0.3-0.3-0.6-0.4-0.9c-0.1-0.4-0.5-0.8-0.1-1.1c0.4-0.3,0.8,0.1,1.1,0.3
				c0.9,0.6,1.2,1.7,1.9,2.4c1.1-0.2,2.3,0.3,3.3-0.4c1,0.9,1.4,2.2,2.4,3c0.7-0.2,1,0.2,1.1,0.9c0.3,0.1,0.6,0.1,0.7,0.2
				c2.8,2.9,5.9,5.4,9,7.9c3,2.4,6.3,4.5,10,5.7c1.3,0.4,2.2,0.3,2.7-0.3l0.8,1.9l-9.7,23.1l0.4,10.7c0,0-4.3,3.8-4.5,4.1
				c-0.2,0.3-5.5,7.1-5.5,7.1l-2.2,10.5l-1.3,3.6c-3,1.8-5.8,4.2-8.4,6.7c-0.9,0.8-0.8,1.8,0.1,2.7c0.7,0.6,1.4,1.2,2.1,1.8
				c0.6,0.5,1.2,1,1.7,1.5l-1,2.7c-1.6-1.3-3.1-2.6-4.7-3.8c-3.5-2.6-7.2-4.5-11.6-5.2c0.1,0.2,0.2,0.3,0.3,0.4
				c4.7,3.8,8.4,8.4,11.7,13.4c0.6,0.9,1.1,1.8,1.7,2.6l-1.4,3.8c-3.3-6-7.8-11.1-12.8-15.9c-2.1-2-4.5-3.5-6.9-3.5
				c-2.1,0-2.8,0.3-3.9,1.4c-7.6,7.3-8.6,16.7-4.2,26c3.1,6.4,8.2,11,13.9,15.2c1.4,1,3.1,1.4,4.9,1.4c0.1,0,0.1,0,0.2,0l-0.4,1.2
				l-15.8,2.1c0,0-12.6,7.1-13.1,7.4c-0.5,0.3-6.9,7.4-6.9,7.4l-8.1,15.3l-4.8,20.6l1.5,15.5l7.3,14.6l8.5,10.1l5.3,0.6l44.1-2.3
				l30.8-7l7.5-18.3l1.6-15l-2-11.2l-4-9.4l-4.5-7.3l-6.2-6.7l-6.4-5.3l-5.1-4.3v-6.9l3.4-3.9l4.1-3.2l3.4-5.1
				c0,0,13.6-3.5,14.4-3.7c0.8-0.1,1,3.1,1,3.1l-0.6,16.2l-1.6,5.4c0,0,4.8,6.4,5.1,6.8c0.2,0.3,9.9,6.8,9.9,6.8l9.2,4.8l1.4,17.9
				l1.7,13.2l1.5,5.1l22.9-11.6l2.3-7.6l-4.3-14.6c0,0,0-8.9,0-9.2c0-0.3,1.1-15.4,1.1-15.4l4.6-23.7c0,0,3.8-5.5,6.3-18.9
				c2.6-13.4,5.6-5.9,5.6-5.9l0.7,3.7c0,0,2.8,2.4,3.2,2.9c0.4,0.5,4.7,0,4.7,0l7.6-7l5.7-6.1l4.9-12.6l3.1-15.7l2.5-16.1v-13.4
				L409.5,222.3z"/>
		</g>
		<g>
			<path class="st0" d="M129.5,149.1c-0.2-0.3-0.4-0.7-0.5-1.3c-0.3-0.3-0.1-0.3,0.7-0.1c0.3,0.1,0.8,0.6,1.4,1.4
				c0.6,0.8,1.1,1.8,1.7,3.2c0.5,1.2,0.7,2.1,0.8,2.8c0.1,0.7,0,1.4-0.2,2.1c-0.3,0.8-0.9,1.3-1.8,1.7c-1,0.4-2.5,0.8-4.5,1.2
				c-0.8,0.3-2,0.6-3.5,1c-1.5,0.4-2.8,0.7-4,1c-2.8,0.7-5,1.2-6.6,1.6c-1.6,0.4-2.8,0.7-3.6,0.8c-0.8,0.1-1.4,0.2-1.8,0.2
				c-0.3,0-0.7-0.1-1-0.3c-0.2-0.1-0.5-0.3-0.8-0.6c-0.3-0.3-0.6-0.5-0.8-0.6c-0.4-0.3-0.5-0.5-0.4-0.5c0.1-0.1,0.7-0.2,1.7-0.3
				c0.5-0.1,1.5-0.3,2.9-0.6c1.5-0.3,2.9-0.7,4.2-1c1.5-0.5,3.2-1,5.2-1.4c2-0.5,3.6-0.9,5-1.2c1.4-0.3,2.4-0.6,3.1-0.8
				c0.7-0.2,1.3-0.4,1.7-0.5c0.4-0.2,0.7-0.3,0.9-0.5c0.2-0.2,0.4-0.4,0.6-0.8c0.3-0.4,0.4-0.7,0.5-1.2c0-0.4,0-1-0.1-1.7
				c-0.1-0.5-0.2-1.1-0.3-1.8C129.9,150,129.7,149.5,129.5,149.1z"/>
			<path class="st0" d="M110.5,131.2c-0.4-4-0.9-8.3-1.5-12.8s-1.2-8.7-1.8-12.7c-0.6-3.9-1.1-7.4-1.6-10.3c-0.4-2.9-0.8-4.9-1-5.8
				c-0.3-0.8-0.4-1.3-0.4-1.4c0-0.1,0.3,0,0.9,0.2c0.5,0.3,0.8,0.6,1.1,1c0.3,0.4,0.5,1,0.8,2c0.2,0.9,0.5,2.3,0.8,4.2
				c0.3,1.9,0.7,4.5,1.2,7.8c0.9,6,1.7,11,2.4,15c0.6,3.9,1.1,7.3,1.5,9.9c0.4,2.7,0.6,4.9,0.9,6.8c0.2,1.8,0.4,3.6,0.5,5.5
				c0.1,1.9,0.2,3.4,0.3,4.4c0.1,1,0.1,1.7,0,2.1c-0.1,0.4-0.2,0.7-0.4,0.9c-0.2,0.1-0.6,0.3-1.1,0.5c-0.2,0-0.4-0.1-0.5-0.3
				c-0.1-0.2-0.3-0.9-0.4-2c-0.2-1.1-0.4-2.8-0.7-5.1C111.4,138.5,111,135.3,110.5,131.2z"/>
			<path class="st0" d="M141,124.1c-0.1-2.8-0.2-5.5-0.3-7.9c-0.1-2.4-0.2-4.8-0.4-7.2c-0.2-2.3-0.4-4.7-0.6-7.1
				c-0.2-2.4-0.5-4.9-0.8-7.5c-0.3-2.9-0.5-5.1-0.6-6.7c-0.1-1.5-0.1-2.6-0.1-3.1c0.1-0.5,0.2-0.7,0.5-0.5s0.7,0.5,1.2,1
				c0.1,0.2,0.2,0.4,0.3,0.7c0.1,0.2,0.2,0.7,0.3,1.3c0.1,0.6,0.3,1.5,0.4,2.7c0.1,1.2,0.3,2.7,0.5,4.7c0.6,5.3,1.1,10.7,1.5,16.2
				c0.3,5.5,0.6,10.2,0.7,14.3c0,1.5,0.1,3.6,0.3,6.3c0.2,2.7,0.4,5.1,0.7,7.3c0.9,7.5,1.1,13,0.6,16.5c-0.5,3.5-1.8,5.4-3.8,5.7
				c-0.9-0.1-1.9-0.2-2.8-0.5c-0.9-0.3-1.8-0.6-2.6-1.1c-0.5-0.5-0.6-0.8-0.6-0.8c0.1-0.1,0.6-0.1,1.5,0c1.5,0,2.7-0.4,3.6-1.3
				c0.9-0.9,1.5-2.3,1.6-4.2c0.2-1.3,0.3-2.5,0.4-3.5c0.1-1,0.1-2,0.1-3.1c0-1.1-0.1-2.2-0.2-3.5c-0.1-1.3-0.3-2.8-0.5-4.7
				c-0.2-2-0.5-4.3-0.7-7.1C141.1,128.2,141,125.9,141,124.1z"/>
			<path class="st0" d="M144.3,95c0.3,0,1-0.1,1.9-0.3c1-0.1,2-0.4,3-0.7c0.9-0.3,1.8-0.4,2.6-0.6c0.8-0.1,1.3-0.2,1.5-0.2
				c0.3,0.5,0.4,0.9,0.5,1.2c0.1,0.8,0,1.3-0.3,1.5c-0.3,0.2-1.3,0.5-2.9,0.8c-1,0.1-1.8,0.2-2.7,0.3c-0.8,0.1-1.3,0.2-1.4,0.2
				c-0.5-0.1-1.1-0.3-1.6-0.6c-0.6-0.3-1.1-0.7-1.4-1.2c0-0.1,0-0.2,0.1-0.3C143.5,95.1,143.8,95,144.3,95z"/>
			<path class="st0" d="M177.4,87.8c0.4-0.7,0.6-1.2,0.6-1.6c0-0.4,0-1.5-0.3-3.2c-0.1-0.9-0.2-2.1-0.4-3.4c0.3,0,0.7,0.1,1.2,0.4
				c0.4,0.3,0.9,0.6,1.2,0.9c0.2,0.3,0.3,0.8,0.4,1.4c0.1,0.6,0.3,1.6,0.4,3c0.4,1.9,0.5,3.2,0.3,3.9c-0.1,0.7-0.7,1.4-1.5,1.9
				c-0.5,0.4-1,0.6-1.5,0.7c-0.5,0.1-1.9,0.3-4.1,0.5c-2.2,0.3-3.5,0.5-3.9,0.8c-0.4,0.3-0.6,0.9-0.6,2c0,0.2,0.1,1.2,0.3,2.9
				c0.2,1.7,0.4,3.9,0.7,6.6c0.3,2.7,0.6,5.8,1,9.2c0.4,3.5,0.8,7.1,1.3,10.9c0.7,7,1.3,12.4,1.7,16.2c0.4,3.8,0.7,6.6,0.9,8.4
				c0.2,1.8,0.2,3,0.2,3.4c0,0.5-0.1,0.9-0.2,1.2c-0.1,0.3-0.4,0.7-0.7,1c-0.4,0.3-0.7,0.6-1,0.8c-0.2,0.2-0.7,0.4-1.3,0.6
				c-0.6,0.2-1.3,0.4-2,0.5c-0.7,0.1-1.4,0.2-2,0.3c-0.6,0.1-1.1,0.1-1.5,0c-0.3,0-0.9-0.2-1.7-0.8c-0.8-0.5-1.3-0.9-1.4-1.1
				c0-0.1,0.3-0.3,1-0.5c0.7-0.2,1.5-0.4,2.4-0.5c2-0.4,3.3-0.8,4-1.1c0.7-0.4,1.2-1.1,1.6-2.1c0-0.3,0-0.8,0-1.3
				c0-0.6-0.2-1.7-0.4-3.5c-0.2-1.8-0.5-4.5-0.9-8.1c-0.4-3.6-0.9-8.6-1.6-14.9c-0.4-3.6-0.9-7.2-1.3-10.5c-0.4-3.4-0.7-6.4-1-9.1
				c-0.3-2.7-0.5-4.9-0.7-6.6c-0.2-1.7-0.3-2.8-0.3-3.2c0-1.6,0.1-2.5,0.4-2.8c0.3-0.3,1.4-0.6,3.3-0.8c2.3-0.3,4-0.6,4.9-0.9
				S177,88.5,177.4,87.8z"/>
			<path class="st0" d="M182.8,90.3c0.3,0,1-0.1,1.9-0.3c1-0.1,2-0.4,3-0.7c0.9-0.3,1.8-0.4,2.6-0.6c0.8-0.1,1.3-0.2,1.5-0.2
				c0.3,0.5,0.4,0.9,0.5,1.2c0.1,0.8,0,1.3-0.3,1.5c-0.3,0.2-1.3,0.5-2.9,0.8c-1,0.1-1.8,0.2-2.7,0.3c-0.8,0.1-1.3,0.2-1.4,0.2
				c-0.5-0.1-1.1-0.3-1.6-0.6c-0.6-0.3-1.1-0.7-1.4-1.2c0-0.1,0-0.2,0.1-0.3C182,90.4,182.3,90.3,182.8,90.3z"/>
			<path class="st0" d="M215.8,83.1c0.4-0.7,0.6-1.2,0.6-1.6c0-0.4,0-1.5-0.3-3.2c-0.1-0.9-0.2-2.1-0.4-3.4c0.3,0,0.7,0.1,1.2,0.4
				c0.4,0.3,0.9,0.6,1.2,0.9c0.2,0.3,0.3,0.8,0.4,1.4c0.1,0.6,0.3,1.6,0.4,3c0.4,1.9,0.5,3.2,0.3,3.9c-0.1,0.7-0.7,1.4-1.5,1.9
				c-0.5,0.4-1,0.6-1.5,0.7c-0.5,0.1-1.9,0.3-4.1,0.5c-2.2,0.3-3.5,0.5-3.9,0.8c-0.4,0.3-0.6,0.9-0.6,2c0,0.2,0.1,1.2,0.3,2.9
				c0.2,1.7,0.4,3.9,0.7,6.6c0.3,2.7,0.6,5.8,1,9.2c0.4,3.5,0.8,7.1,1.3,10.9c0.7,7,1.3,12.4,1.7,16.2c0.4,3.8,0.7,6.6,0.9,8.4
				c0.2,1.8,0.2,3,0.2,3.4c0,0.5-0.1,0.9-0.2,1.2c-0.1,0.3-0.4,0.7-0.7,1c-0.4,0.3-0.7,0.6-1,0.8c-0.2,0.2-0.7,0.4-1.3,0.6
				c-0.6,0.2-1.3,0.4-2,0.5c-0.7,0.1-1.4,0.2-2,0.3c-0.6,0.1-1.1,0.1-1.5,0c-0.3,0-0.9-0.2-1.7-0.8c-0.8-0.5-1.3-0.9-1.4-1.1
				c0-0.1,0.3-0.3,1-0.5c0.7-0.2,1.5-0.4,2.4-0.5c2-0.4,3.3-0.8,4-1.1c0.7-0.4,1.2-1.1,1.6-2.1c0-0.3,0-0.8,0-1.3
				c0-0.6-0.1-1.7-0.4-3.5c-0.2-1.8-0.5-4.5-0.9-8.1c-0.4-3.6-0.9-8.6-1.6-14.9c-0.4-3.6-0.9-7.2-1.3-10.5c-0.4-3.4-0.7-6.4-1-9.1
				c-0.3-2.7-0.5-4.9-0.7-6.6c-0.2-1.7-0.3-2.8-0.3-3.2c0-1.6,0.1-2.5,0.4-2.8c0.3-0.3,1.4-0.6,3.3-0.8c2.3-0.3,4-0.6,4.9-0.9
				C214.7,84.3,215.4,83.8,215.8,83.1z"/>
			<path class="st0" d="M252.6,134.1c-0.2-0.3-0.4-0.7-0.5-1.3c-0.3-0.3-0.1-0.3,0.7-0.1c0.3,0.1,0.8,0.6,1.4,1.4
				c0.6,0.8,1.1,1.8,1.7,3.2c0.5,1.2,0.7,2.1,0.8,2.8c0.1,0.7,0,1.4-0.2,2.1c-0.3,0.8-0.9,1.3-1.8,1.7c-1,0.4-2.5,0.8-4.5,1.2
				c-0.8,0.3-2,0.6-3.5,1c-1.5,0.4-2.8,0.7-4,1c-2.8,0.7-5,1.2-6.6,1.6c-1.6,0.4-2.8,0.7-3.6,0.8c-0.8,0.1-1.4,0.2-1.8,0.2
				c-0.3,0-0.7-0.1-1-0.3c-0.2-0.1-0.5-0.3-0.8-0.6c-0.3-0.3-0.6-0.5-0.8-0.6c-0.4-0.3-0.5-0.5-0.4-0.5c0.1-0.1,0.7-0.2,1.7-0.3
				c0.5-0.1,1.5-0.3,2.9-0.6c1.5-0.3,2.9-0.7,4.2-1c1.5-0.5,3.2-1,5.2-1.4c2-0.5,3.6-0.9,5-1.2c1.4-0.3,2.4-0.6,3.1-0.8
				c0.7-0.2,1.3-0.4,1.7-0.5c0.4-0.2,0.7-0.3,0.9-0.5c0.2-0.2,0.4-0.4,0.6-0.8c0.3-0.4,0.4-0.7,0.5-1.2c0-0.4,0-1-0.1-1.7
				c-0.1-0.5-0.2-1.1-0.3-1.8C252.9,135,252.8,134.4,252.6,134.1z"/>
			<path class="st0" d="M233.6,116.2c-0.4-4-0.9-8.3-1.5-12.8c-0.6-4.5-1.2-8.7-1.8-12.7c-0.6-3.9-1.1-7.4-1.6-10.3
				c-0.4-2.9-0.8-4.9-1-5.8c-0.3-0.8-0.4-1.3-0.4-1.4c0-0.1,0.3,0,0.9,0.2c0.5,0.3,0.8,0.6,1.1,1c0.3,0.4,0.5,1,0.8,2
				c0.2,0.9,0.5,2.3,0.8,4.2c0.3,1.9,0.7,4.5,1.2,7.8c1,6,1.7,11,2.4,15c0.6,3.9,1.1,7.3,1.5,9.9s0.6,4.9,0.9,6.8
				c0.2,1.8,0.4,3.6,0.5,5.5c0.1,1.9,0.2,3.4,0.3,4.4c0.1,1,0.1,1.7,0,2.1c-0.1,0.4-0.2,0.7-0.4,0.9c-0.2,0.1-0.6,0.3-1.1,0.5
				c-0.2,0-0.4-0.1-0.5-0.3c-0.1-0.2-0.3-0.9-0.4-2c-0.2-1.1-0.4-2.8-0.7-5.1C234.5,123.5,234.1,120.3,233.6,116.2z"/>
			<path class="st0" d="M286.9,138.3c0.5-0.6,0.8-1.4,0.9-2.3c0.1-0.9,0.1-2.1-0.2-3.5c-0.1-0.7-0.2-1.4-0.2-1.9
				c-0.1-0.6,0-0.9,0.1-0.9c0,0.1,0.3,0.5,0.9,0.9c0.6,0.5,0.9,0.9,1.1,1.1c0.1,0.1,0.3,0.5,0.4,1.2c0.1,0.7,0.2,1.4,0.3,2.1
				c0.2,1.7,0.3,2.9,0.1,3.8c-0.1,0.8-0.5,1.5-1.1,2.1c-0.3,0.2-0.6,0.4-0.8,0.5c-0.2,0.1-0.6,0.2-1.1,0.4c-0.5,0.1-1.2,0.2-2.1,0.4
				c-0.9,0.1-2.2,0.3-3.8,0.6c-1.8,0.2-3.5,0.5-4.8,0.7c-1.4,0.3-2.1,0.4-2.2,0.4c-0.1,0-0.7,0.1-1.6,0.4c-0.9,0.2-2,0.4-3.1,0.5
				c-1.7,0.3-2.8,0.6-3.5,0.6c-0.6,0.1-1.2,0-1.7-0.3c-0.2-0.1-0.4-0.2-0.7-0.3c-0.3-0.1-0.5-0.1-0.6-0.1c-0.1,0-0.3,0-0.5,0
				c-0.2,0-0.3-0.2-0.5-0.5c-0.3-0.3-0.6-0.5-0.9-0.5c-0.1,0-0.4-0.2-0.9-0.6c-0.4-0.4-0.6-0.6-0.5-0.6c0.5,0.2,0.9,0.3,1.2,0.4
				c1.2,0.4,4.8,0.1,10.8-1c0.9-0.2,2.2-0.5,3.7-0.8c1.6-0.3,2.9-0.6,4.1-0.7c2.6-0.4,4.4-0.7,5.2-1
				C285.9,139.1,286.5,138.8,286.9,138.3z"/>
			<path class="st0" d="M278.6,70.5c-0.2-0.5-0.4-1.1-0.5-1.7c-0.1-0.6-0.2-1-0.2-1.1c0-0.3,0-0.4,0-0.5c0,0,0.1-0.1,0.3-0.1
				c0.9,0.3,1.6,1,2,2.1c0.5,1.1,0.8,2.6,1,4.4c0.2,1.2,0.4,1.9,0.3,2.2c0,0.3-0.3,0.7-0.8,1.3c-0.3,0.4-0.5,0.6-0.7,0.8
				c-0.2,0.2-0.6,0.3-1.3,0.5c-0.6,0.2-1.5,0.4-2.7,0.5c-1.2,0.2-2.8,0.4-5,0.7c-2.1,0.3-3.8,0.5-4.9,0.7c-1.1,0.2-2,0.5-2.5,0.8
				c-0.5,0.3-0.8,0.7-0.8,1.2c0,0.5,0,1.2,0.1,2.1c0.1,1.7,0,2.7-0.1,3.1c-0.1,0.3-0.4,0.6-0.9,0.8c-0.6,0.1-0.9-0.1-1.1-0.5
				c-0.1-0.4-0.4-1.8-0.6-4.2c-0.1-1.2-0.2-2.1-0.2-2.8c0-0.7,0.2-1.2,0.6-1.6c0.4-0.4,1.2-0.7,2.2-0.9c1-0.2,2.5-0.5,4.4-0.8
				c2-0.2,3.6-0.4,4.9-0.6c1.2-0.2,2.2-0.3,2.9-0.5c0.7-0.2,1.2-0.3,1.6-0.5c0.3-0.2,0.6-0.5,0.9-0.8c0.6-0.6,1-1.3,1.1-1.9
				C278.9,72.5,278.8,71.6,278.6,70.5z"/>
			<path class="st0" d="M273.6,98.3c0.8-0.8,1.2-1.5,1.2-2.1c0.1-0.6,0-1.7-0.2-3.4c-0.1-1.6-0.1-2.5,0-2.8c0.1-0.3,0.3-0.3,0.8,0.1
				c0.6,0.5,1.1,1.1,1.5,1.8c0.4,0.7,0.7,1.7,0.8,3.1c0.3,2.4,0.1,4.1-0.6,5.1c-0.7,0.9-2.1,1.6-4.2,1.8c-0.6,0.1-1.3,0.2-2.3,0.3
				c-1,0.1-1.8,0.2-2.5,0.3c-0.6,0.2-1.1,0.4-1.4,0.6c-0.3,0.2-0.5,0.7-0.6,1.6c-0.1,0.9,0,2.2,0.2,3.9c0.2,1.8,0.5,4.2,0.9,7.5
				c0.4,3.3,0.8,5.9,1,7.7c0.2,1.8,0.4,3.2,0.4,4c0.1,0.9,0,1.4-0.1,1.6c-0.1,0.2-0.3,0.3-0.5,0.4c-0.1,0-0.3,0.1-0.6,0.2
				c-0.2,0.1-0.4,0.2-0.5,0.2c-0.1,0-0.2-0.2-0.3-0.6c-0.1-0.4-0.2-1.2-0.4-2.3c-0.1-1.1-0.3-2.6-0.6-4.5c-0.2-1.9-0.5-4.3-0.9-7.3
				c-0.4-3.6-0.8-6.4-1-8.3c-0.2-1.9-0.4-3.4-0.5-4.3c-0.1-0.9-0.1-1.5,0-1.7c0.1-0.2,0.2-0.3,0.3-0.5c0.3,0,0.9-0.2,1.9-0.4
				c1-0.2,2-0.4,3.2-0.5c2-0.3,3.2-0.6,3.8-0.7C272.9,98.9,273.4,98.7,273.6,98.3z"/>
			<path class="st0" d="M79.9,184.4c0.3,0,1-0.1,1.9-0.2c1-0.1,2-0.3,3.1-0.5c0.9-0.2,1.8-0.4,2.6-0.5c0.8-0.1,1.3-0.2,1.5-0.2
				c0.3,0.5,0.4,0.9,0.4,1.2c0.1,0.8-0.1,1.3-0.3,1.5c-0.3,0.2-1.3,0.4-3,0.7c-1,0.1-1.8,0.1-2.7,0.2c-0.8,0.1-1.3,0.1-1.4,0.1
				c-0.5-0.1-1-0.3-1.6-0.7c-0.6-0.4-1-0.8-1.4-1.3c0-0.1,0-0.2,0.1-0.3C79.2,184.5,79.4,184.5,79.9,184.4z"/>
			<path class="st0" d="M113.3,178.8c0.4-0.7,0.7-1.2,0.7-1.6c0.1-0.4,0-1.5-0.1-3.2c-0.1-0.9-0.2-2.1-0.3-3.4
				c0.3,0,0.7,0.1,1.1,0.5c0.4,0.3,0.8,0.6,1.2,0.9c0.2,0.3,0.3,0.8,0.4,1.4c0.1,0.6,0.2,1.6,0.3,3c0.3,1.9,0.3,3.2,0.2,3.9
				c-0.2,0.7-0.7,1.3-1.6,1.9c-0.5,0.4-1,0.6-1.5,0.7c-0.5,0.1-1.9,0.2-4.1,0.4c-2.2,0.2-3.5,0.4-3.9,0.6c-0.4,0.2-0.6,0.9-0.7,2
				c0,0.2,0.1,1.2,0.1,2.9c0.1,1.7,0.2,3.9,0.4,6.6c0.2,2.7,0.4,5.8,0.6,9.3c0.2,3.5,0.5,7.1,0.8,11c0.4,7,0.7,12.4,1,16.2
				c0.2,3.8,0.4,6.6,0.5,8.4c0.1,1.8,0.1,3,0.1,3.4c0,0.5-0.1,0.9-0.2,1.2c-0.2,0.3-0.4,0.7-0.8,1c-0.4,0.3-0.7,0.6-1,0.7
				c-0.2,0.2-0.7,0.4-1.3,0.6c-0.6,0.2-1.3,0.3-2,0.4s-1.4,0.2-2,0.2c-0.6,0-1.1,0-1.5-0.1c-0.3,0-0.9-0.3-1.6-0.8
				c-0.8-0.6-1.2-1-1.4-1.1c0-0.1,0.3-0.3,1-0.5c0.7-0.2,1.5-0.3,2.4-0.4c2-0.3,3.4-0.6,4.1-0.9c0.7-0.3,1.3-1,1.7-2
				c0-0.3,0.1-0.8,0.1-1.3c0-0.6-0.1-1.7-0.2-3.6c-0.1-1.8-0.3-4.5-0.5-8.1c-0.2-3.6-0.5-8.6-0.9-15c-0.3-3.7-0.5-7.2-0.8-10.6
				c-0.2-3.4-0.4-6.4-0.6-9.1c-0.2-2.7-0.3-4.9-0.4-6.6c-0.1-1.7-0.1-2.8-0.2-3.3c0-1.6,0.2-2.5,0.5-2.8c0.3-0.3,1.4-0.5,3.4-0.7
				c2.3-0.2,4-0.4,5-0.7C112.1,179.9,112.8,179.4,113.3,178.8z"/>
			<path class="st0" d="M127.8,184c0.2-1,0.6-2,1.1-3.1c0.5-1.1,0.8-1.7,1.1-1.9c0.2-0.2,0.6-0.3,1.2-0.4c0.6-0.1,1.3-0.2,2-0.2
				c0.7,0,1.4,0,2.1,0.1c0.7,0.1,1.2,0.2,1.5,0.4c0.5,0.3,1,0.7,1.7,1.2c0.6,0.5,0.9,0.8,0.7,0.8c0,0-0.6,0-1.6-0.2
				c-1.6-0.3-2.9-0.4-3.9-0.1c-1,0.3-1.8,1.1-2.3,2.5c-1.1,2.5-1.7,6.1-1.9,10.8c-0.1,4.7,0.3,11,1.2,18.9c0.2,2.1,0.4,3.9,0.6,5.3
				c0.2,1.4,0.4,2.7,0.6,3.7c0.2,1,0.4,1.9,0.6,2.7c0.2,0.8,0.5,1.5,0.8,2.3c0.2,0.6,0.5,1.4,0.8,2.2c0.2,0.3,0.1,0.5-0.1,0.5
				c-0.2,0-0.5-0.2-0.9-0.7c-0.5-0.6-1-1.2-1.4-1.9c-0.4-0.7-0.7-1.5-0.9-2.4c-0.4-0.9-0.8-2.5-1.3-4.6c-0.4-2.1-0.9-4.5-1.2-7
				c-0.4-2.6-0.7-5.2-1-7.8c-0.3-2.6-0.4-4.9-0.4-6.7c-0.1-1.1-0.1-2.3-0.1-3.7c0-1.4,0-2.8,0.1-4.1c0.1-1.4,0.2-2.6,0.4-3.8
				C127.5,185.4,127.6,184.5,127.8,184z"/>
			<path class="st0" d="M149.3,173.7c-0.2-0.1-0.4-0.4-0.7-0.9c0-0.1,0.1-0.1,0.4,0.1c0.2,0.2,0.5,0.4,0.7,0.5
				c0.2,0.3,0.5,0.7,1.1,1.2c0.2,0.2,0.4,0.5,0.8,1c0.4,0.5,0.8,1.1,1.2,1.9c0.4,0.7,0.9,1.5,1.3,2.3c0.4,0.8,0.8,1.5,1.1,2.2
				c0.6,1.5,1,2.7,1.4,3.8c0.3,1,0.6,2.2,0.8,3.7c0.2,1.4,0.4,3.3,0.6,5.6c0.2,2.3,0.5,5.5,0.8,9.5c0.2,3.1,0.4,5.7,0.5,7.8
				c0.1,2,0.2,3.7,0.2,5c0,1.3,0.1,2.3,0,3.1c0,0.8,0,1.5-0.1,2.1c-0.7,6.2-2.1,10.9-4.4,14.3c-2.2,3.4-5.6,5.6-10.2,6.8
				c-1.7,0.6-3.2,1-4.2,1.1c-1.1,0.1-2.4,0-4.1-0.2c-1.6-0.3-3-0.8-4-1.3c-1-0.5-2.1-1.2-3.3-2.1c-0.5-0.4-0.8-0.6-0.7-0.6
				c0.1,0,0.5,0.2,1.4,0.6c0.5,0.1,0.9,0.3,1.3,0.4c0.4,0.1,0.6,0.3,0.6,0.4c0.2,0.2,0.7,0.3,1.4,0.4c0.7,0.1,1.5,0.1,2.3,0.1
				c0.9,0,1.8-0.1,2.7-0.1c0.9-0.1,1.8-0.2,2.6-0.4c1.4-0.2,2.5-0.5,3.2-0.9c0.7-0.3,1.8-1,3.4-1.9c1.6-0.8,3-2,4.4-3.6
				c1.4-1.7,2.4-3.4,3.1-5.3c0.5-1.5,0.9-3,1.2-4.5c0.3-1.5,0.5-3.3,0.6-5.4c0.1-2,0.1-4.5,0-7.3c-0.1-2.8-0.2-6.3-0.4-10.3
				c-0.1-2.6-0.2-4.6-0.3-6.2c-0.1-1.6-0.2-2.9-0.3-3.9c-0.1-1.1-0.2-2-0.3-2.8c-0.1-0.8-0.3-1.7-0.6-2.8c-0.7-2.2-1.2-3.9-1.5-5.1
				c-0.3-1.2-0.7-2.2-1.1-3c-0.3-0.7-0.8-1.5-1.5-2.5c-0.2-0.6-0.5-1.2-0.8-1.6C149.7,174.4,149.4,174,149.3,173.7z"/>
			<path class="st0" d="M192.6,236.5c0.5-0.6,0.8-1.3,1-2.3c0.2-0.9,0.2-2.1-0.1-3.5c-0.1-0.7-0.1-1.4-0.1-1.9c0-0.6,0-0.9,0.2-0.9
				c0,0.1,0.3,0.5,0.8,1c0.5,0.5,0.9,0.9,1.1,1.2c0.1,0.1,0.2,0.5,0.3,1.2c0.1,0.7,0.2,1.4,0.2,2.1c0.1,1.7,0.1,3,0,3.8
				c-0.2,0.8-0.6,1.5-1.2,2.1c-0.3,0.2-0.6,0.4-0.8,0.5c-0.2,0.1-0.6,0.2-1.1,0.3c-0.5,0.1-1.2,0.2-2.1,0.3
				c-0.9,0.1-2.2,0.2-3.8,0.4c-1.8,0.1-3.5,0.3-4.9,0.5c-1.4,0.2-2.1,0.3-2.3,0.3c-0.1,0-0.7,0.1-1.6,0.3c-1,0.2-2,0.3-3.1,0.4
				c-1.7,0.3-2.9,0.4-3.5,0.4c-0.6,0-1.2-0.1-1.6-0.4c-0.2-0.1-0.4-0.2-0.6-0.3c-0.3-0.1-0.5-0.2-0.6-0.1c-0.1,0-0.3,0-0.5,0
				c-0.2,0-0.3-0.2-0.4-0.5c-0.3-0.3-0.6-0.5-0.8-0.5c-0.1,0-0.4-0.2-0.9-0.6c-0.4-0.4-0.6-0.7-0.4-0.7c0.5,0.2,0.9,0.4,1.2,0.4
				c1.2,0.4,4.8,0.3,10.8-0.5c1-0.2,2.2-0.4,3.8-0.7c1.6-0.3,2.9-0.4,4.1-0.5c2.7-0.3,4.4-0.5,5.2-0.7
				C191.6,237.3,192.2,236.9,192.6,236.5z"/>
			<path class="st0" d="M187.5,168.3c-0.2-0.5-0.3-1.1-0.4-1.7c-0.1-0.6-0.1-1-0.1-1.1c0-0.3,0-0.4,0-0.5c0,0,0.1-0.1,0.3-0.1
				c0.9,0.4,1.5,1.1,1.9,2.2c0.4,1.1,0.7,2.6,0.8,4.4c0.2,1.2,0.3,1.9,0.2,2.2c-0.1,0.3-0.3,0.7-0.8,1.3c-0.3,0.3-0.6,0.6-0.8,0.8
				c-0.2,0.2-0.6,0.3-1.3,0.5c-0.6,0.2-1.5,0.3-2.7,0.4c-1.2,0.1-2.9,0.3-5,0.5c-2.1,0.2-3.8,0.3-4.9,0.5c-1.2,0.2-2,0.4-2.5,0.6
				c-0.5,0.3-0.8,0.7-0.9,1.2c-0.1,0.5,0,1.2,0,2.1c0,1.7-0.1,2.7-0.2,3.1c-0.1,0.3-0.4,0.6-1,0.7c-0.6,0-0.9-0.1-1-0.5
				c-0.1-0.4-0.3-1.8-0.5-4.3c-0.1-1.2-0.1-2.1-0.1-2.8c0-0.7,0.3-1.2,0.7-1.6c0.5-0.4,1.2-0.6,2.2-0.8c1-0.1,2.5-0.3,4.4-0.6
				c2-0.2,3.7-0.3,4.9-0.4c1.2-0.1,2.2-0.2,3-0.3c0.7-0.1,1.3-0.3,1.6-0.4c0.3-0.2,0.7-0.4,1-0.8c0.7-0.6,1.1-1.2,1.2-1.9
				C187.7,170.4,187.7,169.5,187.5,168.3z"/>
			<path class="st0" d="M181.3,195.9c0.8-0.8,1.2-1.5,1.3-2.1c0.1-0.6,0.1-1.7,0-3.5c0-1.6,0-2.5,0.1-2.8c0.1-0.3,0.4-0.2,0.8,0.2
				c0.6,0.5,1,1.1,1.4,1.9c0.4,0.7,0.6,1.8,0.7,3.1c0.2,2.5-0.1,4.1-0.9,5c-0.8,0.9-2.2,1.5-4.3,1.6c-0.6,0-1.3,0.1-2.3,0.2
				s-1.8,0.1-2.5,0.2c-0.6,0.2-1.1,0.3-1.5,0.5c-0.3,0.2-0.6,0.7-0.7,1.6c-0.1,0.9-0.1,2.2,0,3.9c0.1,1.8,0.3,4.3,0.5,7.5
				c0.3,3.3,0.5,5.9,0.7,7.8c0.2,1.8,0.2,3.2,0.2,4c0,0.9,0,1.4-0.2,1.6c-0.1,0.2-0.3,0.3-0.6,0.4c-0.1,0-0.3,0.1-0.6,0.2
				c-0.2,0.1-0.4,0.2-0.5,0.2c-0.1,0-0.2-0.2-0.3-0.6c-0.1-0.4-0.2-1.2-0.3-2.3c-0.1-1.1-0.2-2.6-0.3-4.6c-0.1-1.9-0.3-4.4-0.5-7.3
				c-0.3-3.6-0.5-6.4-0.6-8.4c-0.1-2-0.2-3.4-0.3-4.3c-0.1-0.9,0-1.5,0-1.7c0.1-0.2,0.2-0.3,0.4-0.5c0.3,0,0.9-0.1,1.9-0.3
				c1-0.2,2-0.3,3.2-0.4c2-0.3,3.2-0.4,3.8-0.6C180.6,196.5,181,196.2,181.3,195.9z"/>
			<path class="st0" d="M223.3,201c-0.4-0.5-0.9-1.1-1.5-1.9c0.3,0.1,0.5,0.3,0.7,0.6c0.3,0.2,0.6,0.4,0.7,0.6
				c0,0.2,0.1,0.3,0.2,0.5c0.2,0.1,0.3,0.2,0.5,0.2c0.1,0.1,0.4,0.4,0.8,0.9c0.4,0.5,0.8,1.1,1.2,1.7c0.4,0.7,0.8,1.3,1.3,2.1
				c0.4,0.7,0.7,1.3,0.9,1.7c0.8,1.6,1.4,3.1,1.8,4.6c0.4,1.4,0.8,3.3,0.9,5.6c0.2,2.3,0.2,4.2,0.1,5.5c-0.1,1.3-0.5,2.7-1,4.3
				c-0.5,1-1.1,2.2-1.8,3.5c-0.7,1.3-1.3,2.1-1.8,2.5c-0.2,0.2-0.4,0.4-0.7,0.6c-0.3,0.2-0.5,0.3-0.6,0.5c-0.3,0.3-0.9,0.8-1.8,1.3
				c-0.9,0.5-1.9,1-3.1,1.4c-2.8,1.2-5.6,1.9-8.5,2.1c-2.9,0.2-5.4-0.1-7.4-0.9c-0.3-0.1-0.8-0.4-1.4-0.8c-0.6-0.4-1.1-0.7-1.4-1
				c-0.8-0.6-1-0.9-0.8-1c0,0.2,0.3,0.4,0.7,0.6c0.4-0.1,0.9,0,1.7,0.2c0.3,0.3,0.9,0.4,1.7,0.4c0.8,0,2.1-0.1,4-0.2
				c2,0,3.4,0,4.2-0.2c0.8-0.2,1.7-0.4,2.7-0.6c1.8-0.7,3.3-1.4,4.5-2.2c1.2-0.7,2.3-1.6,3.2-2.5c0.9-0.9,1.7-2,2.4-3.3
				c0.7-1.3,1.3-2.8,2-4.7c0.1-0.5,0.2-1.1,0.2-2c0-0.9,0.1-1.8,0.1-2.8c0-1,0-2-0.1-3.1c-0.1-1-0.2-2-0.3-2.8
				c-0.2-0.7-0.4-1.5-0.6-2.4c-0.2-0.9-0.5-1.7-0.7-2.5c-0.3-0.8-0.5-1.5-0.7-2.1c-0.2-0.6-0.4-1-0.6-1.1l-0.4-0.6
				C224.9,203.1,224.4,202.3,223.3,201z"/>
			<path class="st0" d="M218.7,169.8c0.6-1.2,1-2.3,1.4-3.3c0.4-1,0.5-1.7,0.5-2.2c0-0.6,0-1,0-1.1c0.1-0.1,0.3,0,0.6,0.3
				c0.7,0.5,1.1,0.9,1.3,1.4c0.2,0.4,0.3,1.1,0.3,1.9c0,0.5,0,1.1,0,1.6c0,0.6-0.3,1.3-0.7,2.1c-1.2,2.4-2.4,3.9-3.7,4.3
				c-0.7,0.2-1.2,0.3-1.5,0.3c-0.4,0-1.3-0.3-2.8-0.7c-1.4-0.1-2.4-0.2-3-0.1c-1,0.3-1.8,1.1-2.4,2.4c-0.6,1.4-0.9,2.9-0.8,4.5
				c0.1,0.7,0.1,1.3,0.2,1.9c0.1,0.6,0.5,1.3,1.1,2c0.4,0.7,0.7,1.2,1.1,1.7c0.3,0.5,0.6,0.8,0.8,0.9c0.3,0.3,0.5,0.5,0.5,0.5
				c0,0.1,0,0.1-0.2,0.1c-0.1,0-0.4-0.2-0.8-0.7c-0.4-0.5-0.9-1-1.5-1.7c-0.6-0.7-1.1-1.4-1.7-2.1c-0.5-0.7-0.9-1.3-1.2-1.8
				c-0.8-1.3-1.1-2.8-1.1-4.5c0-1.7,0.5-3.1,1.5-4.2c0.5-0.5,0.9-0.9,1.4-1.1c0.5-0.2,1.4-0.2,2.8,0.1c1.2,0.1,2,0.2,2.7,0.2
				c0.6,0,1.2,0,1.5,0c0.4,0,0.7-0.1,0.9-0.2c0.2-0.1,0.5-0.2,0.9-0.4c0.3-0.3,0.6-0.7,1-1.1C218.2,170.5,218.5,170.2,218.7,169.8z"
				/>
			<path class="st2" d="M74.1,302.7l-0.1-9.4c-0.1-8.4,0.1-16.8,0-25.3c-0.1-4.6-0.3-9.2-0.3-13.9c0-0.6,0.5-0.9,1-1.1
				c0.5,0,3.1-0.1,3.7-0.1c3.4,0,6.9,0,10.3,0.1c0.9,0,2.8,0.1,2.8,0.2l0.1,0.3l0,3.3c0,0.2-0.2,0.3-0.5,0.3
				c-0.1-0.1-0.4-0.1-0.6-0.2c-3.5-0.3-6.2-0.2-9.7-0.2l-3,0l-0.3,0.3c0.1,1.5,0.1,3.8,0,5.4l0.2,12.9c0,0.6,1.4,0.5,1.5,0.5
				c2,0.1,4.1,0.2,6.1,0.1c0.3,0.1,0.6,0.3,0.6,0.7l0,2.7l-0.3,0.3l-7.5,0.1l-0.4,0.1l0,1.9c0,3.8,0.1,7.6,0.3,11.3
				c0,0.9,0.5,8.5,0.5,9.4l0,0.2c0,0.6-0.6,0.9-1.2,0.9c-0.1,0-0.9-0.1-1-0.1l-2.1,0C74.3,303.3,74.1,303,74.1,302.7z"/>
			<path class="st2" d="M97,257c1.5-1.1,3.3-2,5.3-2.1l0.4,0c8.4,0.3,9.5,9,9.9,16.1c0,0.7,0.1,1.4,0.1,2c0.1,0.6,0.1,1.2,0.1,1.8
				c0.4,6.6,0,13.1-1.6,19.5c-0.9,4.1-3.4,8.2-8.2,8.5l-0.4,0c-8.9,0.1-11.5-11.4-11.9-18.3C90.2,274.4,91.5,261.2,97,257z
				 M95.9,291.9c0.9,2.8,3.4,7.2,6.9,7.1c0.2,0,0.9-0.1,1-0.1c3.3-1,6.3-7.6,5.2-27.6l0-0.5c-0.2-4.3-1.2-11.8-6.6-12
				c-0.2-0.1-0.5-0.1-0.7,0c-6.8,0.3-7.6,16.3-7.2,25.1C94.7,286.6,95.1,289.2,95.9,291.9z"/>
			<path class="st2" d="M123,280.3c-0.4,0.1-1.1,0.1-1.2,0.1c-1,0.3-0.7,2.6-0.7,3.3c0.1,5.5,0.8,11.1,1.1,16.7l0.2,2.7l-3.3,0
				l-0.2-0.2c-0.2-3.6-0.7-7.1-1-10.6c-0.1-1.4-0.5-8.1-1.1-33.4c-0.2-1.2-0.3-2.3-0.3-3.4c0-1.6,1.6-1.7,2.9-1.7l5.3-0.1
				c6.2,0.4,7.9,8.3,7.9,13.2c0.1,5.4-1.2,9.2-4.9,11.5c3.3,2,5,5.3,5.9,12.4c0.3,3,0.6,5.8,0.6,8.8l0,0.7c-0.1,0.6-0.1,2.1-0.2,2.1
				l-0.2,0.1l-2.8,0l-0.2-0.2l-0.7-9.6c-0.5-4.6-1.2-9.8-5-11.9c-0.4-0.2-1.4-0.6-1.7-0.6C123.1,280.4,123,280.3,123,280.3z
				 M121.7,277c5.4-0.1,7.1-5.8,7-10.3c-0.1-7.9-2.1-9.8-7.5-9.8c-0.7,0-0.7,0.7-0.7,1.3l0.1,7.1C120.9,268.1,120.4,277,121.7,277z"
				/>
			<path class="st2" d="M96.9,88.4c0.3,0,0.7-0.1,1.1-0.2c0.4-0.1,0.7-0.2,0.9-0.4c0.8-0.2,1.4-0.4,1.6-0.3c0.2,0,0.6,0.3,1.2,0.7
				c0.2,0.2,0.3,0.4,0.4,0.5c0.1,0.2,0.2,0.5,0.3,0.9c0.1,0.4,0.3,1,0.4,1.7c0.1,0.7,0.3,1.7,0.6,3c0.2,0.8,0.4,2.2,0.7,4.2
				c0.3,2,0.6,4.5,1,7.3c0.4,2.8,0.8,6,1.2,9.4c0.5,3.4,0.9,6.9,1.3,10.4c0.8,6.4,1.4,11.4,1.8,14.9c0.4,3.5,0.8,6,1,7.6
				c0.2,1.6,0.4,2.5,0.5,2.8c0.1,0.3,0.3,0.3,0.5,0.2c0.1,0,0.4-0.1,0.9-0.3c0.4-0.2,0.8-0.3,1.2-0.3c0.5-0.2,1.1-0.4,1.9-0.7
				c0.8-0.3,1.5-0.5,2.2-0.8c0.8-0.2,1.6-0.5,2.4-0.8c0.8-0.3,1.4-0.4,2-0.5c0.5-0.2,1-0.4,1.4-0.5c0.5-0.1,0.8-0.2,1-0.2
				c0.7-0.2,1.3,0,1.9,0.7c0.6,0.7,1.2,1.7,1.7,3.1c0.5,1.3,0.7,2.2,0.8,2.5c0,0.3-0.1,0.6-0.4,1c-0.2,0.2-0.5,0.4-0.9,0.6
				c-0.5,0.2-1.1,0.3-1.7,0.4c-0.4,0.2-1.2,0.4-2.4,0.7c-1.2,0.3-2.6,0.7-4.2,1.1c-1.6,0.4-3.2,0.8-5,1.2c-1.8,0.4-3.5,0.8-5,1.1
				c-1.6,0.4-2.8,0.7-3.7,0.7c-0.9,0.1-1.5-0.1-2-0.6c-0.5-0.5-0.8-1.2-1-2.3c-0.2-1.1-0.3-2.6-0.5-4.7c-0.1-1.6-0.5-4.8-1-9.6
				c-0.6-4.8-1.2-10-1.9-15.7c-0.7-5.6-1.4-11.1-2.1-16.4c-0.7-5.3-1.2-9.3-1.6-12c-0.3-1.9-0.6-3.4-0.8-4.5
				c-0.2-1.1-0.3-1.9-0.3-2.5c0-0.6,0-1,0.1-1.2c0.1-0.2,0.3-0.5,0.5-0.8C95.6,88.9,96.2,88.5,96.9,88.4z"/>
			<path class="st2" d="M127.8,85c0-0.2,0.1-0.4,0.3-0.5c0.2-0.2,0.4-0.4,0.6-0.6c0.2,0,0.6-0.1,1.2-0.1c0.6-0.1,1.3-0.2,2.1-0.3
				c0.9-0.1,1.6-0.2,2-0.2c0.5,0,0.9,0.1,1.3,0.5c0.2,0.2,0.4,0.4,0.5,0.5c0.1,0.1,0.2,0.4,0.3,0.8c0.1,0.4,0.1,1,0.2,1.7
				c0.1,0.7,0.1,1.8,0.2,3.2c0.1,0.8,0.2,1.9,0.3,3.1c0.1,1.2,0.2,2.5,0.3,3.9c0.1,1.4,0.2,2.8,0.3,4.2c0.1,1.4,0.2,2.8,0.3,4.1
				c0.3,2.8,0.6,5.4,0.8,7.9c0.2,2.5,0.3,4.1,0.4,4.9c-0.1,0.4-0.1,1.1-0.1,2.2c0,1,0.1,2.3,0.2,3.8c0.1,1.5,0.3,3.1,0.5,4.8
				c0.2,1.8,0.4,3.5,0.6,5.3c0.2,3.3,0.3,6.1,0.4,8.3c0.1,2.2,0.2,4.1,0.1,5.6c0,1.5-0.1,2.7-0.2,3.6c-0.1,0.9-0.3,1.8-0.5,2.5
				c-0.3,0.8-0.7,1.4-1.3,1.7c-0.6,0.3-1.2,0.5-1.9,0.3c-0.7-0.1-1.3-0.4-1.9-0.9c-0.6-0.5-1-1.2-1.3-2.2c-0.1-0.3-0.4-1.6-0.7-4
				c-0.3-2.4-0.6-5.1-1-8.3c-0.4-3.2-0.7-6.5-1-9.8c-0.3-3.4-0.5-6.2-0.7-8.5c-0.1-2.2-0.3-5.6-0.6-10.2c-0.3-4.6-0.8-11.2-1.5-19.9
				C127.9,90.6,127.8,88.1,127.8,85z"/>
			<path class="st2" d="M140.9,84.9c0.1-0.2,0.8-0.4,1.9-0.7c1.1-0.3,2.6-0.7,4.3-1.1c1.7-0.4,3.6-0.8,5.8-1.2
				c2.1-0.4,4.2-0.8,6.2-1.1c4.5-0.9,8.1-1.5,10.8-1.8c2.7-0.3,4.2-0.4,4.6-0.1c0.2,0.2,0.5,0.5,0.7,1.2c0.2,0.6,0.4,1.3,0.6,2
				c0.1,0.7,0.2,1.5,0.3,2.2c0.1,0.7,0,1.3-0.1,1.7c-0.2,0.2-0.3,0.4-0.4,0.7c-0.1,0.2-0.3,0.4-0.4,0.4c0,0.2-0.6,0.4-1.7,0.6
				c-1.2,0.2-2.4,0.5-3.8,0.8c-1.3,0.3-2.4,0.5-3.1,0.7c-0.7,0.2-1.2,0.5-1.5,1c-0.3,0.5-0.4,1.1-0.4,2c0,0.9,0.1,2.2,0.2,3.8
				c0.1,1,0.3,2.5,0.5,4.6c0.2,2.1,0.5,4.5,0.8,7.3c0.3,2.7,0.6,5.7,1,8.8c0.4,3.2,0.7,6.3,1.1,9.4c0.4,3.2,0.7,6.3,1,9.2
				c0.3,2.9,0.6,5.4,0.8,7.6c0.2,2.2,0.4,4,0.6,5.3c0.1,1.3,0.2,2,0.2,2.1c-0.1,0.7-0.5,1.1-1.1,1.5c-0.6,0.3-1.6,0.6-3,0.9
				c-1.1,0.3-1.8,0.4-2.1,0.3c-0.4-0.1-0.7-0.3-1.1-0.6c-0.3-0.1-0.5-0.3-0.7-0.5c-0.2-0.2-0.3-0.7-0.5-1.6c-0.2-0.9-0.3-2.2-0.6-4
				c-0.2-1.8-0.5-4.4-1-7.8c-0.2-1.8-0.5-4-0.8-6.6c-0.3-2.5-0.6-5.2-1-8c-0.3-2.8-0.7-5.5-1-8.3c-0.3-2.8-0.7-5.4-0.9-7.7
				c-0.2-2.2-0.4-4.4-0.6-6.4c-0.2-2-0.4-3.8-0.6-5.3c-0.2-1.5-0.3-3.1-0.5-4.9c0-0.1-0.6-0.1-1.7,0.1c-1.1,0.2-2.4,0.4-4,0.6
				c-1.6,0.4-3,0.6-4.2,0.8c-1.2,0.1-1.9,0.1-2.1,0c-1.3-0.1-2.1-1.7-2.5-4.8c-0.3-0.9-0.4-1.5-0.3-1.9
				C140.6,85.4,140.7,85.1,140.9,84.9z"/>
			<path class="st2" d="M179.3,80.2c0.1-0.2,0.8-0.4,1.9-0.7c1.1-0.3,2.6-0.7,4.3-1.1c1.7-0.4,3.6-0.8,5.8-1.2
				c2.1-0.4,4.2-0.8,6.2-1.1c4.5-0.9,8.1-1.5,10.8-1.8c2.7-0.3,4.2-0.4,4.6-0.1c0.2,0.2,0.5,0.5,0.7,1.2c0.2,0.6,0.4,1.3,0.6,2
				c0.1,0.7,0.2,1.5,0.3,2.2c0.1,0.7,0,1.3-0.1,1.7c-0.2,0.2-0.3,0.4-0.4,0.7c-0.1,0.2-0.3,0.4-0.4,0.4c0,0.2-0.6,0.4-1.7,0.6
				c-1.2,0.2-2.4,0.5-3.8,0.8c-1.3,0.3-2.4,0.5-3.1,0.7c-0.7,0.2-1.2,0.5-1.5,1c-0.3,0.5-0.4,1.1-0.4,2c0,0.9,0.1,2.2,0.2,3.8
				c0.1,1,0.3,2.5,0.5,4.6c0.2,2.1,0.5,4.5,0.8,7.3c0.3,2.7,0.6,5.7,1,8.8c0.4,3.2,0.7,6.3,1.1,9.4c0.4,3.2,0.7,6.3,1,9.2
				c0.3,2.9,0.6,5.4,0.8,7.6c0.2,2.2,0.4,4,0.6,5.3c0.1,1.3,0.2,2,0.2,2.1c-0.1,0.7-0.5,1.1-1.1,1.5c-0.6,0.3-1.6,0.6-3,0.9
				c-1.1,0.3-1.8,0.4-2.1,0.3c-0.4-0.1-0.7-0.3-1.1-0.6c-0.3-0.1-0.5-0.3-0.7-0.5c-0.2-0.2-0.3-0.7-0.5-1.6c-0.2-0.9-0.3-2.2-0.6-4
				c-0.2-1.8-0.5-4.4-1-7.8c-0.2-1.8-0.5-4-0.8-6.6c-0.3-2.5-0.6-5.2-1-8c-0.3-2.8-0.7-5.5-1-8.3s-0.7-5.4-0.9-7.7
				c-0.2-2.2-0.4-4.4-0.6-6.4c-0.2-2-0.4-3.8-0.6-5.3c-0.2-1.5-0.3-3.1-0.5-4.9c0-0.1-0.6-0.1-1.7,0.1c-1.1,0.2-2.4,0.4-4,0.6
				c-1.6,0.4-3,0.6-4.2,0.8c-1.2,0.1-1.9,0.1-2.1,0c-1.3-0.1-2.1-1.7-2.5-4.8c-0.3-0.9-0.4-1.5-0.3-1.9
				C179.1,80.7,179.2,80.4,179.3,80.2z"/>
			<path class="st2" d="M220,73.4c0.3,0,0.7-0.1,1.1-0.2c0.4-0.1,0.7-0.2,0.9-0.4c0.8-0.2,1.4-0.4,1.6-0.3c0.2,0,0.6,0.3,1.2,0.7
				c0.2,0.2,0.3,0.4,0.4,0.5c0.1,0.2,0.2,0.5,0.3,0.9c0.1,0.4,0.3,1,0.4,1.7c0.1,0.7,0.3,1.7,0.6,3c0.2,0.8,0.4,2.2,0.7,4.2
				c0.3,2,0.6,4.5,1,7.3c0.4,2.8,0.8,6,1.2,9.4c0.5,3.4,0.9,6.9,1.3,10.4c0.8,6.4,1.4,11.4,1.8,14.9c0.4,3.5,0.8,6,1,7.6
				c0.2,1.6,0.4,2.5,0.5,2.8c0.1,0.3,0.3,0.3,0.5,0.2c0.1,0,0.4-0.1,0.9-0.3c0.4-0.2,0.8-0.3,1.2-0.3c0.5-0.2,1.1-0.4,1.9-0.7
				c0.8-0.3,1.5-0.5,2.2-0.8c0.8-0.2,1.6-0.5,2.4-0.8c0.8-0.3,1.4-0.4,2-0.5c0.5-0.2,1-0.4,1.4-0.5c0.5-0.1,0.8-0.2,1-0.2
				c0.7-0.2,1.3,0,1.9,0.7c0.6,0.7,1.2,1.7,1.7,3.1c0.5,1.3,0.7,2.2,0.8,2.5c0,0.3-0.1,0.6-0.4,1c-0.2,0.2-0.5,0.4-0.9,0.6
				c-0.5,0.2-1.1,0.3-1.7,0.4c-0.4,0.2-1.2,0.4-2.4,0.7c-1.2,0.3-2.6,0.7-4.2,1.1c-1.6,0.4-3.2,0.8-5,1.2c-1.8,0.4-3.5,0.8-5,1.1
				c-1.6,0.4-2.8,0.7-3.7,0.7c-0.9,0.1-1.5-0.1-2-0.6c-0.5-0.5-0.8-1.2-1-2.3c-0.2-1.1-0.3-2.6-0.5-4.7c-0.1-1.6-0.5-4.8-1-9.6
				c-0.6-4.8-1.2-10-1.9-15.7c-0.7-5.6-1.4-11.1-2.1-16.4c-0.7-5.3-1.2-9.3-1.6-12c-0.3-1.9-0.6-3.4-0.8-4.5
				c-0.2-1.1-0.3-1.9-0.3-2.5c0-0.6,0-1,0.1-1.2c0.1-0.2,0.3-0.5,0.5-0.8C218.6,73.9,219.3,73.5,220,73.4z"/>
			<path class="st2" d="M250.1,71.9c0-0.1,0.1-0.4,0.4-0.8c0.3-0.4,0.7-0.8,1-1.2c0.4-0.3,0.8-0.5,1.1-0.7c0.3-0.2,0.8-0.4,1.6-0.5
				c0.7-0.2,1.8-0.4,3.2-0.6c1.4-0.2,3.5-0.5,6.1-0.8c2.8-0.3,5-0.6,6.5-0.7c1.5-0.2,2.7-0.2,3.5-0.2c0.8,0,1.3,0.2,1.5,0.4
				c0.2,0.2,0.5,0.6,0.7,1c0.1,0.3,0.3,0.7,0.5,1.2c0.2,0.5,0.3,1,0.4,1.6c0.2,1,0.3,1.6,0.4,1.8c0,0.2-0.2,0.6-0.5,1.1
				c-0.2,0.2-0.3,0.4-0.5,0.6c-0.2,0.1-0.5,0.3-1.1,0.4c-0.6,0.1-1.5,0.3-2.6,0.4c-1.2,0.1-2.9,0.3-5,0.6c-2.1,0.4-3.7,0.6-4.9,0.8
				c-1.2,0.2-2,0.3-2.6,0.4c-0.6,0.1-0.9,0.2-1.1,0.3c-0.2,0.1-0.3,0.2-0.4,0.3c-0.1,0.4-0.1,1,0,1.8c0.1,0.7,0.3,2.4,0.6,5.1
				c0.2,1.5,0.3,2.6,0.5,3.4c0.2,0.8,0.4,1.4,0.9,1.7c0.4,0.3,1,0.5,1.9,0.4c0.8,0,2-0.2,3.5-0.3c1.8-0.2,3.2-0.4,4.1-0.4
				c1-0.1,1.7,0,2.1,0.3c0.5,0.2,0.7,0.7,0.8,1.3s0.2,1.5,0.3,2.6c0.2,1.3,0.2,2.1,0.2,2.6c0,0.4-0.1,0.7-0.4,0.9
				c-0.3,0.4-0.9,0.6-1.9,0.8c-1,0.2-2.9,0.5-5.7,1c-1.2,0.3-2.2,0.5-2.8,0.6c-0.6,0.2-1.1,0.3-1.4,0.6s-0.4,0.6-0.3,1.1
				c0.1,0.5,0.2,1.1,0.4,1.9c0.2,1,0.4,2.6,0.7,4.6c0.3,2,0.6,4.3,0.9,6.6c0.3,2.4,0.6,4.7,0.8,7c0.2,2.3,0.4,4.2,0.6,5.8
				c0.3,2.1,0.4,3.4,0.6,3.8c0.1,0.4,0.4,0.7,0.9,0.9c0.3,0.3,0.6,0.4,0.7,0.5c0.2,0,0.4,0,0.7,0c0.1,0,1-0.2,2.8-0.5
				c1.7-0.3,3.7-0.6,6-0.9c2.5-0.3,4.5-0.6,5.8-0.8c1.3-0.2,2.2-0.2,2.8,0c0.6,0.1,0.9,0.5,1,1c0.1,0.5,0.2,1.3,0.3,2.4
				c0.1,0.8,0.2,1.6,0.3,2.2c0.1,0.6,0.1,1,0.1,1.1c-0.2,0.3-0.6,0.7-1.2,0.9c-0.6,0.3-1.6,0.5-2.9,0.8c-1.3,0.3-3,0.6-5.2,0.9
				c-2.1,0.4-4.8,0.7-8,1.2c-1.8,0.2-3.2,0.4-4.1,0.5c-1,0.1-1.7,0.2-2.2,0.2c-0.5,0-1-0.1-1.3-0.2c-0.3-0.1-0.6-0.3-1-0.6
				c-1-0.7-1.8-1.5-2.6-2.5c-0.3-0.4-0.5-0.8-0.6-1.1c-0.2-0.3-0.3-0.9-0.4-1.6c-0.1-0.8-0.3-1.9-0.4-3.4c-0.2-1.5-0.4-3.6-0.6-6.3
				c-0.1-1.5-0.3-3.1-0.5-4.7c-0.2-1.6-0.3-3.3-0.5-4.9c-0.2-1.6-0.4-3.1-0.6-4.5c-0.2-1.4-0.4-2.5-0.5-3.5
				c-0.1-0.9-0.3-2.1-0.5-3.6c-0.2-1.5-0.5-3.2-0.7-5c-0.2-1.8-0.5-3.7-0.7-5.6c-0.3-1.9-0.5-3.8-0.7-5.6c-0.5-3.2-0.9-5.6-1.1-7.3
				c-0.2-1.7-0.4-3-0.5-3.9c-0.1-0.9-0.1-1.5-0.1-1.8c0-0.3,0.1-0.7,0.3-1.1c0.2-0.3,0.4-0.6,0.6-0.8c0.1-0.3,0.3-0.4,0.4-0.4
				C250,72.2,250.1,72,250.1,71.9z"/>
			<path class="st2" d="M77,174.2c0.1-0.2,0.8-0.4,1.9-0.6c1.2-0.3,2.6-0.6,4.4-0.9c1.7-0.3,3.7-0.6,5.8-0.9
				c2.1-0.3,4.2-0.6,6.3-0.8c4.5-0.7,8.1-1.1,10.8-1.3c2.7-0.2,4.2-0.2,4.6,0.1c0.2,0.2,0.4,0.6,0.7,1.2c0.2,0.6,0.4,1.3,0.5,2.1
				c0.1,0.7,0.2,1.5,0.2,2.2c0,0.7,0,1.3-0.1,1.7c-0.2,0.2-0.3,0.4-0.5,0.7c-0.1,0.2-0.3,0.4-0.4,0.4c0,0.2-0.6,0.3-1.8,0.5
				c-1.2,0.1-2.5,0.3-3.8,0.6c-1.3,0.2-2.4,0.4-3.1,0.6c-0.7,0.2-1.2,0.5-1.6,0.9c-0.3,0.5-0.5,1.1-0.5,2c0,0.9,0,2.2,0,3.8
				c0.1,1,0.2,2.5,0.3,4.6c0.1,2.1,0.2,4.5,0.4,7.3c0.2,2.8,0.4,5.7,0.6,8.9c0.2,3.2,0.4,6.3,0.7,9.4c0.2,3.2,0.4,6.3,0.6,9.2
				c0.2,2.9,0.3,5.5,0.4,7.7c0.1,2.2,0.2,4,0.3,5.3c0.1,1.3,0.1,2,0.1,2.1c-0.1,0.7-0.5,1.1-1.2,1.4c-0.7,0.3-1.7,0.5-3.1,0.8
				c-1.1,0.3-1.8,0.3-2.2,0.2c-0.3-0.1-0.7-0.3-1-0.6c-0.3-0.1-0.5-0.3-0.6-0.5c-0.2-0.2-0.3-0.8-0.4-1.6c-0.1-0.9-0.2-2.2-0.4-4
				c-0.1-1.8-0.3-4.5-0.6-7.9c-0.1-1.8-0.3-4.1-0.5-6.6c-0.2-2.6-0.4-5.2-0.6-8c-0.2-2.8-0.4-5.6-0.6-8.4c-0.2-2.8-0.4-5.4-0.6-7.8
				c-0.1-2.2-0.2-4.4-0.3-6.4c-0.1-2-0.2-3.8-0.3-5.3c-0.1-1.5-0.2-3.1-0.3-5c0-0.1-0.6-0.1-1.7,0c-1.1,0.2-2.4,0.3-4,0.4
				c-1.6,0.3-3,0.5-4.2,0.6c-1.2,0.1-1.9,0.1-2.1-0.1c-1.3-0.2-2-1.8-2.2-4.9c-0.2-0.9-0.3-1.6-0.3-2
				C76.7,174.7,76.8,174.4,77,174.2z"/>
			<path class="st2" d="M125.2,169.7c0.3-0.2,0.8-0.4,1.3-0.6c0.6-0.2,1.2-0.4,1.8-0.6c1.1-0.4,2-0.6,2.7-0.7c0.7-0.1,1.9,0,3.3,0.2
				c1.3,0.1,2.6,0.3,3.9,0.6c1.3,0.3,2.4,0.6,3.3,0.8c0.8,0.4,1.8,1.2,3,2.3c1.2,1.1,2.3,2.1,3.1,3c0.7,0.9,1.5,2.3,2.3,4.1
				c0.9,1.8,1.5,3.3,1.9,4.6c0,0.5,0.1,1,0.3,1.6c0.2,0.6,0.4,1.1,0.6,1.5c0.2,0.5,0.4,2.3,0.7,5.3c0.3,3.1,0.5,6.5,0.8,10.2
				c0.2,3.7,0.4,7.3,0.6,10.7c0.1,3.4,0.2,5.7,0.1,6.8c-0.2,1.5-0.5,3.1-0.8,5c-0.3,1.8-0.5,3-0.6,3.5c-0.2,0.2-0.3,0.5-0.4,0.9
				c-0.1,0.4-0.3,0.8-0.4,1.1c-0.5,1.3-1.4,2.7-2.6,4.1c-1.2,1.4-2.3,2.4-3.3,3.1c-3.1,2-6.3,3.1-9.8,3.2c-3.4,0.1-6.5-0.8-9.2-2.7
				c-0.3-0.2-0.7-0.5-1.2-1c-0.5-0.5-1-1-1.4-1.6c-0.5-0.6-0.9-1.1-1.2-1.5c-0.4-0.5-0.6-0.8-0.7-1c-0.1-0.5-0.2-0.8-0.4-0.9
				c-0.7-0.7-1.4-2.4-2.2-5c-0.8-2.6-1.5-5.4-2-8.5c-0.2-1.6-0.5-3.8-0.7-6.5c-0.2-2.7-0.5-5.5-0.7-8.4c-0.2-2.9-0.4-5.6-0.5-8
				c-0.1-2.5-0.2-4.2-0.2-5.3c0.3-2.7,0.6-5.2,1-7.4c0.4-2.2,0.9-3.9,1.7-5.1c0.1-0.5,0.3-0.9,0.5-1.4c0.2-0.4,0.3-0.8,0.3-0.9
				c0.1-0.2,0.4-0.6,0.8-1.1c0.4-0.5,0.9-1,1.4-1.6c0.5-0.6,1-1.1,1.5-1.6C124.3,170.4,124.8,170,125.2,169.7z M140.7,179.1
				c-0.9-0.9-1.7-1.5-2.4-1.8c-0.7-0.3-1.8-0.6-3.3-1c-0.7-0.1-1.3-0.1-2-0.1c-0.7,0-1.1,0-1.2,0c-1.3,0.1-2.5,0.8-3.7,1.9
				c-0.2,0.3-0.5,0.7-0.8,1.4c-0.3,0.7-0.6,1.4-0.8,2.2c-0.2,0.8-0.4,1.5-0.6,2.2c-0.1,0.7-0.2,1.2-0.2,1.5c0,0.4-0.2,1.3-0.4,2.6
				c-0.1,0.4-0.3,0.9-0.3,1.5c-0.1,0.6-0.1,1.4,0,2.5c0,1.1,0.1,2.6,0.3,4.5c0.1,1.9,0.3,4.3,0.5,7.3c0.2,3.2,0.4,5.8,0.6,7.7
				c0.1,1.9,0.3,3.5,0.4,4.7c0.1,1.2,0.3,2.1,0.4,2.9c0.2,0.7,0.4,1.5,0.6,2.4c0.6,2.1,1.3,4,2.2,5.8c0.8,1.8,1.5,2.6,2,2.6
				c0,0.2,0.1,0.3,0.2,0.3c0.1,0,0.2,0.1,0.2,0.3c0.4,0.5,0.7,0.8,1,0.9c1,0.4,2.4,0.6,4.2,0.5c1.8-0.1,3.2-0.5,4.1-1.2
				c1.2-0.7,2.2-1.7,2.9-3c0.7-1.3,1.3-2.7,1.7-4.4c0.2-1.1,0.4-3.2,0.4-6.3c0-3.1-0.1-6.4-0.2-10c-0.2-3.5-0.4-7-0.6-10.2
				s-0.5-5.7-0.8-7.2c-0.7-2.3-1.3-4.3-2-6C142.3,181.8,141.5,180.4,140.7,179.1z"/>
			<path class="st2" d="M159,168.4c0-0.1,0.2-0.4,0.5-0.7c0.3-0.4,0.7-0.7,1.1-1.1c0.4-0.3,0.8-0.5,1.1-0.7c0.3-0.2,0.9-0.3,1.6-0.5
				c0.7-0.1,1.8-0.3,3.3-0.4c1.4-0.1,3.5-0.3,6.2-0.5c2.8-0.2,5-0.4,6.5-0.4c1.5-0.1,2.7-0.1,3.5,0c0.8,0.1,1.2,0.2,1.5,0.5
				c0.2,0.3,0.4,0.6,0.6,1.1c0.1,0.3,0.3,0.7,0.4,1.3c0.2,0.5,0.3,1.1,0.3,1.6c0.2,1,0.3,1.6,0.3,1.8c0,0.2-0.2,0.6-0.6,1
				c-0.2,0.2-0.3,0.4-0.5,0.5c-0.2,0.1-0.5,0.3-1.1,0.4c-0.6,0.1-1.5,0.2-2.7,0.3c-1.2,0.1-2.9,0.2-5,0.4c-2.1,0.3-3.8,0.5-4.9,0.6
				c-1.2,0.1-2,0.2-2.6,0.3s-0.9,0.2-1.1,0.3c-0.2,0.1-0.3,0.2-0.4,0.3c-0.1,0.4-0.1,1-0.1,1.8c0,0.7,0.2,2.4,0.4,5.1
				c0.1,1.5,0.2,2.6,0.3,3.5c0.1,0.8,0.4,1.4,0.8,1.7c0.4,0.3,1,0.5,1.8,0.5c0.8,0,2-0.1,3.5-0.2c1.8-0.1,3.2-0.2,4.2-0.2
				c1,0,1.7,0.1,2.1,0.4s0.7,0.7,0.7,1.3s0.1,1.5,0.1,2.6c0.1,1.3,0.1,2.1,0.1,2.6c0,0.4-0.2,0.7-0.4,0.9c-0.3,0.3-0.9,0.6-1.9,0.7
				c-1,0.1-2.9,0.4-5.7,0.7c-1.2,0.2-2.2,0.4-2.8,0.5c-0.7,0.1-1.1,0.3-1.4,0.5c-0.3,0.2-0.4,0.6-0.3,1c0,0.5,0.1,1.1,0.3,2
				c0.1,1,0.3,2.6,0.5,4.6c0.2,2.1,0.4,4.3,0.6,6.7c0.2,2.4,0.3,4.7,0.5,7.1c0.1,2.3,0.2,4.3,0.3,5.8c0.2,2.1,0.3,3.4,0.4,3.8
				c0.1,0.4,0.4,0.7,0.8,1c0.3,0.3,0.5,0.5,0.7,0.5c0.2,0,0.4,0,0.7,0c0.1,0,1-0.1,2.8-0.4c1.8-0.2,3.8-0.4,6-0.6
				c2.6-0.2,4.5-0.4,5.8-0.5c1.3-0.1,2.2-0.1,2.8,0.1c0.5,0.2,0.9,0.5,0.9,1.1c0.1,0.5,0.1,1.3,0.2,2.4c0.1,0.9,0.1,1.6,0.2,2.2
				c0,0.6,0.1,1,0.1,1.1c-0.2,0.3-0.6,0.6-1.2,0.9c-0.6,0.2-1.6,0.5-3,0.7c-1.3,0.2-3.1,0.4-5.2,0.7c-2.2,0.2-4.9,0.5-8.1,0.8
				c-1.8,0.1-3.2,0.2-4.2,0.3c-1,0.1-1.7,0.1-2.2,0.1c-0.5,0-1-0.1-1.2-0.2c-0.3-0.1-0.6-0.3-1-0.6c-0.9-0.7-1.8-1.6-2.4-2.7
				c-0.2-0.4-0.4-0.8-0.6-1.1c-0.1-0.3-0.3-0.9-0.4-1.6c-0.1-0.8-0.2-1.9-0.3-3.4c-0.1-1.5-0.2-3.6-0.3-6.4
				c-0.1-1.5-0.2-3.1-0.2-4.7c-0.1-1.7-0.2-3.3-0.3-4.9c-0.1-1.6-0.2-3.1-0.4-4.5c-0.1-1.4-0.3-2.6-0.4-3.5
				c-0.1-0.9-0.2-2.1-0.4-3.6c-0.2-1.5-0.3-3.2-0.5-5c-0.2-1.8-0.3-3.7-0.5-5.6c-0.2-1.9-0.3-3.8-0.4-5.6c-0.3-3.2-0.6-5.7-0.8-7.4
				c-0.2-1.7-0.3-3-0.3-3.9c-0.1-0.9-0.1-1.5,0-1.8c0.1-0.3,0.2-0.7,0.3-1.1c0.3-0.3,0.5-0.6,0.6-0.8c0.1-0.2,0.3-0.4,0.4-0.4
				C158.9,168.7,159,168.5,159,168.4z"/>
			<path class="st2" d="M194.6,179.7c-0.1-3.6,0.5-7,1.9-10c1.4-3.1,3.3-5.3,5.9-6.6c0.8-0.4,1.5-0.6,2.1-0.7
				c0.6-0.1,1.7-0.2,3.2-0.3c2.3-0.2,4.6-0.1,6.7,0.3c2.2,0.4,3.4,0.8,3.8,1.2c0.3,0.3,0.5,0.6,0.5,1c0,0.4-0.2,1-0.6,2
				c-0.7,1.6-1.3,2.6-1.8,3.3c-0.5,0.6-1.1,1-1.9,1c-0.3,0-0.7,0-1.2-0.1c-0.5-0.1-0.8-0.2-0.9-0.4c-0.2,0-0.5,0-1-0.1
				c-0.5-0.1-1.1-0.1-1.7,0c-1.5,0-2.7,0.3-3.6,0.9c-0.9,0.6-1.7,1.7-2.4,3.2c-0.2,0.6-0.4,1.2-0.5,2c-0.1,0.8-0.1,1.6,0,2.5
				c0.1,0.9,0.2,1.7,0.4,2.4c0.2,0.8,0.4,1.4,0.8,1.8c0.6,1.1,1.5,2.5,2.8,4c1.3,1.5,2.5,2.8,3.5,3.9c0.5,0.5,1.2,1.1,1.9,1.7
				c0.7,0.6,1.4,1.2,2,1.6c2.7,2.7,4.8,4.8,6.2,6.4c1.4,1.6,2.6,3.2,3.3,4.6c0.6,1.3,1.1,3,1.6,5c0.5,2,0.7,3.6,0.8,4.8
				c0.1,1.4,0,3-0.3,5c-0.3,2-0.6,3.6-1,4.8c-0.6,1.2-1.3,2.5-2.3,3.7c-0.9,1.2-1.8,2.2-2.6,2.7c-0.7,0.4-1.6,0.8-2.6,1.3
				s-2,0.8-3,1.2c-1,0.3-2,0.6-3,0.8c-1,0.2-1.8,0.3-2.6,0.2c-1.4,0.1-2.9,0-4.5-0.4c-1.7-0.3-3-0.9-4-1.7c-0.6-0.3-1.1-0.7-1.8-1.3
				c-0.6-0.6-1.2-1.2-1.7-1.8s-1-1.2-1.3-1.8c-0.3-0.6-0.5-1.1-0.4-1.4c0-0.4,0.3-0.8,0.9-1.1c0.6-0.4,1.4-0.6,2.2-0.8
				c0.8-0.2,1.7-0.3,2.5-0.4c0.9,0,1.5,0.1,1.9,0.4c0.9,0.8,1.7,1.3,2.5,1.4c0.8,0.2,2.1,0.2,4,0.1c1.5-0.1,2.5-0.3,3-0.5
				c0.5-0.2,1.3-0.6,2.2-1.2c1.3-0.7,2.1-1.7,2.6-2.7c0.5-1.1,0.6-2.8,0.5-5.2c-0.1-2.7-0.5-5-1.4-6.9c-0.9-1.9-2.4-3.8-4.6-5.7
				c-0.3-0.3-0.7-0.6-1-0.9c-0.3-0.3-0.6-0.5-0.7-0.7c0-0.1-0.4-0.6-1.2-1.4c-0.8-0.8-1.6-1.6-2.5-2.4c-2.3-2.1-4.1-3.9-5.3-5.3
				c-1.2-1.4-2.4-3-3.5-4.8c-1-1.6-1.7-3-2.1-4.2C195.1,183,194.8,181.5,194.6,179.7z"/>
			<path class="st2" d="M147.3,261.2c-1-2.9-1-4.8-0.1-5.8c0.9-1,3.8-2,8.6-3c2.3-0.8,4.8-1.3,7.5-1.7c2.6-0.4,5.2-0.6,7.7-0.7
				c2.5-0.1,4.7,0,6.8,0.2c2,0.2,3.7,0.5,5,0.9c1.9,0.9,3.9,2.7,6,5.1c2.1,2.5,3.7,4.9,4.7,7.2c0.8,2.4,1.3,5.5,1.5,9.2
				c0.3,3.8,0.3,7.8,0.2,12c-0.1,4.2-0.5,8.4-1,12.7c-0.6,4.2-1.3,8-2.1,11.3c-1.4,4.2-2.8,7.9-4.3,11.3c-1.5,3.4-3.1,6.6-4.9,9.7
				c-1.8,3.1-3.9,6.1-6.2,9.1c-2.3,3-5,6.1-8,9.5c-2.4,2.4-4.9,5.4-7.6,8.8c0,0.5,1.5,0.9,4.5,1.2c3,0.3,7.9,0.1,14.6-0.5
				c5.2-0.1,9.3-0.1,12.2,0c2.9,0.1,4.9,0.3,6.2,0.8c1.3,0.5,1.9,1.3,2,2.3c0.1,1,0,2.5-0.1,4.3c0,1.7-0.1,3-0.4,3.9
				c-0.3,0.9-1.3,1.6-3,2.1c-1.7,0.4-4.5,0.7-8.3,0.8c-3.8,0.1-9.1,0.2-16,0.3c-6.5,0.4-11.7,0.6-15.5,0.6c-3.9,0-6.9-0.1-9-0.5
				s-3.7-0.9-4.6-1.6s-1.7-1.7-2.5-3c-1-1.4-1.5-3-1.5-4.8c0-1.7,0.4-3.3,1.4-4.8c2.3-3.8,4.9-7.5,7.7-10.9
				c2.8-3.5,5.9-6.9,9.3-10.3c14.2-14.6,21.6-31.9,22.4-52.1c0.4-4.3,0.5-7.3,0.1-9c-0.4-1.7-0.8-3.4-1.3-5.4
				c-1.5-3.8-3.5-6-6.1-6.7c-2.6-0.7-6.9-0.3-13.1,1.2c-4.3,1-7.3,1.3-8.8,0.7C149.5,265,148.2,263.6,147.3,261.2z"/>
			<path class="st0" d="M151.2,269.7c0.9,0,2,0,3.4-0.1c1.4,0,2.8-0.4,4.2-0.9c4.3-1,7.8-1.4,10.5-1.5c2.7,0,4.3,0.4,4.8,1.3
				c0.5,1,0.3,1.6-0.5,1.9c-0.8,0.3-2.9,1-6.2,1.9c-4.8,1-8.4,1.3-10.7,1c-2.3-0.4-4.2-1.3-5.7-2.7c-1-0.9-1.5-1.4-1.5-1.5
				C149.7,269.1,150.2,269.2,151.2,269.7z"/>
			<path class="st0" d="M200.4,374.6c1.4-0.5,2.4-1.8,3-3.8c0.6-2.1,1.1-4.3,1.6-6.7c0-2.4,0-3.6,0.2-3.9c0.2-0.2,0.8,0.1,1.7,1
				c0.5,1,0.9,2.3,1.4,4.1c0.4,1.8,0.6,3.6,0.7,5.5c-0.3,2.2-0.7,3.9-1.3,5.2c-0.6,1.3-1.9,2.3-3.9,3c-2,0.7-5,1.1-9,1.3
				c-4,0.2-9.4,0.3-16.3,0.4c-6.3,0.1-11.3,0.1-15.1,0.1c-3.8,0-6.9-0.1-9.2-0.3c-2.3-0.2-4-0.5-5.2-1.1c-1.2-0.5-2.2-1.3-3.1-2.2
				c-1.5-0.9-2.1-1.4-2-1.5c0.1-0.1,1.4,0,3.8,0.5c1.1,0.3,4.4,0.4,9.8,0.4c5.4,0,11.1-0.1,17.3-0.3c6.1-0.2,11.8-0.4,16.9-0.7
				C196.7,375.3,199.7,375,200.4,374.6z"/>
			<path class="st0" d="M196.2,260.6c-0.5-0.5-0.9-0.9-1-1.4c-0.1-0.4-0.4-0.9-0.9-1.5c0-0.9,0.1-1.4,0.2-1.4c0.1,0,0.7,0.4,1.7,1.3
				c2.4,3.3,4.3,7.3,5.7,11.7c1.4,4.5,1.9,9.8,1.4,16c0.1,12-1.7,23.5-5.5,34.4c-3.8,10.9-9.7,20.9-17.8,30.1c-1,1-1.7,1.7-2.3,2.3
				c-0.6,0.5-1.1,0.9-1.7,1.2c-0.5,0.2-1.2,0.4-1.8,0.4c-0.7,0-1.6,0.1-2.8,0.1c-2.4,0-3.7-0.1-3.8-0.3c-0.1-0.2,0.8-1.1,2.7-2.6
				c4.5-4.3,8.5-9.3,12.1-14.8c3.6-5.6,6.7-11.4,9.1-17.6c2.5-6.2,4.4-12.6,5.7-19.2c1.3-6.6,2-13.2,1.9-19.7c0-1.6-0.2-3.4-0.4-5.5
				c-0.3-2-0.6-3.9-0.9-5.8c-0.3-1.8-0.7-3.5-1-4.9C196.6,262.1,196.4,261.1,196.2,260.6z"/>
			<path class="st2" d="M209,293.4l3.2,0c0.3,0,0.3,4.7,0.4,5.2c0,0.3,0.3,2.3,0.3,2.6c0.3,1.5,1.3,2.5,3,2.5l1.1,0
				c3.5,0.1,7.7,0.2,7.6-8.8c-0.2-14.1-16-11.5-16.5-22.1c-0.1-0.4-0.2-2.3-0.2-2.7c0.1-3.1,0.4-13.6,8.4-13.7
				c2.7,0.2,6.3,0.9,7.2,4.2c0.7,2.3,0.9,4.6,1,6.9l0,1.2c0,0.2-0.1,0.6-0.4,0.6l-3.2,0c-0.4,0-0.1-0.6-0.2-2.2
				c0-2.2-0.7-6.6-3.6-6.6c-1.9,0-3.9,2.3-4.4,4.1c-0.7,2.2-1.4,8.8,1.1,10.6c3.6,2.8,9.5,5.9,13,11.2c1.6,2.3,1.9,5.1,1.9,7.8
				c0.1,6.8-1.8,13.4-10.5,13.5c-6.4,0.1-9.7-3-9.7-9.5C208.3,296.8,208.3,293.4,209,293.4z"/>
		</g>
		<path class="st0" d="M391.9,308.5c0,0.8-0.3,1.3-1.2,1C390.8,308.8,391.4,308.7,391.9,308.5z"/>
		<path class="st0" d="M392.8,308c-0.2,0.3-0.5,0.6-0.9,0.5C392,307.9,392.4,308,392.8,308z"/>
		<polygon class="st0" points="376.9,296.3 376.9,296.2 376.9,296.3 		"/>
		<path class="st0" d="M362.4,173.9c0,0.1-0.1,0.1-0.1,0.2C362.2,173.9,362.2,173.8,362.4,173.9L362.4,173.9z"/>
		<path class="st0" d="M325.6,402.3c0,0.1,0,0.1,0,0.2C325.6,402.4,325.6,402.4,325.6,402.3L325.6,402.3z"/>
		<path class="st0" d="M276.4,220.4c0.8-0.2,1,0.3,1.2,0.9C277,221.2,276.7,220.8,276.4,220.4z"/>
		<g>
			<path class="st0" d="M272.3,212.7c2.5-0.3,4.7-0.5,6.8-0.7c4.8-0.6,6.6-2.6,6.8-7.4c0.1-1.6,0-3.2,0.2-4.8
				c1.3,1.1,2.5,2.2,3.3,3.6c0.5,0.8,0.5,1.7,0.2,2.5c-0.6,1.6-1.2,3.2-2.2,4.7c-1,1.6-2.5,2.4-4.4,2.4c-1.7,0.1-3.3,0.5-5,0.8
				C276.3,214.1,274.3,214.1,272.3,212.7z"/>
			<g>
				<path class="st0" d="M413.9,241.5c-0.3-7-1.7-13.9-3.3-20.7c-1.4-3-2.4-6.2-3.8-9.2c-3-6.5-6.8-12.4-11.3-18
					c-5.2-6.3-11.4-11.6-18.2-16.2c-1.1-0.7-2.3-1.5-3.7-1c1.3,1.3,2.6,2.5,4,3.7c9.2,8,17.1,17.1,23.4,27.7
					c6.7,11.2,10.5,23.2,10.5,36.4c0,4.5-0.5,9-1,13.5c-0.9,9.1-2.5,18.1-5.2,26.9c-2.1,6.9-4.9,13.5-8.6,19.7
					c3.8-0.8,6.1-3.4,7.5-6.7c2.2-5.2,3.4-10.6,5-16c0.5-1.9,0.8-3.8,1.7-5.6c0-0.2,0-0.4,0-0.7c1-5.8,1.9-11.7,2.7-17.6
					c0.2-1.8,0.1-3.7,0.8-5.5c0-3.4,0-6.8,0-10.1C413.8,242,413.9,241.7,413.9,241.5z"/>
				<path class="st0" d="M363.8,371.1c0.4-5.5,1-11,1.9-16.5c2-11.1,4.1-22.1,7.2-33c1.1-3.8,2.1-7.7,2-11.8c-1,0.3-1.3,1.1-1.6,1.9
					c-0.9,2.2-1.8,4.4-2.6,6.6c-6,15.7-9.4,32-9.9,48.8c-0.1,2.6,0,5.1-0.1,7.7c0,2.1-0.9,2.9-3,3c-1.7,0-3.3-0.1-4.9-0.3
					c-14.5-1.9-26.7-8.3-37.3-18.1c-1.1-1-1.4-2.2-0.8-3.6c0.3-0.8,0.6-1.6,0.8-2.5c1.4-5.6,0.8-11.2,0.4-16.9
					c-0.1-1.4-0.2-2.8-0.3-4.2c-0.1-1.2-0.8-1.7-2-1.3c-1.3,0.4-2.7,0.9-4,1.3c-2.3,0.8-4.5,1.7-6.9,1.9c-1,0.1-1.3,0-0.9-1.1
					c1.6-4.8,3.2-9.6,4.3-14.5c1.2-5.3,2.3-10.7,1.5-16.2c-0.8-5.9-4.7-10.2-10.5-11.6c-5.3-1.3-10.6-0.3-15.8,0.8
					c-1,0.2-1.3,0-1-0.9c0.3-1.3,0.6-2.6,1-3.8c1.6-5,4-9.6,8.7-12.5c1.4-0.9,2.7-1,4.2-0.2c0.8,0.4,1.6,0.8,2.6,0.8
					c2.5,0.1,5.1,0.2,7.6,0.3c6.8,0.2,13.6,0.5,20.2,1.9c13,2.7,25.6,7,38.5,10.2c1.2,0.3,2.3,0.5,3.3-0.5c-0.6-0.5-1.2-1-1.9-1.2
					c-9.3-2.8-18.7-5.7-28-8.4c-10.7-3.1-21.5-5.4-32.7-5.7c-2.2-0.1-4.5,0.1-6.7-0.2c-3.2-0.4-4.9-2.2-4.9-5.4
					c-0.1-4.2,1.5-7.9,3-11.7c2.5-6.3,5.6-12.3,7.6-18.8c2.2-7.2,2.3-14.3-0.9-21.3c-0.9-2-1-2-2.7-0.9c-0.2-1.5-0.4-3.1-0.7-4.6
					c-0.5-2.4-0.3-4.6,0.8-6.9c2.5-4.8,5.1-9.6,7.6-14.3c1.7-3.1,3.8-5.6,6.6-7.7c2.3-1.6,3.8-1.8,5.8,0.2c3.7,3.5,7.9,6.3,12.3,8.8
					c2.3,1.3,4.5,2.9,7,3.9c2.7,1.1,5.9,0.5,7.6-1.5c-4.1-0.3-8-1.4-11.6-3.3c-5.3-2.8-9.7-6.8-14.1-10.7c-2.2-2-3.7-4.2-4.3-7.1
					c-0.7-2.8-1.6-5.4-3.3-7.7c-1.3-1.8-2.6-2.5-4.5-1.7c-2.6,1.1-4.9,0.5-7.2-0.6c-0.7-0.4-0.8-0.6-0.3-1.3c0.7-1,1.7-1.9,2.3-3.1
					c0.3-0.7,0.7-1.4-0.6-1.5c-0.6,0-1-0.6-1.3-1.1c-0.4-0.9-0.9-1.8-1.6-2.5c-0.7-0.7-0.6-1.5,0.3-2.1c0.3-0.2,0.6-0.4,0.9-0.6
					c0.6-0.4,1.3-0.8,1-1.7c-0.3-0.9-1-0.8-1.7-0.8c-1.1,0-2.3,0.2-3.3-0.8c0.3-0.1,0.6-0.1,0.9-0.1c3.2-0.7,4.6-2.5,4.6-5.8
					c0-0.6,0-1.3-0.1-1.9c-0.4-3.6,0-7.1,0.8-10.6c1.8-7.6,6.2-13.7,11.4-19.4c7.4-8.1,16.5-10.2,26.9-8.2c2.4,0.5,4.8,1.2,7.4,1.9
					c-2.7-3-8.2-5.3-12.8-5.4c-7.9-0.3-14.9,2.2-21.2,7.1c-3.2,2.5-5.8,5.5-8.3,8.6c-0.2,1-0.7,1.8-1.1,2.6c-1.2,2-2.3,4-3.2,6.2
					c-2.3,5.5-3.6,11.1-2.8,17.1c0.4,3.2-1.3,5-4.4,4.9c-0.6,0-1.3-0.1-1.9-0.2c-1.4-0.3-1.8,0.2-1.3,1.5c0.6,1.4,1,2.9,1.3,4.4
					c0.6,2.5,1.4,4.9,3.5,6.7c2.6,2.2,2.6,2.2,0.5,4.8c-0.9,1.1-0.8,2.2,0.4,2.7c3.4,1.5,6.8,2.6,10.5,1.5c2.1-0.6,2.8-0.2,3.8,1.8
					c1.3,2.7,2.3,5.5,2.7,8.5c0.4,2.6,0.3,3.1-2.1,4.2c-1.8,0.8-3.3,1.9-4.5,3.4c-1.4,1.7-2.5,3.5-3.6,5.3c-1.6,2.8-2.8,5.8-4.7,8.5
					c-2.2,3-4.9,3.8-8.1,2.2c-1.4-0.7-2.7-1.6-3.7-2.7c-2.1-2.2-4.4-4.2-7-5.6c-6.3-3.3-12.8-2.5-17.1,3.8
					c-4.4,6.4-5.3,13.7-4.2,21.2c0.5,3.6,2.6,6.4,5.6,8.4c2,1.3,3.7,0.7,4.7-1.4c0.4-0.8,0.5-1.6,0.8-2.5c-0.8-0.7-1-1.9-1.9-2.4
					c-0.3-0.2-0.7-0.6-1.1-0.3c-0.5,0.3,0,0.8,0.1,1.1c0.1,0.3,0.3,0.6,0.4,0.9c0.3,0.6,0.8,1.3,0.1,1.9c-0.7,0.6-1.6,0.6-2.4,0.3
					c-0.9-0.4-1.5-1.2-2-2c-1.4-1.9-2.1-4.1-2.3-6.5c-0.5-5.6,0.3-11,3.2-15.9c3.3-5.7,9.1-7.2,14.9-4c2.8,1.5,5.1,3.6,7.6,5.5
					c2.3,1.7,4.7,3.3,7.4,4.2c0.9,0.3,1.4,0.9,1.3,1.9c-0.4,5.7,1,10.8,3.9,15.7c2.9,4.9,2.4,10.2,0.9,15.5c-0.5,1.6-1.5,2-3.4,1.5
					c-3.7-1.2-7-3.2-10-5.7c-3.1-2.5-6.2-5-9-7.9c-0.2-0.2-0.5-0.2-0.8-0.2c0.6,1.4,1,2.9,2.1,4c1.2,1.2,2.3,2.4,3.4,3.7
					c3.2,3.8,6.9,7,11.7,8.7c3,1.1,3.5,2.4,2.2,5.4c-1.1,2.7-2.3,5.3-3.5,8c-2.4,5.6-4.3,11.2-3.9,17.4c0.1,1.7-0.6,2.9-2,3.9
					c-4.2,3.1-7.3,7.1-8.3,12.4c-0.3,1.6-0.7,3.1-1.4,4.6c-2.5,5.2-6.9,8.3-11.9,10.7c-1.1,0.5-2.3,0.6-3.6,0.2
					c-2.2-0.6-4.3-1.6-6.5-2.1c-5.3-1.2-10.1-0.4-13.9,3.8c-8.9,10.1-8.6,22.4-1.4,32.9c3.2,4.6,7.4,8.1,12,11.3
					c0.3,0.2,0.7,0.3,0.6,0.7c-1.3,0.2-2.5,0.4-3.8,0.7c-10.7,2.2-19.5,7.4-26.2,16c-4.3,5.5-7.4,11.7-9.5,18.3
					c-1.9,6-3.1,12.2-3.9,18.5c-0.1,0.4-0.1,0.8-0.2,1.2c-0.6,5.2,1.5,24.6,12.8,35.7c1.4,0.1,2.8,0.2,4.2,0.3
					c-6.8-6.7-13.3-18-14.8-36.2c0.3-0.3,0.5-0.8,0.6-1.6c0.1-0.6,0.2-1.3,0.2-1.9c1.1-10.2,4.4-19.8,9.9-28.4
					c7.8-12.2,19.1-19,33.4-20.5c10.4-1,20.3,1.4,29.5,6.3c11.2,6,19.8,14.4,25.3,26c2.6,5.4,3.8,11.2,4.3,17.2
					c0.3,10.6-3.2,20.1-6.7,27.1c1.7-0.6,3.4-1.3,5.1-2c3.5-8.4,6.3-18.7,6-21.9c-0.9-11.7-4.8-22.3-12.1-31.6
					c-3.8-4.8-8.4-8.8-13.3-12.5c-4.7-3.5-4.4-10.7,0.6-13.8c1.3-0.8,2.2-1.6,2.9-3c1.6-3.3,4.7-4.5,8.1-5.2c2-0.4,3.9-0.9,5.8-1.3
					c1.5-0.3,2.4,0.3,2.5,1.7c0.2,4.7,0.6,9.4-0.3,14c-0.3,1.5-0.6,2.9-1.3,4.3c-1.1,2.4-0.5,4.5,1.2,6.4
					c5.1,5.7,10.9,10.4,18.1,13.4c3,1.2,4.1,3.3,4.2,6.3c0.2,4.9,0.8,9.8,1.5,14.7l0,0l0.1,0.7c0,0.1,0,0.3,0.1,0.4c0,0,0,0,0,0
					l2.4,14.4c0.9-0.5,1.7-1,2.5-1.5l-3.3-19.1l0,0.1c-0.3-3-0.6-6-0.8-9c-0.3-3.4,0.4-3.9,3.7-2.9c5.6,1.8,11.2,2.7,17.1,1.4
					c2-0.4,2.9,0.2,3.6,2c1.2,3.4,2.1,6.9,2.5,10.4c0,0.3,0,0.7,0.1,1c0.8-0.7,1.6-1.3,2.5-2c-0.4-2.7-1-5.4-1.8-8
					C364.7,379.2,363.5,375.3,363.8,371.1z M287.8,352c-0.4,1-1,1.4-2,0.8c-6.8-4.3-14.4-5.8-22.3-6c-1.3,0-2.6-0.1-4-0.1
					c-1.8,0-3.5-0.4-4.9-1.4c-5.6-4.1-10.8-8.8-13.9-15.2c-4.4-9.3-3.4-18.7,4.2-26c1.1-1.1,1.8-1.4,3.9-1.4
					c2.4,0.1,4.8,1.5,6.9,3.5c5.6,5.4,10.6,11.2,14,18.3c2.8,5.9,7.2,10.8,11.5,15.7c2.5,2.8,4.9,5.7,6.2,9.2
					C287.8,350.3,288.1,351.1,287.8,352z M295.9,339.4c-0.5,1.2-1.3,2.3-2.8,2.5c-1.3,0.1-1.9-0.4-1.8-1.7c0-2.2-0.7-4.2-1.3-6.2
					c-0.3-0.9-0.8-1.6-1.7-2.2c0.4,3.7,1.1,7.3,0,11c-4-3.2-7.1-7-9.9-11c-3.6-5.2-6.6-10.8-10.1-16c-3.3-5-7-9.6-11.7-13.4
					c-0.1-0.1-0.1-0.2-0.3-0.4c4.4,0.7,8.2,2.6,11.6,5.2c3.6,2.7,6.8,5.9,10.7,8.3c0.3,0.2,0.6,0.6,1.1,0.5c-1.9-3.7-4.7-6.5-7.8-9
					c-0.7-0.6-1.4-1.1-2.1-1.8c-0.8-0.8-1-1.8-0.1-2.7c5.9-5.6,12.2-10.4,20.9-10.3c3.4,0,6.8,0.8,9.7,2.8c3.2,2.2,4.3,5.5,4.4,9.2
					c0.1,8.9-1.9,17.5-5,25.8C298.5,333.2,297.2,336.3,295.9,339.4z"/>
				<path class="st0" d="M398.7,278.3c0.5-0.5,0-0.8-0.3-1.1c-1-1.2-2.3-2.1-3.7-2.7c-2.1-0.9-4.2-1.3-6.5-1.6
					c-1.6-0.2-1.9-0.7-1.6-2.3c0.6-2.9,0.5-5.8,0.3-8.7c-0.4-4.2-1.4-8.4-0.8-12.6c0.2-1.6-0.2-3.1-1.3-4.4
					c-2.9-3.7-4.1-7.9-4.1-12.6c-0.1-4.6,0.9-9.1,1-13.6c0-2.2,0.1-4.5,0-6.7c0-1.4-1.1-2-2.1-1.4c-0.4,0.3-0.7,0.8-0.8,1.2
					c-0.7,2.4-2,4.7-2,7.3c0,0.5-0.2,1-0.4,1.4c-0.6,1.4-1,1.5-2.1,0.4c-2.6-2.5-4.4-5.5-6-8.7c-0.8-1.7-1.7-3.4-2.5-5
					c0,0.8,0.1,1.6,0.3,2.3c1.6,7.3,4.4,14,10.1,19.3c0.4,0.3,0.5,0.7,0.5,1.2c-0.2,3.5,0.7,6.7,2,9.9c1.4,3.5,3.1,6.8,4,10.4
					c1,4.4,0.9,9,0.8,13.5c-0.1,6.1-1.5,11.9-5,17c-1.7,2.4-2.5,5-3.1,7.8c-0.6,2.8-0.2,5.3,1.6,7.5c-0.2-5.9,2.3-11.1,5.1-16
					c2.2-3.9,5.3-5,9.6-4c2,0.5,4,1.2,5.9,2.2C397.9,278.6,398.3,278.6,398.7,278.3z"/>
				<path class="st0" d="M376.9,296.3C376.9,296.3,376.9,296.3,376.9,296.3C376.9,296.3,376.9,296.3,376.9,296.3L376.9,296.3z"/>
				<path class="st0" d="M338.6,139.1c-1.4,0.3-2.7,0.6-3.5,2c-0.5,0.9-1.2,0.9-2.1,0.3c-1-0.7-1.8-1.5-2.4-2.5
					c-0.5-0.9-1-1.8-2-2.5c-2.4,7.8-6.3,14.6-11.3,20.9c6.5-2.6,11.3-6.7,12.9-13.8c5.8,3,10.8,3.4,16.2,2.7c0.3,0,0.7,0.1,0.8-0.2
					c0.1-0.4-0.2-0.7-0.5-0.9c-0.8-0.5-1.6-0.9-2.3-1.4c-0.3-0.2-0.7-0.4-0.5-0.9c0.1-0.4,0.6-0.2,0.8-0.2c1.8,0,3.6,0,5.6,0
					c-0.5-1-1.4-1.2-2.1-1.7c-1-0.8-0.9-1.2,0.1-1.8c1.1-0.6,2.4-0.9,3.6-1.1c1.6-0.4,3.3-0.8,4.9-2.2c-0.7,0-1.1,0-1.5,0.1
					C349.7,136.7,344.1,137.8,338.6,139.1z"/>
				<path class="st0" d="M367.2,138.6c-2.6,0.3-4.1,1.8-5.5,4.2c1.8-0.5,3.3-0.9,4.8-1.3c2.4-0.6,4.8-1,7.2,0.2
					c0.4-1.9,0.6-3.9,0.7-5.8c0.2-6.2-1.1-12.2-3.9-17.8c-1.3-2.6-3.1-4.9-4.6-7.4c-1.1-0.7-2.2-1.4-3.6-2.3
					c0.3,0.5,0.4,0.7,0.5,0.9c5.1,7.4,7.4,15.7,8.4,24.5C371.5,137.2,370.6,138.2,367.2,138.6z"/>
				<path class="st0" d="M367.7,164.4c1.4-0.8,2.6-1.9,3.6-3.1c3.9-4.6,4.9-9.9,3.1-15.7c-0.1,0.2-0.2,0.3-0.2,0.5
					c-0.6,4.3-2.3,8.2-3.6,12.3c-0.9,2.8-2.5,4-5.3,4c-1.3,0-1.5,0.6-1.4,1.6c0.2,1.8-0.2,3.4-0.5,5.1c-0.3,1.6-1,3.1-0.9,4.7
					c1.1-0.8,1.6-2.1,2.7-3c0.4-0.9,0.6-1.9,0.6-2.9C365.7,166.5,366.4,165.3,367.7,164.4z"/>
				<path class="st0" d="M362.4,173.9C362.4,173.9,362.4,173.9,362.4,173.9C362.4,173.9,362.4,173.9,362.4,173.9L362.4,173.9z"/>
				<path class="st0" d="M386.4,308.5c0-0.9,0-1.9,0-2.8c-0.3,0-0.4,0.3-0.6,0.5c-1.7,1.9-2.5,1.9-3.9-0.2c-0.4-0.6-0.8-1.2-1.6-1.4
					c-0.9,3.6-0.2,5.2,3.2,7c0.6,0.3,1.3,0.7,2,1c2.6,1.1,4.8-0.2,5.4-3c-0.5,0.2-1,0.5-1.6,0.7
					C387.4,310.9,386.5,310.4,386.4,308.5z"/>
			</g>
		</g>
	</g>
</g>
</svg>
